<?xml version="1.0" encoding="utf-8" standalone="no"?>
<!DOCTYPE svg PUBLIC "-//W3C//DTD SVG 1.1//EN"
  "http://www.w3.org/Graphics/SVG/1.1/DTD/svg11.dtd">
<!-- Created with matplotlib (https://matplotlib.org/) -->
<svg height="644.4pt" version="1.1" viewBox="0 0 878.4 644.4" width="878.4pt" xmlns="http://www.w3.org/2000/svg" xmlns:xlink="http://www.w3.org/1999/xlink">
 <metadata>
  <rdf:RDF xmlns:cc="http://creativecommons.org/ns#" xmlns:dc="http://purl.org/dc/elements/1.1/" xmlns:rdf="http://www.w3.org/1999/02/22-rdf-syntax-ns#">
   <cc:Work>
    <dc:type rdf:resource="http://purl.org/dc/dcmitype/StillImage"/>
    <dc:date>2020-11-04T14:37:02.881201</dc:date>
    <dc:format>image/svg+xml</dc:format>
    <dc:creator>
     <cc:Agent>
      <dc:title>Matplotlib v3.3.1, https://matplotlib.org/</dc:title>
     </cc:Agent>
    </dc:creator>
   </cc:Work>
  </rdf:RDF>
 </metadata>
 <defs>
  <style type="text/css">*{stroke-linecap:butt;stroke-linejoin:round;}</style>
 </defs>
 <g id="figure_1">
  <g id="patch_1">
   <path d="M 0 644.4
L 878.4 644.4
L 878.4 0
L 0 0
z
" style="fill:#ffffff;"/>
  </g>
  <g id="patch_2">
   <path d="M 117 644.4
L 761.4 644.4
L 761.4 0
L 117 0
z
" style="fill:#ffffff;"/>
  </g>
  <g id="pane3d_1">
   <g id="patch_3">
    <path d="M 486.166943 345.090381
L 736.475655 472.38941
L 746.472116 181.568436
L 487.381931 74.443512
" style="fill:#f2f2f2;opacity:0.5;stroke:#f2f2f2;stroke-linejoin:miter;"/>
   </g>
  </g>
  <g id="pane3d_2">
   <g id="patch_4">
    <path d="M 486.166943 345.090381
L 165.588687 438.237516
L 156.027602 152.770118
L 487.381931 74.443512
" style="fill:#e6e6e6;opacity:0.5;stroke:#e6e6e6;stroke-linejoin:miter;"/>
   </g>
  </g>
  <g id="pane3d_3">
   <g id="patch_5">
    <path d="M 486.166943 345.090381
L 165.588687 438.237516
L 403.365709 583.234917
L 736.475655 472.38941
" style="fill:#ececec;opacity:0.5;stroke:#ececec;stroke-linejoin:miter;"/>
   </g>
  </g>
  <g id="axis3d_1">
   <g id="line2d_1">
    <path d="M 736.475655 472.38941
L 403.365709 583.234917
" style="fill:none;stroke:#000000;stroke-linecap:square;stroke-width:0.8;"/>
   </g>
   <g id="Line3DCollection_1">
    <path d="M 724.98928 476.211611
L 475.052165 348.319888
L 475.916161 77.153827
" style="fill:none;stroke:#b0b0b0;stroke-width:0.8;"/>
    <path d="M 688.496224 488.355023
L 439.768526 358.571893
L 439.507556 85.760211
" style="fill:none;stroke:#b0b0b0;stroke-width:0.8;"/>
    <path d="M 651.438275 500.686408
L 403.98352 368.969575
L 402.564891 94.492837
" style="fill:none;stroke:#b0b0b0;stroke-width:0.8;"/>
    <path d="M 613.802216 513.210165
L 367.686387 379.516061
L 365.076329 103.354505
" style="fill:none;stroke:#b0b0b0;stroke-width:0.8;"/>
    <path d="M 575.574411 525.930831
L 330.866053 390.214568
L 327.02968 112.348095
" style="fill:none;stroke:#b0b0b0;stroke-width:0.8;"/>
    <path d="M 536.740795 538.853087
L 293.511123 401.068406
L 288.412388 121.476575
" style="fill:none;stroke:#b0b0b0;stroke-width:0.8;"/>
    <path d="M 497.286851 551.981763
L 255.609869 412.080985
L 249.211518 130.743003
" style="fill:none;stroke:#b0b0b0;stroke-width:0.8;"/>
    <path d="M 457.197596 565.321844
L 217.150219 423.255811
L 209.413741 140.15053
" style="fill:none;stroke:#b0b0b0;stroke-width:0.8;"/>
    <path d="M 416.45756 578.878479
L 178.119739 434.596497
L 169.005319 149.702404
" style="fill:none;stroke:#b0b0b0;stroke-width:0.8;"/>
   </g>
   <g id="xtick_1">
    <g id="line2d_2">
     <path d="M 722.815347 475.099218
L 729.346342 478.4411
" style="fill:none;stroke:#000000;stroke-linecap:square;stroke-width:0.8;"/>
    </g>
    <g id="text_1">
     <!-- −80 -->
     <g transform="translate(723.452735 498.254902)scale(0.1 -0.1)">
      <defs>
       <path d="M 10.59375 35.5
L 73.1875 35.5
L 73.1875 27.203125
L 10.59375 27.203125
z
" id="DejaVuSans-8722"/>
       <path d="M 31.78125 34.625
Q 24.75 34.625 20.71875 30.859375
Q 16.703125 27.09375 16.703125 20.515625
Q 16.703125 13.921875 20.71875 10.15625
Q 24.75 6.390625 31.78125 6.390625
Q 38.8125 6.390625 42.859375 10.171875
Q 46.921875 13.96875 46.921875 20.515625
Q 46.921875 27.09375 42.890625 30.859375
Q 38.875 34.625 31.78125 34.625
z
M 21.921875 38.8125
Q 15.578125 40.375 12.03125 44.71875
Q 8.5 49.078125 8.5 55.328125
Q 8.5 64.0625 14.71875 69.140625
Q 20.953125 74.21875 31.78125 74.21875
Q 42.671875 74.21875 48.875 69.140625
Q 55.078125 64.0625 55.078125 55.328125
Q 55.078125 49.078125 51.53125 44.71875
Q 48 40.375 41.703125 38.8125
Q 48.828125 37.15625 52.796875 32.3125
Q 56.78125 27.484375 56.78125 20.515625
Q 56.78125 9.90625 50.3125 4.234375
Q 43.84375 -1.421875 31.78125 -1.421875
Q 19.734375 -1.421875 13.25 4.234375
Q 6.78125 9.90625 6.78125 20.515625
Q 6.78125 27.484375 10.78125 32.3125
Q 14.796875 37.15625 21.921875 38.8125
z
M 18.3125 54.390625
Q 18.3125 48.734375 21.84375 45.5625
Q 25.390625 42.390625 31.78125 42.390625
Q 38.140625 42.390625 41.71875 45.5625
Q 45.3125 48.734375 45.3125 54.390625
Q 45.3125 60.0625 41.71875 63.234375
Q 38.140625 66.40625 31.78125 66.40625
Q 25.390625 66.40625 21.84375 63.234375
Q 18.3125 60.0625 18.3125 54.390625
z
" id="DejaVuSans-56"/>
       <path d="M 31.78125 66.40625
Q 24.171875 66.40625 20.328125 58.90625
Q 16.5 51.421875 16.5 36.375
Q 16.5 21.390625 20.328125 13.890625
Q 24.171875 6.390625 31.78125 6.390625
Q 39.453125 6.390625 43.28125 13.890625
Q 47.125 21.390625 47.125 36.375
Q 47.125 51.421875 43.28125 58.90625
Q 39.453125 66.40625 31.78125 66.40625
z
M 31.78125 74.21875
Q 44.046875 74.21875 50.515625 64.515625
Q 56.984375 54.828125 56.984375 36.375
Q 56.984375 17.96875 50.515625 8.265625
Q 44.046875 -1.421875 31.78125 -1.421875
Q 19.53125 -1.421875 13.0625 8.265625
Q 6.59375 17.96875 6.59375 36.375
Q 6.59375 54.828125 13.0625 64.515625
Q 19.53125 74.21875 31.78125 74.21875
z
" id="DejaVuSans-48"/>
      </defs>
      <use xlink:href="#DejaVuSans-8722"/>
      <use x="83.789062" xlink:href="#DejaVuSans-56"/>
      <use x="147.412109" xlink:href="#DejaVuSans-48"/>
     </g>
    </g>
   </g>
   <g id="xtick_2">
    <g id="line2d_3">
     <path d="M 686.331478 487.225484
L 692.834944 490.618914
" style="fill:none;stroke:#000000;stroke-linecap:square;stroke-width:0.8;"/>
    </g>
    <g id="text_2">
     <!-- −60 -->
     <g transform="translate(686.960326 510.532334)scale(0.1 -0.1)">
      <defs>
       <path d="M 33.015625 40.375
Q 26.375 40.375 22.484375 35.828125
Q 18.609375 31.296875 18.609375 23.390625
Q 18.609375 15.53125 22.484375 10.953125
Q 26.375 6.390625 33.015625 6.390625
Q 39.65625 6.390625 43.53125 10.953125
Q 47.40625 15.53125 47.40625 23.390625
Q 47.40625 31.296875 43.53125 35.828125
Q 39.65625 40.375 33.015625 40.375
z
M 52.59375 71.296875
L 52.59375 62.3125
Q 48.875 64.0625 45.09375 64.984375
Q 41.3125 65.921875 37.59375 65.921875
Q 27.828125 65.921875 22.671875 59.328125
Q 17.53125 52.734375 16.796875 39.40625
Q 19.671875 43.65625 24.015625 45.921875
Q 28.375 48.1875 33.59375 48.1875
Q 44.578125 48.1875 50.953125 41.515625
Q 57.328125 34.859375 57.328125 23.390625
Q 57.328125 12.15625 50.6875 5.359375
Q 44.046875 -1.421875 33.015625 -1.421875
Q 20.359375 -1.421875 13.671875 8.265625
Q 6.984375 17.96875 6.984375 36.375
Q 6.984375 53.65625 15.1875 63.9375
Q 23.390625 74.21875 37.203125 74.21875
Q 40.921875 74.21875 44.703125 73.484375
Q 48.484375 72.75 52.59375 71.296875
z
" id="DejaVuSans-54"/>
      </defs>
      <use xlink:href="#DejaVuSans-8722"/>
      <use x="83.789062" xlink:href="#DejaVuSans-54"/>
      <use x="147.412109" xlink:href="#DejaVuSans-48"/>
     </g>
    </g>
   </g>
   <g id="xtick_3">
    <g id="line2d_4">
     <path d="M 649.283262 499.539323
L 655.757559 502.985504
" style="fill:none;stroke:#000000;stroke-linecap:square;stroke-width:0.8;"/>
    </g>
    <g id="text_3">
     <!-- −40 -->
     <g transform="translate(649.901962 523.000174)scale(0.1 -0.1)">
      <defs>
       <path d="M 37.796875 64.3125
L 12.890625 25.390625
L 37.796875 25.390625
z
M 35.203125 72.90625
L 47.609375 72.90625
L 47.609375 25.390625
L 58.015625 25.390625
L 58.015625 17.1875
L 47.609375 17.1875
L 47.609375 0
L 37.796875 0
L 37.796875 17.1875
L 4.890625 17.1875
L 4.890625 26.703125
z
" id="DejaVuSans-52"/>
      </defs>
      <use xlink:href="#DejaVuSans-8722"/>
      <use x="83.789062" xlink:href="#DejaVuSans-52"/>
      <use x="147.412109" xlink:href="#DejaVuSans-48"/>
     </g>
    </g>
   </g>
   <g id="xtick_4">
    <g id="line2d_5">
     <path d="M 611.657504 512.045123
L 618.100926 515.545294
" style="fill:none;stroke:#000000;stroke-linecap:square;stroke-width:0.8;"/>
    </g>
    <g id="text_4">
     <!-- −20 -->
     <g transform="translate(612.264375 535.662886)scale(0.1 -0.1)">
      <defs>
       <path d="M 19.1875 8.296875
L 53.609375 8.296875
L 53.609375 0
L 7.328125 0
L 7.328125 8.296875
Q 12.9375 14.109375 22.625 23.890625
Q 32.328125 33.6875 34.8125 36.53125
Q 39.546875 41.84375 41.421875 45.53125
Q 43.3125 49.21875 43.3125 52.78125
Q 43.3125 58.59375 39.234375 62.25
Q 35.15625 65.921875 28.609375 65.921875
Q 23.96875 65.921875 18.8125 64.3125
Q 13.671875 62.703125 7.8125 59.421875
L 7.8125 69.390625
Q 13.765625 71.78125 18.9375 73
Q 24.125 74.21875 28.421875 74.21875
Q 39.75 74.21875 46.484375 68.546875
Q 53.21875 62.890625 53.21875 53.421875
Q 53.21875 48.921875 51.53125 44.890625
Q 49.859375 40.875 45.40625 35.40625
Q 44.1875 33.984375 37.640625 27.21875
Q 31.109375 20.453125 19.1875 8.296875
z
" id="DejaVuSans-50"/>
      </defs>
      <use xlink:href="#DejaVuSans-8722"/>
      <use x="83.789062" xlink:href="#DejaVuSans-50"/>
      <use x="147.412109" xlink:href="#DejaVuSans-48"/>
     </g>
    </g>
   </g>
   <g id="xtick_5">
    <g id="line2d_6">
     <path d="M 573.440591 524.747406
L 579.851363 528.302846
" style="fill:none;stroke:#000000;stroke-linecap:square;stroke-width:0.8;"/>
    </g>
    <g id="text_5">
     <!-- 0 -->
     <g transform="translate(581.404971 548.525076)scale(0.1 -0.1)">
      <use xlink:href="#DejaVuSans-48"/>
     </g>
    </g>
   </g>
   <g id="xtick_6">
    <g id="line2d_7">
     <path d="M 534.618482 537.65084
L 540.994755 541.262869
" style="fill:none;stroke:#000000;stroke-linecap:square;stroke-width:0.8;"/>
    </g>
    <g id="text_6">
     <!-- 20 -->
     <g transform="translate(539.386192 561.591495)scale(0.1 -0.1)">
      <use xlink:href="#DejaVuSans-50"/>
      <use x="63.623047" xlink:href="#DejaVuSans-48"/>
     </g>
    </g>
   </g>
   <g id="xtick_7">
    <g id="line2d_8">
     <path d="M 495.176686 550.760241
L 501.516534 554.430221
" style="fill:none;stroke:#000000;stroke-linecap:square;stroke-width:0.8;"/>
    </g>
    <g id="text_7">
     <!-- 40 -->
     <g transform="translate(499.927057 574.867045)scale(0.1 -0.1)">
      <use xlink:href="#DejaVuSans-52"/>
      <use x="63.623047" xlink:href="#DejaVuSans-48"/>
     </g>
    </g>
   </g>
   <g id="xtick_8">
    <g id="line2d_9">
     <path d="M 455.100248 564.080581
L 461.401665 567.809917
" style="fill:none;stroke:#000000;stroke-linecap:square;stroke-width:0.8;"/>
    </g>
    <g id="text_8">
     <!-- 60 -->
     <g transform="translate(459.831274 588.356788)scale(0.1 -0.1)">
      <use xlink:href="#DejaVuSans-54"/>
      <use x="63.623047" xlink:href="#DejaVuSans-48"/>
     </g>
    </g>
   </g>
   <g id="xtick_9">
    <g id="line2d_10">
     <path d="M 414.373724 577.616992
L 420.634621 581.407137
" style="fill:none;stroke:#000000;stroke-linecap:square;stroke-width:0.8;"/>
    </g>
    <g id="text_9">
     <!-- 80 -->
     <g transform="translate(419.083308 602.06595)scale(0.1 -0.1)">
      <use xlink:href="#DejaVuSans-56"/>
      <use x="63.623047" xlink:href="#DejaVuSans-48"/>
     </g>
    </g>
   </g>
  </g>
  <g id="axis3d_2">
   <g id="line2d_11">
    <path d="M 165.588687 438.237516
L 403.365709 583.234917
" style="fill:none;stroke:#000000;stroke-linecap:square;stroke-width:0.8;"/>
   </g>
   <g id="Line3DCollection_2">
    <path d="M 496.153266 78.070158
L 494.663875 349.41165
L 173.616236 443.132748
" style="fill:none;stroke:#b0b0b0;stroke-width:0.8;"/>
    <path d="M 524.096292 89.623643
L 521.722008 363.172553
L 199.200132 458.733913
" style="fill:none;stroke:#b0b0b0;stroke-width:0.8;"/>
    <path d="M 552.59051 101.405028
L 549.297086 377.196359
L 225.30495 474.652737
" style="fill:none;stroke:#b0b0b0;stroke-width:0.8;"/>
    <path d="M 581.652393 113.421122
L 577.404068 391.490674
L 251.946761 490.899023
" style="fill:none;stroke:#b0b0b0;stroke-width:0.8;"/>
    <path d="M 611.299075 125.67901
L 606.058493 406.0634
L 279.142308 507.482979
" style="fill:none;stroke:#b0b0b0;stroke-width:0.8;"/>
    <path d="M 641.548386 138.186064
L 635.276512 420.922753
L 306.909036 524.415243
" style="fill:none;stroke:#b0b0b0;stroke-width:0.8;"/>
    <path d="M 672.418889 150.949961
L 665.074918 436.077272
L 335.26513 541.706906
" style="fill:none;stroke:#b0b0b0;stroke-width:0.8;"/>
    <path d="M 703.929918 163.978693
L 695.471178 451.53584
L 364.229557 559.369532
" style="fill:none;stroke:#b0b0b0;stroke-width:0.8;"/>
    <path d="M 736.101617 177.28059
L 726.483466 467.307701
L 393.822103 577.415188
" style="fill:none;stroke:#b0b0b0;stroke-width:0.8;"/>
   </g>
   <g id="xtick_10">
    <g id="line2d_12">
     <path d="M 176.348723 442.335073
L 168.142799 444.730568
" style="fill:none;stroke:#000000;stroke-linecap:square;stroke-width:0.8;"/>
    </g>
    <g id="text_10">
     <!-- −80 -->
     <g transform="translate(151.650956 463.648884)scale(0.1 -0.1)">
      <use xlink:href="#DejaVuSans-8722"/>
      <use x="83.789062" xlink:href="#DejaVuSans-56"/>
      <use x="147.412109" xlink:href="#DejaVuSans-48"/>
     </g>
    </g>
   </g>
   <g id="xtick_11">
    <g id="line2d_13">
     <path d="M 201.946828 457.920083
L 193.69815 460.364118
" style="fill:none;stroke:#000000;stroke-linecap:square;stroke-width:0.8;"/>
    </g>
    <g id="text_11">
     <!-- −60 -->
     <g transform="translate(177.147702 479.397448)scale(0.1 -0.1)">
      <use xlink:href="#DejaVuSans-8722"/>
      <use x="83.789062" xlink:href="#DejaVuSans-54"/>
      <use x="147.412109" xlink:href="#DejaVuSans-48"/>
     </g>
    </g>
   </g>
   <g id="xtick_12">
    <g id="line2d_14">
     <path d="M 228.065869 473.822257
L 219.774388 476.316322
" style="fill:none;stroke:#000000;stroke-linecap:square;stroke-width:0.8;"/>
    </g>
    <g id="text_12">
     <!-- −40 -->
     <g transform="translate(203.164169 495.467027)scale(0.1 -0.1)">
      <use xlink:href="#DejaVuSans-8722"/>
      <use x="83.789062" xlink:href="#DejaVuSans-52"/>
      <use x="147.412109" xlink:href="#DejaVuSans-48"/>
     </g>
    </g>
   </g>
   <g id="xtick_13">
    <g id="line2d_15">
     <path d="M 254.721911 490.051376
L 246.387603 492.597024
" style="fill:none;stroke:#000000;stroke-linecap:square;stroke-width:0.8;"/>
    </g>
    <g id="text_13">
     <!-- −20 -->
     <g transform="translate(229.716409 511.867538)scale(0.1 -0.1)">
      <use xlink:href="#DejaVuSans-8722"/>
      <use x="83.789062" xlink:href="#DejaVuSans-50"/>
      <use x="147.412109" xlink:href="#DejaVuSans-48"/>
     </g>
    </g>
   </g>
   <g id="xtick_14">
    <g id="line2d_16">
     <path d="M 281.931687 506.617627
L 273.554555 509.216474
" style="fill:none;stroke:#000000;stroke-linecap:square;stroke-width:0.8;"/>
    </g>
    <g id="text_14">
     <!-- 0 -->
     <g transform="translate(264.192241 528.60931)scale(0.1 -0.1)">
      <use xlink:href="#DejaVuSans-48"/>
     </g>
    </g>
   </g>
   <g id="xtick_15">
    <g id="line2d_17">
     <path d="M 309.712633 523.531626
L 301.292706 526.185358
" style="fill:none;stroke:#000000;stroke-linecap:square;stroke-width:0.8;"/>
    </g>
    <g id="text_15">
     <!-- 20 -->
     <g transform="translate(288.685651 545.703105)scale(0.1 -0.1)">
      <use xlink:href="#DejaVuSans-50"/>
      <use x="63.623047" xlink:href="#DejaVuSans-48"/>
     </g>
    </g>
   </g>
   <g id="xtick_16">
    <g id="line2d_18">
     <path d="M 338.082923 540.804439
L 329.620263 543.514812
" style="fill:none;stroke:#000000;stroke-linecap:square;stroke-width:0.8;"/>
    </g>
    <g id="text_16">
     <!-- 40 -->
     <g transform="translate(316.9484 563.160145)scale(0.1 -0.1)">
      <use xlink:href="#DejaVuSans-52"/>
      <use x="63.623047" xlink:href="#DejaVuSans-48"/>
     </g>
    </g>
   </g>
   <g id="xtick_17">
    <g id="line2d_19">
     <path d="M 367.061513 558.447605
L 358.556215 561.216453
" style="fill:none;stroke:#000000;stroke-linecap:square;stroke-width:0.8;"/>
    </g>
    <g id="text_17">
     <!-- 60 -->
     <g transform="translate(345.818185 580.992133)scale(0.1 -0.1)">
      <use xlink:href="#DejaVuSans-54"/>
      <use x="63.623047" xlink:href="#DejaVuSans-48"/>
     </g>
    </g>
   </g>
   <g id="xtick_18">
    <g id="line2d_20">
     <path d="M 396.668179 576.473166
L 388.120374 579.302402
" style="fill:none;stroke:#000000;stroke-linecap:square;stroke-width:0.8;"/>
    </g>
    <g id="text_18">
     <!-- 80 -->
     <g transform="translate(375.314775 599.211278)scale(0.1 -0.1)">
      <use xlink:href="#DejaVuSans-56"/>
      <use x="63.623047" xlink:href="#DejaVuSans-48"/>
     </g>
    </g>
   </g>
  </g>
  <g id="axis3d_3">
   <g id="line2d_21">
    <path d="M 165.588687 438.237516
L 156.027602 152.770118
" style="fill:none;stroke:#000000;stroke-linecap:square;stroke-width:0.8;"/>
   </g>
   <g id="Line3DCollection_3">
    <path d="M 165.247803 428.059662
L 486.210347 335.421907
L 736.831804 462.028178
" style="fill:none;stroke:#b0b0b0;stroke-width:0.8;"/>
    <path d="M 164.170255 395.887069
L 486.347506 304.868749
L 737.957731 429.272278
" style="fill:none;stroke:#b0b0b0;stroke-width:0.8;"/>
    <path d="M 163.08446 363.468243
L 486.485651 274.095985
L 739.092467 396.260081
" style="fill:none;stroke:#b0b0b0;stroke-width:0.8;"/>
    <path d="M 161.990322 330.800346
L 486.624793 243.101238
L 740.236117 362.988568
" style="fill:none;stroke:#b0b0b0;stroke-width:0.8;"/>
    <path d="M 160.887746 297.880497
L 486.764942 211.882097
L 741.388786 329.454672
" style="fill:none;stroke:#b0b0b0;stroke-width:0.8;"/>
    <path d="M 159.776634 264.705768
L 486.906109 180.436118
L 742.550581 295.655276
" style="fill:none;stroke:#b0b0b0;stroke-width:0.8;"/>
    <path d="M 158.656885 231.27319
L 487.048306 148.760819
L 743.721611 261.587215
" style="fill:none;stroke:#b0b0b0;stroke-width:0.8;"/>
    <path d="M 157.528399 197.579744
L 487.191543 116.853682
L 744.901986 227.247272
" style="fill:none;stroke:#b0b0b0;stroke-width:0.8;"/>
    <path d="M 156.391073 163.622365
L 487.335833 84.712152
L 746.09182 192.63218
" style="fill:none;stroke:#b0b0b0;stroke-width:0.8;"/>
   </g>
   <g id="xtick_19">
    <g id="line2d_22">
     <path d="M 167.979245 427.2713
L 159.776477 429.638823
" style="fill:none;stroke:#000000;stroke-linecap:square;stroke-width:0.8;"/>
    </g>
    <g id="text_19">
     <!-- −60 -->
     <g transform="translate(135.549251 434.520265)scale(0.1 -0.1)">
      <use xlink:href="#DejaVuSans-8722"/>
      <use x="83.789062" xlink:href="#DejaVuSans-54"/>
      <use x="147.412109" xlink:href="#DejaVuSans-48"/>
     </g>
    </g>
   </g>
   <g id="xtick_20">
    <g id="line2d_23">
     <path d="M 166.912661 395.112312
L 158.676936 397.438988
" style="fill:none;stroke:#000000;stroke-linecap:square;stroke-width:0.8;"/>
    </g>
    <g id="text_20">
     <!-- −40 -->
     <g transform="translate(134.399571 402.367309)scale(0.1 -0.1)">
      <use xlink:href="#DejaVuSans-8722"/>
      <use x="83.789062" xlink:href="#DejaVuSans-52"/>
      <use x="147.412109" xlink:href="#DejaVuSans-48"/>
     </g>
    </g>
   </g>
   <g id="xtick_21">
    <g id="line2d_24">
     <path d="M 165.837917 362.707322
L 157.56897 364.992455
" style="fill:none;stroke:#000000;stroke-linecap:square;stroke-width:0.8;"/>
    </g>
    <g id="text_21">
     <!-- −20 -->
     <g transform="translate(133.241099 369.968453)scale(0.1 -0.1)">
      <use xlink:href="#DejaVuSans-8722"/>
      <use x="83.789062" xlink:href="#DejaVuSans-50"/>
      <use x="147.412109" xlink:href="#DejaVuSans-48"/>
     </g>
    </g>
   </g>
   <g id="xtick_22">
    <g id="line2d_25">
     <path d="M 164.754921 330.053497
L 156.452483 332.296378
" style="fill:none;stroke:#000000;stroke-linecap:square;stroke-width:0.8;"/>
    </g>
    <g id="text_22">
     <!-- 0 -->
     <g transform="translate(139.444827 337.320867)scale(0.1 -0.1)">
      <use xlink:href="#DejaVuSans-48"/>
     </g>
    </g>
   </g>
   <g id="xtick_23">
    <g id="line2d_26">
     <path d="M 163.663576 297.14796
L 155.327376 299.347868
" style="fill:none;stroke:#000000;stroke-linecap:square;stroke-width:0.8;"/>
    </g>
    <g id="text_23">
     <!-- 20 -->
     <g transform="translate(135.087214 304.421675)scale(0.1 -0.1)">
      <use xlink:href="#DejaVuSans-50"/>
      <use x="63.623047" xlink:href="#DejaVuSans-48"/>
     </g>
    </g>
   </g>
   <g id="xtick_24">
    <g id="line2d_27">
     <path d="M 162.563786 263.987789
L 154.193548 266.14399
" style="fill:none;stroke:#000000;stroke-linecap:square;stroke-width:0.8;"/>
    </g>
    <g id="text_24">
     <!-- 40 -->
     <g transform="translate(133.901751 271.267957)scale(0.1 -0.1)">
      <use xlink:href="#DejaVuSans-52"/>
      <use x="63.623047" xlink:href="#DejaVuSans-48"/>
     </g>
    </g>
   </g>
   <g id="xtick_25">
    <g id="line2d_28">
     <path d="M 161.455452 230.570016
L 153.050899 232.681763
" style="fill:none;stroke:#000000;stroke-linecap:square;stroke-width:0.8;"/>
    </g>
    <g id="text_25">
     <!-- 60 -->
     <g transform="translate(132.707081 237.856749)scale(0.1 -0.1)">
      <use xlink:href="#DejaVuSans-54"/>
      <use x="63.623047" xlink:href="#DejaVuSans-48"/>
     </g>
    </g>
   </g>
   <g id="xtick_26">
    <g id="line2d_29">
     <path d="M 160.338475 196.891628
L 151.899325 198.95816
" style="fill:none;stroke:#000000;stroke-linecap:square;stroke-width:0.8;"/>
    </g>
    <g id="text_26">
     <!-- 80 -->
     <g transform="translate(131.503095 204.185037)scale(0.1 -0.1)">
      <use xlink:href="#DejaVuSans-56"/>
      <use x="63.623047" xlink:href="#DejaVuSans-48"/>
     </g>
    </g>
   </g>
   <g id="xtick_27">
    <g id="line2d_30">
     <path d="M 159.212753 162.949566
L 150.73872 164.970108
" style="fill:none;stroke:#000000;stroke-linecap:square;stroke-width:0.8;"/>
    </g>
    <g id="text_27">
     <!-- 100 -->
     <g transform="translate(127.108436 170.249765)scale(0.1 -0.1)">
      <defs>
       <path d="M 12.40625 8.296875
L 28.515625 8.296875
L 28.515625 63.921875
L 10.984375 60.40625
L 10.984375 69.390625
L 28.421875 72.90625
L 38.28125 72.90625
L 38.28125 8.296875
L 54.390625 8.296875
L 54.390625 0
L 12.40625 0
z
" id="DejaVuSans-49"/>
      </defs>
      <use xlink:href="#DejaVuSans-49"/>
      <use x="63.623047" xlink:href="#DejaVuSans-48"/>
      <use x="127.246094" xlink:href="#DejaVuSans-48"/>
     </g>
    </g>
   </g>
  </g>
  <g id="axes_1">
   <g id="line2d_31">
    <path clip-path="url(#p328182be03)" d="M 400.054531 410.55071
L 399.761692 358.798512
" style="fill:none;stroke:#008000;stroke-linecap:square;stroke-width:2.5;"/>
   </g>
   <g id="Poly3DCollection_1">
    <defs>
     <path d="M 543.729112 -413.789303
L 543.197062 -365.832513
L 534.697128 -369.984396
L 535.180257 -417.819576
z
" id="m17b39df16c" style="stroke:#000000;"/>
    </defs>
    <g clip-path="url(#p328182be03)">
     <use style="fill-opacity:0;stroke:#000000;" x="0" xlink:href="#m17b39df16c" y="644.4"/>
    </g>
   </g>
   <g id="text_28">
    <!-- Press 'q' to quit, 'space' to play/pause -->
    <g transform="translate(149.22 32.22)scale(0.1 -0.1)">
     <defs>
      <path d="M 19.671875 64.796875
L 19.671875 37.40625
L 32.078125 37.40625
Q 38.96875 37.40625 42.71875 40.96875
Q 46.484375 44.53125 46.484375 51.125
Q 46.484375 57.671875 42.71875 61.234375
Q 38.96875 64.796875 32.078125 64.796875
z
M 9.8125 72.90625
L 32.078125 72.90625
Q 44.34375 72.90625 50.609375 67.359375
Q 56.890625 61.8125 56.890625 51.125
Q 56.890625 40.328125 50.609375 34.8125
Q 44.34375 29.296875 32.078125 29.296875
L 19.671875 29.296875
L 19.671875 0
L 9.8125 0
z
" id="DejaVuSans-80"/>
      <path d="M 41.109375 46.296875
Q 39.59375 47.171875 37.8125 47.578125
Q 36.03125 48 33.890625 48
Q 26.265625 48 22.1875 43.046875
Q 18.109375 38.09375 18.109375 28.8125
L 18.109375 0
L 9.078125 0
L 9.078125 54.6875
L 18.109375 54.6875
L 18.109375 46.1875
Q 20.953125 51.171875 25.484375 53.578125
Q 30.03125 56 36.53125 56
Q 37.453125 56 38.578125 55.875
Q 39.703125 55.765625 41.0625 55.515625
z
" id="DejaVuSans-114"/>
      <path d="M 56.203125 29.59375
L 56.203125 25.203125
L 14.890625 25.203125
Q 15.484375 15.921875 20.484375 11.0625
Q 25.484375 6.203125 34.421875 6.203125
Q 39.59375 6.203125 44.453125 7.46875
Q 49.3125 8.734375 54.109375 11.28125
L 54.109375 2.78125
Q 49.265625 0.734375 44.1875 -0.34375
Q 39.109375 -1.421875 33.890625 -1.421875
Q 20.796875 -1.421875 13.15625 6.1875
Q 5.515625 13.8125 5.515625 26.8125
Q 5.515625 40.234375 12.765625 48.109375
Q 20.015625 56 32.328125 56
Q 43.359375 56 49.78125 48.890625
Q 56.203125 41.796875 56.203125 29.59375
z
M 47.21875 32.234375
Q 47.125 39.59375 43.09375 43.984375
Q 39.0625 48.390625 32.421875 48.390625
Q 24.90625 48.390625 20.390625 44.140625
Q 15.875 39.890625 15.1875 32.171875
z
" id="DejaVuSans-101"/>
      <path d="M 44.28125 53.078125
L 44.28125 44.578125
Q 40.484375 46.53125 36.375 47.5
Q 32.28125 48.484375 27.875 48.484375
Q 21.1875 48.484375 17.84375 46.4375
Q 14.5 44.390625 14.5 40.28125
Q 14.5 37.15625 16.890625 35.375
Q 19.28125 33.59375 26.515625 31.984375
L 29.59375 31.296875
Q 39.15625 29.25 43.1875 25.515625
Q 47.21875 21.78125 47.21875 15.09375
Q 47.21875 7.46875 41.1875 3.015625
Q 35.15625 -1.421875 24.609375 -1.421875
Q 20.21875 -1.421875 15.453125 -0.5625
Q 10.6875 0.296875 5.421875 2
L 5.421875 11.28125
Q 10.40625 8.6875 15.234375 7.390625
Q 20.0625 6.109375 24.8125 6.109375
Q 31.15625 6.109375 34.5625 8.28125
Q 37.984375 10.453125 37.984375 14.40625
Q 37.984375 18.0625 35.515625 20.015625
Q 33.0625 21.96875 24.703125 23.78125
L 21.578125 24.515625
Q 13.234375 26.265625 9.515625 29.90625
Q 5.8125 33.546875 5.8125 39.890625
Q 5.8125 47.609375 11.28125 51.796875
Q 16.75 56 26.8125 56
Q 31.78125 56 36.171875 55.265625
Q 40.578125 54.546875 44.28125 53.078125
z
" id="DejaVuSans-115"/>
      <path id="DejaVuSans-32"/>
      <path d="M 17.921875 72.90625
L 17.921875 45.796875
L 9.625 45.796875
L 9.625 72.90625
z
" id="DejaVuSans-39"/>
      <path d="M 14.796875 27.296875
Q 14.796875 17.390625 18.875 11.75
Q 22.953125 6.109375 30.078125 6.109375
Q 37.203125 6.109375 41.296875 11.75
Q 45.40625 17.390625 45.40625 27.296875
Q 45.40625 37.203125 41.296875 42.84375
Q 37.203125 48.484375 30.078125 48.484375
Q 22.953125 48.484375 18.875 42.84375
Q 14.796875 37.203125 14.796875 27.296875
z
M 45.40625 8.203125
Q 42.578125 3.328125 38.25 0.953125
Q 33.9375 -1.421875 27.875 -1.421875
Q 17.96875 -1.421875 11.734375 6.484375
Q 5.515625 14.40625 5.515625 27.296875
Q 5.515625 40.1875 11.734375 48.09375
Q 17.96875 56 27.875 56
Q 33.9375 56 38.25 53.625
Q 42.578125 51.265625 45.40625 46.390625
L 45.40625 54.6875
L 54.390625 54.6875
L 54.390625 -20.796875
L 45.40625 -20.796875
z
" id="DejaVuSans-113"/>
      <path d="M 18.3125 70.21875
L 18.3125 54.6875
L 36.8125 54.6875
L 36.8125 47.703125
L 18.3125 47.703125
L 18.3125 18.015625
Q 18.3125 11.328125 20.140625 9.421875
Q 21.96875 7.515625 27.59375 7.515625
L 36.8125 7.515625
L 36.8125 0
L 27.59375 0
Q 17.1875 0 13.234375 3.875
Q 9.28125 7.765625 9.28125 18.015625
L 9.28125 47.703125
L 2.6875 47.703125
L 2.6875 54.6875
L 9.28125 54.6875
L 9.28125 70.21875
z
" id="DejaVuSans-116"/>
      <path d="M 30.609375 48.390625
Q 23.390625 48.390625 19.1875 42.75
Q 14.984375 37.109375 14.984375 27.296875
Q 14.984375 17.484375 19.15625 11.84375
Q 23.34375 6.203125 30.609375 6.203125
Q 37.796875 6.203125 41.984375 11.859375
Q 46.1875 17.53125 46.1875 27.296875
Q 46.1875 37.015625 41.984375 42.703125
Q 37.796875 48.390625 30.609375 48.390625
z
M 30.609375 56
Q 42.328125 56 49.015625 48.375
Q 55.71875 40.765625 55.71875 27.296875
Q 55.71875 13.875 49.015625 6.21875
Q 42.328125 -1.421875 30.609375 -1.421875
Q 18.84375 -1.421875 12.171875 6.21875
Q 5.515625 13.875 5.515625 27.296875
Q 5.515625 40.765625 12.171875 48.375
Q 18.84375 56 30.609375 56
z
" id="DejaVuSans-111"/>
      <path d="M 8.5 21.578125
L 8.5 54.6875
L 17.484375 54.6875
L 17.484375 21.921875
Q 17.484375 14.15625 20.5 10.265625
Q 23.53125 6.390625 29.59375 6.390625
Q 36.859375 6.390625 41.078125 11.03125
Q 45.3125 15.671875 45.3125 23.6875
L 45.3125 54.6875
L 54.296875 54.6875
L 54.296875 0
L 45.3125 0
L 45.3125 8.40625
Q 42.046875 3.421875 37.71875 1
Q 33.40625 -1.421875 27.6875 -1.421875
Q 18.265625 -1.421875 13.375 4.4375
Q 8.5 10.296875 8.5 21.578125
z
M 31.109375 56
z
" id="DejaVuSans-117"/>
      <path d="M 9.421875 54.6875
L 18.40625 54.6875
L 18.40625 0
L 9.421875 0
z
M 9.421875 75.984375
L 18.40625 75.984375
L 18.40625 64.59375
L 9.421875 64.59375
z
" id="DejaVuSans-105"/>
      <path d="M 11.71875 12.40625
L 22.015625 12.40625
L 22.015625 4
L 14.015625 -11.625
L 7.71875 -11.625
L 11.71875 4
z
" id="DejaVuSans-44"/>
      <path d="M 18.109375 8.203125
L 18.109375 -20.796875
L 9.078125 -20.796875
L 9.078125 54.6875
L 18.109375 54.6875
L 18.109375 46.390625
Q 20.953125 51.265625 25.265625 53.625
Q 29.59375 56 35.59375 56
Q 45.5625 56 51.78125 48.09375
Q 58.015625 40.1875 58.015625 27.296875
Q 58.015625 14.40625 51.78125 6.484375
Q 45.5625 -1.421875 35.59375 -1.421875
Q 29.59375 -1.421875 25.265625 0.953125
Q 20.953125 3.328125 18.109375 8.203125
z
M 48.6875 27.296875
Q 48.6875 37.203125 44.609375 42.84375
Q 40.53125 48.484375 33.40625 48.484375
Q 26.265625 48.484375 22.1875 42.84375
Q 18.109375 37.203125 18.109375 27.296875
Q 18.109375 17.390625 22.1875 11.75
Q 26.265625 6.109375 33.40625 6.109375
Q 40.53125 6.109375 44.609375 11.75
Q 48.6875 17.390625 48.6875 27.296875
z
" id="DejaVuSans-112"/>
      <path d="M 34.28125 27.484375
Q 23.390625 27.484375 19.1875 25
Q 14.984375 22.515625 14.984375 16.5
Q 14.984375 11.71875 18.140625 8.90625
Q 21.296875 6.109375 26.703125 6.109375
Q 34.1875 6.109375 38.703125 11.40625
Q 43.21875 16.703125 43.21875 25.484375
L 43.21875 27.484375
z
M 52.203125 31.203125
L 52.203125 0
L 43.21875 0
L 43.21875 8.296875
Q 40.140625 3.328125 35.546875 0.953125
Q 30.953125 -1.421875 24.3125 -1.421875
Q 15.921875 -1.421875 10.953125 3.296875
Q 6 8.015625 6 15.921875
Q 6 25.140625 12.171875 29.828125
Q 18.359375 34.515625 30.609375 34.515625
L 43.21875 34.515625
L 43.21875 35.40625
Q 43.21875 41.609375 39.140625 45
Q 35.0625 48.390625 27.6875 48.390625
Q 23 48.390625 18.546875 47.265625
Q 14.109375 46.140625 10.015625 43.890625
L 10.015625 52.203125
Q 14.9375 54.109375 19.578125 55.046875
Q 24.21875 56 28.609375 56
Q 40.484375 56 46.34375 49.84375
Q 52.203125 43.703125 52.203125 31.203125
z
" id="DejaVuSans-97"/>
      <path d="M 48.78125 52.59375
L 48.78125 44.1875
Q 44.96875 46.296875 41.140625 47.34375
Q 37.3125 48.390625 33.40625 48.390625
Q 24.65625 48.390625 19.8125 42.84375
Q 14.984375 37.3125 14.984375 27.296875
Q 14.984375 17.28125 19.8125 11.734375
Q 24.65625 6.203125 33.40625 6.203125
Q 37.3125 6.203125 41.140625 7.25
Q 44.96875 8.296875 48.78125 10.40625
L 48.78125 2.09375
Q 45.015625 0.34375 40.984375 -0.53125
Q 36.96875 -1.421875 32.421875 -1.421875
Q 20.0625 -1.421875 12.78125 6.34375
Q 5.515625 14.109375 5.515625 27.296875
Q 5.515625 40.671875 12.859375 48.328125
Q 20.21875 56 33.015625 56
Q 37.15625 56 41.109375 55.140625
Q 45.0625 54.296875 48.78125 52.59375
z
" id="DejaVuSans-99"/>
      <path d="M 9.421875 75.984375
L 18.40625 75.984375
L 18.40625 0
L 9.421875 0
z
" id="DejaVuSans-108"/>
      <path d="M 32.171875 -5.078125
Q 28.375 -14.84375 24.75 -17.8125
Q 21.140625 -20.796875 15.09375 -20.796875
L 7.90625 -20.796875
L 7.90625 -13.28125
L 13.1875 -13.28125
Q 16.890625 -13.28125 18.9375 -11.515625
Q 21 -9.765625 23.484375 -3.21875
L 25.09375 0.875
L 2.984375 54.6875
L 12.5 54.6875
L 29.59375 11.921875
L 46.6875 54.6875
L 56.203125 54.6875
z
" id="DejaVuSans-121"/>
      <path d="M 25.390625 72.90625
L 33.6875 72.90625
L 8.296875 -9.28125
L 0 -9.28125
z
" id="DejaVuSans-47"/>
     </defs>
     <use xlink:href="#DejaVuSans-80"/>
     <use x="58.552734" xlink:href="#DejaVuSans-114"/>
     <use x="97.416016" xlink:href="#DejaVuSans-101"/>
     <use x="158.939453" xlink:href="#DejaVuSans-115"/>
     <use x="211.039062" xlink:href="#DejaVuSans-115"/>
     <use x="263.138672" xlink:href="#DejaVuSans-32"/>
     <use x="294.925781" xlink:href="#DejaVuSans-39"/>
     <use x="322.416016" xlink:href="#DejaVuSans-113"/>
     <use x="385.892578" xlink:href="#DejaVuSans-39"/>
     <use x="413.382812" xlink:href="#DejaVuSans-32"/>
     <use x="445.169922" xlink:href="#DejaVuSans-116"/>
     <use x="484.378906" xlink:href="#DejaVuSans-111"/>
     <use x="545.560547" xlink:href="#DejaVuSans-32"/>
     <use x="577.347656" xlink:href="#DejaVuSans-113"/>
     <use x="640.824219" xlink:href="#DejaVuSans-117"/>
     <use x="704.203125" xlink:href="#DejaVuSans-105"/>
     <use x="731.986328" xlink:href="#DejaVuSans-116"/>
     <use x="771.195312" xlink:href="#DejaVuSans-44"/>
     <use x="802.982422" xlink:href="#DejaVuSans-32"/>
     <use x="834.769531" xlink:href="#DejaVuSans-39"/>
     <use x="862.259766" xlink:href="#DejaVuSans-115"/>
     <use x="914.359375" xlink:href="#DejaVuSans-112"/>
     <use x="977.835938" xlink:href="#DejaVuSans-97"/>
     <use x="1039.115234" xlink:href="#DejaVuSans-99"/>
     <use x="1094.095703" xlink:href="#DejaVuSans-101"/>
     <use x="1155.619141" xlink:href="#DejaVuSans-39"/>
     <use x="1183.109375" xlink:href="#DejaVuSans-32"/>
     <use x="1214.896484" xlink:href="#DejaVuSans-116"/>
     <use x="1254.105469" xlink:href="#DejaVuSans-111"/>
     <use x="1315.287109" xlink:href="#DejaVuSans-32"/>
     <use x="1347.074219" xlink:href="#DejaVuSans-112"/>
     <use x="1410.550781" xlink:href="#DejaVuSans-108"/>
     <use x="1438.333984" xlink:href="#DejaVuSans-97"/>
     <use x="1499.613281" xlink:href="#DejaVuSans-121"/>
     <use x="1558.792969" xlink:href="#DejaVuSans-47"/>
     <use x="1592.484375" xlink:href="#DejaVuSans-112"/>
     <use x="1655.960938" xlink:href="#DejaVuSans-97"/>
     <use x="1717.240234" xlink:href="#DejaVuSans-117"/>
     <use x="1780.619141" xlink:href="#DejaVuSans-115"/>
     <use x="1832.71875" xlink:href="#DejaVuSans-101"/>
    </g>
   </g>
   <g id="Poly3DCollection_2">
    <defs>
     <path d="M 547.850887 -413.242574
L 547.295724 -365.269297
L 545.361199 -364.783991
L 545.905748 -412.771471
z
" id="mb295360a3b" style="stroke:#000000;"/>
    </defs>
    <g clip-path="url(#p328182be03)">
     <use style="fill-opacity:0;stroke:#000000;" x="0" xlink:href="#mb295360a3b" y="644.4"/>
    </g>
   </g>
   <g id="Poly3DCollection_3">
    <defs>
     <path d="M 545.905748 -412.771471
L 545.361199 -364.783991
L 543.197062 -365.832513
L 543.729112 -413.789303
z
" id="m189a384662" style="stroke:#000000;"/>
    </defs>
    <g clip-path="url(#p328182be03)">
     <use style="fill-opacity:0;stroke:#000000;" x="0" xlink:href="#m189a384662" y="644.4"/>
    </g>
   </g>
   <g id="Poly3DCollection_4">
    <defs>
     <path d="M 550.985803 -411.797446
L 550.41261 -363.780605
L 547.295724 -365.269297
L 547.850887 -413.242574
z
" id="m6dbfd7bc1e" style="stroke:#000000;"/>
    </defs>
    <g clip-path="url(#p328182be03)">
     <use style="fill-opacity:0;stroke:#000000;" x="0" xlink:href="#m6dbfd7bc1e" y="644.4"/>
    </g>
   </g>
   <g id="Poly3DCollection_5">
    <defs>
     <path d="M 549.893553 -411.435035
L 549.326281 -363.407271
L 550.41261 -363.780605
L 550.985803 -411.797446
z
" id="m598c11102f" style="stroke:#000000;"/>
    </defs>
    <g clip-path="url(#p328182be03)">
     <use style="fill-opacity:0;stroke:#000000;" x="0" xlink:href="#m598c11102f" y="644.4"/>
    </g>
   </g>
   <g id="Poly3DCollection_6">
    <defs>
     <path d="M 555.687156 -410.083272
L 555.087056 -362.014778
L 549.326281 -363.407271
L 549.893553 -411.435035
z
" id="m24de103b2f" style="stroke:#000000;"/>
    </defs>
    <g clip-path="url(#p328182be03)">
     <use style="fill-opacity:0;stroke:#000000;" x="0" xlink:href="#m24de103b2f" y="644.4"/>
    </g>
   </g>
   <g id="Poly3DCollection_7">
    <defs>
     <path d="M 563.751957 -407.208242
L 563.105577 -359.053173
L 555.087056 -362.014778
L 555.687156 -410.083272
z
" id="m450e3795ab" style="stroke:#000000;"/>
    </defs>
    <g clip-path="url(#p328182be03)">
     <use style="fill-opacity:0;stroke:#000000;" x="0" xlink:href="#m450e3795ab" y="644.4"/>
    </g>
   </g>
   <g id="Poly3DCollection_8">
    <defs>
     <path d="M 566.453949 -405.997051
L 565.791899 -357.805531
L 563.105577 -359.053173
L 563.751957 -407.208242
z
" id="me5c8b776d0" style="stroke:#000000;"/>
    </defs>
    <g clip-path="url(#p328182be03)">
     <use style="fill-opacity:0;stroke:#000000;" x="0" xlink:href="#me5c8b776d0" y="644.4"/>
    </g>
   </g>
   <g id="Poly3DCollection_9">
    <defs>
     <path d="M 569.971097 -404.115765
L 569.288454 -355.867652
L 565.791899 -357.805531
L 566.453949 -405.997051
z
" id="m34b9c37e26" style="stroke:#000000;"/>
    </defs>
    <g clip-path="url(#p328182be03)">
     <use style="fill-opacity:0;stroke:#000000;" x="0" xlink:href="#m34b9c37e26" y="644.4"/>
    </g>
   </g>
   <g id="Poly3DCollection_10">
    <defs>
     <path d="M 571.492519 -404.192499
L 570.801407 -355.946693
L 570.389338 -355.674955
L 571.078267 -403.928694
z
" id="m3752bc39e4" style="stroke:#000000;"/>
    </defs>
    <g clip-path="url(#p328182be03)">
     <use style="fill-opacity:0;stroke:#000000;" x="0" xlink:href="#m3752bc39e4" y="644.4"/>
    </g>
   </g>
   <g id="Poly3DCollection_11">
    <defs>
     <path d="M 571.078267 -403.928694
L 570.389338 -355.674955
L 569.288454 -355.867652
L 569.971097 -404.115765
z
" id="maad2206b03" style="stroke:#000000;"/>
    </defs>
    <g clip-path="url(#p328182be03)">
     <use style="fill-opacity:0;stroke:#000000;" x="0" xlink:href="#maad2206b03" y="644.4"/>
    </g>
   </g>
   <g id="Poly3DCollection_12">
    <defs>
     <path d="M 535.180257 -417.819576
L 534.697128 -369.984396
L 482.663041 -355.597493
L 482.85854 -403.853494
z
" id="m0f1445406a" style="stroke:#000000;"/>
    </defs>
    <g clip-path="url(#p328182be03)">
     <use style="fill-opacity:0;stroke:#000000;" x="0" xlink:href="#m0f1445406a" y="644.4"/>
    </g>
   </g>
   <g id="Poly3DCollection_13">
    <defs>
     <path d="M 572.775612 -403.767881
L 572.077105 -355.509305
L 570.801407 -355.946693
L 571.492519 -404.192499
z
" id="mdebfb3553a" style="stroke:#000000;"/>
    </defs>
    <g clip-path="url(#p328182be03)">
     <use style="fill-opacity:0;stroke:#000000;" x="0" xlink:href="#mdebfb3553a" y="644.4"/>
    </g>
   </g>
   <g id="Poly3DCollection_14">
    <defs>
     <path d="M 574.826668 -403.522285
L 574.116559 -355.256324
L 572.077105 -355.509305
L 572.775612 -403.767881
z
" id="md7cb421f48" style="stroke:#000000;"/>
    </defs>
    <g clip-path="url(#p328182be03)">
     <use style="fill-opacity:0;stroke:#000000;" x="0" xlink:href="#md7cb421f48" y="644.4"/>
    </g>
   </g>
   <g id="Poly3DCollection_15">
    <defs>
     <path d="M 482.85854 -403.853494
L 482.663041 -355.597493
L 471.284713 -352.603719
L 471.416493 -400.947085
z
" id="ma9c18fab2f" style="stroke:#000000;"/>
    </defs>
    <g clip-path="url(#p328182be03)">
     <use style="fill-opacity:0;stroke:#000000;" x="0" xlink:href="#ma9c18fab2f" y="644.4"/>
    </g>
   </g>
   <g id="Poly3DCollection_16">
    <defs>
     <path d="M 583.174043 -399.532248
L 582.414999 -351.14638
L 574.116559 -355.256324
L 574.826668 -403.522285
z
" id="m6f61014fce" style="stroke:#000000;"/>
    </defs>
    <g clip-path="url(#p328182be03)">
     <use style="fill-opacity:0;stroke:#000000;" x="0" xlink:href="#m6f61014fce" y="644.4"/>
    </g>
   </g>
   <g id="Poly3DCollection_17">
    <defs>
     <path d="M 583.017037 -398.944512
L 582.258546 -350.540992
L 582.414999 -351.14638
L 583.174043 -399.532248
z
" id="mf54fb9771b" style="stroke:#000000;"/>
    </defs>
    <g clip-path="url(#p328182be03)">
     <use style="fill-opacity:0;stroke:#000000;" x="0" xlink:href="#mf54fb9771b" y="644.4"/>
    </g>
   </g>
   <g id="Poly3DCollection_18">
    <defs>
     <path d="M 582.095638 -398.514371
L 581.342082 -350.097935
L 582.258546 -350.540992
L 583.017037 -398.944512
z
" id="mbe14b50fb2" style="stroke:#000000;"/>
    </defs>
    <g clip-path="url(#p328182be03)">
     <use style="fill-opacity:0;stroke:#000000;" x="0" xlink:href="#mbe14b50fb2" y="644.4"/>
    </g>
   </g>
   <g id="Poly3DCollection_19">
    <defs>
     <path d="M 583.353956 -397.886791
L 582.592982 -349.451513
L 581.342082 -350.097935
L 582.095638 -398.514371
z
" id="m4c5a5135d0" style="stroke:#000000;"/>
    </defs>
    <g clip-path="url(#p328182be03)">
     <use style="fill-opacity:0;stroke:#000000;" x="0" xlink:href="#m4c5a5135d0" y="644.4"/>
    </g>
   </g>
   <g id="Poly3DCollection_20">
    <defs>
     <path d="M 575.66984 -395.640673
L 574.950851 -347.137987
L 582.592982 -349.451513
L 583.353956 -397.886791
z
" id="m0bfcb70859" style="stroke:#000000;"/>
    </defs>
    <g clip-path="url(#p328182be03)">
     <use style="fill-opacity:0;stroke:#000000;" x="0" xlink:href="#m0bfcb70859" y="644.4"/>
    </g>
   </g>
   <g id="Poly3DCollection_21">
    <defs>
     <path d="M 555.982327 -390.184565
L 555.371693 -341.518314
L 574.950851 -347.137987
L 575.66984 -395.640673
z
" id="mda98c897be" style="stroke:#000000;"/>
    </defs>
    <g clip-path="url(#p328182be03)">
     <use style="fill-opacity:0;stroke:#000000;" x="0" xlink:href="#mda98c897be" y="644.4"/>
    </g>
   </g>
   <g id="Poly3DCollection_22">
    <defs>
     <path d="M 559.392619 -388.500285
L 558.761941 -339.783595
L 555.371693 -341.518314
L 555.982327 -390.184565
z
" id="m6a16c4973b" style="stroke:#000000;"/>
    </defs>
    <g clip-path="url(#p328182be03)">
     <use style="fill-opacity:0;stroke:#000000;" x="0" xlink:href="#m6a16c4973b" y="644.4"/>
    </g>
   </g>
   <g id="Poly3DCollection_23">
    <defs>
     <path d="M 471.416493 -400.947085
L 471.284713 -352.603719
L 500.341889 -339.118322
L 500.640341 -387.85435
z
" id="m64f4c84026" style="stroke:#000000;"/>
    </defs>
    <g clip-path="url(#p328182be03)">
     <use style="fill-opacity:0;stroke:#000000;" x="0" xlink:href="#m64f4c84026" y="644.4"/>
    </g>
   </g>
   <g id="Poly3DCollection_24">
    <defs>
     <path d="M 538.684082 -384.247123
L 538.168958 -335.403169
L 540.282032 -334.46134
L 540.809569 -383.332637
z
" id="m3cbc1d1589" style="stroke:#000000;"/>
    </defs>
    <g clip-path="url(#p328182be03)">
     <use style="fill-opacity:0;stroke:#000000;" x="0" xlink:href="#m3cbc1d1589" y="644.4"/>
    </g>
   </g>
   <g id="Poly3DCollection_25">
    <defs>
     <path d="M 540.809569 -383.332637
L 540.282032 -334.46134
L 558.761941 -339.783595
L 559.392619 -388.500285
z
" id="m6de3102530" style="stroke:#000000;"/>
    </defs>
    <g clip-path="url(#p328182be03)">
     <use style="fill-opacity:0;stroke:#000000;" x="0" xlink:href="#m6de3102530" y="644.4"/>
    </g>
   </g>
   <g id="Poly3DCollection_26">
    <defs>
     <path d="M 528.924003 -381.616452
L 528.463383 -332.69386
L 538.168958 -335.403169
L 538.684082 -384.247123
z
" id="m4965ccb943" style="stroke:#000000;"/>
    </defs>
    <g clip-path="url(#p328182be03)">
     <use style="fill-opacity:0;stroke:#000000;" x="0" xlink:href="#m4965ccb943" y="644.4"/>
    </g>
   </g>
   <g id="Poly3DCollection_27">
    <defs>
     <path d="M 500.640341 -387.85435
L 519.488001 -379.02652
L 528.924003 -381.616452
L 538.684082 -384.247123
L 540.809569 -383.332637
L 559.392619 -388.500285
L 555.982327 -390.184565
L 575.66984 -395.640673
L 583.353956 -397.886791
L 582.095638 -398.514371
L 583.017037 -398.944512
L 583.174043 -399.532248
L 574.826668 -403.522285
L 572.775612 -403.767881
L 571.492519 -404.192499
L 571.078267 -403.928694
L 569.971097 -404.115765
L 566.453949 -405.997051
L 563.751957 -407.208242
L 555.687156 -410.083272
L 549.893553 -411.435035
L 550.985803 -411.797446
L 547.850887 -413.242574
L 545.905748 -412.771471
L 543.729112 -413.789303
L 535.180257 -417.819576
L 482.85854 -403.853494
L 471.416493 -400.947085
z
" id="m2b7ec920c5" style="stroke:#000000;"/>
    </defs>
    <g clip-path="url(#p328182be03)">
     <use style="fill-opacity:0;stroke:#000000;" x="0" xlink:href="#m2b7ec920c5" y="644.4"/>
    </g>
   </g>
   <g id="Poly3DCollection_28">
    <defs>
     <path d="M 500.640341 -387.85435
L 500.341889 -339.118322
L 519.080264 -330.026566
L 519.488001 -379.02652
z
" id="m03e52c27fd" style="stroke:#000000;"/>
    </defs>
    <g clip-path="url(#p328182be03)">
     <use style="fill-opacity:0;stroke:#000000;" x="0" xlink:href="#m03e52c27fd" y="644.4"/>
    </g>
   </g>
   <g id="Poly3DCollection_29">
    <defs>
     <path d="M 519.488001 -379.02652
L 519.080264 -330.026566
L 528.463383 -332.69386
L 528.924003 -381.616452
z
" id="m6f7a2fc187" style="stroke:#000000;"/>
    </defs>
    <g clip-path="url(#p328182be03)">
     <use style="fill-opacity:0;stroke:#000000;" x="0" xlink:href="#m6f7a2fc187" y="644.4"/>
    </g>
   </g>
   <g id="Poly3DCollection_30">
    <defs>
     <path d="M 591.971873 -354.86975
L 591.42174 -322.113225
L 573.061175 -316.749146
L 573.542737 -349.60862
z
" id="m60acce7ccd" style="stroke:#000000;"/>
    </defs>
    <g clip-path="url(#p328182be03)">
     <use style="fill-opacity:0;stroke:#000000;" x="0" xlink:href="#m60acce7ccd" y="644.4"/>
    </g>
   </g>
   <g id="Poly3DCollection_31">
    <defs>
     <path d="M 606.907534 -347.82638
L 606.297311 -314.932066
L 591.42174 -322.113225
L 591.971873 -354.86975
z
" id="mae6804e12b" style="stroke:#000000;"/>
    </defs>
    <g clip-path="url(#p328182be03)">
     <use style="fill-opacity:0;stroke:#000000;" x="0" xlink:href="#mae6804e12b" y="644.4"/>
    </g>
   </g>
   <g id="Poly3DCollection_32">
    <defs>
     <path d="M 588.441595 -342.511866
L 606.907534 -347.82638
L 591.971873 -354.86975
L 573.542737 -349.60862
z
" id="md07ef66fc0" style="stroke:#000000;"/>
    </defs>
    <g clip-path="url(#p328182be03)">
     <use style="fill-opacity:0;stroke:#000000;" x="0" xlink:href="#md07ef66fc0" y="644.4"/>
    </g>
   </g>
   <g id="Poly3DCollection_33">
    <defs>
     <path d="M 573.542737 -349.60862
L 573.061175 -316.749146
L 587.900205 -309.513768
L 588.441595 -342.511866
z
" id="m9962e64b29" style="stroke:#000000;"/>
    </defs>
    <g clip-path="url(#p328182be03)">
     <use style="fill-opacity:0;stroke:#000000;" x="0" xlink:href="#m9962e64b29" y="644.4"/>
    </g>
   </g>
   <g id="Poly3DCollection_34">
    <defs>
     <path d="M 588.441595 -342.511866
L 587.900205 -309.513768
L 606.297311 -314.932066
L 606.907534 -347.82638
z
" id="m08def5c00b" style="stroke:#000000;"/>
    </defs>
    <g clip-path="url(#p328182be03)">
     <use style="fill-opacity:0;stroke:#000000;" x="0" xlink:href="#m08def5c00b" y="644.4"/>
    </g>
   </g>
   <g id="Poly3DCollection_35">
    <defs>
     <path d="M 450.323005 -345.532414
L 450.318323 -328.917479
L 431.132437 -323.495612
L 431.099721 -340.163518
z
" id="m2a82880718" style="stroke:#000000;"/>
    </defs>
    <g clip-path="url(#p328182be03)">
     <use style="fill-opacity:0;stroke:#000000;" x="0" xlink:href="#m2a82880718" y="644.4"/>
    </g>
   </g>
   <g id="Poly3DCollection_36">
    <defs>
     <path d="M 464.738191 -338.344647
L 464.70539 -321.658813
L 450.318323 -328.917479
L 450.323005 -345.532414
z
" id="m621a961377" style="stroke:#000000;"/>
    </defs>
    <g clip-path="url(#p328182be03)">
     <use style="fill-opacity:0;stroke:#000000;" x="0" xlink:href="#m621a961377" y="644.4"/>
    </g>
   </g>
   <g id="Poly3DCollection_37">
    <defs>
     <path d="M 431.132437 -323.495612
L 450.318323 -328.917479
L 464.70539 -321.658813
L 445.476282 -316.181282
z
" id="mf2ca01c828" style="stroke:#000000;"/>
    </defs>
    <g clip-path="url(#p328182be03)">
     <use style="fill-opacity:0;stroke:#000000;" x="0" xlink:href="#mf2ca01c828" y="644.4"/>
    </g>
   </g>
   <g id="Poly3DCollection_38">
    <defs>
     <path d="M 445.471515 -332.920523
L 464.738191 -338.344647
L 450.323005 -345.532414
L 431.099721 -340.163518
z
" id="m4d6962a431" style="stroke:#000000;"/>
    </defs>
    <g clip-path="url(#p328182be03)">
     <use style="fill-opacity:0;stroke:#000000;" x="0" xlink:href="#m4d6962a431" y="644.4"/>
    </g>
   </g>
   <g id="Poly3DCollection_39">
    <defs>
     <path d="M 431.099721 -340.163518
L 431.132437 -323.495612
L 445.476282 -316.181282
L 445.471515 -332.920523
z
" id="m35a6c8c669" style="stroke:#000000;"/>
    </defs>
    <g clip-path="url(#p328182be03)">
     <use style="fill-opacity:0;stroke:#000000;" x="0" xlink:href="#m35a6c8c669" y="644.4"/>
    </g>
   </g>
   <g id="Poly3DCollection_40">
    <defs>
     <path d="M 445.471515 -332.920523
L 445.476282 -316.181282
L 464.70539 -321.658813
L 464.738191 -338.344647
z
" id="m4e31224eb4" style="stroke:#000000;"/>
    </defs>
    <g clip-path="url(#p328182be03)">
     <use style="fill-opacity:0;stroke:#000000;" x="0" xlink:href="#m4e31224eb4" y="644.4"/>
    </g>
   </g>
   <g id="Poly3DCollection_41">
    <defs>
     <path d="M 292.81747 -284.403205
L 316.584236 -283.06013
L 312.273801 -273.679377
L 288.359093 -275.039685
z
" id="m6e2c33ff8a" style="stroke:#000000;"/>
    </defs>
    <g clip-path="url(#p328182be03)">
     <use style="fill-opacity:0;stroke:#000000;" x="0" xlink:href="#m6e2c33ff8a" y="644.4"/>
    </g>
   </g>
   <g id="Poly3DCollection_42">
    <defs>
     <path d="M 292.81747 -284.403205
L 288.359093 -275.039685
L 301.357133 -346.484176
z
" id="m4c293ae377" style="stroke:#000000;"/>
    </defs>
    <g clip-path="url(#p328182be03)">
     <use style="fill-opacity:0;stroke:#000000;" x="0" xlink:href="#m4c293ae377" y="644.4"/>
    </g>
   </g>
   <g id="Poly3DCollection_43">
    <defs>
     <path d="M 316.584236 -283.06013
L 292.81747 -284.403205
L 301.357133 -346.484176
z
" id="m1970b69408" style="stroke:#000000;"/>
    </defs>
    <g clip-path="url(#p328182be03)">
     <use style="fill-opacity:0;stroke:#000000;" x="0" xlink:href="#m1970b69408" y="644.4"/>
    </g>
   </g>
   <g id="Poly3DCollection_44">
    <defs>
     <path d="M 312.273801 -273.679377
L 316.584236 -283.06013
L 301.357133 -346.484176
z
" id="mf2fb0d7836" style="stroke:#000000;"/>
    </defs>
    <g clip-path="url(#p328182be03)">
     <use style="fill-opacity:0;stroke:#000000;" x="0" xlink:href="#mf2fb0d7836" y="644.4"/>
    </g>
   </g>
   <g id="Poly3DCollection_45">
    <defs>
     <path d="M 288.359093 -275.039685
L 312.273801 -273.679377
L 301.357133 -346.484176
z
" id="m4b26aed9ba" style="stroke:#000000;"/>
    </defs>
    <g clip-path="url(#p328182be03)">
     <use style="fill-opacity:0;stroke:#000000;" x="0" xlink:href="#m4b26aed9ba" y="644.4"/>
    </g>
   </g>
   <g id="Poly3DCollection_46">
    <defs>
     <path d="M 386.095271 -305.884014
L 386.466054 -254.72298
L 376.224079 -251.738671
L 375.790619 -302.984433
z
" id="me3ec8ffc20" style="stroke:#000000;"/>
    </defs>
    <g clip-path="url(#p328182be03)">
     <use style="fill:#ff0000;fill-opacity:0;stroke:#000000;" x="0" xlink:href="#me3ec8ffc20" y="644.4"/>
    </g>
   </g>
   <g id="Poly3DCollection_47">
    <defs>
     <path d="M 375.790619 -302.984433
L 376.224079 -251.738671
L 375.071783 -252.371508
L 374.631544 -303.599309
z
" id="mc13b89c19a" style="stroke:#000000;"/>
    </defs>
    <g clip-path="url(#p328182be03)">
     <use style="fill:#ff0000;fill-opacity:0;stroke:#000000;" x="0" xlink:href="#mc13b89c19a" y="644.4"/>
    </g>
   </g>
   <g id="Poly3DCollection_48">
    <defs>
     <path d="M 392.06191 -302.7498
L 392.397625 -251.497185
L 386.466054 -254.72298
L 386.095271 -305.884014
z
" id="ma88ffd3986" style="stroke:#000000;"/>
    </defs>
    <g clip-path="url(#p328182be03)">
     <use style="fill:#ff0000;fill-opacity:0;stroke:#000000;" x="0" xlink:href="#ma88ffd3986" y="644.4"/>
    </g>
   </g>
   <g id="Poly3DCollection_49">
    <defs>
     <path d="M 390.223397 -302.227155
L 390.57029 -250.959277
L 392.397625 -251.497185
L 392.06191 -302.7498
z
" id="m19934d28ce" style="stroke:#000000;"/>
    </defs>
    <g clip-path="url(#p328182be03)">
     <use style="fill:#ff0000;fill-opacity:0;stroke:#000000;" x="0" xlink:href="#m19934d28ce" y="644.4"/>
    </g>
   </g>
   <g id="Poly3DCollection_50">
    <defs>
     <path d="M 374.631544 -303.599309
L 375.071783 -252.371508
L 369.16812 -250.657422
L 368.691649 -301.933865
z
" id="m0d3d0dbf1e" style="stroke:#000000;"/>
    </defs>
    <g clip-path="url(#p328182be03)">
     <use style="fill:#ff0000;fill-opacity:0;stroke:#000000;" x="0" xlink:href="#m0d3d0dbf1e" y="644.4"/>
    </g>
   </g>
   <g id="Poly3DCollection_51">
    <defs>
     <path d="M 424.840215 -301.956987
L 424.978962 -250.681219
L 423.132799 -250.135234
L 422.982826 -301.426491
z
" id="mb68e9cd545" style="stroke:#000000;"/>
    </defs>
    <g clip-path="url(#p328182be03)">
     <use style="fill:#ff0000;fill-opacity:0;stroke:#000000;" x="0" xlink:href="#mb68e9cd545" y="644.4"/>
    </g>
   </g>
   <g id="Poly3DCollection_52">
    <defs>
     <path d="M 422.982826 -301.426491
L 423.132799 -250.135234
L 415.654633 -254.152417
L 415.459919 -305.329655
z
" id="m2246e7863a" style="stroke:#000000;"/>
    </defs>
    <g clip-path="url(#p328182be03)">
     <use style="fill:#ff0000;fill-opacity:0;stroke:#000000;" x="0" xlink:href="#m2246e7863a" y="644.4"/>
    </g>
   </g>
   <g id="Poly3DCollection_53">
    <defs>
     <path d="M 368.691649 -301.933865
L 369.16812 -250.657422
L 370.520559 -249.906888
L 370.052035 -301.204622
z
" id="m96f4ef8d2a" style="stroke:#000000;"/>
    </defs>
    <g clip-path="url(#p328182be03)">
     <use style="fill:#ff0000;fill-opacity:0;stroke:#000000;" x="0" xlink:href="#m96f4ef8d2a" y="644.4"/>
    </g>
   </g>
   <g id="Poly3DCollection_54">
    <defs>
     <path d="M 428.640297 -299.991757
L 428.756343 -248.658622
L 424.978962 -250.681219
L 424.840215 -301.956987
z
" id="mfc0d6bac03" style="stroke:#000000;"/>
    </defs>
    <g clip-path="url(#p328182be03)">
     <use style="fill:#ff0000;fill-opacity:0;stroke:#000000;" x="0" xlink:href="#mfc0d6bac03" y="644.4"/>
    </g>
   </g>
   <g id="Poly3DCollection_55">
    <defs>
     <path d="M 415.459919 -305.329655
L 415.654633 -254.152417
L 395.580068 -248.240687
L 395.262907 -299.585672
z
" id="m7e77601d47" style="stroke:#000000;"/>
    </defs>
    <g clip-path="url(#p328182be03)">
     <use style="fill:#ff0000;fill-opacity:0;stroke:#000000;" x="0" xlink:href="#m7e77601d47" y="644.4"/>
    </g>
   </g>
   <g id="Poly3DCollection_56">
    <defs>
     <path d="M 395.262907 -299.585672
L 395.580068 -248.240687
L 390.57029 -250.959277
L 390.223397 -302.227155
z
" id="m3387c3071e" style="stroke:#000000;"/>
    </defs>
    <g clip-path="url(#p328182be03)">
     <use style="fill:#ff0000;fill-opacity:0;stroke:#000000;" x="0" xlink:href="#m3387c3071e" y="644.4"/>
    </g>
   </g>
   <g id="Poly3DCollection_57">
    <defs>
     <path d="M 426.380105 -299.335969
L 426.509823 -247.983698
L 428.756343 -248.658622
L 428.640297 -299.991757
z
" id="m2c84b547e6" style="stroke:#000000;"/>
    </defs>
    <g clip-path="url(#p328182be03)">
     <use style="fill:#ff0000;fill-opacity:0;stroke:#000000;" x="0" xlink:href="#m2c84b547e6" y="644.4"/>
    </g>
   </g>
   <g id="Poly3DCollection_58">
    <defs>
     <path d="M 370.052035 -301.204622
L 370.520559 -249.906888
L 359.988536 -246.833813
L 359.455152 -298.218678
z
" id="m21423a5728" style="stroke:#000000;"/>
    </defs>
    <g clip-path="url(#p328182be03)">
     <use style="fill:#ff0000;fill-opacity:0;stroke:#000000;" x="0" xlink:href="#m21423a5728" y="644.4"/>
    </g>
   </g>
   <g id="Poly3DCollection_59">
    <defs>
     <path d="M 359.455152 -298.218678
L 359.988536 -246.833813
L 360.405422 -246.604075
L 359.874485 -297.995451
z
" id="m54742b1f49" style="stroke:#000000;"/>
    </defs>
    <g clip-path="url(#p328182be03)">
     <use style="fill:#ff0000;fill-opacity:0;stroke:#000000;" x="0" xlink:href="#m54742b1f49" y="644.4"/>
    </g>
   </g>
   <g id="Poly3DCollection_60">
    <defs>
     <path d="M 433.859806 -295.463576
L 433.944679 -243.998384
L 426.509823 -247.983698
L 426.380105 -299.335969
z
" id="mc553922fb4" style="stroke:#000000;"/>
    </defs>
    <g clip-path="url(#p328182be03)">
     <use style="fill:#ff0000;fill-opacity:0;stroke:#000000;" x="0" xlink:href="#mc553922fb4" y="644.4"/>
    </g>
   </g>
   <g id="Poly3DCollection_61">
    <defs>
     <path d="M 359.874485 -297.995451
L 360.405422 -246.604075
L 346.623273 -242.620153
L 346.007072 -294.124368
z
" id="maf505e3896" style="stroke:#000000;"/>
    </defs>
    <g clip-path="url(#p328182be03)">
     <use style="fill:#ff0000;fill-opacity:0;stroke:#000000;" x="0" xlink:href="#maf505e3896" y="644.4"/>
    </g>
   </g>
   <g id="Poly3DCollection_62">
    <defs>
     <path d="M 346.007072 -294.124368
L 346.623273 -242.620153
L 347.08328 -242.128925
L 346.469676 -293.647044
z
" id="mcc321225a4" style="stroke:#000000;"/>
    </defs>
    <g clip-path="url(#p328182be03)">
     <use style="fill:#ff0000;fill-opacity:0;stroke:#000000;" x="0" xlink:href="#mcc321225a4" y="644.4"/>
    </g>
   </g>
   <g id="Poly3DCollection_63">
    <defs>
     <path d="M 346.469676 -293.647044
L 347.08328 -242.128925
L 345.741343 -241.739339
L 345.119411 -293.268485
z
" id="m0652009550" style="stroke:#000000;"/>
    </defs>
    <g clip-path="url(#p328182be03)">
     <use style="fill:#ff0000;fill-opacity:0;stroke:#000000;" x="0" xlink:href="#m0652009550" y="644.4"/>
    </g>
   </g>
   <g id="Poly3DCollection_64">
    <defs>
     <path d="M 345.119411 -293.268485
L 345.741343 -241.739339
L 341.729397 -243.955386
L 341.083998 -295.421796
z
" id="me74903a51a" style="stroke:#000000;"/>
    </defs>
    <g clip-path="url(#p328182be03)">
     <use style="fill:#ff0000;fill-opacity:0;stroke:#000000;" x="0" xlink:href="#me74903a51a" y="644.4"/>
    </g>
   </g>
   <g id="Poly3DCollection_65">
    <defs>
     <path d="M 341.083998 -295.421796
L 341.729397 -243.955386
L 317.600742 -236.85766
L 316.804922 -288.524869
z
" id="ma5865b4e75" style="stroke:#000000;"/>
    </defs>
    <g clip-path="url(#p328182be03)">
     <use style="fill:#ff0000;fill-opacity:0;stroke:#000000;" x="0" xlink:href="#ma5865b4e75" y="644.4"/>
    </g>
   </g>
   <g id="Poly3DCollection_66">
    <defs>
     <path d="M 316.804922 -288.524869
L 317.600742 -236.85766
L 311.155691 -234.964905
L 310.319457 -286.685595
z
" id="m32a8385eb5" style="stroke:#000000;"/>
    </defs>
    <g clip-path="url(#p328182be03)">
     <use style="fill:#ff0000;fill-opacity:0;stroke:#000000;" x="0" xlink:href="#m32a8385eb5" y="644.4"/>
    </g>
   </g>
   <g id="Poly3DCollection_67">
    <defs>
     <path d="M 389.440494 -291.042262
L 389.794795 -239.448298
L 400.054531 -233.84929
L 399.761692 -285.601488
z
" id="m7fe9df66af" style="stroke:#000000;"/>
    </defs>
    <g clip-path="url(#p328182be03)">
     <use style="fill:#ff0000;fill-opacity:0.5;stroke:#000000;" x="0" xlink:href="#m7fe9df66af" y="644.4"/>
    </g>
   </g>
   <g id="Poly3DCollection_68">
    <defs>
     <path d="M 399.761692 -285.601488
L 400.054531 -233.84929
L 433.944679 -243.998384
L 433.859806 -295.463576
z
" id="ma50ce581e2" style="stroke:#000000;"/>
    </defs>
    <g clip-path="url(#p328182be03)">
     <use style="fill:#ff0000;fill-opacity:0.5;stroke:#000000;" x="0" xlink:href="#ma50ce581e2" y="644.4"/>
    </g>
   </g>
   <g id="Poly3DCollection_69">
    <defs>
     <path d="M 364.146779 -283.7778
L 364.656868 -231.972621
L 389.794795 -239.448298
L 389.440494 -291.042262
z
" id="m1172a77bf9" style="stroke:#000000;"/>
    </defs>
    <g clip-path="url(#p328182be03)">
     <use style="fill:#ff0000;fill-opacity:0;stroke:#000000;" x="0" xlink:href="#m1172a77bf9" y="644.4"/>
    </g>
   </g>
   <g id="Poly3DCollection_70">
    <defs>
     <path d="M 377.124282 -276.834678
L 377.55737 -224.828047
L 364.656868 -231.972621
L 364.146779 -283.7778
z
" id="m5336c30e2f" style="stroke:#000000;"/>
    </defs>
    <g clip-path="url(#p328182be03)">
     <use style="fill:#ff0000;fill-opacity:0;stroke:#000000;" x="0" xlink:href="#m5336c30e2f" y="644.4"/>
    </g>
   </g>
   <g id="Poly3DCollection_71">
    <defs>
     <path d="M 539.548293 -371.652543
L 224.810037 -283.825422
L 345.86893 -215.321684
L 666.826183 -311.282835
z
" id="m44067cfb51" style="stroke:#000000;"/>
    </defs>
    <g clip-path="url(#p328182be03)">
     <use style="fill-opacity:0;stroke:#000000;" x="0" xlink:href="#m44067cfb51" y="644.4"/>
    </g>
   </g>
   <g id="Poly3DCollection_72">
    <defs>
     <path d="M 377.124282 -276.834678
L 364.146779 -283.7778
L 389.440494 -291.042262
L 399.761692 -285.601488
L 433.859806 -295.463576
L 426.380105 -299.335969
L 428.640297 -299.991757
L 424.840215 -301.956987
L 422.982826 -301.426491
L 415.459919 -305.329655
L 395.262907 -299.585672
L 390.223397 -302.227155
L 392.06191 -302.7498
L 386.095271 -305.884014
L 375.790619 -302.984433
L 374.631544 -303.599309
L 368.691649 -301.933865
L 370.052035 -301.204622
L 359.455152 -298.218678
L 359.874485 -297.995451
L 346.007072 -294.124368
L 346.469676 -293.647044
L 345.119411 -293.268485
L 341.083998 -295.421796
L 316.804922 -288.524869
L 310.319457 -286.685595
L 345.333933 -267.62378
z
" id="m21cfac2206" style="stroke:#000000;"/>
    </defs>
    <g clip-path="url(#p328182be03)">
     <use style="fill:#ff0000;fill-opacity:0;stroke:#000000;" x="0" xlink:href="#m21cfac2206" y="644.4"/>
    </g>
   </g>
   <g id="Poly3DCollection_73">
    <defs>
     <path d="M 345.333933 -267.62378
L 345.965432 -215.350537
L 377.55737 -224.828047
L 377.124282 -276.834678
z
" id="mf7bf234436" style="stroke:#000000;"/>
    </defs>
    <g clip-path="url(#p328182be03)">
     <use style="fill:#ff0000;fill-opacity:0;stroke:#000000;" x="0" xlink:href="#mf7bf234436" y="644.4"/>
    </g>
   </g>
   <g id="Poly3DCollection_74">
    <defs>
     <path d="M 310.319457 -286.685595
L 311.155691 -234.964905
L 345.965432 -215.350537
L 345.333933 -267.62378
z
" id="mc408015093" style="stroke:#000000;"/>
    </defs>
    <g clip-path="url(#p328182be03)">
     <use style="fill:#ff0000;fill-opacity:0;stroke:#000000;" x="0" xlink:href="#mc408015093" y="644.4"/>
    </g>
   </g>
  </g>
 </g>
 <defs>
  <clipPath id="p328182be03">
   <rect height="644.4" width="644.4" x="117" y="0"/>
  </clipPath>
 </defs>
</svg>
