<?xml version="1.0" encoding="utf-8" standalone="no"?>
<!DOCTYPE svg PUBLIC "-//W3C//DTD SVG 1.1//EN"
  "http://www.w3.org/Graphics/SVG/1.1/DTD/svg11.dtd">
<!-- Created with matplotlib (https://matplotlib.org/) -->
<svg height="610.56pt" version="1.1" viewBox="0 0 723.6 610.56" width="723.6pt" xmlns="http://www.w3.org/2000/svg" xmlns:xlink="http://www.w3.org/1999/xlink">
 <metadata>
  <rdf:RDF xmlns:cc="http://creativecommons.org/ns#" xmlns:dc="http://purl.org/dc/elements/1.1/" xmlns:rdf="http://www.w3.org/1999/02/22-rdf-syntax-ns#">
   <cc:Work>
    <dc:type rdf:resource="http://purl.org/dc/dcmitype/StillImage"/>
    <dc:date>2020-11-04T15:00:20.465617</dc:date>
    <dc:format>image/svg+xml</dc:format>
    <dc:creator>
     <cc:Agent>
      <dc:title>Matplotlib v3.3.1, https://matplotlib.org/</dc:title>
     </cc:Agent>
    </dc:creator>
   </cc:Work>
  </rdf:RDF>
 </metadata>
 <defs>
  <style type="text/css">*{stroke-linecap:butt;stroke-linejoin:round;}</style>
 </defs>
 <g id="figure_1">
  <g id="patch_1">
   <path d="M 0 610.56 
L 723.6 610.56 
L 723.6 0 
L 0 0 
z
" style="fill:#ffffff;"/>
  </g>
  <g id="patch_2">
   <path d="M 56.52 610.56 
L 667.08 610.56 
L 667.08 0 
L 56.52 0 
z
" style="fill:#ffffff;"/>
  </g>
  <g id="pane3d_1">
   <g id="patch_3">
    <path d="M 500.889811 219.368083 
L 144.864365 287.389755 
L 129.596015 92.467998 
L 509.591385 23.651649 
" style="fill:#f2f2f2;opacity:0.5;stroke:#f2f2f2;stroke-linejoin:miter;"/>
   </g>
  </g>
  <g id="pane3d_2">
   <g id="patch_4">
    <path d="M 607.822187 499.307525 
L 500.889811 219.368083 
L 509.591385 23.651649 
L 624.909569 307.93879 
" style="fill:#e6e6e6;opacity:0.5;stroke:#e6e6e6;stroke-linejoin:miter;"/>
   </g>
  </g>
  <g id="pane3d_3">
   <g id="patch_5">
    <path d="M 607.822187 499.307525 
L 500.889811 219.368083 
L 144.864365 287.389755 
L 226.609576 578.048616 
" style="fill:#ececec;opacity:0.5;stroke:#ececec;stroke-linejoin:miter;"/>
   </g>
  </g>
  <g id="axis3d_1">
   <g id="line2d_1">
    <path d="M 144.864365 287.389755 
L 226.609576 578.048616 
" style="fill:none;stroke:#000000;stroke-linecap:square;stroke-width:0.8;"/>
   </g>
   <g id="Line3DCollection_1">
    <path d="M 223.37845 566.559805 
L 603.601068 488.257012 
L 620.335458 296.662503 
" style="fill:none;stroke:#b0b0b0;stroke-width:0.8;"/>
    <path d="M 213.333304 530.842596 
L 590.475237 453.894753 
L 606.123559 261.626742 
" style="fill:none;stroke:#b0b0b0;stroke-width:0.8;"/>
    <path d="M 203.462885 495.746659 
L 577.573401 420.118897 
L 592.17125 227.230936 
" style="fill:none;stroke:#b0b0b0;stroke-width:0.8;"/>
    <path d="M 193.762673 461.255923 
L 564.889877 386.91456 
L 578.471484 193.457709 
" style="fill:none;stroke:#b0b0b0;stroke-width:0.8;"/>
    <path d="M 184.228304 427.354867 
L 552.41917 354.267357 
L 565.017466 160.290309 
" style="fill:none;stroke:#b0b0b0;stroke-width:0.8;"/>
    <path d="M 174.85556 394.028497 
L 540.155967 322.163384 
L 551.802642 127.712581 
" style="fill:none;stroke:#b0b0b0;stroke-width:0.8;"/>
    <path d="M 165.640366 361.262323 
L 528.095132 290.589193 
L 538.82069 95.708936 
" style="fill:none;stroke:#b0b0b0;stroke-width:0.8;"/>
    <path d="M 156.578782 329.042339 
L 516.231698 259.531778 
L 526.065507 64.264334 
" style="fill:none;stroke:#b0b0b0;stroke-width:0.8;"/>
    <path d="M 147.667001 297.354999 
L 504.560857 228.978555 
L 513.531204 33.364253 
" style="fill:none;stroke:#b0b0b0;stroke-width:0.8;"/>
   </g>
   <g id="xtick_1">
    <g id="line2d_2">
     <path d="M 226.479397 565.921198 
L 217.173636 567.83762 
" style="fill:none;stroke:#000000;stroke-linecap:square;stroke-width:0.8;"/>
    </g>
    <g id="text_1">
     <!-- −80 -->
     <g transform="translate(199.191806 583.428417)scale(0.1 -0.1)">
      <defs>
       <path d="M 10.59375 35.5 
L 73.1875 35.5 
L 73.1875 27.203125 
L 10.59375 27.203125 
z
" id="DejaVuSans-8722"/>
       <path d="M 31.78125 34.625 
Q 24.75 34.625 20.71875 30.859375 
Q 16.703125 27.09375 16.703125 20.515625 
Q 16.703125 13.921875 20.71875 10.15625 
Q 24.75 6.390625 31.78125 6.390625 
Q 38.8125 6.390625 42.859375 10.171875 
Q 46.921875 13.96875 46.921875 20.515625 
Q 46.921875 27.09375 42.890625 30.859375 
Q 38.875 34.625 31.78125 34.625 
z
M 21.921875 38.8125 
Q 15.578125 40.375 12.03125 44.71875 
Q 8.5 49.078125 8.5 55.328125 
Q 8.5 64.0625 14.71875 69.140625 
Q 20.953125 74.21875 31.78125 74.21875 
Q 42.671875 74.21875 48.875 69.140625 
Q 55.078125 64.0625 55.078125 55.328125 
Q 55.078125 49.078125 51.53125 44.71875 
Q 48 40.375 41.703125 38.8125 
Q 48.828125 37.15625 52.796875 32.3125 
Q 56.78125 27.484375 56.78125 20.515625 
Q 56.78125 9.90625 50.3125 4.234375 
Q 43.84375 -1.421875 31.78125 -1.421875 
Q 19.734375 -1.421875 13.25 4.234375 
Q 6.78125 9.90625 6.78125 20.515625 
Q 6.78125 27.484375 10.78125 32.3125 
Q 14.796875 37.15625 21.921875 38.8125 
z
M 18.3125 54.390625 
Q 18.3125 48.734375 21.84375 45.5625 
Q 25.390625 42.390625 31.78125 42.390625 
Q 38.140625 42.390625 41.71875 45.5625 
Q 45.3125 48.734375 45.3125 54.390625 
Q 45.3125 60.0625 41.71875 63.234375 
Q 38.140625 66.40625 31.78125 66.40625 
Q 25.390625 66.40625 21.84375 63.234375 
Q 18.3125 60.0625 18.3125 54.390625 
z
" id="DejaVuSans-56"/>
       <path d="M 31.78125 66.40625 
Q 24.171875 66.40625 20.328125 58.90625 
Q 16.5 51.421875 16.5 36.375 
Q 16.5 21.390625 20.328125 13.890625 
Q 24.171875 6.390625 31.78125 6.390625 
Q 39.453125 6.390625 43.28125 13.890625 
Q 47.125 21.390625 47.125 36.375 
Q 47.125 51.421875 43.28125 58.90625 
Q 39.453125 66.40625 31.78125 66.40625 
z
M 31.78125 74.21875 
Q 44.046875 74.21875 50.515625 64.515625 
Q 56.984375 54.828125 56.984375 36.375 
Q 56.984375 17.96875 50.515625 8.265625 
Q 44.046875 -1.421875 31.78125 -1.421875 
Q 19.53125 -1.421875 13.0625 8.265625 
Q 6.59375 17.96875 6.59375 36.375 
Q 6.59375 54.828125 13.0625 64.515625 
Q 19.53125 74.21875 31.78125 74.21875 
z
" id="DejaVuSans-48"/>
      </defs>
      <use xlink:href="#DejaVuSans-8722"/>
      <use x="83.789062" xlink:href="#DejaVuSans-56"/>
      <use x="147.412109" xlink:href="#DejaVuSans-48"/>
     </g>
    </g>
   </g>
   <g id="xtick_2">
    <g id="line2d_3">
     <path d="M 216.408611 530.215145 
L 207.179819 532.098085 
" style="fill:none;stroke:#000000;stroke-linecap:square;stroke-width:0.8;"/>
    </g>
    <g id="text_2">
     <!-- −60 -->
     <g transform="translate(189.283527 547.692086)scale(0.1 -0.1)">
      <defs>
       <path d="M 33.015625 40.375 
Q 26.375 40.375 22.484375 35.828125 
Q 18.609375 31.296875 18.609375 23.390625 
Q 18.609375 15.53125 22.484375 10.953125 
Q 26.375 6.390625 33.015625 6.390625 
Q 39.65625 6.390625 43.53125 10.953125 
Q 47.40625 15.53125 47.40625 23.390625 
Q 47.40625 31.296875 43.53125 35.828125 
Q 39.65625 40.375 33.015625 40.375 
z
M 52.59375 71.296875 
L 52.59375 62.3125 
Q 48.875 64.0625 45.09375 64.984375 
Q 41.3125 65.921875 37.59375 65.921875 
Q 27.828125 65.921875 22.671875 59.328125 
Q 17.53125 52.734375 16.796875 39.40625 
Q 19.671875 43.65625 24.015625 45.921875 
Q 28.375 48.1875 33.59375 48.1875 
Q 44.578125 48.1875 50.953125 41.515625 
Q 57.328125 34.859375 57.328125 23.390625 
Q 57.328125 12.15625 50.6875 5.359375 
Q 44.046875 -1.421875 33.015625 -1.421875 
Q 20.359375 -1.421875 13.671875 8.265625 
Q 6.984375 17.96875 6.984375 36.375 
Q 6.984375 53.65625 15.1875 63.9375 
Q 23.390625 74.21875 37.203125 74.21875 
Q 40.921875 74.21875 44.703125 73.484375 
Q 48.484375 72.75 52.59375 71.296875 
z
" id="DejaVuSans-54"/>
      </defs>
      <use xlink:href="#DejaVuSans-8722"/>
      <use x="83.789062" xlink:href="#DejaVuSans-54"/>
      <use x="147.412109" xlink:href="#DejaVuSans-48"/>
     </g>
    </g>
   </g>
   <g id="xtick_3">
    <g id="line2d_4">
     <path d="M 206.512972 495.130073 
L 197.359889 496.980401 
" style="fill:none;stroke:#000000;stroke-linecap:square;stroke-width:0.8;"/>
    </g>
    <g id="text_3">
     <!-- −40 -->
     <g transform="translate(179.547297 512.576288)scale(0.1 -0.1)">
      <defs>
       <path d="M 37.796875 64.3125 
L 12.890625 25.390625 
L 37.796875 25.390625 
z
M 35.203125 72.90625 
L 47.609375 72.90625 
L 47.609375 25.390625 
L 58.015625 25.390625 
L 58.015625 17.1875 
L 47.609375 17.1875 
L 47.609375 0 
L 37.796875 0 
L 37.796875 17.1875 
L 4.890625 17.1875 
L 4.890625 26.703125 
z
" id="DejaVuSans-52"/>
      </defs>
      <use xlink:href="#DejaVuSans-8722"/>
      <use x="83.789062" xlink:href="#DejaVuSans-52"/>
      <use x="147.412109" xlink:href="#DejaVuSans-48"/>
     </g>
    </g>
   </g>
   <g id="xtick_4">
    <g id="line2d_5">
     <path d="M 196.787948 460.649923 
L 187.709348 462.468478 
" style="fill:none;stroke:#000000;stroke-linecap:square;stroke-width:0.8;"/>
    </g>
    <g id="text_4">
     <!-- −20 -->
     <g transform="translate(169.978673 478.064999)scale(0.1 -0.1)">
      <defs>
       <path d="M 19.1875 8.296875 
L 53.609375 8.296875 
L 53.609375 0 
L 7.328125 0 
L 7.328125 8.296875 
Q 12.9375 14.109375 22.625 23.890625 
Q 32.328125 33.6875 34.8125 36.53125 
Q 39.546875 41.84375 41.421875 45.53125 
Q 43.3125 49.21875 43.3125 52.78125 
Q 43.3125 58.59375 39.234375 62.25 
Q 35.15625 65.921875 28.609375 65.921875 
Q 23.96875 65.921875 18.8125 64.3125 
Q 13.671875 62.703125 7.8125 59.421875 
L 7.8125 69.390625 
Q 13.765625 71.78125 18.9375 73 
Q 24.125 74.21875 28.421875 74.21875 
Q 39.75 74.21875 46.484375 68.546875 
Q 53.21875 62.890625 53.21875 53.421875 
Q 53.21875 48.921875 51.53125 44.890625 
Q 49.859375 40.875 45.40625 35.40625 
Q 44.1875 33.984375 37.640625 27.21875 
Q 31.109375 20.453125 19.1875 8.296875 
z
" id="DejaVuSans-50"/>
      </defs>
      <use xlink:href="#DejaVuSans-8722"/>
      <use x="83.789062" xlink:href="#DejaVuSans-50"/>
      <use x="147.412109" xlink:href="#DejaVuSans-48"/>
     </g>
    </g>
   </g>
   <g id="xtick_5">
    <g id="line2d_6">
     <path d="M 187.229166 426.759183 
L 178.223851 428.546777 
" style="fill:none;stroke:#000000;stroke-linecap:square;stroke-width:0.8;"/>
    </g>
    <g id="text_5">
     <!-- 0 -->
     <g transform="translate(167.94446 444.142743)scale(0.1 -0.1)">
      <use xlink:href="#DejaVuSans-48"/>
     </g>
    </g>
   </g>
   <g id="xtick_6">
    <g id="line2d_7">
     <path d="M 177.832398 393.442867 
L 168.899198 395.200285 
" style="fill:none;stroke:#000000;stroke-linecap:square;stroke-width:0.8;"/>
    </g>
    <g id="text_6">
     <!-- 20 -->
     <g transform="translate(155.517072 410.794567)scale(0.1 -0.1)">
      <use xlink:href="#DejaVuSans-50"/>
      <use x="63.623047" xlink:href="#DejaVuSans-48"/>
     </g>
    </g>
   </g>
   <g id="xtick_7">
    <g id="line2d_8">
     <path d="M 168.593561 360.686496 
L 159.731334 362.414494 
" style="fill:none;stroke:#000000;stroke-linecap:square;stroke-width:0.8;"/>
    </g>
    <g id="text_7">
     <!-- 40 -->
     <g transform="translate(146.426097 378.00602)scale(0.1 -0.1)">
      <use xlink:href="#DejaVuSans-52"/>
      <use x="63.623047" xlink:href="#DejaVuSans-48"/>
     </g>
    </g>
   </g>
   <g id="xtick_8">
    <g id="line2d_9">
     <path d="M 159.508706 328.476069 
L 150.716337 330.175381 
" style="fill:none;stroke:#000000;stroke-linecap:square;stroke-width:0.8;"/>
    </g>
    <g id="text_8">
     <!-- 60 -->
     <g transform="translate(137.486412 345.763132)scale(0.1 -0.1)">
      <use xlink:href="#DejaVuSans-54"/>
      <use x="63.623047" xlink:href="#DejaVuSans-48"/>
     </g>
    </g>
   </g>
   <g id="xtick_9">
    <g id="line2d_10">
     <path d="M 150.574016 296.798051 
L 141.850415 298.469385 
" style="fill:none;stroke:#000000;stroke-linecap:square;stroke-width:0.8;"/>
    </g>
    <g id="text_9">
     <!-- 80 -->
     <g transform="translate(128.694272 314.052396)scale(0.1 -0.1)">
      <use xlink:href="#DejaVuSans-56"/>
      <use x="63.623047" xlink:href="#DejaVuSans-48"/>
     </g>
    </g>
   </g>
  </g>
  <g id="axis3d_2">
   <g id="line2d_11">
    <path d="M 607.822187 499.307525 
L 226.609576 578.048616 
" style="fill:none;stroke:#000000;stroke-linecap:square;stroke-width:0.8;"/>
   </g>
   <g id="Line3DCollection_2">
    <path d="M 495.859347 26.138491 
L 488.008901 221.82909 
L 594.048266 502.152587 
" style="fill:none;stroke:#b0b0b0;stroke-width:0.8;"/>
    <path d="M 452.542363 33.983104 
L 447.384173 229.590788 
L 550.59813 511.127398 
" style="fill:none;stroke:#b0b0b0;stroke-width:0.8;"/>
    <path d="M 409.032463 41.862654 
L 406.589856 237.384887 
L 506.952904 520.142505 
" style="fill:none;stroke:#b0b0b0;stroke-width:0.8;"/>
    <path d="M 365.328355 49.777375 
L 365.624885 245.211591 
L 463.111271 529.198182 
" style="fill:none;stroke:#b0b0b0;stroke-width:0.8;"/>
    <path d="M 321.428736 57.727502 
L 324.488188 253.071105 
L 419.071902 538.294701 
" style="fill:none;stroke:#b0b0b0;stroke-width:0.8;"/>
    <path d="M 277.33229 65.713274 
L 283.178682 260.963635 
L 374.833457 547.432341 
" style="fill:none;stroke:#b0b0b0;stroke-width:0.8;"/>
    <path d="M 233.037692 73.734931 
L 241.695276 268.889391 
L 330.394581 556.61138 
" style="fill:none;stroke:#b0b0b0;stroke-width:0.8;"/>
    <path d="M 188.543602 81.792716 
L 200.036871 276.848581 
L 285.753911 565.832101 
" style="fill:none;stroke:#b0b0b0;stroke-width:0.8;"/>
    <path d="M 143.84867 89.886873 
L 158.202355 284.841419 
L 240.910068 575.094788 
" style="fill:none;stroke:#b0b0b0;stroke-width:0.8;"/>
   </g>
   <g id="xtick_10">
    <g id="line2d_12">
     <path d="M 593.136683 499.742746 
L 595.874727 506.980982 
" style="fill:none;stroke:#000000;stroke-linecap:square;stroke-width:0.8;"/>
    </g>
    <g id="text_10">
     <!-- −80 -->
     <g transform="translate(587.076712 527.110483)scale(0.1 -0.1)">
      <use xlink:href="#DejaVuSans-8722"/>
      <use x="83.789062" xlink:href="#DejaVuSans-56"/>
      <use x="147.412109" xlink:href="#DejaVuSans-48"/>
     </g>
    </g>
   </g>
   <g id="xtick_11">
    <g id="line2d_13">
     <path d="M 549.710699 508.706752 
L 552.376209 515.977461 
" style="fill:none;stroke:#000000;stroke-linecap:square;stroke-width:0.8;"/>
    </g>
    <g id="text_11">
     <!-- −60 -->
     <g transform="translate(543.621787 536.126836)scale(0.1 -0.1)">
      <use xlink:href="#DejaVuSans-8722"/>
      <use x="83.789062" xlink:href="#DejaVuSans-54"/>
      <use x="147.412109" xlink:href="#DejaVuSans-48"/>
     </g>
    </g>
   </g>
   <g id="xtick_12">
    <g id="line2d_14">
     <path d="M 506.08985 517.710982 
L 508.682147 525.014383 
" style="fill:none;stroke:#000000;stroke-linecap:square;stroke-width:0.8;"/>
    </g>
    <g id="text_12">
     <!-- −40 -->
     <g transform="translate(499.971694 545.183685)scale(0.1 -0.1)">
      <use xlink:href="#DejaVuSans-8722"/>
      <use x="83.789062" xlink:href="#DejaVuSans-52"/>
      <use x="147.412109" xlink:href="#DejaVuSans-48"/>
     </g>
    </g>
   </g>
   <g id="xtick_13">
    <g id="line2d_15">
     <path d="M 462.272823 526.755707 
L 464.791219 534.092021 
" style="fill:none;stroke:#000000;stroke-linecap:square;stroke-width:0.8;"/>
    </g>
    <g id="text_13">
     <!-- −20 -->
     <g transform="translate(456.125112 554.281302)scale(0.1 -0.1)">
      <use xlink:href="#DejaVuSans-8722"/>
      <use x="83.789062" xlink:href="#DejaVuSans-50"/>
      <use x="147.412109" xlink:href="#DejaVuSans-48"/>
     </g>
    </g>
   </g>
   <g id="xtick_14">
    <g id="line2d_16">
     <path d="M 418.258291 535.841201 
L 420.702093 543.210651 
" style="fill:none;stroke:#000000;stroke-linecap:square;stroke-width:0.8;"/>
    </g>
    <g id="text_14">
     <!-- 0 -->
     <g transform="translate(419.451808 563.419963)scale(0.1 -0.1)">
      <use xlink:href="#DejaVuSans-48"/>
     </g>
    </g>
   </g>
   <g id="xtick_15">
    <g id="line2d_17">
     <path d="M 374.044915 544.967741 
L 376.413422 552.370552 
" style="fill:none;stroke:#000000;stroke-linecap:square;stroke-width:0.8;"/>
    </g>
    <g id="text_15">
     <!-- 20 -->
     <g transform="translate(372.027001 572.599948)scale(0.1 -0.1)">
      <use xlink:href="#DejaVuSans-50"/>
      <use x="63.623047" xlink:href="#DejaVuSans-48"/>
     </g>
    </g>
   </g>
   <g id="xtick_16">
    <g id="line2d_18">
     <path d="M 329.631346 554.135605 
L 331.923848 561.572003 
" style="fill:none;stroke:#000000;stroke-linecap:square;stroke-width:0.8;"/>
    </g>
    <g id="text_16">
     <!-- 40 -->
     <g transform="translate(327.582932 581.821536)scale(0.1 -0.1)">
      <use xlink:href="#DejaVuSans-52"/>
      <use x="63.623047" xlink:href="#DejaVuSans-48"/>
     </g>
    </g>
   </g>
   <g id="xtick_17">
    <g id="line2d_19">
     <path d="M 285.01622 563.345074 
L 287.232003 570.81529 
" style="fill:none;stroke:#000000;stroke-linecap:square;stroke-width:0.8;"/>
    </g>
    <g id="text_17">
     <!-- 60 -->
     <g transform="translate(282.936984 591.085012)scale(0.1 -0.1)">
      <use xlink:href="#DejaVuSans-54"/>
      <use x="63.623047" xlink:href="#DejaVuSans-48"/>
     </g>
    </g>
   </g>
   <g id="xtick_18">
    <g id="line2d_20">
     <path d="M 240.198162 572.596432 
L 242.336502 580.100696 
" style="fill:none;stroke:#000000;stroke-linecap:square;stroke-width:0.8;"/>
    </g>
    <g id="text_18">
     <!-- 80 -->
     <g transform="translate(238.087778 600.390661)scale(0.1 -0.1)">
      <use xlink:href="#DejaVuSans-56"/>
      <use x="63.623047" xlink:href="#DejaVuSans-48"/>
     </g>
    </g>
   </g>
  </g>
  <g id="axis3d_3">
   <g id="line2d_21">
    <path d="M 607.822187 499.307525 
L 624.909569 307.93879 
" style="fill:none;stroke:#000000;stroke-linecap:square;stroke-width:0.8;"/>
   </g>
   <g id="Line3DCollection_3">
    <path d="M 608.410554 492.718149 
L 501.190885 212.596314 
L 144.336701 280.653391 
" style="fill:none;stroke:#b0b0b0;stroke-width:0.8;"/>
    <path d="M 610.280241 471.778748 
L 502.146931 191.092853 
L 142.660833 259.258605 
" style="fill:none;stroke:#b0b0b0;stroke-width:0.8;"/>
    <path d="M 612.179491 450.508253 
L 503.117019 169.273559 
L 140.959894 237.543742 
" style="fill:none;stroke:#b0b0b0;stroke-width:0.8;"/>
    <path d="M 614.109011 428.89875 
L 504.101461 147.13142 
L 139.233316 215.501563 
" style="fill:none;stroke:#b0b0b0;stroke-width:0.8;"/>
    <path d="M 616.069531 406.942068 
L 505.100578 124.659218 
L 137.480514 193.124613 
" style="fill:none;stroke:#b0b0b0;stroke-width:0.8;"/>
    <path d="M 618.061804 384.629774 
L 506.114699 101.849518 
L 135.700888 170.405207 
" style="fill:none;stroke:#b0b0b0;stroke-width:0.8;"/>
    <path d="M 620.086607 361.953157 
L 507.144167 78.694658 
L 133.893817 147.335422 
" style="fill:none;stroke:#b0b0b0;stroke-width:0.8;"/>
    <path d="M 622.144744 338.903221 
L 508.189331 55.186745 
L 132.05866 123.90709 
" style="fill:none;stroke:#b0b0b0;stroke-width:0.8;"/>
    <path d="M 624.237045 315.47067 
L 509.250554 31.317642 
L 130.194758 100.111787 
" style="fill:none;stroke:#b0b0b0;stroke-width:0.8;"/>
   </g>
   <g id="xtick_19">
    <g id="line2d_22">
     <path d="M 607.488712 490.309747 
L 610.257577 497.543676 
" style="fill:none;stroke:#000000;stroke-linecap:square;stroke-width:0.8;"/>
    </g>
    <g id="text_19">
     <!-- −60 -->
     <g transform="translate(615.616978 508.431693)scale(0.1 -0.1)">
      <use xlink:href="#DejaVuSans-8722"/>
      <use x="83.789062" xlink:href="#DejaVuSans-54"/>
      <use x="147.412109" xlink:href="#DejaVuSans-48"/>
     </g>
    </g>
   </g>
   <g id="xtick_20">
    <g id="line2d_23">
     <path d="M 609.350037 469.364181 
L 612.144044 476.616695 
" style="fill:none;stroke:#000000;stroke-linecap:square;stroke-width:0.8;"/>
    </g>
    <g id="text_20">
     <!-- −40 -->
     <g transform="translate(617.630075 487.513232)scale(0.1 -0.1)">
      <use xlink:href="#DejaVuSans-8722"/>
      <use x="83.789062" xlink:href="#DejaVuSans-52"/>
      <use x="147.412109" xlink:href="#DejaVuSans-48"/>
     </g>
    </g>
   </g>
   <g id="xtick_21">
    <g id="line2d_24">
     <path d="M 611.240775 448.087626 
L 614.060377 455.358411 
" style="fill:none;stroke:#000000;stroke-linecap:square;stroke-width:0.8;"/>
    </g>
    <g id="text_21">
     <!-- −20 -->
     <g transform="translate(619.675068 466.263326)scale(0.1 -0.1)">
      <use xlink:href="#DejaVuSans-8722"/>
      <use x="83.789062" xlink:href="#DejaVuSans-50"/>
      <use x="147.412109" xlink:href="#DejaVuSans-48"/>
     </g>
    </g>
   </g>
   <g id="xtick_22">
    <g id="line2d_25">
     <path d="M 613.161629 426.472176 
L 616.007289 433.760895 
" style="fill:none;stroke:#000000;stroke-linecap:square;stroke-width:0.8;"/>
    </g>
    <g id="text_22">
     <!-- 0 -->
     <g transform="translate(629.123816 444.674036)scale(0.1 -0.1)">
      <use xlink:href="#DejaVuSans-48"/>
     </g>
    </g>
   </g>
   <g id="xtick_23">
    <g id="line2d_26">
     <path d="M 615.113324 404.509668 
L 617.98552 411.815961 
" style="fill:none;stroke:#000000;stroke-linecap:square;stroke-width:0.8;"/>
    </g>
    <g id="text_23">
     <!-- 20 -->
     <g transform="translate(628.053669 422.737166)scale(0.1 -0.1)">
      <use xlink:href="#DejaVuSans-50"/>
      <use x="63.623047" xlink:href="#DejaVuSans-48"/>
     </g>
    </g>
   </g>
   <g id="xtick_24">
    <g id="line2d_27">
     <path d="M 617.096609 382.191676 
L 619.995831 389.515157 
" style="fill:none;stroke:#000000;stroke-linecap:square;stroke-width:0.8;"/>
    </g>
    <g id="text_24">
     <!-- 40 -->
     <g transform="translate(630.199037 400.444253)scale(0.1 -0.1)">
      <use xlink:href="#DejaVuSans-52"/>
      <use x="63.623047" xlink:href="#DejaVuSans-48"/>
     </g>
    </g>
   </g>
   <g id="xtick_25">
    <g id="line2d_28">
     <path d="M 619.112258 359.509499 
L 622.039008 366.849758 
" style="fill:none;stroke:#000000;stroke-linecap:square;stroke-width:0.8;"/>
    </g>
    <g id="text_25">
     <!-- 60 -->
     <g transform="translate(632.379509 377.786558)scale(0.1 -0.1)">
      <use xlink:href="#DejaVuSans-54"/>
      <use x="63.623047" xlink:href="#DejaVuSans-48"/>
     </g>
    </g>
   </g>
   <g id="xtick_26">
    <g id="line2d_29">
     <path d="M 621.161068 336.454148 
L 624.115864 343.810747 
" style="fill:none;stroke:#000000;stroke-linecap:square;stroke-width:0.8;"/>
    </g>
    <g id="text_26">
     <!-- 80 -->
     <g transform="translate(634.595955 354.755055)scale(0.1 -0.1)">
      <use xlink:href="#DejaVuSans-56"/>
      <use x="63.623047" xlink:href="#DejaVuSans-48"/>
     </g>
    </g>
   </g>
   <g id="xtick_27">
    <g id="line2d_30">
     <path d="M 623.243866 313.016339 
L 626.227239 320.388811 
" style="fill:none;stroke:#000000;stroke-linecap:square;stroke-width:0.8;"/>
    </g>
    <g id="text_27">
     <!-- 100 -->
     <g transform="translate(633.668022 331.340416)scale(0.1 -0.1)">
      <defs>
       <path d="M 12.40625 8.296875 
L 28.515625 8.296875 
L 28.515625 63.921875 
L 10.984375 60.40625 
L 10.984375 69.390625 
L 28.421875 72.90625 
L 38.28125 72.90625 
L 38.28125 8.296875 
L 54.390625 8.296875 
L 54.390625 0 
L 12.40625 0 
z
" id="DejaVuSans-49"/>
      </defs>
      <use xlink:href="#DejaVuSans-49"/>
      <use x="63.623047" xlink:href="#DejaVuSans-48"/>
      <use x="127.246094" xlink:href="#DejaVuSans-48"/>
     </g>
    </g>
   </g>
  </g>
  <g id="axes_1">
   <g id="Poly3DCollection_1">
    <defs>
     <path d="M 394.859664 -399.365602 
L 383.742367 -385.379996 
L 364.80552 -393.667107 
L 375.96906 -407.590748 
z
" id="mb74c581595" style="stroke:#000000;"/>
    </defs>
    <g clip-path="url(#p6137cee8b6)">
     <use style="fill-opacity:0;stroke:#000000;" x="0" xlink:href="#mb74c581595" y="610.56"/>
    </g>
   </g>
   <g id="text_28">
    <!-- Press 'q' to quit, 'space' to play/pause -->
    <g transform="translate(87.048 30.528)scale(0.1 -0.1)">
     <defs>
      <path d="M 19.671875 64.796875 
L 19.671875 37.40625 
L 32.078125 37.40625 
Q 38.96875 37.40625 42.71875 40.96875 
Q 46.484375 44.53125 46.484375 51.125 
Q 46.484375 57.671875 42.71875 61.234375 
Q 38.96875 64.796875 32.078125 64.796875 
z
M 9.8125 72.90625 
L 32.078125 72.90625 
Q 44.34375 72.90625 50.609375 67.359375 
Q 56.890625 61.8125 56.890625 51.125 
Q 56.890625 40.328125 50.609375 34.8125 
Q 44.34375 29.296875 32.078125 29.296875 
L 19.671875 29.296875 
L 19.671875 0 
L 9.8125 0 
z
" id="DejaVuSans-80"/>
      <path d="M 41.109375 46.296875 
Q 39.59375 47.171875 37.8125 47.578125 
Q 36.03125 48 33.890625 48 
Q 26.265625 48 22.1875 43.046875 
Q 18.109375 38.09375 18.109375 28.8125 
L 18.109375 0 
L 9.078125 0 
L 9.078125 54.6875 
L 18.109375 54.6875 
L 18.109375 46.1875 
Q 20.953125 51.171875 25.484375 53.578125 
Q 30.03125 56 36.53125 56 
Q 37.453125 56 38.578125 55.875 
Q 39.703125 55.765625 41.0625 55.515625 
z
" id="DejaVuSans-114"/>
      <path d="M 56.203125 29.59375 
L 56.203125 25.203125 
L 14.890625 25.203125 
Q 15.484375 15.921875 20.484375 11.0625 
Q 25.484375 6.203125 34.421875 6.203125 
Q 39.59375 6.203125 44.453125 7.46875 
Q 49.3125 8.734375 54.109375 11.28125 
L 54.109375 2.78125 
Q 49.265625 0.734375 44.1875 -0.34375 
Q 39.109375 -1.421875 33.890625 -1.421875 
Q 20.796875 -1.421875 13.15625 6.1875 
Q 5.515625 13.8125 5.515625 26.8125 
Q 5.515625 40.234375 12.765625 48.109375 
Q 20.015625 56 32.328125 56 
Q 43.359375 56 49.78125 48.890625 
Q 56.203125 41.796875 56.203125 29.59375 
z
M 47.21875 32.234375 
Q 47.125 39.59375 43.09375 43.984375 
Q 39.0625 48.390625 32.421875 48.390625 
Q 24.90625 48.390625 20.390625 44.140625 
Q 15.875 39.890625 15.1875 32.171875 
z
" id="DejaVuSans-101"/>
      <path d="M 44.28125 53.078125 
L 44.28125 44.578125 
Q 40.484375 46.53125 36.375 47.5 
Q 32.28125 48.484375 27.875 48.484375 
Q 21.1875 48.484375 17.84375 46.4375 
Q 14.5 44.390625 14.5 40.28125 
Q 14.5 37.15625 16.890625 35.375 
Q 19.28125 33.59375 26.515625 31.984375 
L 29.59375 31.296875 
Q 39.15625 29.25 43.1875 25.515625 
Q 47.21875 21.78125 47.21875 15.09375 
Q 47.21875 7.46875 41.1875 3.015625 
Q 35.15625 -1.421875 24.609375 -1.421875 
Q 20.21875 -1.421875 15.453125 -0.5625 
Q 10.6875 0.296875 5.421875 2 
L 5.421875 11.28125 
Q 10.40625 8.6875 15.234375 7.390625 
Q 20.0625 6.109375 24.8125 6.109375 
Q 31.15625 6.109375 34.5625 8.28125 
Q 37.984375 10.453125 37.984375 14.40625 
Q 37.984375 18.0625 35.515625 20.015625 
Q 33.0625 21.96875 24.703125 23.78125 
L 21.578125 24.515625 
Q 13.234375 26.265625 9.515625 29.90625 
Q 5.8125 33.546875 5.8125 39.890625 
Q 5.8125 47.609375 11.28125 51.796875 
Q 16.75 56 26.8125 56 
Q 31.78125 56 36.171875 55.265625 
Q 40.578125 54.546875 44.28125 53.078125 
z
" id="DejaVuSans-115"/>
      <path id="DejaVuSans-32"/>
      <path d="M 17.921875 72.90625 
L 17.921875 45.796875 
L 9.625 45.796875 
L 9.625 72.90625 
z
" id="DejaVuSans-39"/>
      <path d="M 14.796875 27.296875 
Q 14.796875 17.390625 18.875 11.75 
Q 22.953125 6.109375 30.078125 6.109375 
Q 37.203125 6.109375 41.296875 11.75 
Q 45.40625 17.390625 45.40625 27.296875 
Q 45.40625 37.203125 41.296875 42.84375 
Q 37.203125 48.484375 30.078125 48.484375 
Q 22.953125 48.484375 18.875 42.84375 
Q 14.796875 37.203125 14.796875 27.296875 
z
M 45.40625 8.203125 
Q 42.578125 3.328125 38.25 0.953125 
Q 33.9375 -1.421875 27.875 -1.421875 
Q 17.96875 -1.421875 11.734375 6.484375 
Q 5.515625 14.40625 5.515625 27.296875 
Q 5.515625 40.1875 11.734375 48.09375 
Q 17.96875 56 27.875 56 
Q 33.9375 56 38.25 53.625 
Q 42.578125 51.265625 45.40625 46.390625 
L 45.40625 54.6875 
L 54.390625 54.6875 
L 54.390625 -20.796875 
L 45.40625 -20.796875 
z
" id="DejaVuSans-113"/>
      <path d="M 18.3125 70.21875 
L 18.3125 54.6875 
L 36.8125 54.6875 
L 36.8125 47.703125 
L 18.3125 47.703125 
L 18.3125 18.015625 
Q 18.3125 11.328125 20.140625 9.421875 
Q 21.96875 7.515625 27.59375 7.515625 
L 36.8125 7.515625 
L 36.8125 0 
L 27.59375 0 
Q 17.1875 0 13.234375 3.875 
Q 9.28125 7.765625 9.28125 18.015625 
L 9.28125 47.703125 
L 2.6875 47.703125 
L 2.6875 54.6875 
L 9.28125 54.6875 
L 9.28125 70.21875 
z
" id="DejaVuSans-116"/>
      <path d="M 30.609375 48.390625 
Q 23.390625 48.390625 19.1875 42.75 
Q 14.984375 37.109375 14.984375 27.296875 
Q 14.984375 17.484375 19.15625 11.84375 
Q 23.34375 6.203125 30.609375 6.203125 
Q 37.796875 6.203125 41.984375 11.859375 
Q 46.1875 17.53125 46.1875 27.296875 
Q 46.1875 37.015625 41.984375 42.703125 
Q 37.796875 48.390625 30.609375 48.390625 
z
M 30.609375 56 
Q 42.328125 56 49.015625 48.375 
Q 55.71875 40.765625 55.71875 27.296875 
Q 55.71875 13.875 49.015625 6.21875 
Q 42.328125 -1.421875 30.609375 -1.421875 
Q 18.84375 -1.421875 12.171875 6.21875 
Q 5.515625 13.875 5.515625 27.296875 
Q 5.515625 40.765625 12.171875 48.375 
Q 18.84375 56 30.609375 56 
z
" id="DejaVuSans-111"/>
      <path d="M 8.5 21.578125 
L 8.5 54.6875 
L 17.484375 54.6875 
L 17.484375 21.921875 
Q 17.484375 14.15625 20.5 10.265625 
Q 23.53125 6.390625 29.59375 6.390625 
Q 36.859375 6.390625 41.078125 11.03125 
Q 45.3125 15.671875 45.3125 23.6875 
L 45.3125 54.6875 
L 54.296875 54.6875 
L 54.296875 0 
L 45.3125 0 
L 45.3125 8.40625 
Q 42.046875 3.421875 37.71875 1 
Q 33.40625 -1.421875 27.6875 -1.421875 
Q 18.265625 -1.421875 13.375 4.4375 
Q 8.5 10.296875 8.5 21.578125 
z
M 31.109375 56 
z
" id="DejaVuSans-117"/>
      <path d="M 9.421875 54.6875 
L 18.40625 54.6875 
L 18.40625 0 
L 9.421875 0 
z
M 9.421875 75.984375 
L 18.40625 75.984375 
L 18.40625 64.59375 
L 9.421875 64.59375 
z
" id="DejaVuSans-105"/>
      <path d="M 11.71875 12.40625 
L 22.015625 12.40625 
L 22.015625 4 
L 14.015625 -11.625 
L 7.71875 -11.625 
L 11.71875 4 
z
" id="DejaVuSans-44"/>
      <path d="M 18.109375 8.203125 
L 18.109375 -20.796875 
L 9.078125 -20.796875 
L 9.078125 54.6875 
L 18.109375 54.6875 
L 18.109375 46.390625 
Q 20.953125 51.265625 25.265625 53.625 
Q 29.59375 56 35.59375 56 
Q 45.5625 56 51.78125 48.09375 
Q 58.015625 40.1875 58.015625 27.296875 
Q 58.015625 14.40625 51.78125 6.484375 
Q 45.5625 -1.421875 35.59375 -1.421875 
Q 29.59375 -1.421875 25.265625 0.953125 
Q 20.953125 3.328125 18.109375 8.203125 
z
M 48.6875 27.296875 
Q 48.6875 37.203125 44.609375 42.84375 
Q 40.53125 48.484375 33.40625 48.484375 
Q 26.265625 48.484375 22.1875 42.84375 
Q 18.109375 37.203125 18.109375 27.296875 
Q 18.109375 17.390625 22.1875 11.75 
Q 26.265625 6.109375 33.40625 6.109375 
Q 40.53125 6.109375 44.609375 11.75 
Q 48.6875 17.390625 48.6875 27.296875 
z
" id="DejaVuSans-112"/>
      <path d="M 34.28125 27.484375 
Q 23.390625 27.484375 19.1875 25 
Q 14.984375 22.515625 14.984375 16.5 
Q 14.984375 11.71875 18.140625 8.90625 
Q 21.296875 6.109375 26.703125 6.109375 
Q 34.1875 6.109375 38.703125 11.40625 
Q 43.21875 16.703125 43.21875 25.484375 
L 43.21875 27.484375 
z
M 52.203125 31.203125 
L 52.203125 0 
L 43.21875 0 
L 43.21875 8.296875 
Q 40.140625 3.328125 35.546875 0.953125 
Q 30.953125 -1.421875 24.3125 -1.421875 
Q 15.921875 -1.421875 10.953125 3.296875 
Q 6 8.015625 6 15.921875 
Q 6 25.140625 12.171875 29.828125 
Q 18.359375 34.515625 30.609375 34.515625 
L 43.21875 34.515625 
L 43.21875 35.40625 
Q 43.21875 41.609375 39.140625 45 
Q 35.0625 48.390625 27.6875 48.390625 
Q 23 48.390625 18.546875 47.265625 
Q 14.109375 46.140625 10.015625 43.890625 
L 10.015625 52.203125 
Q 14.9375 54.109375 19.578125 55.046875 
Q 24.21875 56 28.609375 56 
Q 40.484375 56 46.34375 49.84375 
Q 52.203125 43.703125 52.203125 31.203125 
z
" id="DejaVuSans-97"/>
      <path d="M 48.78125 52.59375 
L 48.78125 44.1875 
Q 44.96875 46.296875 41.140625 47.34375 
Q 37.3125 48.390625 33.40625 48.390625 
Q 24.65625 48.390625 19.8125 42.84375 
Q 14.984375 37.3125 14.984375 27.296875 
Q 14.984375 17.28125 19.8125 11.734375 
Q 24.65625 6.203125 33.40625 6.203125 
Q 37.3125 6.203125 41.140625 7.25 
Q 44.96875 8.296875 48.78125 10.40625 
L 48.78125 2.09375 
Q 45.015625 0.34375 40.984375 -0.53125 
Q 36.96875 -1.421875 32.421875 -1.421875 
Q 20.0625 -1.421875 12.78125 6.34375 
Q 5.515625 14.109375 5.515625 27.296875 
Q 5.515625 40.671875 12.859375 48.328125 
Q 20.21875 56 33.015625 56 
Q 37.15625 56 41.109375 55.140625 
Q 45.0625 54.296875 48.78125 52.59375 
z
" id="DejaVuSans-99"/>
      <path d="M 9.421875 75.984375 
L 18.40625 75.984375 
L 18.40625 0 
L 9.421875 0 
z
" id="DejaVuSans-108"/>
      <path d="M 32.171875 -5.078125 
Q 28.375 -14.84375 24.75 -17.8125 
Q 21.140625 -20.796875 15.09375 -20.796875 
L 7.90625 -20.796875 
L 7.90625 -13.28125 
L 13.1875 -13.28125 
Q 16.890625 -13.28125 18.9375 -11.515625 
Q 21 -9.765625 23.484375 -3.21875 
L 25.09375 0.875 
L 2.984375 54.6875 
L 12.5 54.6875 
L 29.59375 11.921875 
L 46.6875 54.6875 
L 56.203125 54.6875 
z
" id="DejaVuSans-121"/>
      <path d="M 25.390625 72.90625 
L 33.6875 72.90625 
L 8.296875 -9.28125 
L 0 -9.28125 
z
" id="DejaVuSans-47"/>
     </defs>
     <use xlink:href="#DejaVuSans-80"/>
     <use x="58.552734" xlink:href="#DejaVuSans-114"/>
     <use x="97.416016" xlink:href="#DejaVuSans-101"/>
     <use x="158.939453" xlink:href="#DejaVuSans-115"/>
     <use x="211.039062" xlink:href="#DejaVuSans-115"/>
     <use x="263.138672" xlink:href="#DejaVuSans-32"/>
     <use x="294.925781" xlink:href="#DejaVuSans-39"/>
     <use x="322.416016" xlink:href="#DejaVuSans-113"/>
     <use x="385.892578" xlink:href="#DejaVuSans-39"/>
     <use x="413.382812" xlink:href="#DejaVuSans-32"/>
     <use x="445.169922" xlink:href="#DejaVuSans-116"/>
     <use x="484.378906" xlink:href="#DejaVuSans-111"/>
     <use x="545.560547" xlink:href="#DejaVuSans-32"/>
     <use x="577.347656" xlink:href="#DejaVuSans-113"/>
     <use x="640.824219" xlink:href="#DejaVuSans-117"/>
     <use x="704.203125" xlink:href="#DejaVuSans-105"/>
     <use x="731.986328" xlink:href="#DejaVuSans-116"/>
     <use x="771.195312" xlink:href="#DejaVuSans-44"/>
     <use x="802.982422" xlink:href="#DejaVuSans-32"/>
     <use x="834.769531" xlink:href="#DejaVuSans-39"/>
     <use x="862.259766" xlink:href="#DejaVuSans-115"/>
     <use x="914.359375" xlink:href="#DejaVuSans-112"/>
     <use x="977.835938" xlink:href="#DejaVuSans-97"/>
     <use x="1039.115234" xlink:href="#DejaVuSans-99"/>
     <use x="1094.095703" xlink:href="#DejaVuSans-101"/>
     <use x="1155.619141" xlink:href="#DejaVuSans-39"/>
     <use x="1183.109375" xlink:href="#DejaVuSans-32"/>
     <use x="1214.896484" xlink:href="#DejaVuSans-116"/>
     <use x="1254.105469" xlink:href="#DejaVuSans-111"/>
     <use x="1315.287109" xlink:href="#DejaVuSans-32"/>
     <use x="1347.074219" xlink:href="#DejaVuSans-112"/>
     <use x="1410.550781" xlink:href="#DejaVuSans-108"/>
     <use x="1438.333984" xlink:href="#DejaVuSans-97"/>
     <use x="1499.613281" xlink:href="#DejaVuSans-121"/>
     <use x="1558.792969" xlink:href="#DejaVuSans-47"/>
     <use x="1592.484375" xlink:href="#DejaVuSans-112"/>
     <use x="1655.960938" xlink:href="#DejaVuSans-97"/>
     <use x="1717.240234" xlink:href="#DejaVuSans-117"/>
     <use x="1780.619141" xlink:href="#DejaVuSans-115"/>
     <use x="1832.71875" xlink:href="#DejaVuSans-101"/>
    </g>
   </g>
   <g id="Poly3DCollection_2">
    <defs>
     <path d="M 284.835219 -445.371455 
L 285.794285 -411.641246 
L 284.192885 -416.534917 
L 283.216897 -450.275677 
z
" id="mace36e1346" style="stroke:#000000;"/>
    </defs>
    <g clip-path="url(#p6137cee8b6)">
     <use style="fill:#ff0000;fill-opacity:0;stroke:#000000;" x="0" xlink:href="#mace36e1346" y="610.56"/>
    </g>
   </g>
   <g id="Poly3DCollection_3">
    <defs>
     <path d="M 283.216897 -450.275677 
L 284.192885 -416.534917 
L 232.881466 -406.827959 
L 231.318057 -440.547646 
z
" id="m1611933fe6" style="stroke:#000000;"/>
    </defs>
    <g clip-path="url(#p6137cee8b6)">
     <use style="fill:#ff0000;fill-opacity:0;stroke:#000000;" x="0" xlink:href="#m1611933fe6" y="610.56"/>
    </g>
   </g>
   <g id="Poly3DCollection_4">
    <defs>
     <path d="M 290.993425 -426.776543 
L 291.887641 -393.087678 
L 285.794285 -411.641246 
L 284.835219 -445.371455 
z
" id="mbe9a31aba2" style="stroke:#000000;"/>
    </defs>
    <g clip-path="url(#p6137cee8b6)">
     <use style="fill:#ff0000;fill-opacity:0;stroke:#000000;" x="0" xlink:href="#mbe9a31aba2" y="610.56"/>
    </g>
   </g>
   <g id="Poly3DCollection_5">
    <defs>
     <path d="M 284.965861 -425.633298 
L 285.928549 -391.947045 
L 291.887641 -393.087678 
L 290.993425 -426.776543 
z
" id="m09dfe564a3" style="stroke:#000000;"/>
    </defs>
    <g clip-path="url(#p6137cee8b6)">
     <use style="fill:#ff0000;fill-opacity:0;stroke:#000000;" x="0" xlink:href="#m09dfe564a3" y="610.56"/>
    </g>
   </g>
   <g id="Poly3DCollection_6">
    <defs>
     <path d="M 285.297505 -424.592017 
L 286.256708 -390.908149 
L 285.928549 -391.947045 
L 284.965861 -425.633298 
z
" id="m69e881791b" style="stroke:#000000;"/>
    </defs>
    <g clip-path="url(#p6137cee8b6)">
     <use style="fill:#ff0000;fill-opacity:0;stroke:#000000;" x="0" xlink:href="#m69e881791b" y="610.56"/>
    </g>
   </g>
   <g id="Poly3DCollection_7">
    <defs>
     <path d="M 286.480765 -424.584455 
L 287.426578 -390.900604 
L 286.256708 -390.908149 
L 285.297505 -424.592017 
z
" id="mc2710862e3" style="stroke:#000000;"/>
    </defs>
    <g clip-path="url(#p6137cee8b6)">
     <use style="fill:#ff0000;fill-opacity:0;stroke:#000000;" x="0" xlink:href="#mc2710862e3" y="610.56"/>
    </g>
   </g>
   <g id="Poly3DCollection_8">
    <defs>
     <path d="M 231.318057 -440.547646 
L 232.881466 -406.827959 
L 240.479759 -382.607957 
L 238.993197 -416.272532 
z
" id="m0a7ff00584" style="stroke:#000000;"/>
    </defs>
    <g clip-path="url(#p6137cee8b6)">
     <use style="fill:#0000ff;fill-opacity:0;stroke:#000000;" x="0" xlink:href="#m0a7ff00584" y="610.56"/>
    </g>
   </g>
   <g id="Poly3DCollection_9">
    <defs>
     <path d="M 238.993197 -416.272532 
L 240.479759 -382.607957 
L 259.39362 -386.207636 
L 258.125294 -419.88063 
z
" id="me1d4c294ab" style="stroke:#000000;"/>
    </defs>
    <g clip-path="url(#p6137cee8b6)">
     <use style="fill:#ff0000;fill-opacity:0;stroke:#000000;" x="0" xlink:href="#me1d4c294ab" y="610.56"/>
    </g>
   </g>
   <g id="Poly3DCollection_10">
    <defs>
     <path d="M 394.859664 -399.365602 
L 375.96906 -407.590748 
L 379.993923 -441.619259 
z
" id="m1697cb6a77" style="stroke:#000000;"/>
    </defs>
    <g clip-path="url(#p6137cee8b6)">
     <use style="fill:#ff0000;fill-opacity:0;stroke:#000000;" x="0" xlink:href="#m1697cb6a77" y="610.56"/>
    </g>
   </g>
   <g id="Poly3DCollection_11">
    <defs>
     <path d="M 383.742367 -385.379996 
L 394.859664 -399.365602 
L 379.993923 -441.619259 
z
" id="mc58c7d2bf6" style="stroke:#000000;"/>
    </defs>
    <g clip-path="url(#p6137cee8b6)">
     <use style="fill:#ff0000;fill-opacity:0;stroke:#000000;" x="0" xlink:href="#mc58c7d2bf6" y="610.56"/>
    </g>
   </g>
   <g id="Poly3DCollection_12">
    <defs>
     <path d="M 364.80552 -393.667107 
L 383.742367 -385.379996 
L 379.993923 -441.619259 
z
" id="m229e20a9c7" style="stroke:#000000;"/>
    </defs>
    <g clip-path="url(#p6137cee8b6)">
     <use style="fill:#ff0000;fill-opacity:0;stroke:#000000;" x="0" xlink:href="#m229e20a9c7" y="610.56"/>
    </g>
   </g>
   <g id="Poly3DCollection_13">
    <defs>
     <path d="M 375.96906 -407.590748 
L 364.80552 -393.667107 
L 379.993923 -441.619259 
z
" id="ma30fc8c4d4" style="stroke:#000000;"/>
    </defs>
    <g clip-path="url(#p6137cee8b6)">
     <use style="fill:#ff0000;fill-opacity:0;stroke:#000000;" x="0" xlink:href="#ma30fc8c4d4" y="610.56"/>
    </g>
   </g>
   <g id="Poly3DCollection_14">
    <defs>
     <path d="M 290.508584 -413.949614 
L 291.411376 -380.290503 
L 290.789354 -380.172459 
L 289.879391 -413.831291 
z
" id="m7b1fe62ffb" style="stroke:#000000;"/>
    </defs>
    <g clip-path="url(#p6137cee8b6)">
     <use style="fill:#ff0000;fill-opacity:0;stroke:#000000;" x="0" xlink:href="#m7b1fe62ffb" y="610.56"/>
    </g>
   </g>
   <g id="Poly3DCollection_15">
    <defs>
     <path d="M 289.879391 -413.831291 
L 290.789354 -380.172459 
L 287.426578 -390.900604 
L 286.480765 -424.584455 
z
" id="ma92451bd48" style="stroke:#000000;"/>
    </defs>
    <g clip-path="url(#p6137cee8b6)">
     <use style="fill:#ff0000;fill-opacity:0;stroke:#000000;" x="0" xlink:href="#ma92451bd48" y="610.56"/>
    </g>
   </g>
   <g id="Poly3DCollection_16">
    <defs>
     <path d="M 295.257752 -406.01256 
L 296.108442 -372.372363 
L 294.068893 -371.994015 
L 293.194649 -405.633298 
z
" id="me899c6bb7d" style="stroke:#000000;"/>
    </defs>
    <g clip-path="url(#p6137cee8b6)">
     <use style="fill:#ff0000;fill-opacity:0;stroke:#000000;" x="0" xlink:href="#me899c6bb7d" y="610.56"/>
    </g>
   </g>
   <g id="Poly3DCollection_17">
    <defs>
     <path d="M 293.194649 -405.633298 
L 294.068893 -371.994015 
L 291.411376 -380.290503 
L 290.508584 -413.949614 
z
" id="mbd5096d402" style="stroke:#000000;"/>
    </defs>
    <g clip-path="url(#p6137cee8b6)">
     <use style="fill:#ff0000;fill-opacity:0;stroke:#000000;" x="0" xlink:href="#mbd5096d402" y="610.56"/>
    </g>
   </g>
   <g id="Poly3DCollection_18">
    <defs>
     <path d="M 296.761161 -401.323772 
L 297.595793 -367.694931 
L 296.108442 -372.372363 
L 295.257752 -406.01256 
z
" id="m39b87102bc" style="stroke:#000000;"/>
    </defs>
    <g clip-path="url(#p6137cee8b6)">
     <use style="fill:#ff0000;fill-opacity:0;stroke:#000000;" x="0" xlink:href="#m39b87102bc" y="610.56"/>
    </g>
   </g>
   <g id="Poly3DCollection_19">
    <defs>
     <path d="M 295.012504 -400.997385 
L 295.867125 -367.369338 
L 297.595793 -367.694931 
L 296.761161 -401.323772 
z
" id="md4411da518" style="stroke:#000000;"/>
    </defs>
    <g clip-path="url(#p6137cee8b6)">
     <use style="fill:#ff0000;fill-opacity:0;stroke:#000000;" x="0" xlink:href="#md4411da518" y="610.56"/>
    </g>
   </g>
   <g id="Poly3DCollection_20">
    <defs>
     <path d="M 258.125294 -419.88063 
L 259.39362 -386.207636 
L 265.664229 -366.490856 
L 264.461377 -400.116752 
z
" id="m03a4e7412f" style="stroke:#000000;"/>
    </defs>
    <g clip-path="url(#p6137cee8b6)">
     <use style="fill:#ff0000;fill-opacity:0;stroke:#000000;" x="0" xlink:href="#m03a4e7412f" y="610.56"/>
    </g>
   </g>
   <g id="Poly3DCollection_21">
    <defs>
     <path d="M 264.461377 -400.116752 
L 265.664229 -366.490856 
L 250.606048 -363.605283 
L 249.228607 -397.224086 
z
" id="m51499f264c" style="stroke:#000000;"/>
    </defs>
    <g clip-path="url(#p6137cee8b6)">
     <use style="fill:#0000ff;fill-opacity:0;stroke:#000000;" x="0" xlink:href="#m51499f264c" y="610.56"/>
    </g>
   </g>
   <g id="Poly3DCollection_22">
    <defs>
     <path d="M 297.652278 -392.803974 
L 298.478632 -359.196109 
L 295.867125 -367.369338 
L 295.012504 -400.997385 
z
" id="m707823ee3e" style="stroke:#000000;"/>
    </defs>
    <g clip-path="url(#p6137cee8b6)">
     <use style="fill:#ff0000;fill-opacity:0;stroke:#000000;" x="0" xlink:href="#m707823ee3e" y="610.56"/>
    </g>
   </g>
   <g id="Poly3DCollection_23">
    <defs>
     <path d="M 280.694059 -391.156727 
L 281.71442 -357.552969 
L 289.151676 -358.976401 
L 288.21758 -392.583718 
z
" id="mda823d3525" style="stroke:#000000;"/>
    </defs>
    <g clip-path="url(#p6137cee8b6)">
     <use style="fill:#ff0000;fill-opacity:0;stroke:#000000;" x="0" xlink:href="#mda823d3525" y="610.56"/>
    </g>
   </g>
   <g id="Poly3DCollection_24">
    <defs>
     <path d="M 288.21758 -392.583718 
L 289.151676 -358.976401 
L 289.623199 -357.511027 
L 288.694182 -391.11468 
z
" id="m3475689706" style="stroke:#000000;"/>
    </defs>
    <g clip-path="url(#p6137cee8b6)">
     <use style="fill:#ff0000;fill-opacity:0;stroke:#000000;" x="0" xlink:href="#m3475689706" y="610.56"/>
    </g>
   </g>
   <g id="Poly3DCollection_25">
    <defs>
     <path d="M 288.694182 -391.11468 
L 289.623199 -357.511027 
L 298.478632 -359.196109 
L 297.652278 -392.803974 
z
" id="m263dadafc4" style="stroke:#000000;"/>
    </defs>
    <g clip-path="url(#p6137cee8b6)">
     <use style="fill:#ff0000;fill-opacity:0;stroke:#000000;" x="0" xlink:href="#m263dadafc4" y="610.56"/>
    </g>
   </g>
   <g id="Poly3DCollection_26">
    <defs>
     <path d="M 285.904447 -374.905878 
L 286.869455 -341.343527 
L 281.71442 -357.552969 
L 280.694059 -391.156727 
z
" id="mb042446a08" style="stroke:#000000;"/>
    </defs>
    <g clip-path="url(#p6137cee8b6)">
     <use style="fill:#ff0000;fill-opacity:0;stroke:#000000;" x="0" xlink:href="#mb042446a08" y="610.56"/>
    </g>
   </g>
   <g id="Poly3DCollection_27">
    <defs>
     <path d="M 274.695789 -372.774459 
L 275.789957 -339.217658 
L 286.869455 -341.343527 
L 285.904447 -374.905878 
z
" id="m7fffb65d03" style="stroke:#000000;"/>
    </defs>
    <g clip-path="url(#p6137cee8b6)">
     <use style="fill:#ff0000;fill-opacity:0;stroke:#000000;" x="0" xlink:href="#m7fffb65d03" y="610.56"/>
    </g>
   </g>
   <g id="Poly3DCollection_28">
    <defs>
     <path d="M 275.174601 -371.266407 
L 276.263708 -337.71355 
L 275.789957 -339.217658 
L 274.695789 -372.774459 
z
" id="mf6061fc069" style="stroke:#000000;"/>
    </defs>
    <g clip-path="url(#p6137cee8b6)">
     <use style="fill:#ff0000;fill-opacity:0;stroke:#000000;" x="0" xlink:href="#mf6061fc069" y="610.56"/>
    </g>
   </g>
   <g id="Poly3DCollection_29">
    <defs>
     <path d="M 268.941005 -372.030345 
L 270.101435 -338.475489 
L 270.693926 -336.639746 
L 269.539808 -370.189778 
z
" id="m4ede2d36c9" style="stroke:#000000;"/>
    </defs>
    <g clip-path="url(#p6137cee8b6)">
     <use style="fill:#ff0000;fill-opacity:0.5;stroke:#000000;" x="0" xlink:href="#m4ede2d36c9" y="610.56"/>
    </g>
   </g>
   <g id="Poly3DCollection_30">
    <defs>
     <path d="M 269.539808 -370.189778 
L 270.693926 -336.639746 
L 276.263708 -337.71355 
L 275.174601 -371.266407 
z
" id="mc2658d6528" style="stroke:#000000;"/>
    </defs>
    <g clip-path="url(#p6137cee8b6)">
     <use style="fill:#ff0000;fill-opacity:0;stroke:#000000;" x="0" xlink:href="#mc2658d6528" y="610.56"/>
    </g>
   </g>
   <g id="Poly3DCollection_31">
    <defs>
     <path d="M 238.993197 -416.272532 
L 258.125294 -419.88063 
L 264.461377 -400.116752 
L 249.228607 -397.224086 
L 257.887737 -369.918835 
L 268.941005 -372.030345 
L 269.539808 -370.189778 
L 275.174601 -371.266407 
L 274.695789 -372.774459 
L 285.904447 -374.905878 
L 280.694059 -391.156727 
L 288.21758 -392.583718 
L 288.694182 -391.11468 
L 297.652278 -392.803974 
L 295.012504 -400.997385 
L 296.761161 -401.323772 
L 295.257752 -406.01256 
L 293.194649 -405.633298 
L 290.508584 -413.949614 
L 289.879391 -413.831291 
L 286.480765 -424.584455 
L 285.297505 -424.592017 
L 284.965861 -425.633298 
L 290.993425 -426.776543 
L 284.835219 -445.371455 
L 283.216897 -450.275677 
L 231.318057 -440.547646 
z
" id="mf30a672b2a" style="stroke:#000000;"/>
    </defs>
    <g clip-path="url(#p6137cee8b6)">
     <use style="fill:#0000ff;fill-opacity:0;stroke:#000000;" x="0" xlink:href="#mf30a672b2a" y="610.56"/>
    </g>
   </g>
   <g id="Poly3DCollection_32">
    <defs>
     <path d="M 249.228607 -397.224086 
L 250.606048 -363.605283 
L 259.175742 -336.369514 
L 257.887737 -369.918835 
z
" id="m9254486287" style="stroke:#000000;"/>
    </defs>
    <g clip-path="url(#p6137cee8b6)">
     <use style="fill:#0000ff;fill-opacity:0;stroke:#000000;" x="0" xlink:href="#m9254486287" y="610.56"/>
    </g>
   </g>
   <g id="Poly3DCollection_33">
    <defs>
     <path d="M 257.887737 -369.918835 
L 259.175742 -336.369514 
L 270.101435 -338.475489 
L 268.941005 -372.030345 
z
" id="m2cfc942130" style="stroke:#000000;"/>
    </defs>
    <g clip-path="url(#p6137cee8b6)">
     <use style="fill:#0000ff;fill-opacity:0.8;stroke:#000000;" x="0" xlink:href="#m2cfc942130" y="610.56"/>
    </g>
   </g>
   <g id="Poly3DCollection_34">
    <defs>
     <path d="M 378.234758 -329.564194 
L 378.202961 -318.36962 
L 356.256452 -314.121298 
L 356.202587 -325.311858 
z
" id="m95887c4696" style="stroke:#000000;"/>
    </defs>
    <g clip-path="url(#p6137cee8b6)">
     <use style="fill:#ff0000;fill-opacity:0.5;stroke:#000000;" x="0" xlink:href="#m95887c4696" y="610.56"/>
    </g>
   </g>
   <g id="Poly3DCollection_35">
    <defs>
     <path d="M 378.202961 -318.36962 
L 383.89004 -301.757416 
L 361.85379 -297.471816 
L 356.256452 -314.121298 
z
" id="m29bb75630d" style="stroke:#000000;"/>
    </defs>
    <g clip-path="url(#p6137cee8b6)">
     <use style="fill:#ff0000;fill-opacity:0.5;stroke:#000000;" x="0" xlink:href="#m29bb75630d" y="610.56"/>
    </g>
   </g>
   <g id="Poly3DCollection_36">
    <defs>
     <path d="M 383.944257 -312.936082 
L 383.89004 -301.757416 
L 378.202961 -318.36962 
L 378.234758 -329.564194 
z
" id="m2591354971" style="stroke:#000000;"/>
    </defs>
    <g clip-path="url(#p6137cee8b6)">
     <use style="fill:#ff0000;fill-opacity:0;stroke:#000000;" x="0" xlink:href="#m2591354971" y="610.56"/>
    </g>
   </g>
   <g id="Poly3DCollection_37">
    <defs>
     <path d="M 356.202587 -325.311858 
L 361.821641 -308.646285 
L 383.944257 -312.936082 
L 378.234758 -329.564194 
z
" id="mf43dc743f0" style="stroke:#000000;"/>
    </defs>
    <g clip-path="url(#p6137cee8b6)">
     <use style="fill:#ff0000;fill-opacity:0.5;stroke:#000000;" x="0" xlink:href="#mf43dc743f0" y="610.56"/>
    </g>
   </g>
   <g id="Poly3DCollection_38">
    <defs>
     <path d="M 356.202587 -325.311858 
L 356.256452 -314.121298 
L 361.85379 -297.471816 
L 361.821641 -308.646285 
z
" id="m000797db49" style="stroke:#000000;"/>
    </defs>
    <g clip-path="url(#p6137cee8b6)">
     <use style="fill:#ff0000;fill-opacity:0.5;stroke:#000000;" x="0" xlink:href="#m000797db49" y="610.56"/>
    </g>
   </g>
   <g id="Poly3DCollection_39">
    <defs>
     <path d="M 361.821641 -308.646285 
L 361.85379 -297.471816 
L 383.89004 -301.757416 
L 383.944257 -312.936082 
z
" id="m01ee935060" style="stroke:#000000;"/>
    </defs>
    <g clip-path="url(#p6137cee8b6)">
     <use style="fill:#ff0000;fill-opacity:0;stroke:#000000;" x="0" xlink:href="#m01ee935060" y="610.56"/>
    </g>
   </g>
   <g id="Poly3DCollection_40">
    <defs>
     <path d="M 493.614058 -267.227569 
L 492.156693 -233.980378 
L 448.411662 -224.213035 
L 449.3493 -257.428026 
z
" id="mfdd56731ba" style="stroke:#000000;"/>
    </defs>
    <g clip-path="url(#p6137cee8b6)">
     <use style="fill:#ff0000;fill-opacity:0.5;stroke:#000000;" x="0" xlink:href="#mfdd56731ba" y="610.56"/>
    </g>
   </g>
   <g id="Poly3DCollection_41">
    <defs>
     <path d="M 497.088884 -256.67357 
L 495.586474 -223.461082 
L 492.156693 -233.980378 
L 493.614058 -267.227569 
z
" id="mdfe9c1f57e" style="stroke:#000000;"/>
    </defs>
    <g clip-path="url(#p6137cee8b6)">
     <use style="fill:#ff0000;fill-opacity:0;stroke:#000000;" x="0" xlink:href="#mdfe9c1f57e" y="610.56"/>
    </g>
   </g>
   <g id="Poly3DCollection_42">
    <defs>
     <path d="M 449.3493 -257.428026 
L 448.411662 -224.213035 
L 419.578312 -218.305275 
L 420.171851 -251.500504 
z
" id="m2705d19e82" style="stroke:#000000;"/>
    </defs>
    <g clip-path="url(#p6137cee8b6)">
     <use style="fill:#ff0000;fill-opacity:0.5;stroke:#000000;" x="0" xlink:href="#m2705d19e82" y="610.56"/>
    </g>
   </g>
   <g id="Poly3DCollection_43">
    <defs>
     <path d="M 420.171851 -251.500504 
L 419.578312 -218.305275 
L 422.5621 -209.517834 
L 423.192834 -242.683269 
z
" id="maecf2d8ebc" style="stroke:#000000;"/>
    </defs>
    <g clip-path="url(#p6137cee8b6)">
     <use style="fill:#ff0000;fill-opacity:0.5;stroke:#000000;" x="0" xlink:href="#maecf2d8ebc" y="610.56"/>
    </g>
   </g>
   <g id="Poly3DCollection_44">
    <defs>
     <path d="M 368.040581 -213.025366 
L 368.056563 -191.046283 
L 345.591653 -186.554102 
L 345.395419 -208.522507 
z
" id="m13685a96ef" style="stroke:#000000;"/>
    </defs>
    <g clip-path="url(#p6137cee8b6)">
     <use style="fill:#ff0000;fill-opacity:0.5;stroke:#000000;" x="0" xlink:href="#m13685a96ef" y="610.56"/>
    </g>
   </g>
   <g id="Poly3DCollection_45">
    <defs>
     <path d="M 423.192834 -242.683269 
L 422.5621 -209.517834 
L 425.554034 -200.392574 
L 426.222281 -233.526566 
z
" id="m27585b780b" style="stroke:#000000;"/>
    </defs>
    <g clip-path="url(#p6137cee8b6)">
     <use style="fill:#ff0000;fill-opacity:0.5;stroke:#000000;" x="0" xlink:href="#m27585b780b" y="610.56"/>
    </g>
   </g>
   <g id="Poly3DCollection_46">
    <defs>
     <path d="M 426.222281 -233.526566 
L 425.554034 -200.392574 
L 422.491898 -199.66534 
L 423.123397 -232.796805 
z
" id="m560eeecbf1" style="stroke:#000000;"/>
    </defs>
    <g clip-path="url(#p6137cee8b6)">
     <use style="fill:#ff0000;fill-opacity:0.5;stroke:#000000;" x="0" xlink:href="#m560eeecbf1" y="610.56"/>
    </g>
   </g>
   <g id="Poly3DCollection_47">
    <defs>
     <path d="M 373.860403 -195.416054 
L 373.829981 -173.479197 
L 368.056563 -191.046283 
L 368.040581 -213.025366 
z
" id="mefdab014db" style="stroke:#000000;"/>
    </defs>
    <g clip-path="url(#p6137cee8b6)">
     <use style="fill:#ff0000;fill-opacity:0;stroke:#000000;" x="0" xlink:href="#mefdab014db" y="610.56"/>
    </g>
   </g>
   <g id="Poly3DCollection_48">
    <defs>
     <path d="M 345.395419 -208.522507 
L 351.119675 -190.872439 
L 373.860403 -195.416054 
L 368.040581 -213.025366 
z
" id="m731c8db6ad" style="stroke:#000000;"/>
    </defs>
    <g clip-path="url(#p6137cee8b6)">
     <use style="fill:#ff0000;fill-opacity:0.5;stroke:#000000;" x="0" xlink:href="#m731c8db6ad" y="610.56"/>
    </g>
   </g>
   <g id="Poly3DCollection_49">
    <defs>
     <path d="M 345.395419 -208.522507 
L 345.591653 -186.554102 
L 351.271024 -168.946681 
L 351.119675 -190.872439 
z
" id="mc228995062" style="stroke:#000000;"/>
    </defs>
    <g clip-path="url(#p6137cee8b6)">
     <use style="fill:#ff0000;fill-opacity:0.5;stroke:#000000;" x="0" xlink:href="#mc228995062" y="610.56"/>
    </g>
   </g>
   <g id="Poly3DCollection_50">
    <defs>
     <path d="M 351.119675 -190.872439 
L 351.271024 -168.946681 
L 373.829981 -173.479197 
L 373.860403 -195.416054 
z
" id="mc884b5bca5" style="stroke:#000000;"/>
    </defs>
    <g clip-path="url(#p6137cee8b6)">
     <use style="fill:#ff0000;fill-opacity:0;stroke:#000000;" x="0" xlink:href="#mc884b5bca5" y="610.56"/>
    </g>
   </g>
   <g id="Poly3DCollection_51">
    <defs>
     <path d="M 423.123397 -232.796805 
L 422.491898 -199.66534 
L 428.632491 -181.93717 
L 429.341167 -215.005999 
z
" id="m86553962ef" style="stroke:#000000;"/>
    </defs>
    <g clip-path="url(#p6137cee8b6)">
     <use style="fill:#ff0000;fill-opacity:0.5;stroke:#000000;" x="0" xlink:href="#m86553962ef" y="610.56"/>
    </g>
   </g>
   <g id="Poly3DCollection_52">
    <defs>
     <path d="M 429.341167 -215.005999 
L 428.632491 -181.93717 
L 434.141823 -182.90994 
L 434.916953 -215.982256 
z
" id="md5f5c85dc8" style="stroke:#000000;"/>
    </defs>
    <g clip-path="url(#p6137cee8b6)">
     <use style="fill:#ff0000;fill-opacity:0;stroke:#000000;" x="0" xlink:href="#md5f5c85dc8" y="610.56"/>
    </g>
   </g>
   <g id="Poly3DCollection_53">
    <defs>
     <path d="M 516.069168 -168.333801 
L 416.607194 -441.385335 
L 232.858742 -406.900951 
L 319.529332 -128.504953 
z
" id="mfba8e2f68c" style="stroke:#000000;"/>
    </defs>
    <g clip-path="url(#p6137cee8b6)">
     <use style="fill:#ff0000;fill-opacity:0.5;stroke:#000000;" x="0" xlink:href="#mfba8e2f68c" y="610.56"/>
    </g>
   </g>
   <g id="Poly3DCollection_54">
    <defs>
     <path d="M 515.246054 -206.447653 
L 513.506825 -173.409643 
L 495.586474 -223.461082 
L 497.088884 -256.67357 
z
" id="me05f43e55b" style="stroke:#000000;"/>
    </defs>
    <g clip-path="url(#p6137cee8b6)">
     <use style="fill:#ff0000;fill-opacity:0;stroke:#000000;" x="0" xlink:href="#me05f43e55b" y="610.56"/>
    </g>
   </g>
   <g id="Poly3DCollection_55">
    <defs>
     <path d="M 501.276606 -203.796855 
L 499.703657 -170.768482 
L 513.506825 -173.409643 
L 515.246054 -206.447653 
z
" id="m8e564f75de" style="stroke:#000000;"/>
    </defs>
    <g clip-path="url(#p6137cee8b6)">
     <use style="fill:#ff0000;fill-opacity:0;stroke:#000000;" x="0" xlink:href="#m8e564f75de" y="610.56"/>
    </g>
   </g>
   <g id="Poly3DCollection_56">
    <defs>
     <path d="M 497.752522 -203.116337 
L 496.221552 -170.090445 
L 499.703657 -170.768482 
L 501.276606 -203.796855 
z
" id="mf4a01b3cc0" style="stroke:#000000;"/>
    </defs>
    <g clip-path="url(#p6137cee8b6)">
     <use style="fill:#ff0000;fill-opacity:0;stroke:#000000;" x="0" xlink:href="#mf4a01b3cc0" y="610.56"/>
    </g>
   </g>
   <g id="Poly3DCollection_57">
    <defs>
     <path d="M 498.297944 -201.249897 
L 496.75971 -168.230823 
L 496.221552 -170.090445 
L 497.752522 -203.116337 
z
" id="m134dd6559a" style="stroke:#000000;"/>
    </defs>
    <g clip-path="url(#p6137cee8b6)">
     <use style="fill:#ff0000;fill-opacity:0;stroke:#000000;" x="0" xlink:href="#m134dd6559a" y="610.56"/>
    </g>
   </g>
   <g id="Poly3DCollection_58">
    <defs>
     <path d="M 492.715598 -201.390217 
L 491.244372 -168.37063 
L 491.802107 -167.237518 
L 493.280532 -200.252941 
z
" id="m7abaf49d96" style="stroke:#000000;"/>
    </defs>
    <g clip-path="url(#p6137cee8b6)">
     <use style="fill:#ff0000;fill-opacity:0;stroke:#000000;" x="0" xlink:href="#m7abaf49d96" y="610.56"/>
    </g>
   </g>
   <g id="Poly3DCollection_59">
    <defs>
     <path d="M 493.280532 -200.252941 
L 491.802107 -167.237518 
L 496.75971 -168.230823 
L 498.297944 -201.249897 
z
" id="m584ea8b371" style="stroke:#000000;"/>
    </defs>
    <g clip-path="url(#p6137cee8b6)">
     <use style="fill:#ff0000;fill-opacity:0;stroke:#000000;" x="0" xlink:href="#m584ea8b371" y="610.56"/>
    </g>
   </g>
   <g id="Poly3DCollection_60">
    <defs>
     <path d="M 486.976881 -198.346809 
L 485.573407 -165.338383 
L 491.244372 -168.37063 
L 492.715598 -201.390217 
z
" id="m459b01a2ba" style="stroke:#000000;"/>
    </defs>
    <g clip-path="url(#p6137cee8b6)">
     <use style="fill:#ff0000;fill-opacity:0;stroke:#000000;" x="0" xlink:href="#m459b01a2ba" y="610.56"/>
    </g>
   </g>
   <g id="Poly3DCollection_61">
    <defs>
     <path d="M 434.916953 -215.982256 
L 434.141823 -182.90994 
L 440.768154 -163.808984 
L 441.627629 -196.811759 
z
" id="m6fbd5f4be1" style="stroke:#000000;"/>
    </defs>
    <g clip-path="url(#p6137cee8b6)">
     <use style="fill:#ff0000;fill-opacity:0.5;stroke:#000000;" x="0" xlink:href="#m6fbd5f4be1" y="610.56"/>
    </g>
   </g>
   <g id="Poly3DCollection_62">
    <defs>
     <path d="M 476.360164 -195.023996 
L 475.083054 -162.027821 
L 485.573407 -165.338383 
L 486.976881 -198.346809 
z
" id="mdf917bb402" style="stroke:#000000;"/>
    </defs>
    <g clip-path="url(#p6137cee8b6)">
     <use style="fill:#ff0000;fill-opacity:0;stroke:#000000;" x="0" xlink:href="#mdf917bb402" y="610.56"/>
    </g>
   </g>
   <g id="Poly3DCollection_63">
    <defs>
     <path d="M 472.154108 -194.140033 
L 470.927253 -161.147129 
L 475.083054 -162.027821 
L 476.360164 -195.023996 
z
" id="mcc33fe487b" style="stroke:#000000;"/>
    </defs>
    <g clip-path="url(#p6137cee8b6)">
     <use style="fill:#ff0000;fill-opacity:0;stroke:#000000;" x="0" xlink:href="#mcc33fe487b" y="610.56"/>
    </g>
   </g>
   <g id="Poly3DCollection_64">
    <defs>
     <path d="M 465.885256 -193.270527 
L 464.733474 -160.280844 
L 470.927253 -161.147129 
L 472.154108 -194.140033 
z
" id="mb25bd5e930" style="stroke:#000000;"/>
    </defs>
    <g clip-path="url(#p6137cee8b6)">
     <use style="fill:#ff0000;fill-opacity:0;stroke:#000000;" x="0" xlink:href="#mb25bd5e930" y="610.56"/>
    </g>
   </g>
   <g id="Poly3DCollection_65">
    <defs>
     <path d="M 464.980778 -192.625791 
L 463.839681 -159.6385 
L 464.733474 -160.280844 
L 465.885256 -193.270527 
z
" id="m31ab276b9f" style="stroke:#000000;"/>
    </defs>
    <g clip-path="url(#p6137cee8b6)">
     <use style="fill:#ff0000;fill-opacity:0;stroke:#000000;" x="0" xlink:href="#m31ab276b9f" y="610.56"/>
    </g>
   </g>
   <g id="Poly3DCollection_66">
    <defs>
     <path d="M 465.521045 -192.078215 
L 464.373295 -159.092957 
L 463.839681 -159.6385 
L 464.980778 -192.625791 
z
" id="m26f88ab591" style="stroke:#000000;"/>
    </defs>
    <g clip-path="url(#p6137cee8b6)">
     <use style="fill:#ff0000;fill-opacity:0;stroke:#000000;" x="0" xlink:href="#m26f88ab591" y="610.56"/>
    </g>
   </g>
   <g id="Poly3DCollection_67">
    <defs>
     <path d="M 463.925514 -191.521634 
L 462.796788 -158.538444 
L 464.373295 -159.092957 
L 465.521045 -192.078215 
z
" id="m8bc00b95fa" style="stroke:#000000;"/>
    </defs>
    <g clip-path="url(#p6137cee8b6)">
     <use style="fill:#ff0000;fill-opacity:0;stroke:#000000;" x="0" xlink:href="#m8bc00b95fa" y="610.56"/>
    </g>
   </g>
   <g id="Poly3DCollection_68">
    <defs>
     <path d="M 462.515024 -190.234064 
L 461.402897 -157.255667 
L 462.796788 -158.538444 
L 463.925514 -191.521634 
z
" id="mefd7f2ef7d" style="stroke:#000000;"/>
    </defs>
    <g clip-path="url(#p6137cee8b6)">
     <use style="fill:#ff0000;fill-opacity:0;stroke:#000000;" x="0" xlink:href="#mefd7f2ef7d" y="610.56"/>
    </g>
   </g>
   <g id="Poly3DCollection_69">
    <defs>
     <path d="M 441.627629 -196.811759 
L 440.768154 -163.808984 
L 443.686269 -156.154628 
L 444.582965 -189.128903 
z
" id="mc1056157f7" style="stroke:#000000;"/>
    </defs>
    <g clip-path="url(#p6137cee8b6)">
     <use style="fill:#ff0000;fill-opacity:0.5;stroke:#000000;" x="0" xlink:href="#mc1056157f7" y="610.56"/>
    </g>
   </g>
   <g id="Poly3DCollection_70">
    <defs>
     <path d="M 444.582965 -189.128903 
L 443.686269 -156.154628 
L 445.766676 -156.503045 
L 446.688624 -189.478625 
z
" id="md81c4584d6" style="stroke:#000000;"/>
    </defs>
    <g clip-path="url(#p6137cee8b6)">
     <use style="fill:#ff0000;fill-opacity:0;stroke:#000000;" x="0" xlink:href="#md81c4584d6" y="610.56"/>
    </g>
   </g>
   <g id="Poly3DCollection_71">
    <defs>
     <path d="M 446.688624 -189.478625 
L 445.766676 -156.503045 
L 446.533259 -155.434121 
L 447.464795 -188.405694 
z
" id="m02b72d86c1" style="stroke:#000000;"/>
    </defs>
    <g clip-path="url(#p6137cee8b6)">
     <use style="fill:#ff0000;fill-opacity:0.5;stroke:#000000;" x="0" xlink:href="#m02b72d86c1" y="610.56"/>
    </g>
   </g>
   <g id="Poly3DCollection_72">
    <defs>
     <path d="M 449.3493 -257.428026 
L 420.171851 -251.500504 
L 423.192834 -242.683269 
L 426.222281 -233.526566 
L 423.123397 -232.796805 
L 429.341167 -215.005999 
L 434.916953 -215.982256 
L 441.627629 -196.811759 
L 444.582965 -189.128903 
L 446.688624 -189.478625 
L 447.464795 -188.405694 
L 448.939626 -187.749645 
L 462.515024 -190.234064 
L 463.925514 -191.521634 
L 465.521045 -192.078215 
L 464.980778 -192.625791 
L 465.885256 -193.270527 
L 472.154108 -194.140033 
L 476.360164 -195.023996 
L 486.976881 -198.346809 
L 492.715598 -201.390217 
L 493.280532 -200.252941 
L 498.297944 -201.249897 
L 497.752522 -203.116337 
L 501.276606 -203.796855 
L 515.246054 -206.447653 
L 497.088884 -256.67357 
L 493.614058 -267.227569 
z
" id="m03cbff5f08" style="stroke:#000000;"/>
    </defs>
    <g clip-path="url(#p6137cee8b6)">
     <use style="fill-opacity:0;stroke:#000000;" x="0" xlink:href="#m03cbff5f08" y="610.56"/>
    </g>
   </g>
   <g id="Poly3DCollection_73">
    <defs>
     <path d="M 447.464795 -188.405694 
L 446.533259 -155.434121 
L 447.990185 -154.780524 
L 448.939626 -187.749645 
z
" id="mc57233c3d3" style="stroke:#000000;"/>
    </defs>
    <g clip-path="url(#p6137cee8b6)">
     <use style="fill:#ff0000;fill-opacity:0;stroke:#000000;" x="0" xlink:href="#mc57233c3d3" y="610.56"/>
    </g>
   </g>
   <g id="Poly3DCollection_74">
    <defs>
     <path d="M 448.939626 -187.749645 
L 447.990185 -154.780524 
L 461.402897 -157.255667 
L 462.515024 -190.234064 
z
" id="m264efeeafa" style="stroke:#000000;"/>
    </defs>
    <g clip-path="url(#p6137cee8b6)">
     <use style="fill:#ff0000;fill-opacity:0;stroke:#000000;" x="0" xlink:href="#m264efeeafa" y="610.56"/>
    </g>
   </g>
  </g>
 </g>
 <defs>
  <clipPath id="p6137cee8b6">
   <rect height="610.56" width="610.56" x="56.52" y="0"/>
  </clipPath>
 </defs>
</svg>
