<?xml version="1.0" encoding="utf-8" standalone="no"?>
<!DOCTYPE svg PUBLIC "-//W3C//DTD SVG 1.1//EN"
  "http://www.w3.org/Graphics/SVG/1.1/DTD/svg11.dtd">
<!-- Created with matplotlib (https://matplotlib.org/) -->
<svg height="610.56pt" version="1.1" viewBox="0 0 723.6 610.56" width="723.6pt" xmlns="http://www.w3.org/2000/svg" xmlns:xlink="http://www.w3.org/1999/xlink">
 <metadata>
  <rdf:RDF xmlns:cc="http://creativecommons.org/ns#" xmlns:dc="http://purl.org/dc/elements/1.1/" xmlns:rdf="http://www.w3.org/1999/02/22-rdf-syntax-ns#">
   <cc:Work>
    <dc:type rdf:resource="http://purl.org/dc/dcmitype/StillImage"/>
    <dc:date>2020-11-04T14:59:06.383091</dc:date>
    <dc:format>image/svg+xml</dc:format>
    <dc:creator>
     <cc:Agent>
      <dc:title>Matplotlib v3.3.1, https://matplotlib.org/</dc:title>
     </cc:Agent>
    </dc:creator>
   </cc:Work>
  </rdf:RDF>
 </metadata>
 <defs>
  <style type="text/css">*{stroke-linecap:butt;stroke-linejoin:round;}</style>
 </defs>
 <g id="figure_1">
  <g id="patch_1">
   <path d="M 0 610.56 
L 723.6 610.56 
L 723.6 0 
L 0 0 
z
" style="fill:#ffffff;"/>
  </g>
  <g id="patch_2">
   <path d="M 56.52 610.56 
L 667.08 610.56 
L 667.08 0 
L 56.52 0 
z
" style="fill:#ffffff;"/>
  </g>
  <g id="pane3d_1">
   <g id="patch_3">
    <path d="M 335.8571 124.885158 
L 633.539033 325.860598 
L 655.560731 196.895926 
L 333.088501 -16.32558 
" style="fill:#f2f2f2;opacity:0.5;stroke:#f2f2f2;stroke-linejoin:miter;"/>
   </g>
  </g>
  <g id="pane3d_2">
   <g id="patch_4">
    <path d="M 335.8571 124.885158 
L 104.122632 390.294797 
L 81.67382 265.474402 
L 333.088501 -16.32558 
" style="fill:#e6e6e6;opacity:0.5;stroke:#e6e6e6;stroke-linejoin:miter;"/>
   </g>
  </g>
  <g id="pane3d_3">
   <g id="patch_5">
    <path d="M 335.8571 124.885158 
L 104.122632 390.294797 
L 406.687332 607.62202 
L 633.539033 325.860598 
" style="fill:#ececec;opacity:0.5;stroke:#ececec;stroke-linejoin:miter;"/>
   </g>
  </g>
  <g id="axis3d_1">
   <g id="line2d_1">
    <path d="M 633.539033 325.860598 
L 406.687332 607.62202 
" style="fill:none;stroke:#000000;stroke-linecap:square;stroke-width:0.8;"/>
   </g>
   <g id="Line3DCollection_1">
    <path d="M 625.500713 335.844603 
L 327.636499 134.300359 
L 324.328172 -1 
" style="fill:none;stroke:#b0b0b0;stroke-width:0.8;"/>
    <path d="M 600.067236 367.434283 
L 301.63077 164.085188 
L 296.056174 25.182375 
" style="fill:none;stroke:#b0b0b0;stroke-width:0.8;"/>
    <path d="M 574.402106 399.311687 
L 275.395087 194.133385 
L 267.646023 57.0261 
" style="fill:none;stroke:#b0b0b0;stroke-width:0.8;"/>
    <path d="M 548.502146 431.480763 
L 248.926389 224.448459 
L 238.962786 89.175915 
" style="fill:none;stroke:#b0b0b0;stroke-width:0.8;"/>
    <path d="M 522.364116 463.945534 
L 222.221556 255.033983 
L 210.002508 121.636255 
" style="fill:none;stroke:#b0b0b0;stroke-width:0.8;"/>
    <path d="M 495.98472 496.710094 
L 195.277415 285.893591 
L 180.761155 154.411639 
" style="fill:none;stroke:#b0b0b0;stroke-width:0.8;"/>
    <path d="M 469.360598 529.778616 
L 168.090734 317.030983 
L 151.234614 187.506678 
" style="fill:none;stroke:#b0b0b0;stroke-width:0.8;"/>
    <path d="M 442.488329 563.155349 
L 140.658224 348.449929 
L 121.418694 220.92607 
" style="fill:none;stroke:#b0b0b0;stroke-width:0.8;"/>
    <path d="M 415.364428 596.844622 
L 112.976536 380.154263 
L 91.30912 254.674606 
" style="fill:none;stroke:#b0b0b0;stroke-width:0.8;"/>
   </g>
   <g id="xtick_1">
    <g id="line2d_2">
     <path d="M 623.047408 334.18462 
L 630.410831 339.166942 
" style="fill:none;stroke:#000000;stroke-linecap:square;stroke-width:0.8;"/>
    </g>
    <g id="text_1">
     <!-- −80 -->
     <g transform="translate(625.309688 355.210862)scale(0.1 -0.1)">
      <defs>
       <path d="M 10.59375 35.5 
L 73.1875 35.5 
L 73.1875 27.203125 
L 10.59375 27.203125 
z
" id="DejaVuSans-8722"/>
       <path d="M 31.78125 34.625 
Q 24.75 34.625 20.71875 30.859375 
Q 16.703125 27.09375 16.703125 20.515625 
Q 16.703125 13.921875 20.71875 10.15625 
Q 24.75 6.390625 31.78125 6.390625 
Q 38.8125 6.390625 42.859375 10.171875 
Q 46.921875 13.96875 46.921875 20.515625 
Q 46.921875 27.09375 42.890625 30.859375 
Q 38.875 34.625 31.78125 34.625 
z
M 21.921875 38.8125 
Q 15.578125 40.375 12.03125 44.71875 
Q 8.5 49.078125 8.5 55.328125 
Q 8.5 64.0625 14.71875 69.140625 
Q 20.953125 74.21875 31.78125 74.21875 
Q 42.671875 74.21875 48.875 69.140625 
Q 55.078125 64.0625 55.078125 55.328125 
Q 55.078125 49.078125 51.53125 44.71875 
Q 48 40.375 41.703125 38.8125 
Q 48.828125 37.15625 52.796875 32.3125 
Q 56.78125 27.484375 56.78125 20.515625 
Q 56.78125 9.90625 50.3125 4.234375 
Q 43.84375 -1.421875 31.78125 -1.421875 
Q 19.734375 -1.421875 13.25 4.234375 
Q 6.78125 9.90625 6.78125 20.515625 
Q 6.78125 27.484375 10.78125 32.3125 
Q 14.796875 37.15625 21.921875 38.8125 
z
M 18.3125 54.390625 
Q 18.3125 48.734375 21.84375 45.5625 
Q 25.390625 42.390625 31.78125 42.390625 
Q 38.140625 42.390625 41.71875 45.5625 
Q 45.3125 48.734375 45.3125 54.390625 
Q 45.3125 60.0625 41.71875 63.234375 
Q 38.140625 66.40625 31.78125 66.40625 
Q 25.390625 66.40625 21.84375 63.234375 
Q 18.3125 60.0625 18.3125 54.390625 
z
" id="DejaVuSans-56"/>
       <path d="M 31.78125 66.40625 
Q 24.171875 66.40625 20.328125 58.90625 
Q 16.5 51.421875 16.5 36.375 
Q 16.5 21.390625 20.328125 13.890625 
Q 24.171875 6.390625 31.78125 6.390625 
Q 39.453125 6.390625 43.28125 13.890625 
Q 47.125 21.390625 47.125 36.375 
Q 47.125 51.421875 43.28125 58.90625 
Q 39.453125 66.40625 31.78125 66.40625 
z
M 31.78125 74.21875 
Q 44.046875 74.21875 50.515625 64.515625 
Q 56.984375 54.828125 56.984375 36.375 
Q 56.984375 17.96875 50.515625 8.265625 
Q 44.046875 -1.421875 31.78125 -1.421875 
Q 19.53125 -1.421875 13.0625 8.265625 
Q 6.59375 17.96875 6.59375 36.375 
Q 6.59375 54.828125 13.0625 64.515625 
Q 19.53125 74.21875 31.78125 74.21875 
z
" id="DejaVuSans-48"/>
      </defs>
      <use xlink:href="#DejaVuSans-8722"/>
      <use x="83.789062" xlink:href="#DejaVuSans-56"/>
      <use x="147.412109" xlink:href="#DejaVuSans-48"/>
     </g>
    </g>
   </g>
   <g id="xtick_2">
    <g id="line2d_3">
     <path d="M 597.608898 365.759217 
L 604.987442 370.786821 
" style="fill:none;stroke:#000000;stroke-linecap:square;stroke-width:0.8;"/>
    </g>
    <g id="text_2">
     <!-- −60 -->
     <g transform="translate(599.966874 386.799433)scale(0.1 -0.1)">
      <defs>
       <path d="M 33.015625 40.375 
Q 26.375 40.375 22.484375 35.828125 
Q 18.609375 31.296875 18.609375 23.390625 
Q 18.609375 15.53125 22.484375 10.953125 
Q 26.375 6.390625 33.015625 6.390625 
Q 39.65625 6.390625 43.53125 10.953125 
Q 47.40625 15.53125 47.40625 23.390625 
Q 47.40625 31.296875 43.53125 35.828125 
Q 39.65625 40.375 33.015625 40.375 
z
M 52.59375 71.296875 
L 52.59375 62.3125 
Q 48.875 64.0625 45.09375 64.984375 
Q 41.3125 65.921875 37.59375 65.921875 
Q 27.828125 65.921875 22.671875 59.328125 
Q 17.53125 52.734375 16.796875 39.40625 
Q 19.671875 43.65625 24.015625 45.921875 
Q 28.375 48.1875 33.59375 48.1875 
Q 44.578125 48.1875 50.953125 41.515625 
Q 57.328125 34.859375 57.328125 23.390625 
Q 57.328125 12.15625 50.6875 5.359375 
Q 44.046875 -1.421875 33.015625 -1.421875 
Q 20.359375 -1.421875 13.671875 8.265625 
Q 6.984375 17.96875 6.984375 36.375 
Q 6.984375 53.65625 15.1875 63.9375 
Q 23.390625 74.21875 37.203125 74.21875 
Q 40.921875 74.21875 44.703125 73.484375 
Q 48.484375 72.75 52.59375 71.296875 
z
" id="DejaVuSans-54"/>
      </defs>
      <use xlink:href="#DejaVuSans-8722"/>
      <use x="83.789062" xlink:href="#DejaVuSans-54"/>
      <use x="147.412109" xlink:href="#DejaVuSans-48"/>
     </g>
    </g>
   </g>
   <g id="xtick_3">
    <g id="line2d_4">
     <path d="M 571.938746 397.621332 
L 579.332383 402.694837 
" style="fill:none;stroke:#000000;stroke-linecap:square;stroke-width:0.8;"/>
    </g>
    <g id="text_3">
     <!-- −40 -->
     <g transform="translate(574.393632 418.67522)scale(0.1 -0.1)">
      <defs>
       <path d="M 37.796875 64.3125 
L 12.890625 25.390625 
L 37.796875 25.390625 
z
M 35.203125 72.90625 
L 47.609375 72.90625 
L 47.609375 25.390625 
L 58.015625 25.390625 
L 58.015625 17.1875 
L 47.609375 17.1875 
L 47.609375 0 
L 37.796875 0 
L 37.796875 17.1875 
L 4.890625 17.1875 
L 4.890625 26.703125 
z
" id="DejaVuSans-52"/>
      </defs>
      <use xlink:href="#DejaVuSans-8722"/>
      <use x="83.789062" xlink:href="#DejaVuSans-52"/>
      <use x="147.412109" xlink:href="#DejaVuSans-48"/>
     </g>
    </g>
   </g>
   <g id="xtick_4">
    <g id="line2d_5">
     <path d="M 546.033773 429.774908 
L 553.44247 434.894947 
" style="fill:none;stroke:#000000;stroke-linecap:square;stroke-width:0.8;"/>
    </g>
    <g id="text_4">
     <!-- −20 -->
     <g transform="translate(548.586807 450.842158)scale(0.1 -0.1)">
      <defs>
       <path d="M 19.1875 8.296875 
L 53.609375 8.296875 
L 53.609375 0 
L 7.328125 0 
L 7.328125 8.296875 
Q 12.9375 14.109375 22.625 23.890625 
Q 32.328125 33.6875 34.8125 36.53125 
Q 39.546875 41.84375 41.421875 45.53125 
Q 43.3125 49.21875 43.3125 52.78125 
Q 43.3125 58.59375 39.234375 62.25 
Q 35.15625 65.921875 28.609375 65.921875 
Q 23.96875 65.921875 18.8125 64.3125 
Q 13.671875 62.703125 7.8125 59.421875 
L 7.8125 69.390625 
Q 13.765625 71.78125 18.9375 73 
Q 24.125 74.21875 28.421875 74.21875 
Q 39.75 74.21875 46.484375 68.546875 
Q 53.21875 62.890625 53.21875 53.421875 
Q 53.21875 48.921875 51.53125 44.890625 
Q 49.859375 40.875 45.40625 35.40625 
Q 44.1875 33.984375 37.640625 27.21875 
Q 31.109375 20.453125 19.1875 8.296875 
z
" id="DejaVuSans-50"/>
      </defs>
      <use xlink:href="#DejaVuSans-8722"/>
      <use x="83.789062" xlink:href="#DejaVuSans-50"/>
      <use x="147.412109" xlink:href="#DejaVuSans-48"/>
     </g>
    </g>
   </g>
   <g id="xtick_5">
    <g id="line2d_6">
     <path d="M 519.890743 462.223964 
L 527.314466 467.39118 
" style="fill:none;stroke:#000000;stroke-linecap:square;stroke-width:0.8;"/>
    </g>
    <g id="text_5">
     <!-- 0 -->
     <g transform="translate(529.914276 483.304254)scale(0.1 -0.1)">
      <use xlink:href="#DejaVuSans-48"/>
     </g>
    </g>
   </g>
   <g id="xtick_6">
    <g id="line2d_7">
     <path d="M 493.506359 494.972592 
L 500.945069 500.18764 
" style="fill:none;stroke:#000000;stroke-linecap:square;stroke-width:0.8;"/>
    </g>
    <g id="text_6">
     <!-- 20 -->
     <g transform="translate(500.449328 516.065591)scale(0.1 -0.1)">
      <use xlink:href="#DejaVuSans-50"/>
      <use x="63.623047" xlink:href="#DejaVuSans-48"/>
     </g>
    </g>
   </g>
   <g id="xtick_7">
    <g id="line2d_8">
     <path d="M 466.877263 528.02496 
L 474.33092 533.288506 
" style="fill:none;stroke:#000000;stroke-linecap:square;stroke-width:0.8;"/>
    </g>
    <g id="text_7">
     <!-- 40 -->
     <g transform="translate(473.922221 549.130324)scale(0.1 -0.1)">
      <use xlink:href="#DejaVuSans-52"/>
      <use x="63.623047" xlink:href="#DejaVuSans-48"/>
     </g>
    </g>
   </g>
   <g id="xtick_8">
    <g id="line2d_9">
     <path d="M 440.000034 561.385312 
L 447.468595 566.698037 
" style="fill:none;stroke:#000000;stroke-linecap:square;stroke-width:0.8;"/>
    </g>
    <g id="text_8">
     <!-- 60 -->
     <g transform="translate(447.148309 582.502687)scale(0.1 -0.1)">
      <use xlink:href="#DejaVuSans-54"/>
      <use x="63.623047" xlink:href="#DejaVuSans-48"/>
     </g>
    </g>
   </g>
   <g id="xtick_9">
    <g id="line2d_10">
     <path d="M 412.871189 595.057974 
L 420.354606 600.42057 
" style="fill:none;stroke:#000000;stroke-linecap:square;stroke-width:0.8;"/>
    </g>
    <g id="text_9">
     <!-- 80 -->
     <g transform="translate(420.124131 616.186995)scale(0.1 -0.1)">
      <use xlink:href="#DejaVuSans-56"/>
      <use x="63.623047" xlink:href="#DejaVuSans-48"/>
     </g>
    </g>
   </g>
  </g>
  <g id="axis3d_2">
   <g id="line2d_11">
    <path d="M 104.122632 390.294797 
L 406.687332 607.62202 
" style="fill:none;stroke:#000000;stroke-linecap:square;stroke-width:0.8;"/>
   </g>
   <g id="Line3DCollection_2">
    <path d="M 344.707811 -1 
L 346.511424 132.078263 
L 114.939517 398.064386 
" style="fill:none;stroke:#b0b0b0;stroke-width:0.8;"/>
    <path d="M 380.993428 15.349584 
L 380.170161 154.802449 
L 149.117752 422.614048 
" style="fill:none;stroke:#b0b0b0;stroke-width:0.8;"/>
    <path d="M 417.648917 39.586519 
L 414.055806 177.679828 
L 183.535521 447.335762 
" style="fill:none;stroke:#b0b0b0;stroke-width:0.8;"/>
    <path d="M 454.57267 64.000833 
L 448.17066 200.711954 
L 218.195349 472.231344 
" style="fill:none;stroke:#b0b0b0;stroke-width:0.8;"/>
    <path d="M 491.767645 88.594481 
L 482.517057 223.900403 
L 253.099801 497.302635 
" style="fill:none;stroke:#b0b0b0;stroke-width:0.8;"/>
    <path d="M 529.236839 113.369445 
L 517.097362 247.246771 
L 288.251473 522.5515 
" style="fill:none;stroke:#b0b0b0;stroke-width:0.8;"/>
    <path d="M 566.983296 138.327739 
L 551.913974 270.752678 
L 323.653003 547.979834 
" style="fill:none;stroke:#b0b0b0;stroke-width:0.8;"/>
    <path d="M 605.010107 163.471404 
L 586.969322 294.419764 
L 359.307064 573.589557 
" style="fill:none;stroke:#b0b0b0;stroke-width:0.8;"/>
    <path d="M 643.320405 188.802513 
L 622.265871 318.249694 
L 395.216368 599.382616 
" style="fill:none;stroke:#b0b0b0;stroke-width:0.8;"/>
   </g>
   <g id="xtick_10">
    <g id="line2d_12">
     <path d="M 116.864333 395.853521 
L 111.08625 402.490292 
" style="fill:none;stroke:#000000;stroke-linecap:square;stroke-width:0.8;"/>
    </g>
    <g id="text_10">
     <!-- −80 -->
     <g transform="translate(96.413529 419.785597)scale(0.1 -0.1)">
      <use xlink:href="#DejaVuSans-8722"/>
      <use x="83.789062" xlink:href="#DejaVuSans-56"/>
      <use x="147.412109" xlink:href="#DejaVuSans-48"/>
     </g>
    </g>
   </g>
   <g id="xtick_11">
    <g id="line2d_13">
     <path d="M 151.038502 420.387718 
L 145.272613 427.070928 
" style="fill:none;stroke:#000000;stroke-linecap:square;stroke-width:0.8;"/>
    </g>
    <g id="text_11">
     <!-- −60 -->
     <g transform="translate(130.516138 444.350156)scale(0.1 -0.1)">
      <use xlink:href="#DejaVuSans-8722"/>
      <use x="83.789062" xlink:href="#DejaVuSans-54"/>
      <use x="147.412109" xlink:href="#DejaVuSans-48"/>
     </g>
    </g>
   </g>
   <g id="xtick_12">
    <g id="line2d_14">
     <path d="M 185.4521 445.093805 
L 179.698719 451.823942 
" style="fill:none;stroke:#000000;stroke-linecap:square;stroke-width:0.8;"/>
    </g>
    <g id="text_12">
     <!-- −40 -->
     <g transform="translate(164.857415 469.08663)scale(0.1 -0.1)">
      <use xlink:href="#DejaVuSans-8722"/>
      <use x="83.789062" xlink:href="#DejaVuSans-52"/>
      <use x="147.412109" xlink:href="#DejaVuSans-48"/>
     </g>
    </g>
   </g>
   <g id="xtick_13">
    <g id="line2d_15">
     <path d="M 220.107651 469.973594 
L 214.367097 476.751155 
" style="fill:none;stroke:#000000;stroke-linecap:square;stroke-width:0.8;"/>
    </g>
    <g id="text_13">
     <!-- −20 -->
     <g transform="translate(199.439873 493.996831)scale(0.1 -0.1)">
      <use xlink:href="#DejaVuSans-8722"/>
      <use x="83.789062" xlink:href="#DejaVuSans-50"/>
      <use x="147.412109" xlink:href="#DejaVuSans-48"/>
     </g>
    </g>
   </g>
   <g id="xtick_14">
    <g id="line2d_16">
     <path d="M 255.007717 495.028924 
L 249.280314 501.854412 
" style="fill:none;stroke:#000000;stroke-linecap:square;stroke-width:0.8;"/>
    </g>
    <g id="text_14">
     <!-- 0 -->
     <g transform="translate(241.637157 519.082594)scale(0.1 -0.1)">
      <use xlink:href="#DejaVuSans-48"/>
     </g>
    </g>
   </g>
   <g id="xtick_15">
    <g id="line2d_17">
     <path d="M 290.154894 520.261659 
L 284.440973 527.135584 
" style="fill:none;stroke:#000000;stroke-linecap:square;stroke-width:0.8;"/>
    </g>
    <g id="text_15">
     <!-- 20 -->
     <g transform="translate(273.528414 544.345783)scale(0.1 -0.1)">
      <use xlink:href="#DejaVuSans-50"/>
      <use x="63.623047" xlink:href="#DejaVuSans-48"/>
     </g>
    </g>
   </g>
   <g id="xtick_16">
    <g id="line2d_18">
     <path d="M 325.551817 545.67369 
L 319.851714 552.59657 
" style="fill:none;stroke:#000000;stroke-linecap:square;stroke-width:0.8;"/>
    </g>
    <g id="text_16">
     <!-- 40 -->
     <g transform="translate(308.84986 569.788287)scale(0.1 -0.1)">
      <use xlink:href="#DejaVuSans-52"/>
      <use x="63.623047" xlink:href="#DejaVuSans-48"/>
     </g>
    </g>
   </g>
   <g id="xtick_17">
    <g id="line2d_19">
     <path d="M 361.201156 571.266936 
L 355.515214 578.239295 
" style="fill:none;stroke:#000000;stroke-linecap:square;stroke-width:0.8;"/>
    </g>
    <g id="text_17">
     <!-- 60 -->
     <g transform="translate(344.422906 595.412021)scale(0.1 -0.1)">
      <use xlink:href="#DejaVuSans-54"/>
      <use x="63.623047" xlink:href="#DejaVuSans-48"/>
     </g>
    </g>
   </g>
   <g id="xtick_18">
    <g id="line2d_20">
     <path d="M 397.105621 597.043341 
L 391.434191 604.065711 
" style="fill:none;stroke:#000000;stroke-linecap:square;stroke-width:0.8;"/>
    </g>
    <g id="text_18">
     <!-- 80 -->
     <g transform="translate(380.25025 621.218928)scale(0.1 -0.1)">
      <use xlink:href="#DejaVuSans-56"/>
      <use x="63.623047" xlink:href="#DejaVuSans-48"/>
     </g>
    </g>
   </g>
  </g>
  <g id="axis3d_3">
   <g id="line2d_21">
    <path d="M 104.122632 390.294797 
L 81.67382 265.474402 
" style="fill:none;stroke:#000000;stroke-linecap:square;stroke-width:0.8;"/>
   </g>
   <g id="Line3DCollection_3">
    <path d="M 103.358298 386.044926 
L 335.762545 120.062416 
L 634.289386 321.466338 
" style="fill:none;stroke:#b0b0b0;stroke-width:0.8;"/>
    <path d="M 100.925381 372.517367 
L 335.461706 104.718348 
L 636.677536 307.480724 
" style="fill:none;stroke:#b0b0b0;stroke-width:0.8;"/>
    <path d="M 98.447667 358.740724 
L 335.155542 89.102645 
L 639.109247 293.240005 
" style="fill:none;stroke:#b0b0b0;stroke-width:0.8;"/>
    <path d="M 95.923906 344.708053 
L 334.84391 73.20803 
L 641.585722 278.737135 
" style="fill:none;stroke:#b0b0b0;stroke-width:0.8;"/>
    <path d="M 93.352804 330.412151 
L 334.526662 57.026963 
L 644.108209 263.964811 
" style="fill:none;stroke:#b0b0b0;stroke-width:0.8;"/>
    <path d="M 90.733015 315.84554 
L 334.203644 40.551631 
L 646.678002 248.915451 
" style="fill:none;stroke:#b0b0b0;stroke-width:0.8;"/>
    <path d="M 88.063143 301.000458 
L 333.874698 23.773931 
L 649.296444 233.581188 
" style="fill:none;stroke:#b0b0b0;stroke-width:0.8;"/>
    <path d="M 85.341738 285.868842 
L 333.539659 6.685464 
L 651.96493 217.953855 
" style="fill:none;stroke:#b0b0b0;stroke-width:0.8;"/>
    <path d="M 82.567294 270.442316 
L 324.531705 -1 
M 347.890181 -1 
L 654.684908 202.02497 
" style="fill:none;stroke:#b0b0b0;stroke-width:0.8;"/>
   </g>
   <g id="xtick_19">
    <g id="line2d_22">
     <path d="M 105.29016 383.833945 
L 99.490918 390.471073 
" style="fill:none;stroke:#000000;stroke-linecap:square;stroke-width:0.8;"/>
    </g>
    <g id="text_19">
     <!-- −60 -->
     <g transform="translate(73.420795 396.001233)scale(0.1 -0.1)">
      <use xlink:href="#DejaVuSans-8722"/>
      <use x="83.789062" xlink:href="#DejaVuSans-54"/>
      <use x="147.412109" xlink:href="#DejaVuSans-48"/>
     </g>
    </g>
   </g>
   <g id="xtick_20">
    <g id="line2d_23">
     <path d="M 102.875634 370.290523 
L 97.021151 376.975308 
" style="fill:none;stroke:#000000;stroke-linecap:square;stroke-width:0.8;"/>
    </g>
    <g id="text_20">
     <!-- −40 -->
     <g transform="translate(70.810152 382.490605)scale(0.1 -0.1)">
      <use xlink:href="#DejaVuSans-8722"/>
      <use x="83.789062" xlink:href="#DejaVuSans-52"/>
      <use x="147.412109" xlink:href="#DejaVuSans-48"/>
     </g>
    </g>
   </g>
   <g id="xtick_21">
    <g id="line2d_24">
     <path d="M 100.416664 356.497804 
L 94.505877 363.230885 
" style="fill:none;stroke:#000000;stroke-linecap:square;stroke-width:0.8;"/>
    </g>
    <g id="text_21">
     <!-- −20 -->
     <g transform="translate(68.151421 368.731119)scale(0.1 -0.1)">
      <use xlink:href="#DejaVuSans-8722"/>
      <use x="83.789062" xlink:href="#DejaVuSans-50"/>
      <use x="147.412109" xlink:href="#DejaVuSans-48"/>
     </g>
    </g>
   </g>
   <g id="xtick_22">
    <g id="line2d_25">
     <path d="M 97.912011 342.448843 
L 91.94383 349.230868 
" style="fill:none;stroke:#000000;stroke-linecap:square;stroke-width:0.8;"/>
    </g>
    <g id="text_22">
     <!-- 0 -->
     <g transform="translate(72.814358 354.715837)scale(0.1 -0.1)">
      <use xlink:href="#DejaVuSans-48"/>
     </g>
    </g>
   </g>
   <g id="xtick_23">
    <g id="line2d_26">
     <path d="M 95.36039 328.13643 
L 89.33369 334.96806 
" style="fill:none;stroke:#000000;stroke-linecap:square;stroke-width:0.8;"/>
    </g>
    <g id="text_23">
     <!-- 20 -->
     <g transform="translate(66.874132 340.437557)scale(0.1 -0.1)">
      <use xlink:href="#DejaVuSans-50"/>
      <use x="63.623047" xlink:href="#DejaVuSans-48"/>
     </g>
    </g>
   </g>
   <g id="xtick_24">
    <g id="line2d_27">
     <path d="M 92.760467 313.553086 
L 86.674093 320.434991 
" style="fill:none;stroke:#000000;stroke-linecap:square;stroke-width:0.8;"/>
    </g>
    <g id="text_24">
     <!-- 40 -->
     <g transform="translate(64.062893 325.888807)scale(0.1 -0.1)">
      <use xlink:href="#DejaVuSans-52"/>
      <use x="63.623047" xlink:href="#DejaVuSans-48"/>
     </g>
    </g>
   </g>
   <g id="xtick_25">
    <g id="line2d_28">
     <path d="M 90.110857 298.691043 
L 83.963617 305.623907 
" style="fill:none;stroke:#000000;stroke-linecap:square;stroke-width:0.8;"/>
    </g>
    <g id="text_25">
     <!-- 60 -->
     <g transform="translate(61.197892 311.061829)scale(0.1 -0.1)">
      <use xlink:href="#DejaVuSans-54"/>
      <use x="63.623047" xlink:href="#DejaVuSans-48"/>
     </g>
    </g>
   </g>
   <g id="xtick_26">
    <g id="line2d_29">
     <path d="M 87.410124 283.542236 
L 81.20079 290.526754 
" style="fill:none;stroke:#000000;stroke-linecap:square;stroke-width:0.8;"/>
    </g>
    <g id="text_26">
     <!-- 80 -->
     <g transform="translate(58.277573 295.948564)scale(0.1 -0.1)">
      <use xlink:href="#DejaVuSans-56"/>
      <use x="63.623047" xlink:href="#DejaVuSans-48"/>
     </g>
    </g>
   </g>
   <g id="xtick_27">
    <g id="line2d_30">
     <path d="M 84.656771 268.098284 
L 78.384079 275.135161 
" style="fill:none;stroke:#000000;stroke-linecap:square;stroke-width:0.8;"/>
    </g>
    <g id="text_27">
     <!-- 100 -->
     <g transform="translate(52.119067 280.54064)scale(0.1 -0.1)">
      <defs>
       <path d="M 12.40625 8.296875 
L 28.515625 8.296875 
L 28.515625 63.921875 
L 10.984375 60.40625 
L 10.984375 69.390625 
L 28.421875 72.90625 
L 38.28125 72.90625 
L 38.28125 8.296875 
L 54.390625 8.296875 
L 54.390625 0 
L 12.40625 0 
z
" id="DejaVuSans-49"/>
      </defs>
      <use xlink:href="#DejaVuSans-49"/>
      <use x="63.623047" xlink:href="#DejaVuSans-48"/>
      <use x="127.246094" xlink:href="#DejaVuSans-48"/>
     </g>
    </g>
   </g>
  </g>
  <g id="axes_1">
   <g id="Poly3DCollection_1">
    <defs>
     <path d="M 412.631082 -493.595189 
L 412.054949 -469.890392 
L 401.399563 -477.241368 
L 401.829073 -501.0208 
z
" id="m1da771f5ae" style="stroke:#000000;"/>
    </defs>
    <g clip-path="url(#p4798e797da)">
     <use style="fill:#ff0000;fill-opacity:0.5;stroke:#000000;" x="0" xlink:href="#m1da771f5ae" y="610.56"/>
    </g>
   </g>
   <g id="text_28">
    <!-- Press 'q' to quit, 'space' to play/pause -->
    <g transform="translate(87.048 30.528)scale(0.1 -0.1)">
     <defs>
      <path d="M 19.671875 64.796875 
L 19.671875 37.40625 
L 32.078125 37.40625 
Q 38.96875 37.40625 42.71875 40.96875 
Q 46.484375 44.53125 46.484375 51.125 
Q 46.484375 57.671875 42.71875 61.234375 
Q 38.96875 64.796875 32.078125 64.796875 
z
M 9.8125 72.90625 
L 32.078125 72.90625 
Q 44.34375 72.90625 50.609375 67.359375 
Q 56.890625 61.8125 56.890625 51.125 
Q 56.890625 40.328125 50.609375 34.8125 
Q 44.34375 29.296875 32.078125 29.296875 
L 19.671875 29.296875 
L 19.671875 0 
L 9.8125 0 
z
" id="DejaVuSans-80"/>
      <path d="M 41.109375 46.296875 
Q 39.59375 47.171875 37.8125 47.578125 
Q 36.03125 48 33.890625 48 
Q 26.265625 48 22.1875 43.046875 
Q 18.109375 38.09375 18.109375 28.8125 
L 18.109375 0 
L 9.078125 0 
L 9.078125 54.6875 
L 18.109375 54.6875 
L 18.109375 46.1875 
Q 20.953125 51.171875 25.484375 53.578125 
Q 30.03125 56 36.53125 56 
Q 37.453125 56 38.578125 55.875 
Q 39.703125 55.765625 41.0625 55.515625 
z
" id="DejaVuSans-114"/>
      <path d="M 56.203125 29.59375 
L 56.203125 25.203125 
L 14.890625 25.203125 
Q 15.484375 15.921875 20.484375 11.0625 
Q 25.484375 6.203125 34.421875 6.203125 
Q 39.59375 6.203125 44.453125 7.46875 
Q 49.3125 8.734375 54.109375 11.28125 
L 54.109375 2.78125 
Q 49.265625 0.734375 44.1875 -0.34375 
Q 39.109375 -1.421875 33.890625 -1.421875 
Q 20.796875 -1.421875 13.15625 6.1875 
Q 5.515625 13.8125 5.515625 26.8125 
Q 5.515625 40.234375 12.765625 48.109375 
Q 20.015625 56 32.328125 56 
Q 43.359375 56 49.78125 48.890625 
Q 56.203125 41.796875 56.203125 29.59375 
z
M 47.21875 32.234375 
Q 47.125 39.59375 43.09375 43.984375 
Q 39.0625 48.390625 32.421875 48.390625 
Q 24.90625 48.390625 20.390625 44.140625 
Q 15.875 39.890625 15.1875 32.171875 
z
" id="DejaVuSans-101"/>
      <path d="M 44.28125 53.078125 
L 44.28125 44.578125 
Q 40.484375 46.53125 36.375 47.5 
Q 32.28125 48.484375 27.875 48.484375 
Q 21.1875 48.484375 17.84375 46.4375 
Q 14.5 44.390625 14.5 40.28125 
Q 14.5 37.15625 16.890625 35.375 
Q 19.28125 33.59375 26.515625 31.984375 
L 29.59375 31.296875 
Q 39.15625 29.25 43.1875 25.515625 
Q 47.21875 21.78125 47.21875 15.09375 
Q 47.21875 7.46875 41.1875 3.015625 
Q 35.15625 -1.421875 24.609375 -1.421875 
Q 20.21875 -1.421875 15.453125 -0.5625 
Q 10.6875 0.296875 5.421875 2 
L 5.421875 11.28125 
Q 10.40625 8.6875 15.234375 7.390625 
Q 20.0625 6.109375 24.8125 6.109375 
Q 31.15625 6.109375 34.5625 8.28125 
Q 37.984375 10.453125 37.984375 14.40625 
Q 37.984375 18.0625 35.515625 20.015625 
Q 33.0625 21.96875 24.703125 23.78125 
L 21.578125 24.515625 
Q 13.234375 26.265625 9.515625 29.90625 
Q 5.8125 33.546875 5.8125 39.890625 
Q 5.8125 47.609375 11.28125 51.796875 
Q 16.75 56 26.8125 56 
Q 31.78125 56 36.171875 55.265625 
Q 40.578125 54.546875 44.28125 53.078125 
z
" id="DejaVuSans-115"/>
      <path id="DejaVuSans-32"/>
      <path d="M 17.921875 72.90625 
L 17.921875 45.796875 
L 9.625 45.796875 
L 9.625 72.90625 
z
" id="DejaVuSans-39"/>
      <path d="M 14.796875 27.296875 
Q 14.796875 17.390625 18.875 11.75 
Q 22.953125 6.109375 30.078125 6.109375 
Q 37.203125 6.109375 41.296875 11.75 
Q 45.40625 17.390625 45.40625 27.296875 
Q 45.40625 37.203125 41.296875 42.84375 
Q 37.203125 48.484375 30.078125 48.484375 
Q 22.953125 48.484375 18.875 42.84375 
Q 14.796875 37.203125 14.796875 27.296875 
z
M 45.40625 8.203125 
Q 42.578125 3.328125 38.25 0.953125 
Q 33.9375 -1.421875 27.875 -1.421875 
Q 17.96875 -1.421875 11.734375 6.484375 
Q 5.515625 14.40625 5.515625 27.296875 
Q 5.515625 40.1875 11.734375 48.09375 
Q 17.96875 56 27.875 56 
Q 33.9375 56 38.25 53.625 
Q 42.578125 51.265625 45.40625 46.390625 
L 45.40625 54.6875 
L 54.390625 54.6875 
L 54.390625 -20.796875 
L 45.40625 -20.796875 
z
" id="DejaVuSans-113"/>
      <path d="M 18.3125 70.21875 
L 18.3125 54.6875 
L 36.8125 54.6875 
L 36.8125 47.703125 
L 18.3125 47.703125 
L 18.3125 18.015625 
Q 18.3125 11.328125 20.140625 9.421875 
Q 21.96875 7.515625 27.59375 7.515625 
L 36.8125 7.515625 
L 36.8125 0 
L 27.59375 0 
Q 17.1875 0 13.234375 3.875 
Q 9.28125 7.765625 9.28125 18.015625 
L 9.28125 47.703125 
L 2.6875 47.703125 
L 2.6875 54.6875 
L 9.28125 54.6875 
L 9.28125 70.21875 
z
" id="DejaVuSans-116"/>
      <path d="M 30.609375 48.390625 
Q 23.390625 48.390625 19.1875 42.75 
Q 14.984375 37.109375 14.984375 27.296875 
Q 14.984375 17.484375 19.15625 11.84375 
Q 23.34375 6.203125 30.609375 6.203125 
Q 37.796875 6.203125 41.984375 11.859375 
Q 46.1875 17.53125 46.1875 27.296875 
Q 46.1875 37.015625 41.984375 42.703125 
Q 37.796875 48.390625 30.609375 48.390625 
z
M 30.609375 56 
Q 42.328125 56 49.015625 48.375 
Q 55.71875 40.765625 55.71875 27.296875 
Q 55.71875 13.875 49.015625 6.21875 
Q 42.328125 -1.421875 30.609375 -1.421875 
Q 18.84375 -1.421875 12.171875 6.21875 
Q 5.515625 13.875 5.515625 27.296875 
Q 5.515625 40.765625 12.171875 48.375 
Q 18.84375 56 30.609375 56 
z
" id="DejaVuSans-111"/>
      <path d="M 8.5 21.578125 
L 8.5 54.6875 
L 17.484375 54.6875 
L 17.484375 21.921875 
Q 17.484375 14.15625 20.5 10.265625 
Q 23.53125 6.390625 29.59375 6.390625 
Q 36.859375 6.390625 41.078125 11.03125 
Q 45.3125 15.671875 45.3125 23.6875 
L 45.3125 54.6875 
L 54.296875 54.6875 
L 54.296875 0 
L 45.3125 0 
L 45.3125 8.40625 
Q 42.046875 3.421875 37.71875 1 
Q 33.40625 -1.421875 27.6875 -1.421875 
Q 18.265625 -1.421875 13.375 4.4375 
Q 8.5 10.296875 8.5 21.578125 
z
M 31.109375 56 
z
" id="DejaVuSans-117"/>
      <path d="M 9.421875 54.6875 
L 18.40625 54.6875 
L 18.40625 0 
L 9.421875 0 
z
M 9.421875 75.984375 
L 18.40625 75.984375 
L 18.40625 64.59375 
L 9.421875 64.59375 
z
" id="DejaVuSans-105"/>
      <path d="M 11.71875 12.40625 
L 22.015625 12.40625 
L 22.015625 4 
L 14.015625 -11.625 
L 7.71875 -11.625 
L 11.71875 4 
z
" id="DejaVuSans-44"/>
      <path d="M 18.109375 8.203125 
L 18.109375 -20.796875 
L 9.078125 -20.796875 
L 9.078125 54.6875 
L 18.109375 54.6875 
L 18.109375 46.390625 
Q 20.953125 51.265625 25.265625 53.625 
Q 29.59375 56 35.59375 56 
Q 45.5625 56 51.78125 48.09375 
Q 58.015625 40.1875 58.015625 27.296875 
Q 58.015625 14.40625 51.78125 6.484375 
Q 45.5625 -1.421875 35.59375 -1.421875 
Q 29.59375 -1.421875 25.265625 0.953125 
Q 20.953125 3.328125 18.109375 8.203125 
z
M 48.6875 27.296875 
Q 48.6875 37.203125 44.609375 42.84375 
Q 40.53125 48.484375 33.40625 48.484375 
Q 26.265625 48.484375 22.1875 42.84375 
Q 18.109375 37.203125 18.109375 27.296875 
Q 18.109375 17.390625 22.1875 11.75 
Q 26.265625 6.109375 33.40625 6.109375 
Q 40.53125 6.109375 44.609375 11.75 
Q 48.6875 17.390625 48.6875 27.296875 
z
" id="DejaVuSans-112"/>
      <path d="M 34.28125 27.484375 
Q 23.390625 27.484375 19.1875 25 
Q 14.984375 22.515625 14.984375 16.5 
Q 14.984375 11.71875 18.140625 8.90625 
Q 21.296875 6.109375 26.703125 6.109375 
Q 34.1875 6.109375 38.703125 11.40625 
Q 43.21875 16.703125 43.21875 25.484375 
L 43.21875 27.484375 
z
M 52.203125 31.203125 
L 52.203125 0 
L 43.21875 0 
L 43.21875 8.296875 
Q 40.140625 3.328125 35.546875 0.953125 
Q 30.953125 -1.421875 24.3125 -1.421875 
Q 15.921875 -1.421875 10.953125 3.296875 
Q 6 8.015625 6 15.921875 
Q 6 25.140625 12.171875 29.828125 
Q 18.359375 34.515625 30.609375 34.515625 
L 43.21875 34.515625 
L 43.21875 35.40625 
Q 43.21875 41.609375 39.140625 45 
Q 35.0625 48.390625 27.6875 48.390625 
Q 23 48.390625 18.546875 47.265625 
Q 14.109375 46.140625 10.015625 43.890625 
L 10.015625 52.203125 
Q 14.9375 54.109375 19.578125 55.046875 
Q 24.21875 56 28.609375 56 
Q 40.484375 56 46.34375 49.84375 
Q 52.203125 43.703125 52.203125 31.203125 
z
" id="DejaVuSans-97"/>
      <path d="M 48.78125 52.59375 
L 48.78125 44.1875 
Q 44.96875 46.296875 41.140625 47.34375 
Q 37.3125 48.390625 33.40625 48.390625 
Q 24.65625 48.390625 19.8125 42.84375 
Q 14.984375 37.3125 14.984375 27.296875 
Q 14.984375 17.28125 19.8125 11.734375 
Q 24.65625 6.203125 33.40625 6.203125 
Q 37.3125 6.203125 41.140625 7.25 
Q 44.96875 8.296875 48.78125 10.40625 
L 48.78125 2.09375 
Q 45.015625 0.34375 40.984375 -0.53125 
Q 36.96875 -1.421875 32.421875 -1.421875 
Q 20.0625 -1.421875 12.78125 6.34375 
Q 5.515625 14.109375 5.515625 27.296875 
Q 5.515625 40.671875 12.859375 48.328125 
Q 20.21875 56 33.015625 56 
Q 37.15625 56 41.109375 55.140625 
Q 45.0625 54.296875 48.78125 52.59375 
z
" id="DejaVuSans-99"/>
      <path d="M 9.421875 75.984375 
L 18.40625 75.984375 
L 18.40625 0 
L 9.421875 0 
z
" id="DejaVuSans-108"/>
      <path d="M 32.171875 -5.078125 
Q 28.375 -14.84375 24.75 -17.8125 
Q 21.140625 -20.796875 15.09375 -20.796875 
L 7.90625 -20.796875 
L 7.90625 -13.28125 
L 13.1875 -13.28125 
Q 16.890625 -13.28125 18.9375 -11.515625 
Q 21 -9.765625 23.484375 -3.21875 
L 25.09375 0.875 
L 2.984375 54.6875 
L 12.5 54.6875 
L 29.59375 11.921875 
L 46.6875 54.6875 
L 56.203125 54.6875 
z
" id="DejaVuSans-121"/>
      <path d="M 25.390625 72.90625 
L 33.6875 72.90625 
L 8.296875 -9.28125 
L 0 -9.28125 
z
" id="DejaVuSans-47"/>
     </defs>
     <use xlink:href="#DejaVuSans-80"/>
     <use x="58.552734" xlink:href="#DejaVuSans-114"/>
     <use x="97.416016" xlink:href="#DejaVuSans-101"/>
     <use x="158.939453" xlink:href="#DejaVuSans-115"/>
     <use x="211.039062" xlink:href="#DejaVuSans-115"/>
     <use x="263.138672" xlink:href="#DejaVuSans-32"/>
     <use x="294.925781" xlink:href="#DejaVuSans-39"/>
     <use x="322.416016" xlink:href="#DejaVuSans-113"/>
     <use x="385.892578" xlink:href="#DejaVuSans-39"/>
     <use x="413.382812" xlink:href="#DejaVuSans-32"/>
     <use x="445.169922" xlink:href="#DejaVuSans-116"/>
     <use x="484.378906" xlink:href="#DejaVuSans-111"/>
     <use x="545.560547" xlink:href="#DejaVuSans-32"/>
     <use x="577.347656" xlink:href="#DejaVuSans-113"/>
     <use x="640.824219" xlink:href="#DejaVuSans-117"/>
     <use x="704.203125" xlink:href="#DejaVuSans-105"/>
     <use x="731.986328" xlink:href="#DejaVuSans-116"/>
     <use x="771.195312" xlink:href="#DejaVuSans-44"/>
     <use x="802.982422" xlink:href="#DejaVuSans-32"/>
     <use x="834.769531" xlink:href="#DejaVuSans-39"/>
     <use x="862.259766" xlink:href="#DejaVuSans-115"/>
     <use x="914.359375" xlink:href="#DejaVuSans-112"/>
     <use x="977.835938" xlink:href="#DejaVuSans-97"/>
     <use x="1039.115234" xlink:href="#DejaVuSans-99"/>
     <use x="1094.095703" xlink:href="#DejaVuSans-101"/>
     <use x="1155.619141" xlink:href="#DejaVuSans-39"/>
     <use x="1183.109375" xlink:href="#DejaVuSans-32"/>
     <use x="1214.896484" xlink:href="#DejaVuSans-116"/>
     <use x="1254.105469" xlink:href="#DejaVuSans-111"/>
     <use x="1315.287109" xlink:href="#DejaVuSans-32"/>
     <use x="1347.074219" xlink:href="#DejaVuSans-112"/>
     <use x="1410.550781" xlink:href="#DejaVuSans-108"/>
     <use x="1438.333984" xlink:href="#DejaVuSans-97"/>
     <use x="1499.613281" xlink:href="#DejaVuSans-121"/>
     <use x="1558.792969" xlink:href="#DejaVuSans-47"/>
     <use x="1592.484375" xlink:href="#DejaVuSans-112"/>
     <use x="1655.960938" xlink:href="#DejaVuSans-97"/>
     <use x="1717.240234" xlink:href="#DejaVuSans-117"/>
     <use x="1780.619141" xlink:href="#DejaVuSans-115"/>
     <use x="1832.71875" xlink:href="#DejaVuSans-101"/>
    </g>
   </g>
   <g id="Poly3DCollection_2">
    <defs>
     <path d="M 416.85861 -493.28024 
L 416.225247 -469.578614 
L 414.755667 -468.042495 
L 415.369013 -491.728494 
z
" id="m629f60ef09" style="stroke:#000000;"/>
    </defs>
    <g clip-path="url(#p4798e797da)">
     <use style="fill:#ff0000;fill-opacity:0.5;stroke:#000000;" x="0" xlink:href="#m629f60ef09" y="610.56"/>
    </g>
   </g>
   <g id="Poly3DCollection_3">
    <defs>
     <path d="M 415.369013 -491.728494 
L 414.755667 -468.042495 
L 412.054949 -469.890392 
L 412.631082 -493.595189 
z
" id="m48fed5e42c" style="stroke:#000000;"/>
    </defs>
    <g clip-path="url(#p4798e797da)">
     <use style="fill:#ff0000;fill-opacity:0.5;stroke:#000000;" x="0" xlink:href="#m48fed5e42c" y="610.56"/>
    </g>
   </g>
   <g id="Poly3DCollection_4">
    <defs>
     <path d="M 420.782353 -490.641973 
L 420.095632 -466.96692 
L 416.225247 -469.578614 
L 416.85861 -493.28024 
z
" id="m2b1f8fc0b3" style="stroke:#000000;"/>
    </defs>
    <g clip-path="url(#p4798e797da)">
     <use style="fill:#ff0000;fill-opacity:0.5;stroke:#000000;" x="0" xlink:href="#m2b1f8fc0b3" y="610.56"/>
    </g>
   </g>
   <g id="Poly3DCollection_5">
    <defs>
     <path d="M 420.013717 -489.54341 
L 419.337293 -465.879431 
L 420.095632 -466.96692 
L 420.782353 -490.641973 
z
" id="m4bcd182d5a" style="stroke:#000000;"/>
    </defs>
    <g clip-path="url(#p4798e797da)">
     <use style="fill:#ff0000;fill-opacity:0.5;stroke:#000000;" x="0" xlink:href="#m4bcd182d5a" y="610.56"/>
    </g>
   </g>
   <g id="Poly3DCollection_6">
    <defs>
     <path d="M 426.345315 -487.746059 
L 425.58297 -464.100207 
L 419.337293 -465.879431 
L 420.013717 -489.54341 
z
" id="m472781d163" style="stroke:#000000;"/>
    </defs>
    <g clip-path="url(#p4798e797da)">
     <use style="fill:#ff0000;fill-opacity:0.5;stroke:#000000;" x="0" xlink:href="#m472781d163" y="610.56"/>
    </g>
   </g>
   <g id="Poly3DCollection_7">
    <defs>
     <path d="M 435.82141 -482.94186 
L 434.930114 -459.344523 
L 425.58297 -464.100207 
L 426.345315 -487.746059 
z
" id="m8cbef588ee" style="stroke:#000000;"/>
    </defs>
    <g clip-path="url(#p4798e797da)">
     <use style="fill:#ff0000;fill-opacity:0.5;stroke:#000000;" x="0" xlink:href="#m8cbef588ee" y="610.56"/>
    </g>
   </g>
   <g id="Poly3DCollection_8">
    <defs>
     <path d="M 439.158938 -480.760297 
L 438.222115 -457.185022 
L 434.930114 -459.344523 
L 435.82141 -482.94186 
z
" id="m1f9b276e46" style="stroke:#000000;"/>
    </defs>
    <g clip-path="url(#p4798e797da)">
     <use style="fill:#ff0000;fill-opacity:0.5;stroke:#000000;" x="0" xlink:href="#m1f9b276e46" y="610.56"/>
    </g>
   </g>
   <g id="Poly3DCollection_9">
    <defs>
     <path d="M 443.704225 -477.218748 
L 442.70527 -453.679327 
L 438.222115 -457.185022 
L 439.158938 -480.760297 
z
" id="m34bb47f874" style="stroke:#000000;"/>
    </defs>
    <g clip-path="url(#p4798e797da)">
     <use style="fill:#ff0000;fill-opacity:0.5;stroke:#000000;" x="0" xlink:href="#m34bb47f874" y="610.56"/>
    </g>
   </g>
   <g id="Poly3DCollection_10">
    <defs>
     <path d="M 446.54332 -477.065305 
L 445.505836 -453.527438 
L 444.047389 -454.20535 
L 445.064717 -477.750155 
z
" id="m7b55fac6f3" style="stroke:#000000;"/>
    </defs>
    <g clip-path="url(#p4798e797da)">
     <use style="fill:#ff0000;fill-opacity:0.5;stroke:#000000;" x="0" xlink:href="#m7b55fac6f3" y="610.56"/>
    </g>
   </g>
   <g id="Poly3DCollection_11">
    <defs>
     <path d="M 445.064717 -477.750155 
L 444.047389 -454.20535 
L 443.844267 -453.505377 
L 444.858908 -477.043019 
z
" id="m3cf71ab620" style="stroke:#000000;"/>
    </defs>
    <g clip-path="url(#p4798e797da)">
     <use style="fill:#ff0000;fill-opacity:0.5;stroke:#000000;" x="0" xlink:href="#m3cf71ab620" y="610.56"/>
    </g>
   </g>
   <g id="Poly3DCollection_12">
    <defs>
     <path d="M 444.858908 -477.043019 
L 443.844267 -453.505377 
L 442.70527 -453.679327 
L 443.704225 -477.218748 
z
" id="m646a510a4e" style="stroke:#000000;"/>
    </defs>
    <g clip-path="url(#p4798e797da)">
     <use style="fill:#ff0000;fill-opacity:0.5;stroke:#000000;" x="0" xlink:href="#m646a510a4e" y="610.56"/>
    </g>
   </g>
   <g id="Poly3DCollection_13">
    <defs>
     <path d="M 448.612853 -476.973559 
L 447.547285 -453.436622 
L 445.505836 -453.527438 
L 446.54332 -477.065305 
z
" id="md803e3f809" style="stroke:#000000;"/>
    </defs>
    <g clip-path="url(#p4798e797da)">
     <use style="fill:#ff0000;fill-opacity:0.5;stroke:#000000;" x="0" xlink:href="#md803e3f809" y="610.56"/>
    </g>
   </g>
   <g id="Poly3DCollection_14">
    <defs>
     <path d="M 459.035694 -469.69241 
L 457.827476 -446.22935 
L 447.547285 -453.436622 
L 448.612853 -476.973559 
z
" id="m0e8d9c55a5" style="stroke:#000000;"/>
    </defs>
    <g clip-path="url(#p4798e797da)">
     <use style="fill:#ff0000;fill-opacity:0.5;stroke:#000000;" x="0" xlink:href="#m0e8d9c55a5" y="610.56"/>
    </g>
   </g>
   <g id="Poly3DCollection_15">
    <defs>
     <path d="M 459.284346 -468.300221 
L 458.072506 -444.85131 
L 457.827476 -446.22935 
L 459.035694 -469.69241 
z
" id="m5a39829d46" style="stroke:#000000;"/>
    </defs>
    <g clip-path="url(#p4798e797da)">
     <use style="fill:#ff0000;fill-opacity:0.5;stroke:#000000;" x="0" xlink:href="#m5a39829d46" y="610.56"/>
    </g>
   </g>
   <g id="Poly3DCollection_16">
    <defs>
     <path d="M 458.719893 -467.09445 
L 457.515507 -443.6578 
L 458.072506 -444.85131 
L 459.284346 -468.300221 
z
" id="m664d0d40e8" style="stroke:#000000;"/>
    </defs>
    <g clip-path="url(#p4798e797da)">
     <use style="fill:#ff0000;fill-opacity:0.5;stroke:#000000;" x="0" xlink:href="#m664d0d40e8" y="610.56"/>
    </g>
   </g>
   <g id="Poly3DCollection_17">
    <defs>
     <path d="M 460.304659 -465.940227 
L 459.078542 -442.515319 
L 457.515507 -443.6578 
L 458.719893 -467.09445 
z
" id="mb365ad76f2" style="stroke:#000000;"/>
    </defs>
    <g clip-path="url(#p4798e797da)">
     <use style="fill:#ff0000;fill-opacity:0.5;stroke:#000000;" x="0" xlink:href="#mb365ad76f2" y="610.56"/>
    </g>
   </g>
   <g id="Poly3DCollection_18">
    <defs>
     <path d="M 454.703179 -458.984842 
L 453.551994 -435.630805 
L 459.078542 -442.515319 
L 460.304659 -465.940227 
z
" id="m3c42980043" style="stroke:#000000;"/>
    </defs>
    <g clip-path="url(#p4798e797da)">
     <use style="fill:#ff0000;fill-opacity:0.5;stroke:#000000;" x="0" xlink:href="#m3c42980043" y="610.56"/>
    </g>
   </g>
   <g id="Poly3DCollection_19">
    <defs>
     <path d="M 401.829073 -501.0208 
L 401.399563 -477.241368 
L 362.868046 -432.970349 
L 362.768982 -456.296946 
z
" id="m768df8589d" style="stroke:#000000;"/>
    </defs>
    <g clip-path="url(#p4798e797da)">
     <use style="fill:#ff0000;fill-opacity:0.5;stroke:#000000;" x="0" xlink:href="#m768df8589d" y="610.56"/>
    </g>
   </g>
   <g id="Poly3DCollection_20">
    <defs>
     <path d="M 362.768982 -456.296946 
L 362.868046 -432.970349 
L 354.377473 -423.672515 
L 354.161008 -446.902989 
z
" id="m01955cdfc5" style="stroke:#000000;"/>
    </defs>
    <g clip-path="url(#p4798e797da)">
     <use style="fill:#ff0000;fill-opacity:0.5;stroke:#000000;" x="0" xlink:href="#m01955cdfc5" y="610.56"/>
    </g>
   </g>
   <g id="Poly3DCollection_21">
    <defs>
     <path d="M 440.182067 -441.888438 
L 439.225984 -418.709419 
L 453.551994 -435.630805 
L 454.703179 -458.984842 
z
" id="m310ed06c7a" style="stroke:#000000;"/>
    </defs>
    <g clip-path="url(#p4798e797da)">
     <use style="fill:#ff0000;fill-opacity:0.5;stroke:#000000;" x="0" xlink:href="#m310ed06c7a" y="610.56"/>
    </g>
   </g>
   <g id="Poly3DCollection_22">
    <defs>
     <path d="M 444.468066 -438.827396 
L 443.453102 -415.679836 
L 439.225984 -418.709419 
L 440.182067 -441.888438 
z
" id="mdbeb65413d" style="stroke:#000000;"/>
    </defs>
    <g clip-path="url(#p4798e797da)">
     <use style="fill:#ff0000;fill-opacity:0.5;stroke:#000000;" x="0" xlink:href="#mdbeb65413d" y="610.56"/>
    </g>
   </g>
   <g id="Poly3DCollection_23">
    <defs>
     <path d="M 503.576438 -387.618725 
L 502.354682 -372.558107 
L 484.435732 -384.657062 
L 485.490139 -399.802442 
z
" id="mb20b7785db" style="stroke:#000000;"/>
    </defs>
    <g clip-path="url(#p4798e797da)">
     <use style="fill:#ff0000;fill-opacity:0.5;stroke:#000000;" x="0" xlink:href="#mb20b7785db" y="610.56"/>
    </g>
   </g>
   <g id="Poly3DCollection_24">
    <defs>
     <path d="M 354.161008 -446.902989 
L 354.377473 -423.672515 
L 390.301603 -400.675533 
L 390.582243 -423.666737 
z
" id="m2d38e66950" style="stroke:#000000;"/>
    </defs>
    <g clip-path="url(#p4798e797da)">
     <use style="fill:#ff0000;fill-opacity:0.5;stroke:#000000;" x="0" xlink:href="#m2d38e66950" y="610.56"/>
    </g>
   </g>
   <g id="Poly3DCollection_25">
    <defs>
     <path d="M 485.490139 -399.802442 
L 484.435732 -384.657062 
L 471.152396 -368.817075 
L 472.086529 -383.851404 
z
" id="mf2d57707e7" style="stroke:#000000;"/>
    </defs>
    <g clip-path="url(#p4798e797da)">
     <use style="fill:#ff0000;fill-opacity:0.5;stroke:#000000;" x="0" xlink:href="#mf2d57707e7" y="610.56"/>
    </g>
   </g>
   <g id="Poly3DCollection_26">
    <defs>
     <path d="M 428.236808 -424.302507 
L 427.441548 -401.304727 
L 429.987519 -399.732739 
L 430.818251 -422.714088 
z
" id="mb40281587a" style="stroke:#000000;"/>
    </defs>
    <g clip-path="url(#p4798e797da)">
     <use style="fill:#ff0000;fill-opacity:0.5;stroke:#000000;" x="0" xlink:href="#mb40281587a" y="610.56"/>
    </g>
   </g>
   <g id="Poly3DCollection_27">
    <defs>
     <path d="M 430.818251 -422.714088 
L 429.987519 -399.732739 
L 443.453102 -415.679836 
L 444.468066 -438.827396 
z
" id="m2c8cb2aca4" style="stroke:#000000;"/>
    </defs>
    <g clip-path="url(#p4798e797da)">
     <use style="fill:#ff0000;fill-opacity:0.5;stroke:#000000;" x="0" xlink:href="#m2c8cb2aca4" y="610.56"/>
    </g>
   </g>
   <g id="Poly3DCollection_28">
    <defs>
     <path d="M 421.025181 -416.042796 
L 420.327654 -393.130565 
L 427.441548 -401.304727 
L 428.236808 -424.302507 
z
" id="mec669e4963" style="stroke:#000000;"/>
    </defs>
    <g clip-path="url(#p4798e797da)">
     <use style="fill:#ff0000;fill-opacity:0.5;stroke:#000000;" x="0" xlink:href="#mec669e4963" y="610.56"/>
    </g>
   </g>
   <g id="Poly3DCollection_29">
    <defs>
     <path d="M 490.191142 -371.610771 
L 503.576438 -387.618725 
L 485.490139 -399.802442 
L 472.086529 -383.851404 
z
" id="m77cc9a1219" style="stroke:#000000;"/>
    </defs>
    <g clip-path="url(#p4798e797da)">
     <use style="fill-opacity:0;stroke:#000000;" x="0" xlink:href="#m77cc9a1219" y="610.56"/>
    </g>
   </g>
   <g id="Poly3DCollection_30">
    <defs>
     <path d="M 472.086529 -383.851404 
L 471.152396 -368.817075 
L 489.089317 -356.662118 
L 490.191142 -371.610771 
z
" id="m8192d695b6" style="stroke:#000000;"/>
    </defs>
    <g clip-path="url(#p4798e797da)">
     <use style="fill:#ff0000;fill-opacity:0.5;stroke:#000000;" x="0" xlink:href="#m8192d695b6" y="610.56"/>
    </g>
   </g>
   <g id="Poly3DCollection_31">
    <defs>
     <path d="M 490.191142 -371.610771 
L 489.089317 -356.662118 
L 502.354682 -372.558107 
L 503.576438 -387.618725 
z
" id="m4d53f79bc4" style="stroke:#000000;"/>
    </defs>
    <g clip-path="url(#p4798e797da)">
     <use style="fill:#ff0000;fill-opacity:0.5;stroke:#000000;" x="0" xlink:href="#m4d53f79bc4" y="610.56"/>
    </g>
   </g>
   <g id="Poly3DCollection_32">
    <defs>
     <path d="M 390.582243 -423.666737 
L 414.0947 -407.962803 
L 421.025181 -416.042796 
L 428.236808 -424.302507 
L 430.818251 -422.714088 
L 444.468066 -438.827396 
L 440.182067 -441.888438 
L 454.703179 -458.984842 
L 460.304659 -465.940227 
L 458.719893 -467.09445 
L 459.284346 -468.300221 
L 459.035694 -469.69241 
L 448.612853 -476.973559 
L 446.54332 -477.065305 
L 445.064717 -477.750155 
L 444.858908 -477.043019 
L 443.704225 -477.218748 
L 439.158938 -480.760297 
L 435.82141 -482.94186 
L 426.345315 -487.746059 
L 420.013717 -489.54341 
L 420.782353 -490.641973 
L 416.85861 -493.28024 
L 415.369013 -491.728494 
L 412.631082 -493.595189 
L 401.829073 -501.0208 
L 362.768982 -456.296946 
L 354.161008 -446.902989 
z
" id="maa9986f94b" style="stroke:#000000;"/>
    </defs>
    <g clip-path="url(#p4798e797da)">
     <use style="fill-opacity:0;stroke:#000000;" x="0" xlink:href="#maa9986f94b" y="610.56"/>
    </g>
   </g>
   <g id="Poly3DCollection_33">
    <defs>
     <path d="M 390.582243 -423.666737 
L 390.301603 -400.675533 
L 413.491306 -385.134519 
L 414.0947 -407.962803 
z
" id="m9fcfbdd04a" style="stroke:#000000;"/>
    </defs>
    <g clip-path="url(#p4798e797da)">
     <use style="fill:#ff0000;fill-opacity:0.5;stroke:#000000;" x="0" xlink:href="#m9fcfbdd04a" y="610.56"/>
    </g>
   </g>
   <g id="Poly3DCollection_34">
    <defs>
     <path d="M 414.0947 -407.962803 
L 413.491306 -385.134519 
L 420.327654 -393.130565 
L 421.025181 -416.042796 
z
" id="mf8a207007b" style="stroke:#000000;"/>
    </defs>
    <g clip-path="url(#p4798e797da)">
     <use style="fill:#ff0000;fill-opacity:0.5;stroke:#000000;" x="0" xlink:href="#mf8a207007b" y="610.56"/>
    </g>
   </g>
   <g id="Poly3DCollection_35">
    <defs>
     <path d="M 354.140081 -307.950643 
L 367.929598 -324.209798 
L 385.95273 -311.790791 
L 372.180834 -295.473145 
z
" id="m303f673e11" style="stroke:#000000;"/>
    </defs>
    <g clip-path="url(#p4798e797da)">
     <use style="fill-opacity:0;stroke:#000000;" x="0" xlink:href="#m303f673e11" y="610.56"/>
    </g>
   </g>
   <g id="Poly3DCollection_36">
    <defs>
     <path d="M 386.0271 -319.133971 
L 385.95273 -311.790791 
L 367.929598 -324.209798 
L 367.919695 -331.597735 
z
" id="mbbde789ba6" style="stroke:#000000;"/>
    </defs>
    <g clip-path="url(#p4798e797da)">
     <use style="fill:#ff0000;fill-opacity:0.5;stroke:#000000;" x="0" xlink:href="#mbbde789ba6" y="610.56"/>
    </g>
   </g>
   <g id="Poly3DCollection_37">
    <defs>
     <path d="M 367.919695 -331.597735 
L 367.929598 -324.209798 
L 354.140081 -307.950643 
L 354.065629 -315.279941 
z
" id="m773ffeb97b" style="stroke:#000000;"/>
    </defs>
    <g clip-path="url(#p4798e797da)">
     <use style="fill:#ff0000;fill-opacity:0.5;stroke:#000000;" x="0" xlink:href="#m773ffeb97b" y="610.56"/>
    </g>
   </g>
   <g id="Poly3DCollection_38">
    <defs>
     <path d="M 238.255443 -234.717476 
L 260.844008 -237.467419 
L 263.542931 -216.836585 
L 240.888879 -214.070417 
z
" id="m65305e72bc" style="stroke:#000000;"/>
    </defs>
    <g clip-path="url(#p4798e797da)">
     <use style="fill-opacity:0;stroke:#000000;" x="0" xlink:href="#m65305e72bc" y="610.56"/>
    </g>
   </g>
   <g id="Poly3DCollection_39">
    <defs>
     <path d="M 372.19082 -302.7572 
L 386.0271 -319.133971 
L 367.919695 -331.597735 
L 354.065629 -315.279941 
z
" id="mfdc924b8ec" style="stroke:#000000;"/>
    </defs>
    <g clip-path="url(#p4798e797da)">
     <use style="fill-opacity:0;stroke:#000000;" x="0" xlink:href="#mfdc924b8ec" y="610.56"/>
    </g>
   </g>
   <g id="Poly3DCollection_40">
    <defs>
     <path d="M 354.065629 -315.279941 
L 354.140081 -307.950643 
L 372.180834 -295.473145 
L 372.19082 -302.7572 
z
" id="m0903527c84" style="stroke:#000000;"/>
    </defs>
    <g clip-path="url(#p4798e797da)">
     <use style="fill:#ff0000;fill-opacity:0.5;stroke:#000000;" x="0" xlink:href="#m0903527c84" y="610.56"/>
    </g>
   </g>
   <g id="Poly3DCollection_41">
    <defs>
     <path d="M 372.19082 -302.7572 
L 372.180834 -295.473145 
L 385.95273 -311.790791 
L 386.0271 -319.133971 
z
" id="m1c96f6c195" style="stroke:#000000;"/>
    </defs>
    <g clip-path="url(#p4798e797da)">
     <use style="fill:#ff0000;fill-opacity:0.5;stroke:#000000;" x="0" xlink:href="#m1c96f6c195" y="610.56"/>
    </g>
   </g>
   <g id="Poly3DCollection_42">
    <defs>
     <path d="M 404.788367 -482.122272 
L 176.573665 -217.514908 
L 333.378994 -105.668945 
L 559.091568 -378.604977 
z
" id="m156266cdb6" style="stroke:#000000;"/>
    </defs>
    <g clip-path="url(#p4798e797da)">
     <use style="fill:#0000ff;fill-opacity:0.8;stroke:#000000;" x="0" xlink:href="#m156266cdb6" y="610.56"/>
    </g>
   </g>
   <g id="Poly3DCollection_43">
    <defs>
     <path d="M 380.513073 -216.312662 
L 380.36578 -195.551449 
L 379.076133 -194.00411 
L 379.20504 -214.747846 
z
" id="macdd9e78df" style="stroke:#000000;"/>
    </defs>
    <g clip-path="url(#p4798e797da)">
     <use style="fill:#ff0000;fill-opacity:0.5;stroke:#000000;" x="0" xlink:href="#macdd9e78df" y="610.56"/>
    </g>
   </g>
   <g id="Poly3DCollection_44">
    <defs>
     <path d="M 379.20504 -214.747846 
L 379.076133 -194.00411 
L 369.783056 -200.514719 
L 369.779235 -221.331925 
z
" id="m450d3e284a" style="stroke:#000000;"/>
    </defs>
    <g clip-path="url(#p4798e797da)">
     <use style="fill:#ff0000;fill-opacity:0.5;stroke:#000000;" x="0" xlink:href="#m450d3e284a" y="610.56"/>
    </g>
   </g>
   <g id="Poly3DCollection_45">
    <defs>
     <path d="M 238.255443 -234.717476 
L 240.888879 -214.070417 
L 248.613302 -254.05674 
z
" id="m98a9335bb3" style="stroke:#000000;"/>
    </defs>
    <g clip-path="url(#p4798e797da)">
     <use style="fill:#ff0000;fill-opacity:0.5;stroke:#000000;" x="0" xlink:href="#m98a9335bb3" y="610.56"/>
    </g>
   </g>
   <g id="Poly3DCollection_46">
    <defs>
     <path d="M 260.844008 -237.467419 
L 238.255443 -234.717476 
L 248.613302 -254.05674 
z
" id="m2255068e29" style="stroke:#000000;"/>
    </defs>
    <g clip-path="url(#p4798e797da)">
     <use style="fill:#ff0000;fill-opacity:0.5;stroke:#000000;" x="0" xlink:href="#m2255068e29" y="610.56"/>
    </g>
   </g>
   <g id="Poly3DCollection_47">
    <defs>
     <path d="M 263.542931 -216.836585 
L 260.844008 -237.467419 
L 248.613302 -254.05674 
z
" id="m0e03778261" style="stroke:#000000;"/>
    </defs>
    <g clip-path="url(#p4798e797da)">
     <use style="fill:#ff0000;fill-opacity:0.5;stroke:#000000;" x="0" xlink:href="#m0e03778261" y="610.56"/>
    </g>
   </g>
   <g id="Poly3DCollection_48">
    <defs>
     <path d="M 240.888879 -214.070417 
L 263.542931 -216.836585 
L 248.613302 -254.05674 
z
" id="m581a3db70a" style="stroke:#000000;"/>
    </defs>
    <g clip-path="url(#p4798e797da)">
     <use style="fill:#ff0000;fill-opacity:0.5;stroke:#000000;" x="0" xlink:href="#m581a3db70a" y="610.56"/>
    </g>
   </g>
   <g id="Poly3DCollection_49">
    <defs>
     <path d="M 385.256962 -213.007378 
L 385.042782 -192.283091 
L 380.36578 -195.551449 
L 380.513073 -216.312662 
z
" id="m24c9f12db9" style="stroke:#000000;"/>
    </defs>
    <g clip-path="url(#p4798e797da)">
     <use style="fill:#ff0000;fill-opacity:0.5;stroke:#000000;" x="0" xlink:href="#m24c9f12db9" y="610.56"/>
    </g>
   </g>
   <g id="Poly3DCollection_50">
    <defs>
     <path d="M 383.672831 -211.08371 
L 383.480912 -190.380935 
L 385.042782 -192.283091 
L 385.256962 -213.007378 
z
" id="m2be9ceaf30" style="stroke:#000000;"/>
    </defs>
    <g clip-path="url(#p4798e797da)">
     <use style="fill:#ff0000;fill-opacity:0.5;stroke:#000000;" x="0" xlink:href="#m2be9ceaf30" y="610.56"/>
    </g>
   </g>
   <g id="Poly3DCollection_51">
    <defs>
     <path d="M 350.488531 -210.35626 
L 350.764171 -189.661624 
L 343.318613 -194.906733 
L 342.936852 -215.660666 
z
" id="m997a64aaa1" style="stroke:#000000;"/>
    </defs>
    <g clip-path="url(#p4798e797da)">
     <use style="fill:#ff0000;fill-opacity:0.5;stroke:#000000;" x="0" xlink:href="#m997a64aaa1" y="610.56"/>
    </g>
   </g>
   <g id="Poly3DCollection_52">
    <defs>
     <path d="M 349.194559 -208.811282 
L 349.488494 -188.133937 
L 350.764171 -189.661624 
L 350.488531 -210.35626 
z
" id="m0be874b435" style="stroke:#000000;"/>
    </defs>
    <g clip-path="url(#p4798e797da)">
     <use style="fill:#ff0000;fill-opacity:0.5;stroke:#000000;" x="0" xlink:href="#m0be874b435" y="610.56"/>
    </g>
   </g>
   <g id="Poly3DCollection_53">
    <defs>
     <path d="M 342.936852 -215.660666 
L 343.318613 -194.906733 
L 336.148717 -186.396339 
L 335.66397 -207.054005 
z
" id="me9c99477cb" style="stroke:#000000;"/>
    </defs>
    <g clip-path="url(#p4798e797da)">
     <use style="fill:#ff0000;fill-opacity:0.5;stroke:#000000;" x="0" xlink:href="#me9c99477cb" y="610.56"/>
    </g>
   </g>
   <g id="Poly3DCollection_54">
    <defs>
     <path d="M 335.66397 -207.054005 
L 336.148717 -186.396339 
L 334.694906 -187.426538 
L 334.189447 -208.095874 
z
" id="m37692202ae" style="stroke:#000000;"/>
    </defs>
    <g clip-path="url(#p4798e797da)">
     <use style="fill:#ff0000;fill-opacity:0.5;stroke:#000000;" x="0" xlink:href="#m37692202ae" y="610.56"/>
    </g>
   </g>
   <g id="Poly3DCollection_55">
    <defs>
     <path d="M 392.989648 -204.590526 
L 392.666171 -183.960469 
L 383.480912 -190.380935 
L 383.672831 -211.08371 
z
" id="m0d8d79c809" style="stroke:#000000;"/>
    </defs>
    <g clip-path="url(#p4798e797da)">
     <use style="fill:#ff0000;fill-opacity:0.5;stroke:#000000;" x="0" xlink:href="#m0d8d79c809" y="610.56"/>
    </g>
   </g>
   <g id="Poly3DCollection_56">
    <defs>
     <path d="M 369.779235 -221.331925 
L 369.783056 -200.514719 
L 355.757363 -183.729981 
L 355.552911 -204.357425 
z
" id="mf15a90b62b" style="stroke:#000000;"/>
    </defs>
    <g clip-path="url(#p4798e797da)">
     <use style="fill:#ff0000;fill-opacity:0.5;stroke:#000000;" x="0" xlink:href="#mf15a90b62b" y="610.56"/>
    </g>
   </g>
   <g id="Poly3DCollection_57">
    <defs>
     <path d="M 355.552911 -204.357425 
L 355.757363 -183.729981 
L 349.488494 -188.133937 
L 349.194559 -208.811282 
z
" id="mdaf9b907f3" style="stroke:#000000;"/>
    </defs>
    <g clip-path="url(#p4798e797da)">
     <use style="fill:#ff0000;fill-opacity:0.5;stroke:#000000;" x="0" xlink:href="#mdaf9b907f3" y="610.56"/>
    </g>
   </g>
   <g id="Poly3DCollection_58">
    <defs>
     <path d="M 334.189447 -208.095874 
L 334.694906 -187.426538 
L 330.562588 -182.537808 
L 329.997656 -203.15173 
z
" id="mbc2c6868c3" style="stroke:#000000;"/>
    </defs>
    <g clip-path="url(#p4798e797da)">
     <use style="fill:#ff0000;fill-opacity:0.5;stroke:#000000;" x="0" xlink:href="#mbc2c6868c3" y="610.56"/>
    </g>
   </g>
   <g id="Poly3DCollection_59">
    <defs>
     <path d="M 329.997656 -203.15173 
L 330.562588 -182.537808 
L 332.274609 -181.314931 
L 331.734075 -201.914976 
z
" id="mb1063d4f75" style="stroke:#000000;"/>
    </defs>
    <g clip-path="url(#p4798e797da)">
     <use style="fill:#ff0000;fill-opacity:0.5;stroke:#000000;" x="0" xlink:href="#mb1063d4f75" y="610.56"/>
    </g>
   </g>
   <g id="Poly3DCollection_60">
    <defs>
     <path d="M 331.734075 -201.914976 
L 332.274609 -181.314931 
L 324.923123 -172.577305 
L 324.276586 -193.078023 
z
" id="m21cbc25d6e" style="stroke:#000000;"/>
    </defs>
    <g clip-path="url(#p4798e797da)">
     <use style="fill:#ff0000;fill-opacity:0.5;stroke:#000000;" x="0" xlink:href="#m21cbc25d6e" y="610.56"/>
    </g>
   </g>
   <g id="Poly3DCollection_61">
    <defs>
     <path d="M 324.276586 -193.078023 
L 324.923123 -172.577305 
L 325.449854 -172.204998 
L 324.81083 -192.701477 
z
" id="m9208a1614a" style="stroke:#000000;"/>
    </defs>
    <g clip-path="url(#p4798e797da)">
     <use style="fill:#ff0000;fill-opacity:0.5;stroke:#000000;" x="0" xlink:href="#m9208a1614a" y="610.56"/>
    </g>
   </g>
   <g id="Poly3DCollection_62">
    <defs>
     <path d="M 324.81083 -192.701477 
L 325.449854 -172.204998 
L 315.822842 -160.87024 
L 315.044622 -181.237383 
z
" id="mc3b9c18d93" style="stroke:#000000;"/>
    </defs>
    <g clip-path="url(#p4798e797da)">
     <use style="fill:#ff0000;fill-opacity:0.5;stroke:#000000;" x="0" xlink:href="#mc3b9c18d93" y="610.56"/>
    </g>
   </g>
   <g id="Poly3DCollection_63">
    <defs>
     <path d="M 315.044622 -181.237383 
L 315.822842 -160.87024 
L 316.564623 -159.977213 
L 315.79695 -180.334144 
z
" id="m317e0c0f2e" style="stroke:#000000;"/>
    </defs>
    <g clip-path="url(#p4798e797da)">
     <use style="fill:#ff0000;fill-opacity:0.5;stroke:#000000;" x="0" xlink:href="#m317e0c0f2e" y="610.56"/>
    </g>
   </g>
   <g id="Poly3DCollection_64">
    <defs>
     <path d="M 315.79695 -180.334144 
L 316.564623 -159.977213 
L 315.629582 -158.871731 
L 314.848365 -179.216016 
z
" id="m14c7283a3e" style="stroke:#000000;"/>
    </defs>
    <g clip-path="url(#p4798e797da)">
     <use style="fill:#ff0000;fill-opacity:0.5;stroke:#000000;" x="0" xlink:href="#m14c7283a3e" y="610.56"/>
    </g>
   </g>
   <g id="Poly3DCollection_65">
    <defs>
     <path d="M 314.848365 -179.216016 
L 315.629582 -158.871731 
L 310.550033 -162.450553 
L 309.696337 -182.83576 
z
" id="mf5847d61fd" style="stroke:#000000;"/>
    </defs>
    <g clip-path="url(#p4798e797da)">
     <use style="fill:#ff0000;fill-opacity:0.5;stroke:#000000;" x="0" xlink:href="#mf5847d61fd" y="610.56"/>
    </g>
   </g>
   <g id="Poly3DCollection_66">
    <defs>
     <path d="M 356.200093 -184.864795 
L 356.395952 -164.456672 
L 369.167142 -155.480959 
L 369.154451 -175.786423 
z
" id="m27c38cb573" style="stroke:#000000;"/>
    </defs>
    <g clip-path="url(#p4798e797da)">
     <use style="fill:#ff0000;fill-opacity:0.5;stroke:#000000;" x="0" xlink:href="#m27c38cb573" y="610.56"/>
    </g>
   </g>
   <g id="Poly3DCollection_67">
    <defs>
     <path d="M 369.154451 -175.786423 
L 369.167142 -155.480959 
L 392.666171 -183.960469 
L 392.989648 -204.590526 
z
" id="m83e3547a77" style="stroke:#000000;"/>
    </defs>
    <g clip-path="url(#p4798e797da)">
     <use style="fill:#ff0000;fill-opacity:0.5;stroke:#000000;" x="0" xlink:href="#m83e3547a77" y="610.56"/>
    </g>
   </g>
   <g id="Poly3DCollection_68">
    <defs>
     <path d="M 338.5489 -163.63517 
L 338.99568 -143.467624 
L 356.395952 -164.456672 
L 356.200093 -184.864795 
z
" id="mfde722c768" style="stroke:#000000;"/>
    </defs>
    <g clip-path="url(#p4798e797da)">
     <use style="fill:#ff0000;fill-opacity:0.5;stroke:#000000;" x="0" xlink:href="#mfde722c768" y="610.56"/>
    </g>
   </g>
   <g id="Poly3DCollection_69">
    <defs>
     <path d="M 309.696337 -182.83576 
L 310.550033 -162.450553 
L 293.8266 -142.398209 
L 292.729821 -162.553449 
z
" id="m451497d0c5" style="stroke:#000000;"/>
    </defs>
    <g clip-path="url(#p4798e797da)">
     <use style="fill:#ff0000;fill-opacity:0.5;stroke:#000000;" x="0" xlink:href="#m451497d0c5" y="610.56"/>
    </g>
   </g>
   <g id="Poly3DCollection_70">
    <defs>
     <path d="M 292.729821 -162.553449 
L 293.8266 -142.398209 
L 289.368034 -137.061043 
L 288.206216 -157.154796 
z
" id="mee944ac814" style="stroke:#000000;"/>
    </defs>
    <g clip-path="url(#p4798e797da)">
     <use style="fill:#ff0000;fill-opacity:0.5;stroke:#000000;" x="0" xlink:href="#mee944ac814" y="610.56"/>
    </g>
   </g>
   <g id="Poly3DCollection_71">
    <defs>
     <path d="M 354.918856 -152.10109 
L 355.133812 -132.064998 
L 338.99568 -143.467624 
L 338.5489 -163.63517 
z
" id="m18f7f866eb" style="stroke:#000000;"/>
    </defs>
    <g clip-path="url(#p4798e797da)">
     <use style="fill:#ff0000;fill-opacity:0.5;stroke:#000000;" x="0" xlink:href="#m18f7f866eb" y="610.56"/>
    </g>
   </g>
   <g id="Poly3DCollection_72">
    <defs>
     <path d="M 354.918856 -152.10109 
L 338.5489 -163.63517 
L 356.200093 -184.864795 
L 369.154451 -175.786423 
L 392.989648 -204.590526 
L 383.672831 -211.08371 
L 385.256962 -213.007378 
L 380.513073 -216.312662 
L 379.20504 -214.747846 
L 369.779235 -221.331925 
L 355.552911 -204.357425 
L 349.194559 -208.811282 
L 350.488531 -210.35626 
L 342.936852 -215.660666 
L 335.66397 -207.054005 
L 334.189447 -208.095874 
L 329.997656 -203.15173 
L 331.734075 -201.914976 
L 324.276586 -193.078023 
L 324.81083 -192.701477 
L 315.044622 -181.237383 
L 315.79695 -180.334144 
L 314.848365 -179.216016 
L 309.696337 -182.83576 
L 292.729821 -162.553449 
L 288.206216 -157.154796 
L 332.915671 -125.479608 
z
" id="m16d55cbadf" style="stroke:#000000;"/>
    </defs>
    <g clip-path="url(#p4798e797da)">
     <use style="fill-opacity:0;stroke:#000000;" x="0" xlink:href="#m16d55cbadf" y="610.56"/>
    </g>
   </g>
   <g id="Poly3DCollection_73">
    <defs>
     <path d="M 332.915671 -125.479608 
L 333.445143 -105.748934 
L 355.133812 -132.064998 
L 354.918856 -152.10109 
z
" id="m01c93239c0" style="stroke:#000000;"/>
    </defs>
    <g clip-path="url(#p4798e797da)">
     <use style="fill:#ff0000;fill-opacity:0.5;stroke:#000000;" x="0" xlink:href="#m01c93239c0" y="610.56"/>
    </g>
   </g>
   <g id="Poly3DCollection_74">
    <defs>
     <path d="M 288.206216 -157.154796 
L 289.368034 -137.061043 
L 333.445143 -105.748934 
L 332.915671 -125.479608 
z
" id="mab7426323b" style="stroke:#000000;"/>
    </defs>
    <g clip-path="url(#p4798e797da)">
     <use style="fill:#ff0000;fill-opacity:0.5;stroke:#000000;" x="0" xlink:href="#mab7426323b" y="610.56"/>
    </g>
   </g>
  </g>
 </g>
 <defs>
  <clipPath id="p4798e797da">
   <rect height="610.56" width="610.56" x="56.52" y="0"/>
  </clipPath>
 </defs>
</svg>
