<?xml version="1.0" encoding="utf-8" standalone="no"?>
<!DOCTYPE svg PUBLIC "-//W3C//DTD SVG 1.1//EN"
  "http://www.w3.org/Graphics/SVG/1.1/DTD/svg11.dtd">
<!-- Created with matplotlib (https://matplotlib.org/) -->
<svg height="644.4pt" version="1.1" viewBox="0 0 878.4 644.4" width="878.4pt" xmlns="http://www.w3.org/2000/svg" xmlns:xlink="http://www.w3.org/1999/xlink">
 <metadata>
  <rdf:RDF xmlns:cc="http://creativecommons.org/ns#" xmlns:dc="http://purl.org/dc/elements/1.1/" xmlns:rdf="http://www.w3.org/1999/02/22-rdf-syntax-ns#">
   <cc:Work>
    <dc:type rdf:resource="http://purl.org/dc/dcmitype/StillImage"/>
    <dc:date>2020-11-04T14:34:58.711411</dc:date>
    <dc:format>image/svg+xml</dc:format>
    <dc:creator>
     <cc:Agent>
      <dc:title>Matplotlib v3.3.1, https://matplotlib.org/</dc:title>
     </cc:Agent>
    </dc:creator>
   </cc:Work>
  </rdf:RDF>
 </metadata>
 <defs>
  <style type="text/css">*{stroke-linecap:butt;stroke-linejoin:round;}</style>
 </defs>
 <g id="figure_1">
  <g id="patch_1">
   <path d="M 0 644.4
L 878.4 644.4
L 878.4 0
L 0 0
z
" style="fill:#ffffff;"/>
  </g>
  <g id="patch_2">
   <path d="M 117 644.4
L 761.4 644.4
L 761.4 0
L 117 0
z
" style="fill:#ffffff;"/>
  </g>
  <g id="pane3d_1">
   <g id="patch_3">
    <path d="M 440.647804 349.364072
L 158.839866 459.346616
L 149.354125 168.692462
L 440.427635 77.428093
" style="fill:#f2f2f2;opacity:0.5;stroke:#f2f2f2;stroke-linejoin:miter;"/>
   </g>
  </g>
  <g id="pane3d_2">
   <g id="patch_4">
    <path d="M 735.768217 453.104767
L 440.647804 349.364072
L 440.427635 77.428093
L 745.173544 163.501122
" style="fill:#e6e6e6;opacity:0.5;stroke:#e6e6e6;stroke-linejoin:miter;"/>
   </g>
  </g>
  <g id="pane3d_3">
   <g id="patch_5">
    <path d="M 735.768217 453.104767
L 440.647804 349.364072
L 158.839866 459.346616
L 456.38379 580.961822
" style="fill:#ececec;opacity:0.5;stroke:#ececec;stroke-linejoin:miter;"/>
   </g>
  </g>
  <g id="axis3d_1">
   <g id="line2d_1">
    <path d="M 158.839866 459.346616
L 456.38379 580.961822
" style="fill:none;stroke:#000000;stroke-linecap:square;stroke-width:0.8;"/>
   </g>
   <g id="Line3DCollection_1">
    <path d="M 444.572707 576.134275
L 724.120412 449.010331
L 733.119512 160.096558
" style="fill:none;stroke:#b0b0b0;stroke-width:0.8;"/>
    <path d="M 407.880046 561.136874
L 687.899799 436.278065
L 695.649527 149.513462
" style="fill:none;stroke:#b0b0b0;stroke-width:0.8;"/>
    <path d="M 371.864561 546.416255
L 652.295775 423.762543
L 658.837816 139.11629
" style="fill:none;stroke:#b0b0b0;stroke-width:0.8;"/>
    <path d="M 336.507677 531.964827
L 617.29273 411.458277
L 622.667184 128.900187
" style="fill:none;stroke:#b0b0b0;stroke-width:0.8;"/>
    <path d="M 301.791493 517.775272
L 582.875574 399.359962
L 587.121029 118.860461
" style="fill:none;stroke:#b0b0b0;stroke-width:0.8;"/>
    <path d="M 267.698748 503.840535
L 549.02972 387.462471
L 552.183316 108.992586
" style="fill:none;stroke:#b0b0b0;stroke-width:0.8;"/>
    <path d="M 234.2128 490.153815
L 515.741059 375.760844
L 517.838558 99.292185
" style="fill:none;stroke:#b0b0b0;stroke-width:0.8;"/>
    <path d="M 201.317591 476.708548
L 482.995944 364.250285
L 484.071784 89.755032
" style="fill:none;stroke:#b0b0b0;stroke-width:0.8;"/>
    <path d="M 168.997626 463.4984
L 450.781171 352.926152
L 450.868528 80.377039
" style="fill:none;stroke:#b0b0b0;stroke-width:0.8;"/>
   </g>
   <g id="xtick_1">
    <g id="line2d_2">
     <path d="M 446.999111 575.030871
L 439.709903 578.345628
" style="fill:none;stroke:#000000;stroke-linecap:square;stroke-width:0.8;"/>
    </g>
    <g id="text_1">
     <!-- −80 -->
     <g transform="translate(423.606372 598.747999)scale(0.1 -0.1)">
      <defs>
       <path d="M 10.59375 35.5
L 73.1875 35.5
L 73.1875 27.203125
L 10.59375 27.203125
z
" id="DejaVuSans-8722"/>
       <path d="M 31.78125 34.625
Q 24.75 34.625 20.71875 30.859375
Q 16.703125 27.09375 16.703125 20.515625
Q 16.703125 13.921875 20.71875 10.15625
Q 24.75 6.390625 31.78125 6.390625
Q 38.8125 6.390625 42.859375 10.171875
Q 46.921875 13.96875 46.921875 20.515625
Q 46.921875 27.09375 42.890625 30.859375
Q 38.875 34.625 31.78125 34.625
z
M 21.921875 38.8125
Q 15.578125 40.375 12.03125 44.71875
Q 8.5 49.078125 8.5 55.328125
Q 8.5 64.0625 14.71875 69.140625
Q 20.953125 74.21875 31.78125 74.21875
Q 42.671875 74.21875 48.875 69.140625
Q 55.078125 64.0625 55.078125 55.328125
Q 55.078125 49.078125 51.53125 44.71875
Q 48 40.375 41.703125 38.8125
Q 48.828125 37.15625 52.796875 32.3125
Q 56.78125 27.484375 56.78125 20.515625
Q 56.78125 9.90625 50.3125 4.234375
Q 43.84375 -1.421875 31.78125 -1.421875
Q 19.734375 -1.421875 13.25 4.234375
Q 6.78125 9.90625 6.78125 20.515625
Q 6.78125 27.484375 10.78125 32.3125
Q 14.796875 37.15625 21.921875 38.8125
z
M 18.3125 54.390625
Q 18.3125 48.734375 21.84375 45.5625
Q 25.390625 42.390625 31.78125 42.390625
Q 38.140625 42.390625 41.71875 45.5625
Q 45.3125 48.734375 45.3125 54.390625
Q 45.3125 60.0625 41.71875 63.234375
Q 38.140625 66.40625 31.78125 66.40625
Q 25.390625 66.40625 21.84375 63.234375
Q 18.3125 60.0625 18.3125 54.390625
z
" id="DejaVuSans-56"/>
       <path d="M 31.78125 66.40625
Q 24.171875 66.40625 20.328125 58.90625
Q 16.5 51.421875 16.5 36.375
Q 16.5 21.390625 20.328125 13.890625
Q 24.171875 6.390625 31.78125 6.390625
Q 39.453125 6.390625 43.28125 13.890625
Q 47.125 21.390625 47.125 36.375
Q 47.125 51.421875 43.28125 58.90625
Q 39.453125 66.40625 31.78125 66.40625
z
M 31.78125 74.21875
Q 44.046875 74.21875 50.515625 64.515625
Q 56.984375 54.828125 56.984375 36.375
Q 56.984375 17.96875 50.515625 8.265625
Q 44.046875 -1.421875 31.78125 -1.421875
Q 19.53125 -1.421875 13.0625 8.265625
Q 6.59375 17.96875 6.59375 36.375
Q 6.59375 54.828125 13.0625 64.515625
Q 19.53125 74.21875 31.78125 74.21875
z
" id="DejaVuSans-48"/>
      </defs>
      <use xlink:href="#DejaVuSans-8722"/>
      <use x="83.789062" xlink:href="#DejaVuSans-56"/>
      <use x="147.412109" xlink:href="#DejaVuSans-48"/>
     </g>
    </g>
   </g>
   <g id="xtick_2">
    <g id="line2d_3">
     <path d="M 410.308776 560.053921
L 403.012674 563.3072
" style="fill:none;stroke:#000000;stroke-linecap:square;stroke-width:0.8;"/>
    </g>
    <g id="text_2">
     <!-- −60 -->
     <g transform="translate(386.946671 583.584265)scale(0.1 -0.1)">
      <defs>
       <path d="M 33.015625 40.375
Q 26.375 40.375 22.484375 35.828125
Q 18.609375 31.296875 18.609375 23.390625
Q 18.609375 15.53125 22.484375 10.953125
Q 26.375 6.390625 33.015625 6.390625
Q 39.65625 6.390625 43.53125 10.953125
Q 47.40625 15.53125 47.40625 23.390625
Q 47.40625 31.296875 43.53125 35.828125
Q 39.65625 40.375 33.015625 40.375
z
M 52.59375 71.296875
L 52.59375 62.3125
Q 48.875 64.0625 45.09375 64.984375
Q 41.3125 65.921875 37.59375 65.921875
Q 27.828125 65.921875 22.671875 59.328125
Q 17.53125 52.734375 16.796875 39.40625
Q 19.671875 43.65625 24.015625 45.921875
Q 28.375 48.1875 33.59375 48.1875
Q 44.578125 48.1875 50.953125 41.515625
Q 57.328125 34.859375 57.328125 23.390625
Q 57.328125 12.15625 50.6875 5.359375
Q 44.046875 -1.421875 33.015625 -1.421875
Q 20.359375 -1.421875 13.671875 8.265625
Q 6.984375 17.96875 6.984375 36.375
Q 6.984375 53.65625 15.1875 63.9375
Q 23.390625 74.21875 37.203125 74.21875
Q 40.921875 74.21875 44.703125 73.484375
Q 48.484375 72.75 52.59375 71.296875
z
" id="DejaVuSans-54"/>
      </defs>
      <use xlink:href="#DejaVuSans-8722"/>
      <use x="83.789062" xlink:href="#DejaVuSans-54"/>
      <use x="147.412109" xlink:href="#DejaVuSans-48"/>
     </g>
    </g>
   </g>
   <g id="xtick_3">
    <g id="line2d_4">
     <path d="M 374.295118 545.35319
L 366.993619 548.546686
" style="fill:none;stroke:#000000;stroke-linecap:square;stroke-width:0.8;"/>
    </g>
    <g id="text_3">
     <!-- −40 -->
     <g transform="translate(350.964709 568.700869)scale(0.1 -0.1)">
      <defs>
       <path d="M 37.796875 64.3125
L 12.890625 25.390625
L 37.796875 25.390625
z
M 35.203125 72.90625
L 47.609375 72.90625
L 47.609375 25.390625
L 58.015625 25.390625
L 58.015625 17.1875
L 47.609375 17.1875
L 47.609375 0
L 37.796875 0
L 37.796875 17.1875
L 4.890625 17.1875
L 4.890625 26.703125
z
" id="DejaVuSans-52"/>
      </defs>
      <use xlink:href="#DejaVuSans-8722"/>
      <use x="83.789062" xlink:href="#DejaVuSans-52"/>
      <use x="147.412109" xlink:href="#DejaVuSans-48"/>
     </g>
    </g>
   </g>
   <g id="xtick_4">
    <g id="line2d_5">
     <path d="M 338.939589 530.921106
L 331.63411 534.056451
" style="fill:none;stroke:#000000;stroke-linecap:square;stroke-width:0.8;"/>
    </g>
    <g id="text_4">
     <!-- −20 -->
     <g transform="translate(315.641866 554.090106)scale(0.1 -0.1)">
      <defs>
       <path d="M 19.1875 8.296875
L 53.609375 8.296875
L 53.609375 0
L 7.328125 0
L 7.328125 8.296875
Q 12.9375 14.109375 22.625 23.890625
Q 32.328125 33.6875 34.8125 36.53125
Q 39.546875 41.84375 41.421875 45.53125
Q 43.3125 49.21875 43.3125 52.78125
Q 43.3125 58.59375 39.234375 62.25
Q 35.15625 65.921875 28.609375 65.921875
Q 23.96875 65.921875 18.8125 64.3125
Q 13.671875 62.703125 7.8125 59.421875
L 7.8125 69.390625
Q 13.765625 71.78125 18.9375 73
Q 24.125 74.21875 28.421875 74.21875
Q 39.75 74.21875 46.484375 68.546875
Q 53.21875 62.890625 53.21875 53.421875
Q 53.21875 48.921875 51.53125 44.890625
Q 49.859375 40.875 45.40625 35.40625
Q 44.1875 33.984375 37.640625 27.21875
Q 31.109375 20.453125 19.1875 8.296875
z
" id="DejaVuSans-50"/>
      </defs>
      <use xlink:href="#DejaVuSans-8722"/>
      <use x="83.789062" xlink:href="#DejaVuSans-50"/>
      <use x="147.412109" xlink:href="#DejaVuSans-48"/>
     </g>
    </g>
   </g>
   <g id="xtick_5">
    <g id="line2d_6">
     <path d="M 304.224312 516.750372
L 296.916195 519.829141
" style="fill:none;stroke:#000000;stroke-linecap:square;stroke-width:0.8;"/>
    </g>
    <g id="text_5">
     <!-- 0 -->
     <g transform="translate(288.331289 539.744555)scale(0.1 -0.1)">
      <use xlink:href="#DejaVuSans-48"/>
     </g>
    </g>
   </g>
   <g id="xtick_6">
    <g id="line2d_7">
     <path d="M 270.132051 502.833952
L 262.82257 505.857662
" style="fill:none;stroke:#000000;stroke-linecap:square;stroke-width:0.8;"/>
    </g>
    <g id="text_6">
     <!-- 20 -->
     <g transform="translate(251.092239 525.657059)scale(0.1 -0.1)">
      <use xlink:href="#DejaVuSans-50"/>
      <use x="63.623047" xlink:href="#DejaVuSans-48"/>
     </g>
    </g>
   </g>
   <g id="xtick_7">
    <g id="line2d_8">
     <path d="M 236.646183 489.165062
L 229.336545 492.135177
" style="fill:none;stroke:#000000;stroke-linecap:square;stroke-width:0.8;"/>
    </g>
    <g id="text_7">
     <!-- 40 -->
     <g transform="translate(217.641626 511.820717)scale(0.1 -0.1)">
      <use xlink:href="#DejaVuSans-52"/>
      <use x="63.623047" xlink:href="#DejaVuSans-48"/>
     </g>
    </g>
   </g>
   <g id="xtick_8">
    <g id="line2d_9">
     <path d="M 203.750674 475.737155
L 196.442022 478.655087
" style="fill:none;stroke:#000000;stroke-linecap:square;stroke-width:0.8;"/>
    </g>
    <g id="text_8">
     <!-- 60 -->
     <g transform="translate(184.782108 498.228872)scale(0.1 -0.1)">
      <use xlink:href="#DejaVuSans-54"/>
      <use x="63.623047" xlink:href="#DejaVuSans-48"/>
     </g>
    </g>
   </g>
   <g id="xtick_9">
    <g id="line2d_10">
     <path d="M 171.430046 462.543914
L 164.123465 465.411027
" style="fill:none;stroke:#000000;stroke-linecap:square;stroke-width:0.8;"/>
    </g>
    <g id="text_9">
     <!-- 80 -->
     <g transform="translate(152.498152 484.875099)scale(0.1 -0.1)">
      <use xlink:href="#DejaVuSans-56"/>
      <use x="63.623047" xlink:href="#DejaVuSans-48"/>
     </g>
    </g>
   </g>
  </g>
  <g id="axis3d_2">
   <g id="line2d_11">
    <path d="M 735.768217 453.104767
L 456.38379 580.961822
" style="fill:none;stroke:#000000;stroke-linecap:square;stroke-width:0.8;"/>
   </g>
   <g id="Line3DCollection_2">
    <path d="M 430.496744 80.541865
L 431.010598 353.125231
L 726.268906 457.452017
" style="fill:none;stroke:#b0b0b0;stroke-width:0.8;"/>
    <path d="M 398.895821 90.450146
L 400.354772 365.089428
L 696.025948 471.292357
" style="fill:none;stroke:#b0b0b0;stroke-width:0.8;"/>
    <path d="M 366.72806 100.536156
L 369.165573 377.261787
L 665.216486 485.391951
" style="fill:none;stroke:#b0b0b0;stroke-width:0.8;"/>
    <path d="M 333.978074 110.80472
L 337.428958 389.647789
L 633.824455 499.758152
" style="fill:none;stroke:#b0b0b0;stroke-width:0.8;"/>
    <path d="M 300.62991 121.260839
L 305.130389 402.253108
L 601.833171 514.398593
" style="fill:none;stroke:#b0b0b0;stroke-width:0.8;"/>
    <path d="M 266.667028 131.909698
L 272.254805 415.08362
L 569.225311 529.321203
" style="fill:none;stroke:#b0b0b0;stroke-width:0.8;"/>
    <path d="M 232.072275 142.756678
L 238.786605 428.145416
L 535.982877 544.534219
" style="fill:none;stroke:#b0b0b0;stroke-width:0.8;"/>
    <path d="M 196.827849 153.807358
L 204.709619 441.444806
L 502.087162 560.046202
" style="fill:none;stroke:#b0b0b0;stroke-width:0.8;"/>
    <path d="M 160.915278 165.067531
L 170.007085 454.988331
L 467.518717 575.866051
" style="fill:none;stroke:#b0b0b0;stroke-width:0.8;"/>
   </g>
   <g id="xtick_10">
    <g id="line2d_12">
     <path d="M 723.730731 456.555176
L 731.35443 459.248939
" style="fill:none;stroke:#000000;stroke-linecap:square;stroke-width:0.8;"/>
    </g>
    <g id="text_10">
     <!-- −80 -->
     <g transform="translate(726.307365 478.546589)scale(0.1 -0.1)">
      <use xlink:href="#DejaVuSans-8722"/>
      <use x="83.789062" xlink:href="#DejaVuSans-56"/>
      <use x="147.412109" xlink:href="#DejaVuSans-48"/>
     </g>
    </g>
   </g>
   <g id="xtick_11">
    <g id="line2d_13">
     <path d="M 693.482588 470.378801
L 701.121945 473.122802
" style="fill:none;stroke:#000000;stroke-linecap:square;stroke-width:0.8;"/>
    </g>
    <g id="text_11">
     <!-- −60 -->
     <g transform="translate(696.117292 492.533186)scale(0.1 -0.1)">
      <use xlink:href="#DejaVuSans-8722"/>
      <use x="83.789062" xlink:href="#DejaVuSans-54"/>
      <use x="147.412109" xlink:href="#DejaVuSans-48"/>
     </g>
    </g>
   </g>
   <g id="xtick_12">
    <g id="line2d_14">
     <path d="M 662.668192 484.461207
L 670.322458 487.256865
" style="fill:none;stroke:#000000;stroke-linecap:square;stroke-width:0.8;"/>
    </g>
    <g id="text_12">
     <!-- −40 -->
     <g transform="translate(665.360847 506.782175)scale(0.1 -0.1)">
      <use xlink:href="#DejaVuSans-8722"/>
      <use x="83.789062" xlink:href="#DejaVuSans-52"/>
      <use x="147.412109" xlink:href="#DejaVuSans-48"/>
     </g>
    </g>
   </g>
   <g id="xtick_13">
    <g id="line2d_15">
     <path d="M 631.271492 498.809731
L 638.939868 501.658518
" style="fill:none;stroke:#000000;stroke-linecap:square;stroke-width:0.8;"/>
    </g>
    <g id="text_13">
     <!-- −20 -->
     <g transform="translate(634.021942 521.301008)scale(0.1 -0.1)">
      <use xlink:href="#DejaVuSans-8722"/>
      <use x="83.789062" xlink:href="#DejaVuSans-50"/>
      <use x="147.412109" xlink:href="#DejaVuSans-48"/>
     </g>
    </g>
   </g>
   <g id="xtick_14">
    <g id="line2d_16">
     <path d="M 599.275826 513.431987
L 606.957457 516.335432
" style="fill:none;stroke:#000000;stroke-linecap:square;stroke-width:0.8;"/>
    </g>
    <g id="text_14">
     <!-- 0 -->
     <g transform="translate(609.454966 536.097426)scale(0.1 -0.1)">
      <use xlink:href="#DejaVuSans-48"/>
     </g>
    </g>
   </g>
   <g id="xtick_15">
    <g id="line2d_17">
     <path d="M 566.663888 528.335884
L 574.357862 531.295575
" style="fill:none;stroke:#000000;stroke-linecap:square;stroke-width:0.8;"/>
    </g>
    <g id="text_15">
     <!-- 20 -->
     <g transform="translate(573.719134 551.179464)scale(0.1 -0.1)">
      <use xlink:href="#DejaVuSans-50"/>
      <use x="63.623047" xlink:href="#DejaVuSans-48"/>
     </g>
    </g>
   </g>
   <g id="xtick_16">
    <g id="line2d_18">
     <path d="M 533.417699 543.529638
L 541.123045 546.547226
" style="fill:none;stroke:#000000;stroke-linecap:square;stroke-width:0.8;"/>
    </g>
    <g id="text_16">
     <!-- 40 -->
     <g transform="translate(540.530013 566.555474)scale(0.1 -0.1)">
      <use xlink:href="#DejaVuSans-52"/>
      <use x="63.623047" xlink:href="#DejaVuSans-48"/>
     </g>
    </g>
   </g>
   <g id="xtick_17">
    <g id="line2d_19">
     <path d="M 499.518576 559.021787
L 507.234255 562.098988
" style="fill:none;stroke:#000000;stroke-linecap:square;stroke-width:0.8;"/>
    </g>
    <g id="text_17">
     <!-- 60 -->
     <g transform="translate(506.68762 582.234135)scale(0.1 -0.1)">
      <use xlink:href="#DejaVuSans-54"/>
      <use x="63.623047" xlink:href="#DejaVuSans-48"/>
     </g>
    </g>
   </g>
   <g id="xtick_18">
    <g id="line2d_20">
     <path d="M 464.947093 574.821211
L 472.671999 577.959808
" style="fill:none;stroke:#000000;stroke-linecap:square;stroke-width:0.8;"/>
    </g>
    <g id="text_18">
     <!-- 80 -->
     <g transform="translate(472.172474 598.224472)scale(0.1 -0.1)">
      <use xlink:href="#DejaVuSans-56"/>
      <use x="63.623047" xlink:href="#DejaVuSans-48"/>
     </g>
    </g>
   </g>
  </g>
  <g id="axis3d_3">
   <g id="line2d_21">
    <path d="M 735.768217 453.104767
L 745.173544 163.501122
" style="fill:none;stroke:#000000;stroke-linecap:square;stroke-width:0.8;"/>
   </g>
   <g id="Line3DCollection_3">
    <path d="M 736.103922 442.76794
L 440.639928 339.636528
L 158.501336 448.973665
" style="fill:none;stroke:#b0b0b0;stroke-width:0.8;"/>
    <path d="M 737.164915 410.098426
L 440.615045 308.90305
L 157.431392 416.189314
" style="fill:none;stroke:#b0b0b0;stroke-width:0.8;"/>
    <path d="M 738.233749 377.187478
L 440.589991 277.958416
L 156.353506 383.161655
" style="fill:none;stroke:#b0b0b0;stroke-width:0.8;"/>
    <path d="M 739.310511 344.032409
L 440.564765 246.800439
L 155.267592 349.887967
" style="fill:none;stroke:#b0b0b0;stroke-width:0.8;"/>
    <path d="M 740.39529 310.630493
L 440.539364 215.426908
L 154.173558 316.365493
" style="fill:none;stroke:#b0b0b0;stroke-width:0.8;"/>
    <path d="M 741.488176 276.978963
L 440.513786 183.835577
L 153.071313 282.591432
" style="fill:none;stroke:#b0b0b0;stroke-width:0.8;"/>
    <path d="M 742.589259 243.07501
L 440.48803 152.02417
L 151.960765 248.56294
" style="fill:none;stroke:#b0b0b0;stroke-width:0.8;"/>
    <path d="M 743.698633 208.915784
L 440.462095 119.99038
L 150.841819 214.277132
" style="fill:none;stroke:#b0b0b0;stroke-width:0.8;"/>
    <path d="M 744.816391 174.49839
L 440.435977 87.731866
L 149.71438 179.731077
" style="fill:none;stroke:#b0b0b0;stroke-width:0.8;"/>
   </g>
   <g id="xtick_19">
    <g id="line2d_22">
     <path d="M 733.564287 441.881483
L 741.192354 444.544052
" style="fill:none;stroke:#000000;stroke-linecap:square;stroke-width:0.8;"/>
    </g>
    <g id="text_19">
     <!-- −60 -->
     <g transform="translate(745.257165 450.154662)scale(0.1 -0.1)">
      <use xlink:href="#DejaVuSans-8722"/>
      <use x="83.789062" xlink:href="#DejaVuSans-54"/>
      <use x="147.412109" xlink:href="#DejaVuSans-48"/>
     </g>
    </g>
   </g>
   <g id="xtick_20">
    <g id="line2d_23">
     <path d="M 734.615297 409.228389
L 742.273384 411.841652
" style="fill:none;stroke:#000000;stroke-linecap:square;stroke-width:0.8;"/>
    </g>
    <g id="text_20">
     <!-- −40 -->
     <g transform="translate(746.390541 417.48907)scale(0.1 -0.1)">
      <use xlink:href="#DejaVuSans-8722"/>
      <use x="83.789062" xlink:href="#DejaVuSans-52"/>
      <use x="147.412109" xlink:href="#DejaVuSans-48"/>
     </g>
    </g>
   </g>
   <g id="xtick_21">
    <g id="line2d_24">
     <path d="M 735.674069 376.334127
L 743.362412 378.897282
" style="fill:none;stroke:#000000;stroke-linecap:square;stroke-width:0.8;"/>
    </g>
    <g id="text_21">
     <!-- −20 -->
     <g transform="translate(747.532292 384.582106)scale(0.1 -0.1)">
      <use xlink:href="#DejaVuSans-8722"/>
      <use x="83.789062" xlink:href="#DejaVuSans-50"/>
      <use x="147.412109" xlink:href="#DejaVuSans-48"/>
     </g>
    </g>
   </g>
   <g id="xtick_22">
    <g id="line2d_25">
     <path d="M 736.74069 343.196017
L 744.459528 345.708246
" style="fill:none;stroke:#000000;stroke-linecap:square;stroke-width:0.8;"/>
    </g>
    <g id="text_22">
     <!-- 0 -->
     <g transform="translate(756.053605 351.431087)scale(0.1 -0.1)">
      <use xlink:href="#DejaVuSans-48"/>
     </g>
    </g>
   </g>
   <g id="xtick_23">
    <g id="line2d_26">
     <path d="M 737.815248 309.811336
L 745.564822 312.271808
" style="fill:none;stroke:#000000;stroke-linecap:square;stroke-width:0.8;"/>
    </g>
    <g id="text_23">
     <!-- 20 -->
     <g transform="translate(754.031136 318.033287)scale(0.1 -0.1)">
      <use xlink:href="#DejaVuSans-50"/>
      <use x="63.623047" xlink:href="#DejaVuSans-48"/>
     </g>
    </g>
   </g>
   <g id="xtick_24">
    <g id="line2d_27">
     <path d="M 738.897831 276.177322
L 746.678386 278.585192
" style="fill:none;stroke:#000000;stroke-linecap:square;stroke-width:0.8;"/>
    </g>
    <g id="text_24">
     <!-- 40 -->
     <g transform="translate(755.198575 284.38594)scale(0.1 -0.1)">
      <use xlink:href="#DejaVuSans-52"/>
      <use x="63.623047" xlink:href="#DejaVuSans-48"/>
     </g>
    </g>
   </g>
   <g id="xtick_25">
    <g id="line2d_28">
     <path d="M 739.988529 242.291172
L 747.800314 244.64558
" style="fill:none;stroke:#000000;stroke-linecap:square;stroke-width:0.8;"/>
    </g>
    <g id="text_25">
     <!-- 60 -->
     <g transform="translate(756.37477 250.486239)scale(0.1 -0.1)">
      <use xlink:href="#DejaVuSans-54"/>
      <use x="63.623047" xlink:href="#DejaVuSans-48"/>
     </g>
    </g>
   </g>
   <g id="xtick_26">
    <g id="line2d_29">
     <path d="M 741.087435 208.150039
L 748.930699 210.450109
" style="fill:none;stroke:#000000;stroke-linecap:square;stroke-width:0.8;"/>
    </g>
    <g id="text_26">
     <!-- 80 -->
     <g transform="translate(757.55982 216.331334)scale(0.1 -0.1)">
      <use xlink:href="#DejaVuSans-56"/>
      <use x="63.623047" xlink:href="#DejaVuSans-48"/>
     </g>
    </g>
   </g>
   <g id="xtick_27">
    <g id="line2d_30">
     <path d="M 742.19464 173.751035
L 750.069638 175.995878
" style="fill:none;stroke:#000000;stroke-linecap:square;stroke-width:0.8;"/>
    </g>
    <g id="text_27">
     <!-- 100 -->
     <g transform="translate(755.572575 181.918331)scale(0.1 -0.1)">
      <defs>
       <path d="M 12.40625 8.296875
L 28.515625 8.296875
L 28.515625 63.921875
L 10.984375 60.40625
L 10.984375 69.390625
L 28.421875 72.90625
L 38.28125 72.90625
L 38.28125 8.296875
L 54.390625 8.296875
L 54.390625 0
L 12.40625 0
z
" id="DejaVuSans-49"/>
      </defs>
      <use xlink:href="#DejaVuSans-49"/>
      <use x="63.623047" xlink:href="#DejaVuSans-48"/>
      <use x="127.246094" xlink:href="#DejaVuSans-48"/>
     </g>
    </g>
   </g>
  </g>
  <g id="axes_1">
   <g id="line2d_31">
    <path clip-path="url(#p0d9c1a9934)" d="M 312.312632 300.068538
L 283.87236 290.134047
" style="fill:none;stroke:#008000;stroke-linecap:square;stroke-width:2.5;"/>
   </g>
   <g id="Poly3DCollection_1">
    <defs>
     <path d="M 390.482825 -349.302279
L 390.754609 -341.06124
L 367.58558 -340.836378
L 367.456534 -349.080181
z
" id="m54ff9bb069" style="stroke:#000000;"/>
    </defs>
    <g clip-path="url(#p0d9c1a9934)">
     <use style="fill-opacity:0;stroke:#000000;" x="0" xlink:href="#m54ff9bb069" y="644.4"/>
    </g>
   </g>
   <g id="text_28">
    <!-- Press 'q' to quit, 'space' to play/pause -->
    <g transform="translate(149.22 32.22)scale(0.1 -0.1)">
     <defs>
      <path d="M 19.671875 64.796875
L 19.671875 37.40625
L 32.078125 37.40625
Q 38.96875 37.40625 42.71875 40.96875
Q 46.484375 44.53125 46.484375 51.125
Q 46.484375 57.671875 42.71875 61.234375
Q 38.96875 64.796875 32.078125 64.796875
z
M 9.8125 72.90625
L 32.078125 72.90625
Q 44.34375 72.90625 50.609375 67.359375
Q 56.890625 61.8125 56.890625 51.125
Q 56.890625 40.328125 50.609375 34.8125
Q 44.34375 29.296875 32.078125 29.296875
L 19.671875 29.296875
L 19.671875 0
L 9.8125 0
z
" id="DejaVuSans-80"/>
      <path d="M 41.109375 46.296875
Q 39.59375 47.171875 37.8125 47.578125
Q 36.03125 48 33.890625 48
Q 26.265625 48 22.1875 43.046875
Q 18.109375 38.09375 18.109375 28.8125
L 18.109375 0
L 9.078125 0
L 9.078125 54.6875
L 18.109375 54.6875
L 18.109375 46.1875
Q 20.953125 51.171875 25.484375 53.578125
Q 30.03125 56 36.53125 56
Q 37.453125 56 38.578125 55.875
Q 39.703125 55.765625 41.0625 55.515625
z
" id="DejaVuSans-114"/>
      <path d="M 56.203125 29.59375
L 56.203125 25.203125
L 14.890625 25.203125
Q 15.484375 15.921875 20.484375 11.0625
Q 25.484375 6.203125 34.421875 6.203125
Q 39.59375 6.203125 44.453125 7.46875
Q 49.3125 8.734375 54.109375 11.28125
L 54.109375 2.78125
Q 49.265625 0.734375 44.1875 -0.34375
Q 39.109375 -1.421875 33.890625 -1.421875
Q 20.796875 -1.421875 13.15625 6.1875
Q 5.515625 13.8125 5.515625 26.8125
Q 5.515625 40.234375 12.765625 48.109375
Q 20.015625 56 32.328125 56
Q 43.359375 56 49.78125 48.890625
Q 56.203125 41.796875 56.203125 29.59375
z
M 47.21875 32.234375
Q 47.125 39.59375 43.09375 43.984375
Q 39.0625 48.390625 32.421875 48.390625
Q 24.90625 48.390625 20.390625 44.140625
Q 15.875 39.890625 15.1875 32.171875
z
" id="DejaVuSans-101"/>
      <path d="M 44.28125 53.078125
L 44.28125 44.578125
Q 40.484375 46.53125 36.375 47.5
Q 32.28125 48.484375 27.875 48.484375
Q 21.1875 48.484375 17.84375 46.4375
Q 14.5 44.390625 14.5 40.28125
Q 14.5 37.15625 16.890625 35.375
Q 19.28125 33.59375 26.515625 31.984375
L 29.59375 31.296875
Q 39.15625 29.25 43.1875 25.515625
Q 47.21875 21.78125 47.21875 15.09375
Q 47.21875 7.46875 41.1875 3.015625
Q 35.15625 -1.421875 24.609375 -1.421875
Q 20.21875 -1.421875 15.453125 -0.5625
Q 10.6875 0.296875 5.421875 2
L 5.421875 11.28125
Q 10.40625 8.6875 15.234375 7.390625
Q 20.0625 6.109375 24.8125 6.109375
Q 31.15625 6.109375 34.5625 8.28125
Q 37.984375 10.453125 37.984375 14.40625
Q 37.984375 18.0625 35.515625 20.015625
Q 33.0625 21.96875 24.703125 23.78125
L 21.578125 24.515625
Q 13.234375 26.265625 9.515625 29.90625
Q 5.8125 33.546875 5.8125 39.890625
Q 5.8125 47.609375 11.28125 51.796875
Q 16.75 56 26.8125 56
Q 31.78125 56 36.171875 55.265625
Q 40.578125 54.546875 44.28125 53.078125
z
" id="DejaVuSans-115"/>
      <path id="DejaVuSans-32"/>
      <path d="M 17.921875 72.90625
L 17.921875 45.796875
L 9.625 45.796875
L 9.625 72.90625
z
" id="DejaVuSans-39"/>
      <path d="M 14.796875 27.296875
Q 14.796875 17.390625 18.875 11.75
Q 22.953125 6.109375 30.078125 6.109375
Q 37.203125 6.109375 41.296875 11.75
Q 45.40625 17.390625 45.40625 27.296875
Q 45.40625 37.203125 41.296875 42.84375
Q 37.203125 48.484375 30.078125 48.484375
Q 22.953125 48.484375 18.875 42.84375
Q 14.796875 37.203125 14.796875 27.296875
z
M 45.40625 8.203125
Q 42.578125 3.328125 38.25 0.953125
Q 33.9375 -1.421875 27.875 -1.421875
Q 17.96875 -1.421875 11.734375 6.484375
Q 5.515625 14.40625 5.515625 27.296875
Q 5.515625 40.1875 11.734375 48.09375
Q 17.96875 56 27.875 56
Q 33.9375 56 38.25 53.625
Q 42.578125 51.265625 45.40625 46.390625
L 45.40625 54.6875
L 54.390625 54.6875
L 54.390625 -20.796875
L 45.40625 -20.796875
z
" id="DejaVuSans-113"/>
      <path d="M 18.3125 70.21875
L 18.3125 54.6875
L 36.8125 54.6875
L 36.8125 47.703125
L 18.3125 47.703125
L 18.3125 18.015625
Q 18.3125 11.328125 20.140625 9.421875
Q 21.96875 7.515625 27.59375 7.515625
L 36.8125 7.515625
L 36.8125 0
L 27.59375 0
Q 17.1875 0 13.234375 3.875
Q 9.28125 7.765625 9.28125 18.015625
L 9.28125 47.703125
L 2.6875 47.703125
L 2.6875 54.6875
L 9.28125 54.6875
L 9.28125 70.21875
z
" id="DejaVuSans-116"/>
      <path d="M 30.609375 48.390625
Q 23.390625 48.390625 19.1875 42.75
Q 14.984375 37.109375 14.984375 27.296875
Q 14.984375 17.484375 19.15625 11.84375
Q 23.34375 6.203125 30.609375 6.203125
Q 37.796875 6.203125 41.984375 11.859375
Q 46.1875 17.53125 46.1875 27.296875
Q 46.1875 37.015625 41.984375 42.703125
Q 37.796875 48.390625 30.609375 48.390625
z
M 30.609375 56
Q 42.328125 56 49.015625 48.375
Q 55.71875 40.765625 55.71875 27.296875
Q 55.71875 13.875 49.015625 6.21875
Q 42.328125 -1.421875 30.609375 -1.421875
Q 18.84375 -1.421875 12.171875 6.21875
Q 5.515625 13.875 5.515625 27.296875
Q 5.515625 40.765625 12.171875 48.375
Q 18.84375 56 30.609375 56
z
" id="DejaVuSans-111"/>
      <path d="M 8.5 21.578125
L 8.5 54.6875
L 17.484375 54.6875
L 17.484375 21.921875
Q 17.484375 14.15625 20.5 10.265625
Q 23.53125 6.390625 29.59375 6.390625
Q 36.859375 6.390625 41.078125 11.03125
Q 45.3125 15.671875 45.3125 23.6875
L 45.3125 54.6875
L 54.296875 54.6875
L 54.296875 0
L 45.3125 0
L 45.3125 8.40625
Q 42.046875 3.421875 37.71875 1
Q 33.40625 -1.421875 27.6875 -1.421875
Q 18.265625 -1.421875 13.375 4.4375
Q 8.5 10.296875 8.5 21.578125
z
M 31.109375 56
z
" id="DejaVuSans-117"/>
      <path d="M 9.421875 54.6875
L 18.40625 54.6875
L 18.40625 0
L 9.421875 0
z
M 9.421875 75.984375
L 18.40625 75.984375
L 18.40625 64.59375
L 9.421875 64.59375
z
" id="DejaVuSans-105"/>
      <path d="M 11.71875 12.40625
L 22.015625 12.40625
L 22.015625 4
L 14.015625 -11.625
L 7.71875 -11.625
L 11.71875 4
z
" id="DejaVuSans-44"/>
      <path d="M 18.109375 8.203125
L 18.109375 -20.796875
L 9.078125 -20.796875
L 9.078125 54.6875
L 18.109375 54.6875
L 18.109375 46.390625
Q 20.953125 51.265625 25.265625 53.625
Q 29.59375 56 35.59375 56
Q 45.5625 56 51.78125 48.09375
Q 58.015625 40.1875 58.015625 27.296875
Q 58.015625 14.40625 51.78125 6.484375
Q 45.5625 -1.421875 35.59375 -1.421875
Q 29.59375 -1.421875 25.265625 0.953125
Q 20.953125 3.328125 18.109375 8.203125
z
M 48.6875 27.296875
Q 48.6875 37.203125 44.609375 42.84375
Q 40.53125 48.484375 33.40625 48.484375
Q 26.265625 48.484375 22.1875 42.84375
Q 18.109375 37.203125 18.109375 27.296875
Q 18.109375 17.390625 22.1875 11.75
Q 26.265625 6.109375 33.40625 6.109375
Q 40.53125 6.109375 44.609375 11.75
Q 48.6875 17.390625 48.6875 27.296875
z
" id="DejaVuSans-112"/>
      <path d="M 34.28125 27.484375
Q 23.390625 27.484375 19.1875 25
Q 14.984375 22.515625 14.984375 16.5
Q 14.984375 11.71875 18.140625 8.90625
Q 21.296875 6.109375 26.703125 6.109375
Q 34.1875 6.109375 38.703125 11.40625
Q 43.21875 16.703125 43.21875 25.484375
L 43.21875 27.484375
z
M 52.203125 31.203125
L 52.203125 0
L 43.21875 0
L 43.21875 8.296875
Q 40.140625 3.328125 35.546875 0.953125
Q 30.953125 -1.421875 24.3125 -1.421875
Q 15.921875 -1.421875 10.953125 3.296875
Q 6 8.015625 6 15.921875
Q 6 25.140625 12.171875 29.828125
Q 18.359375 34.515625 30.609375 34.515625
L 43.21875 34.515625
L 43.21875 35.40625
Q 43.21875 41.609375 39.140625 45
Q 35.0625 48.390625 27.6875 48.390625
Q 23 48.390625 18.546875 47.265625
Q 14.109375 46.140625 10.015625 43.890625
L 10.015625 52.203125
Q 14.9375 54.109375 19.578125 55.046875
Q 24.21875 56 28.609375 56
Q 40.484375 56 46.34375 49.84375
Q 52.203125 43.703125 52.203125 31.203125
z
" id="DejaVuSans-97"/>
      <path d="M 48.78125 52.59375
L 48.78125 44.1875
Q 44.96875 46.296875 41.140625 47.34375
Q 37.3125 48.390625 33.40625 48.390625
Q 24.65625 48.390625 19.8125 42.84375
Q 14.984375 37.3125 14.984375 27.296875
Q 14.984375 17.28125 19.8125 11.734375
Q 24.65625 6.203125 33.40625 6.203125
Q 37.3125 6.203125 41.140625 7.25
Q 44.96875 8.296875 48.78125 10.40625
L 48.78125 2.09375
Q 45.015625 0.34375 40.984375 -0.53125
Q 36.96875 -1.421875 32.421875 -1.421875
Q 20.0625 -1.421875 12.78125 6.34375
Q 5.515625 14.109375 5.515625 27.296875
Q 5.515625 40.671875 12.859375 48.328125
Q 20.21875 56 33.015625 56
Q 37.15625 56 41.109375 55.140625
Q 45.0625 54.296875 48.78125 52.59375
z
" id="DejaVuSans-99"/>
      <path d="M 9.421875 75.984375
L 18.40625 75.984375
L 18.40625 0
L 9.421875 0
z
" id="DejaVuSans-108"/>
      <path d="M 32.171875 -5.078125
Q 28.375 -14.84375 24.75 -17.8125
Q 21.140625 -20.796875 15.09375 -20.796875
L 7.90625 -20.796875
L 7.90625 -13.28125
L 13.1875 -13.28125
Q 16.890625 -13.28125 18.9375 -11.515625
Q 21 -9.765625 23.484375 -3.21875
L 25.09375 0.875
L 2.984375 54.6875
L 12.5 54.6875
L 29.59375 11.921875
L 46.6875 54.6875
L 56.203125 54.6875
z
" id="DejaVuSans-121"/>
      <path d="M 25.390625 72.90625
L 33.6875 72.90625
L 8.296875 -9.28125
L 0 -9.28125
z
" id="DejaVuSans-47"/>
     </defs>
     <use xlink:href="#DejaVuSans-80"/>
     <use x="58.552734" xlink:href="#DejaVuSans-114"/>
     <use x="97.416016" xlink:href="#DejaVuSans-101"/>
     <use x="158.939453" xlink:href="#DejaVuSans-115"/>
     <use x="211.039062" xlink:href="#DejaVuSans-115"/>
     <use x="263.138672" xlink:href="#DejaVuSans-32"/>
     <use x="294.925781" xlink:href="#DejaVuSans-39"/>
     <use x="322.416016" xlink:href="#DejaVuSans-113"/>
     <use x="385.892578" xlink:href="#DejaVuSans-39"/>
     <use x="413.382812" xlink:href="#DejaVuSans-32"/>
     <use x="445.169922" xlink:href="#DejaVuSans-116"/>
     <use x="484.378906" xlink:href="#DejaVuSans-111"/>
     <use x="545.560547" xlink:href="#DejaVuSans-32"/>
     <use x="577.347656" xlink:href="#DejaVuSans-113"/>
     <use x="640.824219" xlink:href="#DejaVuSans-117"/>
     <use x="704.203125" xlink:href="#DejaVuSans-105"/>
     <use x="731.986328" xlink:href="#DejaVuSans-116"/>
     <use x="771.195312" xlink:href="#DejaVuSans-44"/>
     <use x="802.982422" xlink:href="#DejaVuSans-32"/>
     <use x="834.769531" xlink:href="#DejaVuSans-39"/>
     <use x="862.259766" xlink:href="#DejaVuSans-115"/>
     <use x="914.359375" xlink:href="#DejaVuSans-112"/>
     <use x="977.835938" xlink:href="#DejaVuSans-97"/>
     <use x="1039.115234" xlink:href="#DejaVuSans-99"/>
     <use x="1094.095703" xlink:href="#DejaVuSans-101"/>
     <use x="1155.619141" xlink:href="#DejaVuSans-39"/>
     <use x="1183.109375" xlink:href="#DejaVuSans-32"/>
     <use x="1214.896484" xlink:href="#DejaVuSans-116"/>
     <use x="1254.105469" xlink:href="#DejaVuSans-111"/>
     <use x="1315.287109" xlink:href="#DejaVuSans-32"/>
     <use x="1347.074219" xlink:href="#DejaVuSans-112"/>
     <use x="1410.550781" xlink:href="#DejaVuSans-108"/>
     <use x="1438.333984" xlink:href="#DejaVuSans-97"/>
     <use x="1499.613281" xlink:href="#DejaVuSans-121"/>
     <use x="1558.792969" xlink:href="#DejaVuSans-47"/>
     <use x="1592.484375" xlink:href="#DejaVuSans-112"/>
     <use x="1655.960938" xlink:href="#DejaVuSans-97"/>
     <use x="1717.240234" xlink:href="#DejaVuSans-117"/>
     <use x="1780.619141" xlink:href="#DejaVuSans-115"/>
     <use x="1832.71875" xlink:href="#DejaVuSans-101"/>
    </g>
   </g>
   <g id="Poly3DCollection_2">
    <defs>
     <path d="M 390.482825 -349.302279
L 367.456534 -349.080181
L 378.57293 -410.268144
z
" id="mec82896781" style="stroke:#000000;"/>
    </defs>
    <g clip-path="url(#p0d9c1a9934)">
     <use style="fill-opacity:0;stroke:#000000;" x="0" xlink:href="#mec82896781" y="644.4"/>
    </g>
   </g>
   <g id="Poly3DCollection_3">
    <defs>
     <path d="M 390.754609 -341.06124
L 390.482825 -349.302279
L 378.57293 -410.268144
z
" id="mabf1a5c049" style="stroke:#000000;"/>
    </defs>
    <g clip-path="url(#p0d9c1a9934)">
     <use style="fill-opacity:0;stroke:#000000;" x="0" xlink:href="#mabf1a5c049" y="644.4"/>
    </g>
   </g>
   <g id="Poly3DCollection_4">
    <defs>
     <path d="M 367.58558 -340.836378
L 390.754609 -341.06124
L 378.57293 -410.268144
z
" id="m2e2d8394ca" style="stroke:#000000;"/>
    </defs>
    <g clip-path="url(#p0d9c1a9934)">
     <use style="fill-opacity:0;stroke:#000000;" x="0" xlink:href="#m2e2d8394ca" y="644.4"/>
    </g>
   </g>
   <g id="Poly3DCollection_5">
    <defs>
     <path d="M 367.456534 -349.080181
L 367.58558 -340.836378
L 378.57293 -410.268144
z
" id="mb71b9847c5" style="stroke:#000000;"/>
    </defs>
    <g clip-path="url(#p0d9c1a9934)">
     <use style="fill-opacity:0;stroke:#000000;" x="0" xlink:href="#mb71b9847c5" y="644.4"/>
    </g>
   </g>
   <g id="Poly3DCollection_6">
    <defs>
     <path d="M 281.044107 -381.820349
L 281.950676 -332.629283
L 276.852611 -334.442699
L 275.919459 -383.577018
z
" id="m81af1bf1e9" style="stroke:#000000;"/>
    </defs>
    <g clip-path="url(#p0d9c1a9934)">
     <use style="fill-opacity:0;stroke:#000000;" x="0" xlink:href="#m81af1bf1e9" y="644.4"/>
    </g>
   </g>
   <g id="Poly3DCollection_7">
    <defs>
     <path d="M 300.496873 -375.16352
L 301.301844 -325.757655
L 281.950676 -332.629283
L 281.044107 -381.820349
z
" id="ma8ad834dc2" style="stroke:#000000;"/>
    </defs>
    <g clip-path="url(#p0d9c1a9934)">
     <use style="fill-opacity:0;stroke:#000000;" x="0" xlink:href="#ma8ad834dc2" y="644.4"/>
    </g>
   </g>
   <g id="Poly3DCollection_8">
    <defs>
     <path d="M 295.796749 -373.490997
L 296.628447 -324.031224
L 301.301844 -325.757655
L 300.496873 -375.16352
z
" id="mf78f3f7728" style="stroke:#000000;"/>
    </defs>
    <g clip-path="url(#p0d9c1a9934)">
     <use style="fill-opacity:0;stroke:#000000;" x="0" xlink:href="#mf78f3f7728" y="644.4"/>
    </g>
   </g>
   <g id="Poly3DCollection_9">
    <defs>
     <path d="M 297.970371 -373.345598
L 298.790275 -323.881141
L 297.701062 -323.643344
L 296.875024 -373.115224
z
" id="m3863708d31" style="stroke:#000000;"/>
    </defs>
    <g clip-path="url(#p0d9c1a9934)">
     <use style="fill-opacity:0;stroke:#000000;" x="0" xlink:href="#m3863708d31" y="644.4"/>
    </g>
   </g>
   <g id="Poly3DCollection_10">
    <defs>
     <path d="M 296.875024 -373.115224
L 297.701062 -323.643344
L 296.628447 -324.031224
L 295.796749 -373.490997
z
" id="ma350e758d2" style="stroke:#000000;"/>
    </defs>
    <g clip-path="url(#p0d9c1a9934)">
     <use style="fill-opacity:0;stroke:#000000;" x="0" xlink:href="#ma350e758d2" y="644.4"/>
    </g>
   </g>
   <g id="Poly3DCollection_11">
    <defs>
     <path d="M 309.570673 -369.635016
L 310.329282 -320.051052
L 309.841667 -319.870729
L 309.080268 -369.460316
z
" id="m87bd421436" style="stroke:#000000;"/>
    </defs>
    <g clip-path="url(#p0d9c1a9934)">
     <use style="fill-opacity:0;stroke:#000000;" x="0" xlink:href="#m87bd421436" y="644.4"/>
    </g>
   </g>
   <g id="Poly3DCollection_12">
    <defs>
     <path d="M 309.080268 -369.460316
L 309.841667 -319.870729
L 298.790275 -323.881141
L 297.970371 -373.345598
z
" id="m237fdb9cb9" style="stroke:#000000;"/>
    </defs>
    <g clip-path="url(#p0d9c1a9934)">
     <use style="fill-opacity:0;stroke:#000000;" x="0" xlink:href="#m237fdb9cb9" y="644.4"/>
    </g>
   </g>
   <g id="Poly3DCollection_13">
    <defs>
     <path d="M 275.919459 -383.577018
L 276.852611 -334.442699
L 236.027059 -319.592081
L 234.858351 -369.190358
z
" id="m5dcb246a64" style="stroke:#000000;"/>
    </defs>
    <g clip-path="url(#p0d9c1a9934)">
     <use style="fill-opacity:0;stroke:#000000;" x="0" xlink:href="#m5dcb246a64" y="644.4"/>
    </g>
   </g>
   <g id="Poly3DCollection_14">
    <defs>
     <path d="M 319.826865 -367.211525
L 320.530525 -317.549572
L 318.928694 -316.96133
L 318.215876 -366.641614
z
" id="m0391bb6132" style="stroke:#000000;"/>
    </defs>
    <g clip-path="url(#p0d9c1a9934)">
     <use style="fill-opacity:0;stroke:#000000;" x="0" xlink:href="#m0391bb6132" y="644.4"/>
    </g>
   </g>
   <g id="Poly3DCollection_15">
    <defs>
     <path d="M 318.215876 -366.641614
L 318.928694 -316.96133
L 310.329282 -320.051052
L 309.570673 -369.635016
z
" id="mab4953fe94" style="stroke:#000000;"/>
    </defs>
    <g clip-path="url(#p0d9c1a9934)">
     <use style="fill-opacity:0;stroke:#000000;" x="0" xlink:href="#mab4953fe94" y="644.4"/>
    </g>
   </g>
   <g id="Poly3DCollection_16">
    <defs>
     <path d="M 324.689711 -365.52211
L 325.367523 -315.805822
L 320.530525 -317.549572
L 319.826865 -367.211525
z
" id="m37089723ca" style="stroke:#000000;"/>
    </defs>
    <g clip-path="url(#p0d9c1a9934)">
     <use style="fill-opacity:0;stroke:#000000;" x="0" xlink:href="#m37089723ca" y="644.4"/>
    </g>
   </g>
   <g id="Poly3DCollection_17">
    <defs>
     <path d="M 323.329331 -365.036508
L 324.014877 -315.304607
L 325.367523 -315.805822
L 324.689711 -365.52211
z
" id="m7716560718" style="stroke:#000000;"/>
    </defs>
    <g clip-path="url(#p0d9c1a9934)">
     <use style="fill-opacity:0;stroke:#000000;" x="0" xlink:href="#m7716560718" y="644.4"/>
    </g>
   </g>
   <g id="Poly3DCollection_18">
    <defs>
     <path d="M 331.84138 -362.085814
L 332.481513 -312.259082
L 324.014877 -315.304607
L 323.329331 -365.036508
z
" id="mc5d3444f7d" style="stroke:#000000;"/>
    </defs>
    <g clip-path="url(#p0d9c1a9934)">
     <use style="fill-opacity:0;stroke:#000000;" x="0" xlink:href="#mc5d3444f7d" y="644.4"/>
    </g>
   </g>
   <g id="Poly3DCollection_19">
    <defs>
     <path d="M 234.858351 -369.190358
L 236.027059 -319.592081
L 261.160565 -310.470097
L 260.123537 -360.352499
z
" id="mc2b14f800f" style="stroke:#000000;"/>
    </defs>
    <g clip-path="url(#p0d9c1a9934)">
     <use style="fill:#ff0000;fill-opacity:0;stroke:#000000;" x="0" xlink:href="#mc2b14f800f" y="644.4"/>
    </g>
   </g>
   <g id="Poly3DCollection_20">
    <defs>
     <path d="M 260.123537 -360.352499
L 261.160565 -310.470097
L 276.197898 -316.011803
L 275.248258 -365.721674
z
" id="m6e3f0c3894" style="stroke:#000000;"/>
    </defs>
    <g clip-path="url(#p0d9c1a9934)">
     <use style="fill:#ff0000;fill-opacity:0;stroke:#000000;" x="0" xlink:href="#m6e3f0c3894" y="644.4"/>
    </g>
   </g>
   <g id="Poly3DCollection_21">
    <defs>
     <path d="M 323.353786 -360.111332
L 324.041754 -310.221186
L 325.564977 -309.675009
L 324.885196 -359.582145
z
" id="maed7d05f18" style="stroke:#000000;"/>
    </defs>
    <g clip-path="url(#p0d9c1a9934)">
     <use style="fill-opacity:0;stroke:#000000;" x="0" xlink:href="#maed7d05f18" y="644.4"/>
    </g>
   </g>
   <g id="Poly3DCollection_22">
    <defs>
     <path d="M 324.885196 -359.582145
L 325.564977 -309.675009
L 332.481513 -312.259082
L 331.84138 -362.085814
z
" id="mbfa54adbea" style="stroke:#000000;"/>
    </defs>
    <g clip-path="url(#p0d9c1a9934)">
     <use style="fill-opacity:0;stroke:#000000;" x="0" xlink:href="#mbfa54adbea" y="644.4"/>
    </g>
   </g>
   <g id="Poly3DCollection_23">
    <defs>
     <path d="M 275.248258 -365.721674
L 276.197898 -316.011803
L 296.683155 -308.625013
L 295.842249 -358.564805
z
" id="m66bceb2440" style="stroke:#000000;"/>
    </defs>
    <g clip-path="url(#p0d9c1a9934)">
     <use style="fill:#ff0000;fill-opacity:0;stroke:#000000;" x="0" xlink:href="#m66bceb2440" y="644.4"/>
    </g>
   </g>
   <g id="Poly3DCollection_24">
    <defs>
     <path d="M 317.500314 -358.00016
L 318.221761 -308.042246
L 324.041754 -310.221186
L 323.353786 -360.111332
z
" id="m8b478a8550" style="stroke:#000000;"/>
    </defs>
    <g clip-path="url(#p0d9c1a9934)">
     <use style="fill-opacity:0;stroke:#000000;" x="0" xlink:href="#m8b478a8550" y="644.4"/>
    </g>
   </g>
   <g id="Poly3DCollection_25">
    <defs>
     <path d="M 295.842249 -358.564805
L 296.683155 -308.625013
L 284.782396 -304.188269
L 283.87236 -354.265953
z
" id="m0b220232b8" style="stroke:#000000;"/>
    </defs>
    <g clip-path="url(#p0d9c1a9934)">
     <use style="fill:#ff0000;fill-opacity:0;stroke:#000000;" x="0" xlink:href="#m0b220232b8" y="644.4"/>
    </g>
   </g>
   <g id="Poly3DCollection_26">
    <defs>
     <path d="M 334.405681 -352.126038
L 335.03638 -301.979772
L 318.221761 -308.042246
L 317.500314 -358.00016
z
" id="m960c14426b" style="stroke:#000000;"/>
    </defs>
    <g clip-path="url(#p0d9c1a9934)">
     <use style="fill-opacity:0;stroke:#000000;" x="0" xlink:href="#m960c14426b" y="644.4"/>
    </g>
   </g>
   <g id="Poly3DCollection_27">
    <defs>
     <path d="M 464.892301 -339.477797
L 464.860655 -322.68608
L 447.450497 -328.647112
L 447.449646 -345.375945
z
" id="m6274972302" style="stroke:#000000;"/>
    </defs>
    <g clip-path="url(#p0d9c1a9934)">
     <use style="fill-opacity:0;stroke:#000000;" x="0" xlink:href="#m6274972302" y="644.4"/>
    </g>
   </g>
   <g id="Poly3DCollection_28">
    <defs>
     <path d="M 325.692674 -348.957955
L 326.373402 -298.71023
L 335.03638 -301.979772
L 334.405681 -352.126038
z
" id="mbf6e8115f3" style="stroke:#000000;"/>
    </defs>
    <g clip-path="url(#p0d9c1a9934)">
     <use style="fill-opacity:0;stroke:#000000;" x="0" xlink:href="#mbf6e8115f3" y="644.4"/>
    </g>
   </g>
   <g id="Poly3DCollection_29">
    <defs>
     <path d="M 447.449646 -345.375945
L 447.450497 -328.647112
L 430.951388 -322.352282
L 430.919726 -339.147516
z
" id="mcaae88de20" style="stroke:#000000;"/>
    </defs>
    <g clip-path="url(#p0d9c1a9934)">
     <use style="fill-opacity:0;stroke:#000000;" x="0" xlink:href="#mcaae88de20" y="644.4"/>
    </g>
   </g>
   <g id="Poly3DCollection_30">
    <defs>
     <path d="M 327.260061 -348.41083
L 327.932334 -298.145592
L 326.373402 -298.71023
L 325.692674 -348.957955
z
" id="m41bd782087" style="stroke:#000000;"/>
    </defs>
    <g clip-path="url(#p0d9c1a9934)">
     <use style="fill-opacity:0;stroke:#000000;" x="0" xlink:href="#m41bd782087" y="644.4"/>
    </g>
   </g>
   <g id="Poly3DCollection_31">
    <defs>
     <path d="M 320.945145 -347.47659
L 321.6531 -297.181452
L 323.57068 -296.494689
L 322.873129 -346.811119
z
" id="m76994be145" style="stroke:#000000;"/>
    </defs>
    <g clip-path="url(#p0d9c1a9934)">
     <use style="fill-opacity:0;stroke:#000000;" x="0" xlink:href="#m76994be145" y="644.4"/>
    </g>
   </g>
   <g id="Poly3DCollection_32">
    <defs>
     <path d="M 322.873129 -346.811119
L 323.57068 -296.494689
L 327.932334 -298.145592
L 327.260061 -348.41083
z
" id="m8522d5e91c" style="stroke:#000000;"/>
    </defs>
    <g clip-path="url(#p0d9c1a9934)">
     <use style="fill-opacity:0;stroke:#000000;" x="0" xlink:href="#m8522d5e91c" y="644.4"/>
    </g>
   </g>
   <g id="Poly3DCollection_33">
    <defs>
     <path d="M 447.450497 -328.647112
L 464.860655 -322.68608
L 448.369893 -316.335401
L 430.951388 -322.352282
z
" id="mc2a7fe7741" style="stroke:#000000;"/>
    </defs>
    <g clip-path="url(#p0d9c1a9934)">
     <use style="fill-opacity:0;stroke:#000000;" x="0" xlink:href="#mc2a7fe7741" y="644.4"/>
    </g>
   </g>
   <g id="Poly3DCollection_34">
    <defs>
     <path d="M 609.388439 -344.433906
L 608.485966 -294.041446
L 597.751457 -297.861956
L 598.591263 -348.135991
z
" id="m0693929a75" style="stroke:#000000;"/>
    </defs>
    <g clip-path="url(#p0d9c1a9934)">
     <use style="fill-opacity:0;stroke:#000000;" x="0" xlink:href="#m0693929a75" y="644.4"/>
    </g>
   </g>
   <g id="Poly3DCollection_35">
    <defs>
     <path d="M 260.123537 -360.352499
L 275.248258 -365.721674
L 295.842249 -358.564805
L 283.87236 -354.265953
L 312.312632 -344.331462
L 320.945145 -347.47659
L 322.873129 -346.811119
L 327.260061 -348.41083
L 325.692674 -348.957955
L 334.405681 -352.126038
L 317.500314 -358.00016
L 323.353786 -360.111332
L 324.885196 -359.582145
L 331.84138 -362.085814
L 323.329331 -365.036508
L 324.689711 -365.52211
L 319.826865 -367.211525
L 318.215876 -366.641614
L 309.570673 -369.635016
L 309.080268 -369.460316
L 297.970371 -373.345598
L 296.875024 -373.115224
L 295.796749 -373.490997
L 300.496873 -375.16352
L 281.044107 -381.820349
L 275.919459 -383.577018
L 234.858351 -369.190358
z
" id="mbc1fb73c01" style="stroke:#000000;"/>
    </defs>
    <g clip-path="url(#p0d9c1a9934)">
     <use style="fill:#ff0000;fill-opacity:0.5;stroke:#000000;" x="0" xlink:href="#mbc1fb73c01" y="644.4"/>
    </g>
   </g>
   <g id="Poly3DCollection_36">
    <defs>
     <path d="M 283.87236 -354.265953
L 284.782396 -304.188269
L 313.070499 -293.935727
L 312.312632 -344.331462
z
" id="ma32f404886" style="stroke:#000000;"/>
    </defs>
    <g clip-path="url(#p0d9c1a9934)">
     <use style="fill:#ff0000;fill-opacity:0.5;stroke:#000000;" x="0" xlink:href="#ma32f404886" y="644.4"/>
    </g>
   </g>
   <g id="Poly3DCollection_37">
    <defs>
     <path d="M 312.312632 -344.331462
L 313.070499 -293.935727
L 321.6531 -297.181452
L 320.945145 -347.47659
z
" id="m5a25057496" style="stroke:#000000;"/>
    </defs>
    <g clip-path="url(#p0d9c1a9934)">
     <use style="fill-opacity:0;stroke:#000000;" x="0" xlink:href="#m5a25057496" y="644.4"/>
    </g>
   </g>
   <g id="Poly3DCollection_38">
    <defs>
     <path d="M 430.919726 -339.147516
L 448.370759 -333.194005
L 464.892301 -339.477797
L 447.449646 -345.375945
z
" id="m1eaf189d0b" style="stroke:#000000;"/>
    </defs>
    <g clip-path="url(#p0d9c1a9934)">
     <use style="fill-opacity:0;stroke:#000000;" x="0" xlink:href="#m1eaf189d0b" y="644.4"/>
    </g>
   </g>
   <g id="Poly3DCollection_39">
    <defs>
     <path d="M 430.919726 -339.147516
L 430.951388 -322.352282
L 448.369893 -316.335401
L 448.370759 -333.194005
z
" id="m17a8a52489" style="stroke:#000000;"/>
    </defs>
    <g clip-path="url(#p0d9c1a9934)">
     <use style="fill-opacity:0;stroke:#000000;" x="0" xlink:href="#m17a8a52489" y="644.4"/>
    </g>
   </g>
   <g id="Poly3DCollection_40">
    <defs>
     <path d="M 448.370759 -333.194005
L 448.369893 -316.335401
L 464.860655 -322.68608
L 464.892301 -339.477797
z
" id="m74913787e2" style="stroke:#000000;"/>
    </defs>
    <g clip-path="url(#p0d9c1a9934)">
     <use style="fill-opacity:0;stroke:#000000;" x="0" xlink:href="#m74913787e2" y="644.4"/>
    </g>
   </g>
   <g id="Poly3DCollection_41">
    <defs>
     <path d="M 598.591263 -348.135991
L 597.751457 -297.861956
L 567.083362 -284.582179
L 567.757748 -335.267357
z
" id="m3d0a6b166e" style="stroke:#000000;"/>
    </defs>
    <g clip-path="url(#p0d9c1a9934)">
     <use style="fill-opacity:0;stroke:#000000;" x="0" xlink:href="#m3d0a6b166e" y="644.4"/>
    </g>
   </g>
   <g id="Poly3DCollection_42">
    <defs>
     <path d="M 662.155361 -327.135704
L 660.94255 -276.191465
L 608.485966 -294.041446
L 609.388439 -344.433906
z
" id="ma46b07f292" style="stroke:#000000;"/>
    </defs>
    <g clip-path="url(#p0d9c1a9934)">
     <use style="fill-opacity:0;stroke:#000000;" x="0" xlink:href="#ma46b07f292" y="644.4"/>
    </g>
   </g>
   <g id="Poly3DCollection_43">
    <defs>
     <path d="M 567.757748 -335.267357
L 567.083362 -284.582179
L 546.235419 -275.957168
L 546.795293 -326.908634
z
" id="mf37c154a4d" style="stroke:#000000;"/>
    </defs>
    <g clip-path="url(#p0d9c1a9934)">
     <use style="fill-opacity:0;stroke:#000000;" x="0" xlink:href="#mf37c154a4d" y="644.4"/>
    </g>
   </g>
   <g id="Poly3DCollection_44">
    <defs>
     <path d="M 546.795293 -326.908634
L 546.235419 -275.957168
L 555.409896 -272.752151
L 556.023417 -323.802419
z
" id="m2139eaefe0" style="stroke:#000000;"/>
    </defs>
    <g clip-path="url(#p0d9c1a9934)">
     <use style="fill-opacity:0;stroke:#000000;" x="0" xlink:href="#m2139eaefe0" y="644.4"/>
    </g>
   </g>
   <g id="Poly3DCollection_45">
    <defs>
     <path d="M 652.284288 -323.231909
L 651.124031 -272.163503
L 660.94255 -276.191465
L 662.155361 -327.135704
z
" id="ma7acf040fb" style="stroke:#000000;"/>
    </defs>
    <g clip-path="url(#p0d9c1a9934)">
     <use style="fill-opacity:0;stroke:#000000;" x="0" xlink:href="#ma7acf040fb" y="644.4"/>
    </g>
   </g>
   <g id="Poly3DCollection_46">
    <defs>
     <path d="M 649.796013 -322.239437
L 648.649048 -271.139486
L 651.124031 -272.163503
L 652.284288 -323.231909
z
" id="m0bcc9426c4" style="stroke:#000000;"/>
    </defs>
    <g clip-path="url(#p0d9c1a9934)">
     <use style="fill-opacity:0;stroke:#000000;" x="0" xlink:href="#m0bcc9426c4" y="644.4"/>
    </g>
   </g>
   <g id="Poly3DCollection_47">
    <defs>
     <path d="M 651.652278 -321.56887
L 650.494199 -270.44761
L 648.649048 -271.139486
L 649.796013 -322.239437
z
" id="m30facc0873" style="stroke:#000000;"/>
    </defs>
    <g clip-path="url(#p0d9c1a9934)">
     <use style="fill-opacity:0;stroke:#000000;" x="0" xlink:href="#m30facc0873" y="644.4"/>
    </g>
   </g>
   <g id="Poly3DCollection_48">
    <defs>
     <path d="M 556.023417 -323.802419
L 555.409896 -272.752151
L 564.844261 -269.401116
L 565.513224 -320.554601
z
" id="m07d5509733" style="stroke:#000000;"/>
    </defs>
    <g clip-path="url(#p0d9c1a9934)">
     <use style="fill-opacity:0;stroke:#000000;" x="0" xlink:href="#m07d5509733" y="644.4"/>
    </g>
   </g>
   <g id="Poly3DCollection_49">
    <defs>
     <path d="M 646.797135 -320.503698
L 645.665769 -269.348597
L 646.987938 -268.97502
L 648.127172 -320.141622
z
" id="ma61b0af93f" style="stroke:#000000;"/>
    </defs>
    <g clip-path="url(#p0d9c1a9934)">
     <use style="fill-opacity:0;stroke:#000000;" x="0" xlink:href="#ma61b0af93f" y="644.4"/>
    </g>
   </g>
   <g id="Poly3DCollection_50">
    <defs>
     <path d="M 648.127172 -320.141622
L 646.987938 -268.97502
L 650.494199 -270.44761
L 651.652278 -321.56887
z
" id="mf5bd2ba130" style="stroke:#000000;"/>
    </defs>
    <g clip-path="url(#p0d9c1a9934)">
     <use style="fill-opacity:0;stroke:#000000;" x="0" xlink:href="#mf5bd2ba130" y="644.4"/>
    </g>
   </g>
   <g id="Poly3DCollection_51">
    <defs>
     <path d="M 565.513224 -320.554601
L 564.844261 -269.401116
L 562.702357 -268.433456
L 563.35952 -319.61673
z
" id="m0b07f3cb3c" style="stroke:#000000;"/>
    </defs>
    <g clip-path="url(#p0d9c1a9934)">
     <use style="fill-opacity:0;stroke:#000000;" x="0" xlink:href="#m0b07f3cb3c" y="644.4"/>
    </g>
   </g>
   <g id="Poly3DCollection_52">
    <defs>
     <path d="M 644.178685 -318.071403
L 643.060226 -266.839063
L 645.665769 -269.348597
L 646.797135 -320.503698
z
" id="m8d7530663d" style="stroke:#000000;"/>
    </defs>
    <g clip-path="url(#p0d9c1a9934)">
     <use style="fill-opacity:0;stroke:#000000;" x="0" xlink:href="#m8d7530663d" y="644.4"/>
    </g>
   </g>
   <g id="Poly3DCollection_53">
    <defs>
     <path d="M 637.594172 -314.527754
L 636.510435 -263.182975
L 643.060226 -266.839063
L 644.178685 -318.071403
z
" id="m2d027f8274" style="stroke:#000000;"/>
    </defs>
    <g clip-path="url(#p0d9c1a9934)">
     <use style="fill-opacity:0;stroke:#000000;" x="0" xlink:href="#m2d027f8274" y="644.4"/>
    </g>
   </g>
   <g id="Poly3DCollection_54">
    <defs>
     <path d="M 563.35952 -319.61673
L 562.702357 -268.433456
L 581.32939 -261.988932
L 582.096698 -313.370409
z
" id="m46d072246c" style="stroke:#000000;"/>
    </defs>
    <g clip-path="url(#p0d9c1a9934)">
     <use style="fill-opacity:0;stroke:#000000;" x="0" xlink:href="#m46d072246c" y="644.4"/>
    </g>
   </g>
   <g id="Poly3DCollection_55">
    <defs>
     <path d="M 582.096698 -313.370409
L 581.32939 -261.988932
L 585.415785 -263.58844
L 586.205696 -314.920755
z
" id="mcd8d28e711" style="stroke:#000000;"/>
    </defs>
    <g clip-path="url(#p0d9c1a9934)">
     <use style="fill-opacity:0;stroke:#000000;" x="0" xlink:href="#mcd8d28e711" y="644.4"/>
    </g>
   </g>
   <g id="Poly3DCollection_56">
    <defs>
     <path d="M 634.655527 -313.30217
L 633.587627 -261.918529
L 636.510435 -263.182975
L 637.594172 -314.527754
z
" id="ma973053fc0" style="stroke:#000000;"/>
    </defs>
    <g clip-path="url(#p0d9c1a9934)">
     <use style="fill-opacity:0;stroke:#000000;" x="0" xlink:href="#ma973053fc0" y="644.4"/>
    </g>
   </g>
   <g id="Poly3DCollection_57">
    <defs>
     <path d="M 629.932836 -311.660962
L 628.890698 -260.225301
L 633.587627 -261.918529
L 634.655527 -313.30217
z
" id="m115c34dce2" style="stroke:#000000;"/>
    </defs>
    <g clip-path="url(#p0d9c1a9934)">
     <use style="fill-opacity:0;stroke:#000000;" x="0" xlink:href="#m115c34dce2" y="644.4"/>
    </g>
   </g>
   <g id="Poly3DCollection_58">
    <defs>
     <path d="M 629.639596 -311.20535
L 628.598792 -259.755252
L 628.890698 -260.225301
L 629.932836 -311.660962
z
" id="md00214c6fc" style="stroke:#000000;"/>
    </defs>
    <g clip-path="url(#p0d9c1a9934)">
     <use style="fill-opacity:0;stroke:#000000;" x="0" xlink:href="#md00214c6fc" y="644.4"/>
    </g>
   </g>
   <g id="Poly3DCollection_59">
    <defs>
     <path d="M 630.513306 -311.084998
L 629.467407 -259.631085
L 628.598792 -259.755252
L 629.639596 -311.20535
z
" id="mbc7e1b4a9c" style="stroke:#000000;"/>
    </defs>
    <g clip-path="url(#p0d9c1a9934)">
     <use style="fill-opacity:0;stroke:#000000;" x="0" xlink:href="#mbc7e1b4a9c" y="644.4"/>
    </g>
   </g>
   <g id="Poly3DCollection_60">
    <defs>
     <path d="M 629.560988 -310.525423
L 628.52012 -259.053783
L 629.467407 -259.631085
L 630.513306 -311.084998
z
" id="m75530d2882" style="stroke:#000000;"/>
    </defs>
    <g clip-path="url(#p0d9c1a9934)">
     <use style="fill-opacity:0;stroke:#000000;" x="0" xlink:href="#m75530d2882" y="644.4"/>
    </g>
   </g>
   <g id="Poly3DCollection_61">
    <defs>
     <path d="M 629.314787 -309.695454
L 628.274703 -258.197523
L 628.52012 -259.053783
L 629.560988 -310.525423
z
" id="m88c3b615d3" style="stroke:#000000;"/>
    </defs>
    <g clip-path="url(#p0d9c1a9934)">
     <use style="fill-opacity:0;stroke:#000000;" x="0" xlink:href="#m88c3b615d3" y="644.4"/>
    </g>
   </g>
   <g id="Poly3DCollection_62">
    <defs>
     <path d="M 586.205696 -314.920755
L 585.415785 -263.58844
L 605.478361 -256.652662
L 606.387984 -308.198011
z
" id="m8830fd5ed4" style="stroke:#000000;"/>
    </defs>
    <g clip-path="url(#p0d9c1a9934)">
     <use style="fill-opacity:0;stroke:#000000;" x="0" xlink:href="#m8830fd5ed4" y="644.4"/>
    </g>
   </g>
   <g id="Poly3DCollection_63">
    <defs>
     <path d="M 619.499065 -305.869778
L 618.512525 -254.250742
L 628.274703 -258.197523
L 629.314787 -309.695454
z
" id="m6b94a6a1eb" style="stroke:#000000;"/>
    </defs>
    <g clip-path="url(#p0d9c1a9934)">
     <use style="fill-opacity:0;stroke:#000000;" x="0" xlink:href="#m6b94a6a1eb" y="644.4"/>
    </g>
   </g>
   <g id="Poly3DCollection_64">
    <defs>
     <path d="M 616.260545 -306.138197
L 615.292812 -254.527654
L 616.758772 -254.224426
L 617.735189 -305.844269
z
" id="m864c40b8ec" style="stroke:#000000;"/>
    </defs>
    <g clip-path="url(#p0d9c1a9934)">
     <use style="fill-opacity:0;stroke:#000000;" x="0" xlink:href="#m864c40b8ec" y="644.4"/>
    </g>
   </g>
   <g id="Poly3DCollection_65">
    <defs>
     <path d="M 617.735189 -305.844269
L 616.758772 -254.224426
L 618.512525 -254.250742
L 619.499065 -305.869778
z
" id="m30f47b05ce" style="stroke:#000000;"/>
    </defs>
    <g clip-path="url(#p0d9c1a9934)">
     <use style="fill-opacity:0;stroke:#000000;" x="0" xlink:href="#m30f47b05ce" y="644.4"/>
    </g>
   </g>
   <g id="Poly3DCollection_66">
    <defs>
     <path d="M 567.757748 -335.267357
L 546.795293 -326.908634
L 556.023417 -323.802419
L 565.513224 -320.554601
L 563.35952 -319.61673
L 582.096698 -313.370409
L 586.205696 -314.920755
L 606.387984 -308.198011
L 614.706036 -305.558322
L 616.260545 -306.138197
L 617.735189 -305.844269
L 619.499065 -305.869778
L 629.314787 -309.695454
L 629.560988 -310.525423
L 630.513306 -311.084998
L 629.639596 -311.20535
L 629.932836 -311.660962
L 634.655527 -313.30217
L 637.594172 -314.527754
L 644.178685 -318.071403
L 646.797135 -320.503698
L 648.127172 -320.141622
L 651.652278 -321.56887
L 649.796013 -322.239437
L 652.284288 -323.231909
L 662.155361 -327.135704
L 609.388439 -344.433906
L 598.591263 -348.135991
z
" id="m0ff6b1aa49" style="stroke:#000000;"/>
    </defs>
    <g clip-path="url(#p0d9c1a9934)">
     <use style="fill-opacity:0;stroke:#000000;" x="0" xlink:href="#m0ff6b1aa49" y="644.4"/>
    </g>
   </g>
   <g id="Poly3DCollection_67">
    <defs>
     <path d="M 606.387984 -308.198011
L 605.478361 -256.652662
L 613.746837 -253.929431
L 614.706036 -305.558322
z
" id="mf3cde1a863" style="stroke:#000000;"/>
    </defs>
    <g clip-path="url(#p0d9c1a9934)">
     <use style="fill-opacity:0;stroke:#000000;" x="0" xlink:href="#mf3cde1a863" y="644.4"/>
    </g>
   </g>
   <g id="Poly3DCollection_68">
    <defs>
     <path d="M 614.706036 -305.558322
L 613.746837 -253.929431
L 615.292812 -254.527654
L 616.260545 -306.138197
z
" id="m55a69fd7c2" style="stroke:#000000;"/>
    </defs>
    <g clip-path="url(#p0d9c1a9934)">
     <use style="fill-opacity:0;stroke:#000000;" x="0" xlink:href="#m55a69fd7c2" y="644.4"/>
    </g>
   </g>
   <g id="Poly3DCollection_69">
    <defs>
     <path d="M 539.722211 -280.96677
L 539.368371 -246.461861
L 521.027596 -252.97207
L 521.309189 -287.344586
z
" id="m1603a25c4e" style="stroke:#000000;"/>
    </defs>
    <g clip-path="url(#p0d9c1a9934)">
     <use style="fill-opacity:0;stroke:#000000;" x="0" xlink:href="#m1603a25c4e" y="644.4"/>
    </g>
   </g>
   <g id="Poly3DCollection_70">
    <defs>
     <path d="M 521.309189 -287.344586
L 521.027596 -252.97207
L 504.31968 -246.097252
L 504.537981 -280.609569
z
" id="mdd1ea149d6" style="stroke:#000000;"/>
    </defs>
    <g clip-path="url(#p0d9c1a9934)">
     <use style="fill-opacity:0;stroke:#000000;" x="0" xlink:href="#mdd1ea149d6" y="644.4"/>
    </g>
   </g>
   <g id="Poly3DCollection_71">
    <defs>
     <path d="M 504.537981 -280.609569
L 522.963294 -274.169708
L 539.722211 -280.96677
L 521.309189 -287.344586
z
" id="m5a8cdaf29c" style="stroke:#000000;"/>
    </defs>
    <g clip-path="url(#p0d9c1a9934)">
     <use style="fill-opacity:0;stroke:#000000;" x="0" xlink:href="#m5a8cdaf29c" y="644.4"/>
    </g>
   </g>
   <g id="Poly3DCollection_72">
    <defs>
     <path d="M 504.537981 -280.609569
L 504.31968 -246.097252
L 522.672639 -239.523956
L 522.963294 -274.169708
z
" id="m750d5f4c34" style="stroke:#000000;"/>
    </defs>
    <g clip-path="url(#p0d9c1a9934)">
     <use style="fill-opacity:0;stroke:#000000;" x="0" xlink:href="#m750d5f4c34" y="644.4"/>
    </g>
   </g>
   <g id="Poly3DCollection_73">
    <defs>
     <path d="M 522.963294 -274.169708
L 522.672639 -239.523956
L 539.368371 -246.461861
L 539.722211 -280.96677
z
" id="mdfcb1100ec" style="stroke:#000000;"/>
    </defs>
    <g clip-path="url(#p0d9c1a9934)">
     <use style="fill-opacity:0;stroke:#000000;" x="0" xlink:href="#mdfcb1100ec" y="644.4"/>
    </g>
   </g>
   <g id="Poly3DCollection_74">
    <defs>
     <path d="M 666.896521 -274.53681
L 379.275159 -371.561959
L 235.951493 -319.619604
L 524.793122 -214.418767
z
" id="md809c2576c" style="stroke:#000000;"/>
    </defs>
    <g clip-path="url(#p0d9c1a9934)">
     <use style="fill-opacity:0;stroke:#000000;" x="0" xlink:href="#md809c2576c" y="644.4"/>
    </g>
   </g>
  </g>
 </g>
 <defs>
  <clipPath id="p0d9c1a9934">
   <rect height="644.4" width="644.4" x="117" y="0"/>
  </clipPath>
 </defs>
</svg>
