<?xml version="1.0" encoding="utf-8" standalone="no"?>
<!DOCTYPE svg PUBLIC "-//W3C//DTD SVG 1.1//EN"
  "http://www.w3.org/Graphics/SVG/1.1/DTD/svg11.dtd">
<!-- Created with matplotlib (https://matplotlib.org/) -->
<svg height="610.56pt" version="1.1" viewBox="0 0 723.6 610.56" width="723.6pt" xmlns="http://www.w3.org/2000/svg" xmlns:xlink="http://www.w3.org/1999/xlink">
 <metadata>
  <rdf:RDF xmlns:cc="http://creativecommons.org/ns#" xmlns:dc="http://purl.org/dc/elements/1.1/" xmlns:rdf="http://www.w3.org/1999/02/22-rdf-syntax-ns#">
   <cc:Work>
    <dc:type rdf:resource="http://purl.org/dc/dcmitype/StillImage"/>
    <dc:date>2020-11-04T14:59:36.752780</dc:date>
    <dc:format>image/svg+xml</dc:format>
    <dc:creator>
     <cc:Agent>
      <dc:title>Matplotlib v3.3.1, https://matplotlib.org/</dc:title>
     </cc:Agent>
    </dc:creator>
   </cc:Work>
  </rdf:RDF>
 </metadata>
 <defs>
  <style type="text/css">*{stroke-linecap:butt;stroke-linejoin:round;}</style>
 </defs>
 <g id="figure_1">
  <g id="patch_1">
   <path d="M 0 610.56 
L 723.6 610.56 
L 723.6 0 
L 0 0 
z
" style="fill:#ffffff;"/>
  </g>
  <g id="patch_2">
   <path d="M 56.52 610.56 
L 667.08 610.56 
L 667.08 0 
L 56.52 0 
z
" style="fill:#ffffff;"/>
  </g>
  <g id="pane3d_1">
   <g id="patch_3">
    <path d="M 430.298381 241.90231 
L 636.418296 450.183711 
L 652.377882 222.945942 
L 433.635812 20.270855 
" style="fill:#f2f2f2;opacity:0.5;stroke:#f2f2f2;stroke-linejoin:miter;"/>
   </g>
  </g>
  <g id="pane3d_2">
   <g id="patch_4">
    <path d="M 430.298381 241.90231 
L 111.48212 364.878185 
L 96.469728 139.727033 
L 433.635812 20.270855 
" style="fill:#e6e6e6;opacity:0.5;stroke:#e6e6e6;stroke-linejoin:miter;"/>
   </g>
  </g>
  <g id="pane3d_3">
   <g id="patch_5">
    <path d="M 430.298381 241.90231 
L 111.48212 364.878185 
L 301.977058 593.325143 
L 636.418296 450.183711 
" style="fill:#ececec;opacity:0.5;stroke:#ececec;stroke-linejoin:miter;"/>
   </g>
  </g>
  <g id="axis3d_1">
   <g id="line2d_1">
    <path d="M 636.418296 450.183711 
L 301.977058 593.325143 
" style="fill:none;stroke:#000000;stroke-linecap:square;stroke-width:0.8;"/>
   </g>
   <g id="Line3DCollection_1">
    <path d="M 624.661732 455.215541 
L 419.053107 246.239909 
L 421.772197 24.474072 
" style="fill:none;stroke:#b0b0b0;stroke-width:0.8;"/>
    <path d="M 587.418393 471.155755 
L 383.447795 259.973821 
L 384.195159 37.78742 
" style="fill:none;stroke:#b0b0b0;stroke-width:0.8;"/>
    <path d="M 549.766009 487.27104 
L 347.479713 273.847663 
L 346.213789 51.24402 
" style="fill:none;stroke:#b0b0b0;stroke-width:0.8;"/>
    <path d="M 511.697804 503.564298 
L 311.14329 287.863584 
L 307.821526 64.846198 
" style="fill:none;stroke:#b0b0b0;stroke-width:0.8;"/>
    <path d="M 473.206852 520.038493 
L 274.432837 302.023777 
L 269.011666 78.596328 
" style="fill:none;stroke:#b0b0b0;stroke-width:0.8;"/>
    <path d="M 434.286072 536.696654 
L 237.34255 316.330483 
L 229.777359 92.496837 
" style="fill:none;stroke:#b0b0b0;stroke-width:0.8;"/>
    <path d="M 394.928222 553.541883 
L 199.866504 330.785987 
L 190.111603 106.550207 
" style="fill:none;stroke:#b0b0b0;stroke-width:0.8;"/>
    <path d="M 355.1259 570.577346 
L 161.998647 345.392622 
L 150.007242 120.758972 
" style="fill:none;stroke:#b0b0b0;stroke-width:0.8;"/>
    <path d="M 314.871533 587.806285 
L 123.732804 360.152771 
L 109.456961 135.125724 
" style="fill:none;stroke:#b0b0b0;stroke-width:0.8;"/>
   </g>
   <g id="xtick_1">
    <g id="line2d_2">
     <path d="M 622.891099 453.415912 
L 628.20956 458.821467 
" style="fill:none;stroke:#000000;stroke-linecap:square;stroke-width:0.8;"/>
    </g>
    <g id="text_1">
     <!-- −80 -->
     <g transform="translate(621.602526 478.722167)scale(0.1 -0.1)">
      <defs>
       <path d="M 10.59375 35.5 
L 73.1875 35.5 
L 73.1875 27.203125 
L 10.59375 27.203125 
z
" id="DejaVuSans-8722"/>
       <path d="M 31.78125 34.625 
Q 24.75 34.625 20.71875 30.859375 
Q 16.703125 27.09375 16.703125 20.515625 
Q 16.703125 13.921875 20.71875 10.15625 
Q 24.75 6.390625 31.78125 6.390625 
Q 38.8125 6.390625 42.859375 10.171875 
Q 46.921875 13.96875 46.921875 20.515625 
Q 46.921875 27.09375 42.890625 30.859375 
Q 38.875 34.625 31.78125 34.625 
z
M 21.921875 38.8125 
Q 15.578125 40.375 12.03125 44.71875 
Q 8.5 49.078125 8.5 55.328125 
Q 8.5 64.0625 14.71875 69.140625 
Q 20.953125 74.21875 31.78125 74.21875 
Q 42.671875 74.21875 48.875 69.140625 
Q 55.078125 64.0625 55.078125 55.328125 
Q 55.078125 49.078125 51.53125 44.71875 
Q 48 40.375 41.703125 38.8125 
Q 48.828125 37.15625 52.796875 32.3125 
Q 56.78125 27.484375 56.78125 20.515625 
Q 56.78125 9.90625 50.3125 4.234375 
Q 43.84375 -1.421875 31.78125 -1.421875 
Q 19.734375 -1.421875 13.25 4.234375 
Q 6.78125 9.90625 6.78125 20.515625 
Q 6.78125 27.484375 10.78125 32.3125 
Q 14.796875 37.15625 21.921875 38.8125 
z
M 18.3125 54.390625 
Q 18.3125 48.734375 21.84375 45.5625 
Q 25.390625 42.390625 31.78125 42.390625 
Q 38.140625 42.390625 41.71875 45.5625 
Q 45.3125 48.734375 45.3125 54.390625 
Q 45.3125 60.0625 41.71875 63.234375 
Q 38.140625 66.40625 31.78125 66.40625 
Q 25.390625 66.40625 21.84375 63.234375 
Q 18.3125 60.0625 18.3125 54.390625 
z
" id="DejaVuSans-56"/>
       <path d="M 31.78125 66.40625 
Q 24.171875 66.40625 20.328125 58.90625 
Q 16.5 51.421875 16.5 36.375 
Q 16.5 21.390625 20.328125 13.890625 
Q 24.171875 6.390625 31.78125 6.390625 
Q 39.453125 6.390625 43.28125 13.890625 
Q 47.125 21.390625 47.125 36.375 
Q 47.125 51.421875 43.28125 58.90625 
Q 39.453125 66.40625 31.78125 66.40625 
z
M 31.78125 74.21875 
Q 44.046875 74.21875 50.515625 64.515625 
Q 56.984375 54.828125 56.984375 36.375 
Q 56.984375 17.96875 50.515625 8.265625 
Q 44.046875 -1.421875 31.78125 -1.421875 
Q 19.53125 -1.421875 13.0625 8.265625 
Q 6.59375 17.96875 6.59375 36.375 
Q 6.59375 54.828125 13.0625 64.515625 
Q 19.53125 74.21875 31.78125 74.21875 
z
" id="DejaVuSans-48"/>
      </defs>
      <use xlink:href="#DejaVuSans-8722"/>
      <use x="83.789062" xlink:href="#DejaVuSans-56"/>
      <use x="147.412109" xlink:href="#DejaVuSans-48"/>
     </g>
    </g>
   </g>
   <g id="xtick_2">
    <g id="line2d_3">
     <path d="M 585.661185 469.336421 
L 590.939356 474.801201 
" style="fill:none;stroke:#000000;stroke-linecap:square;stroke-width:0.8;"/>
    </g>
    <g id="text_2">
     <!-- −60 -->
     <g transform="translate(584.372364 494.761218)scale(0.1 -0.1)">
      <defs>
       <path d="M 33.015625 40.375 
Q 26.375 40.375 22.484375 35.828125 
Q 18.609375 31.296875 18.609375 23.390625 
Q 18.609375 15.53125 22.484375 10.953125 
Q 26.375 6.390625 33.015625 6.390625 
Q 39.65625 6.390625 43.53125 10.953125 
Q 47.40625 15.53125 47.40625 23.390625 
Q 47.40625 31.296875 43.53125 35.828125 
Q 39.65625 40.375 33.015625 40.375 
z
M 52.59375 71.296875 
L 52.59375 62.3125 
Q 48.875 64.0625 45.09375 64.984375 
Q 41.3125 65.921875 37.59375 65.921875 
Q 27.828125 65.921875 22.671875 59.328125 
Q 17.53125 52.734375 16.796875 39.40625 
Q 19.671875 43.65625 24.015625 45.921875 
Q 28.375 48.1875 33.59375 48.1875 
Q 44.578125 48.1875 50.953125 41.515625 
Q 57.328125 34.859375 57.328125 23.390625 
Q 57.328125 12.15625 50.6875 5.359375 
Q 44.046875 -1.421875 33.015625 -1.421875 
Q 20.359375 -1.421875 13.671875 8.265625 
Q 6.984375 17.96875 6.984375 36.375 
Q 6.984375 53.65625 15.1875 63.9375 
Q 23.390625 74.21875 37.203125 74.21875 
Q 40.921875 74.21875 44.703125 73.484375 
Q 48.484375 72.75 52.59375 71.296875 
z
" id="DejaVuSans-54"/>
      </defs>
      <use xlink:href="#DejaVuSans-8722"/>
      <use x="83.789062" xlink:href="#DejaVuSans-54"/>
      <use x="147.412109" xlink:href="#DejaVuSans-48"/>
     </g>
    </g>
   </g>
   <g id="xtick_3">
    <g id="line2d_4">
     <path d="M 548.022629 485.431677 
L 553.259302 490.95666 
" style="fill:none;stroke:#000000;stroke-linecap:square;stroke-width:0.8;"/>
    </g>
    <g id="text_3">
     <!-- −40 -->
     <g transform="translate(546.732997 510.976557)scale(0.1 -0.1)">
      <defs>
       <path d="M 37.796875 64.3125 
L 12.890625 25.390625 
L 37.796875 25.390625 
z
M 35.203125 72.90625 
L 47.609375 72.90625 
L 47.609375 25.390625 
L 58.015625 25.390625 
L 58.015625 17.1875 
L 47.609375 17.1875 
L 47.609375 0 
L 37.796875 0 
L 37.796875 17.1875 
L 4.890625 17.1875 
L 4.890625 26.703125 
z
" id="DejaVuSans-52"/>
      </defs>
      <use xlink:href="#DejaVuSans-8722"/>
      <use x="83.789062" xlink:href="#DejaVuSans-52"/>
      <use x="147.412109" xlink:href="#DejaVuSans-48"/>
     </g>
    </g>
   </g>
   <g id="xtick_4">
    <g id="line2d_5">
     <path d="M 509.968665 501.704572 
L 515.162598 507.290759 
" style="fill:none;stroke:#000000;stroke-linecap:square;stroke-width:0.8;"/>
    </g>
    <g id="text_4">
     <!-- −20 -->
     <g transform="translate(508.677638 527.371109)scale(0.1 -0.1)">
      <defs>
       <path d="M 19.1875 8.296875 
L 53.609375 8.296875 
L 53.609375 0 
L 7.328125 0 
L 7.328125 8.296875 
Q 12.9375 14.109375 22.625 23.890625 
Q 32.328125 33.6875 34.8125 36.53125 
Q 39.546875 41.84375 41.421875 45.53125 
Q 43.3125 49.21875 43.3125 52.78125 
Q 43.3125 58.59375 39.234375 62.25 
Q 35.15625 65.921875 28.609375 65.921875 
Q 23.96875 65.921875 18.8125 64.3125 
Q 13.671875 62.703125 7.8125 59.421875 
L 7.8125 69.390625 
Q 13.765625 71.78125 18.9375 73 
Q 24.125 74.21875 28.421875 74.21875 
Q 39.75 74.21875 46.484375 68.546875 
Q 53.21875 62.890625 53.21875 53.421875 
Q 53.21875 48.921875 51.53125 44.890625 
Q 49.859375 40.875 45.40625 35.40625 
Q 44.1875 33.984375 37.640625 27.21875 
Q 31.109375 20.453125 19.1875 8.296875 
z
" id="DejaVuSans-50"/>
      </defs>
      <use xlink:href="#DejaVuSans-8722"/>
      <use x="83.789062" xlink:href="#DejaVuSans-50"/>
      <use x="147.412109" xlink:href="#DejaVuSans-48"/>
     </g>
    </g>
   </g>
   <g id="xtick_5">
    <g id="line2d_6">
     <path d="M 471.492378 518.158063 
L 476.642296 523.806477 
" style="fill:none;stroke:#000000;stroke-linecap:square;stroke-width:0.8;"/>
    </g>
    <g id="text_5">
     <!-- 0 -->
     <g transform="translate(477.570449 543.94786)scale(0.1 -0.1)">
      <use xlink:href="#DejaVuSans-48"/>
     </g>
    </g>
   </g>
   <g id="xtick_6">
    <g id="line2d_7">
     <path d="M 432.586699 534.795174 
L 437.691292 540.50686 
" style="fill:none;stroke:#000000;stroke-linecap:square;stroke-width:0.8;"/>
    </g>
    <g id="text_6">
     <!-- 20 -->
     <g transform="translate(435.4809 560.709865)scale(0.1 -0.1)">
      <use xlink:href="#DejaVuSans-50"/>
      <use x="63.623047" xlink:href="#DejaVuSans-48"/>
     </g>
    </g>
   </g>
   <g id="xtick_7">
    <g id="line2d_8">
     <path d="M 393.244399 551.618996 
L 398.30232 557.395023 
" style="fill:none;stroke:#000000;stroke-linecap:square;stroke-width:0.8;"/>
    </g>
    <g id="text_7">
     <!-- 40 -->
     <g transform="translate(396.135338 577.660246)scale(0.1 -0.1)">
      <use xlink:href="#DejaVuSans-52"/>
      <use x="63.623047" xlink:href="#DejaVuSans-48"/>
     </g>
    </g>
   </g>
   <g id="xtick_8">
    <g id="line2d_9">
     <path d="M 353.458087 568.632689 
L 358.467953 574.474151 
" style="fill:none;stroke:#000000;stroke-linecap:square;stroke-width:0.8;"/>
    </g>
    <g id="text_8">
     <!-- 60 -->
     <g transform="translate(356.3451 594.802198)scale(0.1 -0.1)">
      <use xlink:href="#DejaVuSans-54"/>
      <use x="63.623047" xlink:href="#DejaVuSans-48"/>
     </g>
    </g>
   </g>
   <g id="xtick_9">
    <g id="line2d_10">
     <path d="M 313.220203 585.839487 
L 318.180594 591.747502 
" style="fill:none;stroke:#000000;stroke-linecap:square;stroke-width:0.8;"/>
    </g>
    <g id="text_9">
     <!-- 80 -->
     <g transform="translate(316.102604 612.138986)scale(0.1 -0.1)">
      <use xlink:href="#DejaVuSans-56"/>
      <use x="63.623047" xlink:href="#DejaVuSans-48"/>
     </g>
    </g>
   </g>
  </g>
  <g id="axis3d_2">
   <g id="line2d_11">
    <path d="M 111.48212 364.878185 
L 301.977058 593.325143 
" style="fill:none;stroke:#000000;stroke-linecap:square;stroke-width:0.8;"/>
   </g>
   <g id="Line3DCollection_2">
    <path d="M 441.102236 27.188858 
L 437.363069 249.041081 
L 117.989197 372.681658 
" style="fill:none;stroke:#b0b0b0;stroke-width:0.8;"/>
    <path d="M 464.859447 49.20106 
L 459.82827 271.741866 
L 138.691619 397.508591 
" style="fill:none;stroke:#b0b0b0;stroke-width:0.8;"/>
    <path d="M 489.040338 71.605823 
L 482.672671 294.825826 
L 159.759694 422.774028 
" style="fill:none;stroke:#b0b0b0;stroke-width:0.8;"/>
    <path d="M 513.656346 94.413742 
L 505.905954 318.302745 
L 181.203198 448.489688 
" style="fill:none;stroke:#b0b0b0;stroke-width:0.8;"/>
    <path d="M 538.71932 117.635798 
L 529.538133 342.182744 
L 203.032254 474.667715 
" style="fill:none;stroke:#b0b0b0;stroke-width:0.8;"/>
    <path d="M 564.241546 141.283373 
L 553.579572 366.476294 
L 225.257357 501.320691 
" style="fill:none;stroke:#b0b0b0;stroke-width:0.8;"/>
    <path d="M 590.235765 165.368271 
L 578.040993 391.194231 
L 247.889382 528.461661 
" style="fill:none;stroke:#b0b0b0;stroke-width:0.8;"/>
    <path d="M 616.71519 189.902737 
L 602.933499 416.347774 
L 270.939609 556.10415 
" style="fill:none;stroke:#b0b0b0;stroke-width:0.8;"/>
    <path d="M 643.693537 214.899477 
L 628.268587 441.948539 
L 294.419737 584.262189 
" style="fill:none;stroke:#b0b0b0;stroke-width:0.8;"/>
   </g>
   <g id="xtick_10">
    <g id="line2d_12">
     <path d="M 120.659677 371.647823 
L 112.642391 374.75159 
" style="fill:none;stroke:#000000;stroke-linecap:square;stroke-width:0.8;"/>
    </g>
    <g id="text_10">
     <!-- −80 -->
     <g transform="translate(95.866236 392.652128)scale(0.1 -0.1)">
      <use xlink:href="#DejaVuSans-8722"/>
      <use x="83.789062" xlink:href="#DejaVuSans-56"/>
      <use x="147.412109" xlink:href="#DejaVuSans-48"/>
     </g>
    </g>
   </g>
   <g id="xtick_11">
    <g id="line2d_13">
     <path d="M 141.377854 396.456581 
L 133.313214 399.614936 
" style="fill:none;stroke:#000000;stroke-linecap:square;stroke-width:0.8;"/>
    </g>
    <g id="text_11">
     <!-- −60 -->
     <g transform="translate(116.460275 417.578779)scale(0.1 -0.1)">
      <use xlink:href="#DejaVuSans-8722"/>
      <use x="83.789062" xlink:href="#DejaVuSans-54"/>
      <use x="147.412109" xlink:href="#DejaVuSans-48"/>
     </g>
    </g>
   </g>
   <g id="xtick_12">
    <g id="line2d_14">
     <path d="M 162.461828 421.703358 
L 154.349405 424.917753 
" style="fill:none;stroke:#000000;stroke-linecap:square;stroke-width:0.8;"/>
    </g>
    <g id="text_12">
     <!-- −40 -->
     <g transform="translate(137.417928 442.94554)scale(0.1 -0.1)">
      <use xlink:href="#DejaVuSans-8722"/>
      <use x="83.789062" xlink:href="#DejaVuSans-52"/>
      <use x="147.412109" xlink:href="#DejaVuSans-48"/>
     </g>
    </g>
   </g>
   <g id="xtick_13">
    <g id="line2d_15">
     <path d="M 183.921373 447.399858 
L 175.760737 450.671799 
" style="fill:none;stroke:#000000;stroke-linecap:square;stroke-width:0.8;"/>
    </g>
    <g id="text_13">
     <!-- −20 -->
     <g transform="translate(158.748911 468.764173)scale(0.1 -0.1)">
      <use xlink:href="#DejaVuSans-8722"/>
      <use x="83.789062" xlink:href="#DejaVuSans-50"/>
      <use x="147.412109" xlink:href="#DejaVuSans-48"/>
     </g>
    </g>
   </g>
   <g id="xtick_14">
    <g id="line2d_16">
     <path d="M 205.766613 473.558205 
L 197.557334 476.889251 
" style="fill:none;stroke:#000000;stroke-linecap:square;stroke-width:0.8;"/>
    </g>
    <g id="text_14">
     <!-- 0 -->
     <g transform="translate(187.834381 495.046859)scale(0.1 -0.1)">
      <use xlink:href="#DejaVuSans-48"/>
     </g>
    </g>
   </g>
   <g id="xtick_15">
    <g id="line2d_17">
     <path d="M 228.008042 500.190964 
L 219.74969 503.582731 
" style="fill:none;stroke:#000000;stroke-linecap:square;stroke-width:0.8;"/>
    </g>
    <g id="text_15">
     <!-- 20 -->
     <g transform="translate(206.761332 521.806224)scale(0.1 -0.1)">
      <use xlink:href="#DejaVuSans-50"/>
      <use x="63.623047" xlink:href="#DejaVuSans-48"/>
     </g>
    </g>
   </g>
   <g id="xtick_16">
    <g id="line2d_18">
     <path d="M 250.656536 527.311159 
L 242.348682 530.765323 
" style="fill:none;stroke:#000000;stroke-linecap:square;stroke-width:0.8;"/>
    </g>
    <g id="text_16">
     <!-- 40 -->
     <g transform="translate(229.274171 549.055353)scale(0.1 -0.1)">
      <use xlink:href="#DejaVuSans-52"/>
      <use x="63.623047" xlink:href="#DejaVuSans-48"/>
     </g>
    </g>
   </g>
   <g id="xtick_17">
    <g id="line2d_19">
     <path d="M 273.723374 554.932294 
L 265.36559 558.450593 
" style="fill:none;stroke:#000000;stroke-linecap:square;stroke-width:0.8;"/>
    </g>
    <g id="text_17">
     <!-- 60 -->
     <g transform="translate(252.202857 576.807818)scale(0.1 -0.1)">
      <use xlink:href="#DejaVuSans-54"/>
      <use x="63.623047" xlink:href="#DejaVuSans-48"/>
     </g>
    </g>
   </g>
   <g id="xtick_18">
    <g id="line2d_20">
     <path d="M 297.220254 583.06838 
L 288.812114 586.652615 
" style="fill:none;stroke:#000000;stroke-linecap:square;stroke-width:0.8;"/>
    </g>
    <g id="text_18">
     <!-- 80 -->
     <g transform="translate(275.55902 605.077693)scale(0.1 -0.1)">
      <use xlink:href="#DejaVuSans-56"/>
      <use x="63.623047" xlink:href="#DejaVuSans-48"/>
     </g>
    </g>
   </g>
  </g>
  <g id="axis3d_3">
   <g id="line2d_21">
    <path d="M 111.48212 364.878185 
L 96.469728 139.727033 
" style="fill:none;stroke:#000000;stroke-linecap:square;stroke-width:0.8;"/>
   </g>
   <g id="Line3DCollection_3">
    <path d="M 110.95869 357.027957 
L 430.415029 234.155975 
L 636.97381 442.274121 
" style="fill:none;stroke:#b0b0b0;stroke-width:0.8;"/>
    <path d="M 109.298478 332.128615 
L 430.784877 209.595181 
L 638.736238 417.180105 
" style="fill:none;stroke:#b0b0b0;stroke-width:0.8;"/>
    <path d="M 107.616852 306.908115 
L 431.159285 184.731566 
L 640.522094 391.752506 
" style="fill:none;stroke:#b0b0b0;stroke-width:0.8;"/>
    <path d="M 105.913395 281.360202 
L 431.538338 159.559496 
L 642.331849 365.984629 
" style="fill:none;stroke:#b0b0b0;stroke-width:0.8;"/>
    <path d="M 104.18768 255.47846 
L 431.922123 134.073195 
L 644.165985 339.869598 
" style="fill:none;stroke:#b0b0b0;stroke-width:0.8;"/>
    <path d="M 102.439266 229.256303 
L 432.310728 108.266741 
L 646.024999 313.40035 
" style="fill:none;stroke:#b0b0b0;stroke-width:0.8;"/>
    <path d="M 100.667704 202.686969 
L 432.704247 82.134063 
L 647.909401 286.569627 
" style="fill:none;stroke:#b0b0b0;stroke-width:0.8;"/>
    <path d="M 98.872531 175.763518 
L 433.102771 55.668938 
L 649.819713 259.369976 
" style="fill:none;stroke:#b0b0b0;stroke-width:0.8;"/>
    <path d="M 97.053271 148.478824 
L 433.506398 28.86498 
L 651.756475 231.793733 
" style="fill:none;stroke:#b0b0b0;stroke-width:0.8;"/>
   </g>
   <g id="xtick_19">
    <g id="line2d_22">
     <path d="M 113.629775 356.000582 
L 105.610677 359.084955 
" style="fill:none;stroke:#000000;stroke-linecap:square;stroke-width:0.8;"/>
    </g>
    <g id="text_19">
     <!-- −60 -->
     <g transform="translate(81.961432 361.637206)scale(0.1 -0.1)">
      <use xlink:href="#DejaVuSans-8722"/>
      <use x="83.789062" xlink:href="#DejaVuSans-54"/>
      <use x="147.412109" xlink:href="#DejaVuSans-48"/>
     </g>
    </g>
   </g>
   <g id="xtick_20">
    <g id="line2d_23">
     <path d="M 111.987281 331.103787 
L 103.914952 334.180527 
" style="fill:none;stroke:#000000;stroke-linecap:square;stroke-width:0.8;"/>
    </g>
    <g id="text_20">
     <!-- −40 -->
     <g transform="translate(80.184926 336.745288)scale(0.1 -0.1)">
      <use xlink:href="#DejaVuSans-8722"/>
      <use x="83.789062" xlink:href="#DejaVuSans-52"/>
      <use x="147.412109" xlink:href="#DejaVuSans-48"/>
     </g>
    </g>
   </g>
   <g id="xtick_21">
    <g id="line2d_24">
     <path d="M 110.32361 305.885985 
L 102.197339 308.954639 
" style="fill:none;stroke:#000000;stroke-linecap:square;stroke-width:0.8;"/>
    </g>
    <g id="text_21">
     <!-- −20 -->
     <g transform="translate(78.38553 311.532653)scale(0.1 -0.1)">
      <use xlink:href="#DejaVuSans-8722"/>
      <use x="83.789062" xlink:href="#DejaVuSans-50"/>
      <use x="147.412109" xlink:href="#DejaVuSans-48"/>
     </g>
    </g>
   </g>
   <g id="xtick_22">
    <g id="line2d_25">
     <path d="M 108.638348 280.340928 
L 100.457411 283.401025 
" style="fill:none;stroke:#000000;stroke-linecap:square;stroke-width:0.8;"/>
    </g>
    <g id="text_22">
     <!-- 0 -->
     <g transform="translate(83.933893 285.993061)scale(0.1 -0.1)">
      <use xlink:href="#DejaVuSans-48"/>
     </g>
    </g>
   </g>
   <g id="xtick_23">
    <g id="line2d_26">
     <path d="M 106.931074 254.462203 
L 98.694732 257.513257 
" style="fill:none;stroke:#000000;stroke-linecap:square;stroke-width:0.8;"/>
    </g>
    <g id="text_23">
     <!-- 20 -->
     <g transform="translate(78.906121 260.120111)scale(0.1 -0.1)">
      <use xlink:href="#DejaVuSans-50"/>
      <use x="63.623047" xlink:href="#DejaVuSans-48"/>
     </g>
    </g>
   </g>
   <g id="xtick_24">
    <g id="line2d_27">
     <path d="M 105.201354 228.24323 
L 96.90885 231.284737 
" style="fill:none;stroke:#000000;stroke-linecap:square;stroke-width:0.8;"/>
    </g>
    <g id="text_24">
     <!-- 40 -->
     <g transform="translate(77.035339 233.907233)scale(0.1 -0.1)">
      <use xlink:href="#DejaVuSans-52"/>
      <use x="63.623047" xlink:href="#DejaVuSans-48"/>
     </g>
    </g>
   </g>
   <g id="xtick_25">
    <g id="line2d_28">
     <path d="M 103.44874 201.677255 
L 95.099306 204.708694 
" style="fill:none;stroke:#000000;stroke-linecap:square;stroke-width:0.8;"/>
    </g>
    <g id="text_25">
     <!-- 60 -->
     <g transform="translate(75.139816 207.347685)scale(0.1 -0.1)">
      <use xlink:href="#DejaVuSans-54"/>
      <use x="63.623047" xlink:href="#DejaVuSans-48"/>
     </g>
    </g>
   </g>
   <g id="xtick_26">
    <g id="line2d_29">
     <path d="M 101.672777 174.757343 
L 93.265626 177.778174 
" style="fill:none;stroke:#000000;stroke-linecap:square;stroke-width:0.8;"/>
    </g>
    <g id="text_26">
     <!-- 80 -->
     <g transform="translate(73.219057 180.434543)scale(0.1 -0.1)">
      <use xlink:href="#DejaVuSans-56"/>
      <use x="63.623047" xlink:href="#DejaVuSans-48"/>
     </g>
    </g>
   </g>
   <g id="xtick_27">
    <g id="line2d_30">
     <path d="M 99.872994 147.476372 
L 91.407324 150.486038 
" style="fill:none;stroke:#000000;stroke-linecap:square;stroke-width:0.8;"/>
    </g>
    <g id="text_27">
     <!-- 100 -->
     <g transform="translate(68.091305 153.160698)scale(0.1 -0.1)">
      <defs>
       <path d="M 12.40625 8.296875 
L 28.515625 8.296875 
L 28.515625 63.921875 
L 10.984375 60.40625 
L 10.984375 69.390625 
L 28.421875 72.90625 
L 38.28125 72.90625 
L 38.28125 8.296875 
L 54.390625 8.296875 
L 54.390625 0 
L 12.40625 0 
z
" id="DejaVuSans-49"/>
      </defs>
      <use xlink:href="#DejaVuSans-49"/>
      <use x="63.623047" xlink:href="#DejaVuSans-48"/>
      <use x="127.246094" xlink:href="#DejaVuSans-48"/>
     </g>
    </g>
   </g>
  </g>
  <g id="axes_1">
   <g id="Poly3DCollection_1">
    <defs>
     <path d="M 477.750844 -429.237663 
L 476.725672 -390.577308 
L 469.661866 -397.737443 
L 470.616574 -436.362277 
z
" id="m1721e900f2" style="stroke:#000000;"/>
    </defs>
    <g clip-path="url(#pcf324023e6)">
     <use style="fill:#ff0000;fill-opacity:0;stroke:#000000;" x="0" xlink:href="#m1721e900f2" y="610.56"/>
    </g>
   </g>
   <g id="text_28">
    <!-- Press 'q' to quit, 'space' to play/pause -->
    <g transform="translate(87.048 30.528)scale(0.1 -0.1)">
     <defs>
      <path d="M 19.671875 64.796875 
L 19.671875 37.40625 
L 32.078125 37.40625 
Q 38.96875 37.40625 42.71875 40.96875 
Q 46.484375 44.53125 46.484375 51.125 
Q 46.484375 57.671875 42.71875 61.234375 
Q 38.96875 64.796875 32.078125 64.796875 
z
M 9.8125 72.90625 
L 32.078125 72.90625 
Q 44.34375 72.90625 50.609375 67.359375 
Q 56.890625 61.8125 56.890625 51.125 
Q 56.890625 40.328125 50.609375 34.8125 
Q 44.34375 29.296875 32.078125 29.296875 
L 19.671875 29.296875 
L 19.671875 0 
L 9.8125 0 
z
" id="DejaVuSans-80"/>
      <path d="M 41.109375 46.296875 
Q 39.59375 47.171875 37.8125 47.578125 
Q 36.03125 48 33.890625 48 
Q 26.265625 48 22.1875 43.046875 
Q 18.109375 38.09375 18.109375 28.8125 
L 18.109375 0 
L 9.078125 0 
L 9.078125 54.6875 
L 18.109375 54.6875 
L 18.109375 46.1875 
Q 20.953125 51.171875 25.484375 53.578125 
Q 30.03125 56 36.53125 56 
Q 37.453125 56 38.578125 55.875 
Q 39.703125 55.765625 41.0625 55.515625 
z
" id="DejaVuSans-114"/>
      <path d="M 56.203125 29.59375 
L 56.203125 25.203125 
L 14.890625 25.203125 
Q 15.484375 15.921875 20.484375 11.0625 
Q 25.484375 6.203125 34.421875 6.203125 
Q 39.59375 6.203125 44.453125 7.46875 
Q 49.3125 8.734375 54.109375 11.28125 
L 54.109375 2.78125 
Q 49.265625 0.734375 44.1875 -0.34375 
Q 39.109375 -1.421875 33.890625 -1.421875 
Q 20.796875 -1.421875 13.15625 6.1875 
Q 5.515625 13.8125 5.515625 26.8125 
Q 5.515625 40.234375 12.765625 48.109375 
Q 20.015625 56 32.328125 56 
Q 43.359375 56 49.78125 48.890625 
Q 56.203125 41.796875 56.203125 29.59375 
z
M 47.21875 32.234375 
Q 47.125 39.59375 43.09375 43.984375 
Q 39.0625 48.390625 32.421875 48.390625 
Q 24.90625 48.390625 20.390625 44.140625 
Q 15.875 39.890625 15.1875 32.171875 
z
" id="DejaVuSans-101"/>
      <path d="M 44.28125 53.078125 
L 44.28125 44.578125 
Q 40.484375 46.53125 36.375 47.5 
Q 32.28125 48.484375 27.875 48.484375 
Q 21.1875 48.484375 17.84375 46.4375 
Q 14.5 44.390625 14.5 40.28125 
Q 14.5 37.15625 16.890625 35.375 
Q 19.28125 33.59375 26.515625 31.984375 
L 29.59375 31.296875 
Q 39.15625 29.25 43.1875 25.515625 
Q 47.21875 21.78125 47.21875 15.09375 
Q 47.21875 7.46875 41.1875 3.015625 
Q 35.15625 -1.421875 24.609375 -1.421875 
Q 20.21875 -1.421875 15.453125 -0.5625 
Q 10.6875 0.296875 5.421875 2 
L 5.421875 11.28125 
Q 10.40625 8.6875 15.234375 7.390625 
Q 20.0625 6.109375 24.8125 6.109375 
Q 31.15625 6.109375 34.5625 8.28125 
Q 37.984375 10.453125 37.984375 14.40625 
Q 37.984375 18.0625 35.515625 20.015625 
Q 33.0625 21.96875 24.703125 23.78125 
L 21.578125 24.515625 
Q 13.234375 26.265625 9.515625 29.90625 
Q 5.8125 33.546875 5.8125 39.890625 
Q 5.8125 47.609375 11.28125 51.796875 
Q 16.75 56 26.8125 56 
Q 31.78125 56 36.171875 55.265625 
Q 40.578125 54.546875 44.28125 53.078125 
z
" id="DejaVuSans-115"/>
      <path id="DejaVuSans-32"/>
      <path d="M 17.921875 72.90625 
L 17.921875 45.796875 
L 9.625 45.796875 
L 9.625 72.90625 
z
" id="DejaVuSans-39"/>
      <path d="M 14.796875 27.296875 
Q 14.796875 17.390625 18.875 11.75 
Q 22.953125 6.109375 30.078125 6.109375 
Q 37.203125 6.109375 41.296875 11.75 
Q 45.40625 17.390625 45.40625 27.296875 
Q 45.40625 37.203125 41.296875 42.84375 
Q 37.203125 48.484375 30.078125 48.484375 
Q 22.953125 48.484375 18.875 42.84375 
Q 14.796875 37.203125 14.796875 27.296875 
z
M 45.40625 8.203125 
Q 42.578125 3.328125 38.25 0.953125 
Q 33.9375 -1.421875 27.875 -1.421875 
Q 17.96875 -1.421875 11.734375 6.484375 
Q 5.515625 14.40625 5.515625 27.296875 
Q 5.515625 40.1875 11.734375 48.09375 
Q 17.96875 56 27.875 56 
Q 33.9375 56 38.25 53.625 
Q 42.578125 51.265625 45.40625 46.390625 
L 45.40625 54.6875 
L 54.390625 54.6875 
L 54.390625 -20.796875 
L 45.40625 -20.796875 
z
" id="DejaVuSans-113"/>
      <path d="M 18.3125 70.21875 
L 18.3125 54.6875 
L 36.8125 54.6875 
L 36.8125 47.703125 
L 18.3125 47.703125 
L 18.3125 18.015625 
Q 18.3125 11.328125 20.140625 9.421875 
Q 21.96875 7.515625 27.59375 7.515625 
L 36.8125 7.515625 
L 36.8125 0 
L 27.59375 0 
Q 17.1875 0 13.234375 3.875 
Q 9.28125 7.765625 9.28125 18.015625 
L 9.28125 47.703125 
L 2.6875 47.703125 
L 2.6875 54.6875 
L 9.28125 54.6875 
L 9.28125 70.21875 
z
" id="DejaVuSans-116"/>
      <path d="M 30.609375 48.390625 
Q 23.390625 48.390625 19.1875 42.75 
Q 14.984375 37.109375 14.984375 27.296875 
Q 14.984375 17.484375 19.15625 11.84375 
Q 23.34375 6.203125 30.609375 6.203125 
Q 37.796875 6.203125 41.984375 11.859375 
Q 46.1875 17.53125 46.1875 27.296875 
Q 46.1875 37.015625 41.984375 42.703125 
Q 37.796875 48.390625 30.609375 48.390625 
z
M 30.609375 56 
Q 42.328125 56 49.015625 48.375 
Q 55.71875 40.765625 55.71875 27.296875 
Q 55.71875 13.875 49.015625 6.21875 
Q 42.328125 -1.421875 30.609375 -1.421875 
Q 18.84375 -1.421875 12.171875 6.21875 
Q 5.515625 13.875 5.515625 27.296875 
Q 5.515625 40.765625 12.171875 48.375 
Q 18.84375 56 30.609375 56 
z
" id="DejaVuSans-111"/>
      <path d="M 8.5 21.578125 
L 8.5 54.6875 
L 17.484375 54.6875 
L 17.484375 21.921875 
Q 17.484375 14.15625 20.5 10.265625 
Q 23.53125 6.390625 29.59375 6.390625 
Q 36.859375 6.390625 41.078125 11.03125 
Q 45.3125 15.671875 45.3125 23.6875 
L 45.3125 54.6875 
L 54.296875 54.6875 
L 54.296875 0 
L 45.3125 0 
L 45.3125 8.40625 
Q 42.046875 3.421875 37.71875 1 
Q 33.40625 -1.421875 27.6875 -1.421875 
Q 18.265625 -1.421875 13.375 4.4375 
Q 8.5 10.296875 8.5 21.578125 
z
M 31.109375 56 
z
" id="DejaVuSans-117"/>
      <path d="M 9.421875 54.6875 
L 18.40625 54.6875 
L 18.40625 0 
L 9.421875 0 
z
M 9.421875 75.984375 
L 18.40625 75.984375 
L 18.40625 64.59375 
L 9.421875 64.59375 
z
" id="DejaVuSans-105"/>
      <path d="M 11.71875 12.40625 
L 22.015625 12.40625 
L 22.015625 4 
L 14.015625 -11.625 
L 7.71875 -11.625 
L 11.71875 4 
z
" id="DejaVuSans-44"/>
      <path d="M 18.109375 8.203125 
L 18.109375 -20.796875 
L 9.078125 -20.796875 
L 9.078125 54.6875 
L 18.109375 54.6875 
L 18.109375 46.390625 
Q 20.953125 51.265625 25.265625 53.625 
Q 29.59375 56 35.59375 56 
Q 45.5625 56 51.78125 48.09375 
Q 58.015625 40.1875 58.015625 27.296875 
Q 58.015625 14.40625 51.78125 6.484375 
Q 45.5625 -1.421875 35.59375 -1.421875 
Q 29.59375 -1.421875 25.265625 0.953125 
Q 20.953125 3.328125 18.109375 8.203125 
z
M 48.6875 27.296875 
Q 48.6875 37.203125 44.609375 42.84375 
Q 40.53125 48.484375 33.40625 48.484375 
Q 26.265625 48.484375 22.1875 42.84375 
Q 18.109375 37.203125 18.109375 27.296875 
Q 18.109375 17.390625 22.1875 11.75 
Q 26.265625 6.109375 33.40625 6.109375 
Q 40.53125 6.109375 44.609375 11.75 
Q 48.6875 17.390625 48.6875 27.296875 
z
" id="DejaVuSans-112"/>
      <path d="M 34.28125 27.484375 
Q 23.390625 27.484375 19.1875 25 
Q 14.984375 22.515625 14.984375 16.5 
Q 14.984375 11.71875 18.140625 8.90625 
Q 21.296875 6.109375 26.703125 6.109375 
Q 34.1875 6.109375 38.703125 11.40625 
Q 43.21875 16.703125 43.21875 25.484375 
L 43.21875 27.484375 
z
M 52.203125 31.203125 
L 52.203125 0 
L 43.21875 0 
L 43.21875 8.296875 
Q 40.140625 3.328125 35.546875 0.953125 
Q 30.953125 -1.421875 24.3125 -1.421875 
Q 15.921875 -1.421875 10.953125 3.296875 
Q 6 8.015625 6 15.921875 
Q 6 25.140625 12.171875 29.828125 
Q 18.359375 34.515625 30.609375 34.515625 
L 43.21875 34.515625 
L 43.21875 35.40625 
Q 43.21875 41.609375 39.140625 45 
Q 35.0625 48.390625 27.6875 48.390625 
Q 23 48.390625 18.546875 47.265625 
Q 14.109375 46.140625 10.015625 43.890625 
L 10.015625 52.203125 
Q 14.9375 54.109375 19.578125 55.046875 
Q 24.21875 56 28.609375 56 
Q 40.484375 56 46.34375 49.84375 
Q 52.203125 43.703125 52.203125 31.203125 
z
" id="DejaVuSans-97"/>
      <path d="M 48.78125 52.59375 
L 48.78125 44.1875 
Q 44.96875 46.296875 41.140625 47.34375 
Q 37.3125 48.390625 33.40625 48.390625 
Q 24.65625 48.390625 19.8125 42.84375 
Q 14.984375 37.3125 14.984375 27.296875 
Q 14.984375 17.28125 19.8125 11.734375 
Q 24.65625 6.203125 33.40625 6.203125 
Q 37.3125 6.203125 41.140625 7.25 
Q 44.96875 8.296875 48.78125 10.40625 
L 48.78125 2.09375 
Q 45.015625 0.34375 40.984375 -0.53125 
Q 36.96875 -1.421875 32.421875 -1.421875 
Q 20.0625 -1.421875 12.78125 6.34375 
Q 5.515625 14.109375 5.515625 27.296875 
Q 5.515625 40.671875 12.859375 48.328125 
Q 20.21875 56 33.015625 56 
Q 37.15625 56 41.109375 55.140625 
Q 45.0625 54.296875 48.78125 52.59375 
z
" id="DejaVuSans-99"/>
      <path d="M 9.421875 75.984375 
L 18.40625 75.984375 
L 18.40625 0 
L 9.421875 0 
z
" id="DejaVuSans-108"/>
      <path d="M 32.171875 -5.078125 
Q 28.375 -14.84375 24.75 -17.8125 
Q 21.140625 -20.796875 15.09375 -20.796875 
L 7.90625 -20.796875 
L 7.90625 -13.28125 
L 13.1875 -13.28125 
Q 16.890625 -13.28125 18.9375 -11.515625 
Q 21 -9.765625 23.484375 -3.21875 
L 25.09375 0.875 
L 2.984375 54.6875 
L 12.5 54.6875 
L 29.59375 11.921875 
L 46.6875 54.6875 
L 56.203125 54.6875 
z
" id="DejaVuSans-121"/>
      <path d="M 25.390625 72.90625 
L 33.6875 72.90625 
L 8.296875 -9.28125 
L 0 -9.28125 
z
" id="DejaVuSans-47"/>
     </defs>
     <use xlink:href="#DejaVuSans-80"/>
     <use x="58.552734" xlink:href="#DejaVuSans-114"/>
     <use x="97.416016" xlink:href="#DejaVuSans-101"/>
     <use x="158.939453" xlink:href="#DejaVuSans-115"/>
     <use x="211.039062" xlink:href="#DejaVuSans-115"/>
     <use x="263.138672" xlink:href="#DejaVuSans-32"/>
     <use x="294.925781" xlink:href="#DejaVuSans-39"/>
     <use x="322.416016" xlink:href="#DejaVuSans-113"/>
     <use x="385.892578" xlink:href="#DejaVuSans-39"/>
     <use x="413.382812" xlink:href="#DejaVuSans-32"/>
     <use x="445.169922" xlink:href="#DejaVuSans-116"/>
     <use x="484.378906" xlink:href="#DejaVuSans-111"/>
     <use x="545.560547" xlink:href="#DejaVuSans-32"/>
     <use x="577.347656" xlink:href="#DejaVuSans-113"/>
     <use x="640.824219" xlink:href="#DejaVuSans-117"/>
     <use x="704.203125" xlink:href="#DejaVuSans-105"/>
     <use x="731.986328" xlink:href="#DejaVuSans-116"/>
     <use x="771.195312" xlink:href="#DejaVuSans-44"/>
     <use x="802.982422" xlink:href="#DejaVuSans-32"/>
     <use x="834.769531" xlink:href="#DejaVuSans-39"/>
     <use x="862.259766" xlink:href="#DejaVuSans-115"/>
     <use x="914.359375" xlink:href="#DejaVuSans-112"/>
     <use x="977.835938" xlink:href="#DejaVuSans-97"/>
     <use x="1039.115234" xlink:href="#DejaVuSans-99"/>
     <use x="1094.095703" xlink:href="#DejaVuSans-101"/>
     <use x="1155.619141" xlink:href="#DejaVuSans-39"/>
     <use x="1183.109375" xlink:href="#DejaVuSans-32"/>
     <use x="1214.896484" xlink:href="#DejaVuSans-116"/>
     <use x="1254.105469" xlink:href="#DejaVuSans-111"/>
     <use x="1315.287109" xlink:href="#DejaVuSans-32"/>
     <use x="1347.074219" xlink:href="#DejaVuSans-112"/>
     <use x="1410.550781" xlink:href="#DejaVuSans-108"/>
     <use x="1438.333984" xlink:href="#DejaVuSans-97"/>
     <use x="1499.613281" xlink:href="#DejaVuSans-121"/>
     <use x="1558.792969" xlink:href="#DejaVuSans-47"/>
     <use x="1592.484375" xlink:href="#DejaVuSans-112"/>
     <use x="1655.960938" xlink:href="#DejaVuSans-97"/>
     <use x="1717.240234" xlink:href="#DejaVuSans-117"/>
     <use x="1780.619141" xlink:href="#DejaVuSans-115"/>
     <use x="1832.71875" xlink:href="#DejaVuSans-101"/>
    </g>
   </g>
   <g id="Poly3DCollection_2">
    <defs>
     <path d="M 481.551694 -428.104666 
L 480.489893 -389.438696 
L 478.525552 -388.768833 
L 479.56873 -427.438102 
z
" id="m47a2fc7c3c" style="stroke:#000000;"/>
    </defs>
    <g clip-path="url(#pcf324023e6)">
     <use style="fill:#ff0000;fill-opacity:0;stroke:#000000;" x="0" xlink:href="#m47a2fc7c3c" y="610.56"/>
    </g>
   </g>
   <g id="Poly3DCollection_3">
    <defs>
     <path d="M 479.56873 -427.438102 
L 478.525552 -388.768833 
L 476.725672 -390.577308 
L 477.750844 -429.237663 
z
" id="m0ed3d83bc4" style="stroke:#000000;"/>
    </defs>
    <g clip-path="url(#pcf324023e6)">
     <use style="fill:#ff0000;fill-opacity:0;stroke:#000000;" x="0" xlink:href="#m0ed3d83bc4" y="610.56"/>
    </g>
   </g>
   <g id="Poly3DCollection_4">
    <defs>
     <path d="M 484.17484 -425.547294 
L 483.087019 -386.868685 
L 480.489893 -389.438696 
L 481.551694 -428.104666 
z
" id="m9bf634c8e7" style="stroke:#000000;"/>
    </defs>
    <g clip-path="url(#pcf324023e6)">
     <use style="fill:#ff0000;fill-opacity:0;stroke:#000000;" x="0" xlink:href="#m9bf634c8e7" y="610.56"/>
    </g>
   </g>
   <g id="Poly3DCollection_5">
    <defs>
     <path d="M 483.035837 -425.011975 
L 481.958657 -386.330726 
L 483.087019 -386.868685 
L 484.17484 -425.547294 
z
" id="m5fc0f6f449" style="stroke:#000000;"/>
    </defs>
    <g clip-path="url(#pcf324023e6)">
     <use style="fill:#ff0000;fill-opacity:0;stroke:#000000;" x="0" xlink:href="#m5fc0f6f449" y="610.56"/>
    </g>
   </g>
   <g id="Poly3DCollection_6">
    <defs>
     <path d="M 488.225634 -422.459095 
L 487.097899 -383.765285 
L 481.958657 -386.330726 
L 483.035837 -425.011975 
z
" id="md40c4bd45d" style="stroke:#000000;"/>
    </defs>
    <g clip-path="url(#pcf324023e6)">
     <use style="fill:#ff0000;fill-opacity:0;stroke:#000000;" x="0" xlink:href="#md40c4bd45d" y="610.56"/>
    </g>
   </g>
   <g id="Poly3DCollection_7">
    <defs>
     <path d="M 495.189398 -417.270982 
L 493.992895 -378.551791 
L 487.097899 -383.765285 
L 488.225634 -422.459095 
z
" id="mf424d98d3d" style="stroke:#000000;"/>
    </defs>
    <g clip-path="url(#pcf324023e6)">
     <use style="fill:#ff0000;fill-opacity:0;stroke:#000000;" x="0" xlink:href="#mf424d98d3d" y="610.56"/>
    </g>
   </g>
   <g id="Poly3DCollection_8">
    <defs>
     <path d="M 470.616574 -436.362277 
L 469.661866 -397.737443 
L 416.65437 -377.602537 
L 417.104428 -416.326328 
z
" id="m56cf55f590" style="stroke:#000000;"/>
    </defs>
    <g clip-path="url(#pcf324023e6)">
     <use style="fill:#ff0000;fill-opacity:0;stroke:#000000;" x="0" xlink:href="#m56cf55f590" y="610.56"/>
    </g>
   </g>
   <g id="Poly3DCollection_9">
    <defs>
     <path d="M 497.457023 -415.125281 
L 496.237864 -376.39565 
L 493.992895 -378.551791 
L 495.189398 -417.270982 
z
" id="md81f2a13f0" style="stroke:#000000;"/>
    </defs>
    <g clip-path="url(#pcf324023e6)">
     <use style="fill:#ff0000;fill-opacity:0;stroke:#000000;" x="0" xlink:href="#md81f2a13f0" y="610.56"/>
    </g>
   </g>
   <g id="Poly3DCollection_10">
    <defs>
     <path d="M 417.104428 -416.326328 
L 416.65437 -377.602537 
L 405.140328 -373.458643 
L 405.479719 -412.202441 
z
" id="mad8e1fd6e9" style="stroke:#000000;"/>
    </defs>
    <g clip-path="url(#pcf324023e6)">
     <use style="fill:#ff0000;fill-opacity:0;stroke:#000000;" x="0" xlink:href="#mad8e1fd6e9" y="610.56"/>
    </g>
   </g>
   <g id="Poly3DCollection_11">
    <defs>
     <path d="M 500.328283 -411.831774 
L 499.080119 -373.086183 
L 496.237864 -376.39565 
L 497.457023 -415.125281 
z
" id="m2805daa4cc" style="stroke:#000000;"/>
    </defs>
    <g clip-path="url(#pcf324023e6)">
     <use style="fill:#ff0000;fill-opacity:0;stroke:#000000;" x="0" xlink:href="#m2805daa4cc" y="610.56"/>
    </g>
   </g>
   <g id="Poly3DCollection_12">
    <defs>
     <path d="M 501.803498 -411.871785 
L 500.541219 -373.126387 
L 500.080126 -372.714043 
L 501.338138 -411.461424 
z
" id="mf1cdee04e0" style="stroke:#000000;"/>
    </defs>
    <g clip-path="url(#pcf324023e6)">
     <use style="fill:#ff0000;fill-opacity:0;stroke:#000000;" x="0" xlink:href="#mf1cdee04e0" y="610.56"/>
    </g>
   </g>
   <g id="Poly3DCollection_13">
    <defs>
     <path d="M 501.338138 -411.461424 
L 500.080126 -372.714043 
L 499.080119 -373.086183 
L 500.328283 -411.831774 
z
" id="m48e811a5f1" style="stroke:#000000;"/>
    </defs>
    <g clip-path="url(#pcf324023e6)">
     <use style="fill:#ff0000;fill-opacity:0;stroke:#000000;" x="0" xlink:href="#m48e811a5f1" y="610.56"/>
    </g>
   </g>
   <g id="Poly3DCollection_14">
    <defs>
     <path d="M 502.91934 -411.100813 
L 501.646005 -372.351691 
L 500.541219 -373.126387 
L 501.803498 -411.871785 
z
" id="mbbd47b3ff5" style="stroke:#000000;"/>
    </defs>
    <g clip-path="url(#pcf324023e6)">
     <use style="fill:#ff0000;fill-opacity:0;stroke:#000000;" x="0" xlink:href="#mbbd47b3ff5" y="610.56"/>
    </g>
   </g>
   <g id="Poly3DCollection_15">
    <defs>
     <path d="M 504.816656 -410.580731 
L 503.524888 -371.829098 
L 501.646005 -372.351691 
L 502.91934 -411.100813 
z
" id="m2127f823df" style="stroke:#000000;"/>
    </defs>
    <g clip-path="url(#pcf324023e6)">
     <use style="fill:#ff0000;fill-opacity:0;stroke:#000000;" x="0" xlink:href="#m2127f823df" y="610.56"/>
    </g>
   </g>
   <g id="Poly3DCollection_16">
    <defs>
     <path d="M 511.750946 -403.548821 
L 510.38916 -364.763439 
L 503.524888 -371.829098 
L 504.816656 -410.580731 
z
" id="m4a066bbb71" style="stroke:#000000;"/>
    </defs>
    <g clip-path="url(#pcf324023e6)">
     <use style="fill:#ff0000;fill-opacity:0;stroke:#000000;" x="0" xlink:href="#m4a066bbb71" y="610.56"/>
    </g>
   </g>
   <g id="Poly3DCollection_17">
    <defs>
     <path d="M 511.44603 -402.592184 
L 510.086692 -363.802238 
L 510.38916 -364.763439 
L 511.750946 -403.548821 
z
" id="m4463b8344c" style="stroke:#000000;"/>
    </defs>
    <g clip-path="url(#pcf324023e6)">
     <use style="fill:#ff0000;fill-opacity:0;stroke:#000000;" x="0" xlink:href="#m4463b8344c" y="610.56"/>
    </g>
   </g>
   <g id="Poly3DCollection_18">
    <defs>
     <path d="M 510.451754 -401.937985 
L 509.101648 -363.144922 
L 510.086692 -363.802238 
L 511.44603 -402.592184 
z
" id="mc20940fcba" style="stroke:#000000;"/>
    </defs>
    <g clip-path="url(#pcf324023e6)">
     <use style="fill:#ff0000;fill-opacity:0;stroke:#000000;" x="0" xlink:href="#mc20940fcba" y="610.56"/>
    </g>
   </g>
   <g id="Poly3DCollection_19">
    <defs>
     <path d="M 511.489701 -400.835726 
L 510.129058 -362.037418 
L 509.101648 -363.144922 
L 510.451754 -401.937985 
z
" id="m8704dd2e00" style="stroke:#000000;"/>
    </defs>
    <g clip-path="url(#pcf324023e6)">
     <use style="fill:#ff0000;fill-opacity:0;stroke:#000000;" x="0" xlink:href="#m8704dd2e00" y="610.56"/>
    </g>
   </g>
   <g id="Poly3DCollection_20">
    <defs>
     <path d="M 503.55483 -397.585235 
L 502.268974 -358.77151 
L 510.129058 -362.037418 
L 511.489701 -400.835726 
z
" id="mb4d010ee43" style="stroke:#000000;"/>
    </defs>
    <g clip-path="url(#pcf324023e6)">
     <use style="fill:#ff0000;fill-opacity:0;stroke:#000000;" x="0" xlink:href="#mb4d010ee43" y="610.56"/>
    </g>
   </g>
   <g id="Poly3DCollection_21">
    <defs>
     <path d="M 483.334527 -389.759657 
L 482.240266 -350.909132 
L 502.268974 -358.77151 
L 503.55483 -397.585235 
z
" id="mf9d75df47e" style="stroke:#000000;"/>
    </defs>
    <g clip-path="url(#pcf324023e6)">
     <use style="fill:#ff0000;fill-opacity:0;stroke:#000000;" x="0" xlink:href="#mf9d75df47e" y="610.56"/>
    </g>
   </g>
   <g id="Poly3DCollection_22">
    <defs>
     <path d="M 405.479719 -412.202441 
L 405.140328 -373.458643 
L 429.429699 -350.24356 
L 430.009005 -389.09718 
z
" id="mbe53b9d0c2" style="stroke:#000000;"/>
    </defs>
    <g clip-path="url(#pcf324023e6)">
     <use style="fill:#ff0000;fill-opacity:0;stroke:#000000;" x="0" xlink:href="#mbe53b9d0c2" y="610.56"/>
    </g>
   </g>
   <g id="Poly3DCollection_23">
    <defs>
     <path d="M 486.15095 -386.80624 
L 485.028262 -347.941941 
L 482.240266 -350.909132 
L 483.334527 -389.759657 
z
" id="m9116526c3c" style="stroke:#000000;"/>
    </defs>
    <g clip-path="url(#pcf324023e6)">
     <use style="fill:#ff0000;fill-opacity:0;stroke:#000000;" x="0" xlink:href="#m9116526c3c" y="610.56"/>
    </g>
   </g>
   <g id="Poly3DCollection_24">
    <defs>
     <path d="M 465.311224 -381.027639 
L 464.388093 -342.136573 
L 466.160002 -340.512244 
L 467.101036 -379.410757 
z
" id="m8e60ec94e4" style="stroke:#000000;"/>
    </defs>
    <g clip-path="url(#pcf324023e6)">
     <use style="fill:#ff0000;fill-opacity:0;stroke:#000000;" x="0" xlink:href="#m8e60ec94e4" y="610.56"/>
    </g>
   </g>
   <g id="Poly3DCollection_25">
    <defs>
     <path d="M 467.101036 -379.410757 
L 466.160002 -340.512244 
L 485.028262 -347.941941 
L 486.15095 -386.80624 
z
" id="m6ea0f54f8d" style="stroke:#000000;"/>
    </defs>
    <g clip-path="url(#pcf324023e6)">
     <use style="fill:#ff0000;fill-opacity:0;stroke:#000000;" x="0" xlink:href="#m6ea0f54f8d" y="610.56"/>
    </g>
   </g>
   <g id="Poly3DCollection_26">
    <defs>
     <path d="M 455.343423 -377.284805 
L 454.515749 -338.37653 
L 464.388093 -342.136573 
L 465.311224 -381.027639 
z
" id="ma4bd5ebddf" style="stroke:#000000;"/>
    </defs>
    <g clip-path="url(#pcf324023e6)">
     <use style="fill:#ff0000;fill-opacity:0;stroke:#000000;" x="0" xlink:href="#ma4bd5ebddf" y="610.56"/>
    </g>
   </g>
   <g id="Poly3DCollection_27">
    <defs>
     <path d="M 430.009005 -389.09718 
L 445.704914 -373.593958 
L 455.343423 -377.284805 
L 465.311224 -381.027639 
L 467.101036 -379.410757 
L 486.15095 -386.80624 
L 483.334527 -389.759657 
L 503.55483 -397.585235 
L 511.489701 -400.835726 
L 510.451754 -401.937985 
L 511.44603 -402.592184 
L 511.750946 -403.548821 
L 504.816656 -410.580731 
L 502.91934 -411.100813 
L 501.803498 -411.871785 
L 501.338138 -411.461424 
L 500.328283 -411.831774 
L 497.457023 -415.125281 
L 495.189398 -417.270982 
L 488.225634 -422.459095 
L 483.035837 -425.011975 
L 484.17484 -425.547294 
L 481.551694 -428.104666 
L 479.56873 -427.438102 
L 477.750844 -429.237663 
L 470.616574 -436.362277 
L 417.104428 -416.326328 
L 405.479719 -412.202441 
z
" id="m15caef1241" style="stroke:#000000;"/>
    </defs>
    <g clip-path="url(#pcf324023e6)">
     <use style="fill-opacity:0;stroke:#000000;" x="0" xlink:href="#m15caef1241" y="610.56"/>
    </g>
   </g>
   <g id="Poly3DCollection_28">
    <defs>
     <path d="M 430.009005 -389.09718 
L 429.429699 -350.24356 
L 444.969776 -334.668813 
L 445.704914 -373.593958 
z
" id="m59981c0eff" style="stroke:#000000;"/>
    </defs>
    <g clip-path="url(#pcf324023e6)">
     <use style="fill:#ff0000;fill-opacity:0;stroke:#000000;" x="0" xlink:href="#m59981c0eff" y="610.56"/>
    </g>
   </g>
   <g id="Poly3DCollection_29">
    <defs>
     <path d="M 445.704914 -373.593958 
L 444.969776 -334.668813 
L 454.515749 -338.37653 
L 455.343423 -377.284805 
z
" id="m4b00d6f435" style="stroke:#000000;"/>
    </defs>
    <g clip-path="url(#pcf324023e6)">
     <use style="fill:#ff0000;fill-opacity:0;stroke:#000000;" x="0" xlink:href="#m4b00d6f435" y="610.56"/>
    </g>
   </g>
   <g id="Poly3DCollection_30">
    <defs>
     <path d="M 512.531861 -343.789329 
L 511.603201 -317.874395 
L 492.837876 -310.413751 
L 493.64562 -336.350217 
z
" id="m5229621c72" style="stroke:#000000;"/>
    </defs>
    <g clip-path="url(#pcf324023e6)">
     <use style="fill:#ff0000;fill-opacity:0;stroke:#000000;" x="0" xlink:href="#m5229621c72" y="610.56"/>
    </g>
   </g>
   <g id="Poly3DCollection_31">
    <defs>
     <path d="M 524.915366 -331.537266 
L 523.901494 -305.587009 
L 511.603201 -317.874395 
L 512.531861 -343.789329 
z
" id="ma6fe2321e1" style="stroke:#000000;"/>
    </defs>
    <g clip-path="url(#pcf324023e6)">
     <use style="fill:#ff0000;fill-opacity:0;stroke:#000000;" x="0" xlink:href="#ma6fe2321e1" y="610.56"/>
    </g>
   </g>
   <g id="Poly3DCollection_32">
    <defs>
     <path d="M 505.978033 -324.031145 
L 524.915366 -331.537266 
L 512.531861 -343.789329 
L 493.64562 -336.350217 
z
" id="m31e3f4bb14" style="stroke:#000000;"/>
    </defs>
    <g clip-path="url(#pcf324023e6)">
     <use style="fill-opacity:0;stroke:#000000;" x="0" xlink:href="#m31e3f4bb14" y="610.56"/>
    </g>
   </g>
   <g id="Poly3DCollection_33">
    <defs>
     <path d="M 493.64562 -336.350217 
L 492.837876 -310.413751 
L 505.085721 -298.059603 
L 505.978033 -324.031145 
z
" id="m8a88a6c2ff" style="stroke:#000000;"/>
    </defs>
    <g clip-path="url(#pcf324023e6)">
     <use style="fill:#ff0000;fill-opacity:0;stroke:#000000;" x="0" xlink:href="#m8a88a6c2ff" y="610.56"/>
    </g>
   </g>
   <g id="Poly3DCollection_34">
    <defs>
     <path d="M 505.978033 -324.031145 
L 505.085721 -298.059603 
L 523.901494 -305.587009 
L 524.915366 -331.537266 
z
" id="m5419ad423c" style="stroke:#000000;"/>
    </defs>
    <g clip-path="url(#pcf324023e6)">
     <use style="fill:#ff0000;fill-opacity:0;stroke:#000000;" x="0" xlink:href="#m5419ad423c" y="610.56"/>
    </g>
   </g>
   <g id="Poly3DCollection_35">
    <defs>
     <path d="M 373.850267 -330.068222 
L 373.837732 -316.995866 
L 354.462283 -309.440347 
L 354.410541 -322.523567 
z
" id="m5abfc4ad7e" style="stroke:#000000;"/>
    </defs>
    <g clip-path="url(#pcf324023e6)">
     <use style="fill:#ff0000;fill-opacity:0;stroke:#000000;" x="0" xlink:href="#m5abfc4ad7e" y="610.56"/>
    </g>
   </g>
   <g id="Poly3DCollection_36">
    <defs>
     <path d="M 354.462283 -309.440347 
L 373.837732 -316.995866 
L 385.666903 -304.551955 
L 366.236325 -296.927982 
z
" id="mb9980bb587" style="stroke:#000000;"/>
    </defs>
    <g clip-path="url(#pcf324023e6)">
     <use style="fill-opacity:0;stroke:#000000;" x="0" xlink:href="#mb9980bb587" y="610.56"/>
    </g>
   </g>
   <g id="Poly3DCollection_37">
    <defs>
     <path d="M 385.718828 -317.642133 
L 385.666903 -304.551955 
L 373.837732 -316.995866 
L 373.850267 -330.068222 
z
" id="m7390ba223d" style="stroke:#000000;"/>
    </defs>
    <g clip-path="url(#pcf324023e6)">
     <use style="fill:#ff0000;fill-opacity:0;stroke:#000000;" x="0" xlink:href="#m7390ba223d" y="610.56"/>
    </g>
   </g>
   <g id="Poly3DCollection_38">
    <defs>
     <path d="M 221.791113 -275.697291 
L 243.682531 -272.199716 
L 237.625253 -257.749514 
L 215.628671 -261.283237 
z
" id="mb95ca7215c" style="stroke:#000000;"/>
    </defs>
    <g clip-path="url(#pcf324023e6)">
     <use style="fill-opacity:0;stroke:#000000;" x="0" xlink:href="#mb95ca7215c" y="610.56"/>
    </g>
   </g>
   <g id="Poly3DCollection_39">
    <defs>
     <path d="M 366.223606 -310.028896 
L 385.718828 -317.642133 
L 373.850267 -330.068222 
L 354.410541 -322.523567 
z
" id="m2dd06cd3a7" style="stroke:#000000;"/>
    </defs>
    <g clip-path="url(#pcf324023e6)">
     <use style="fill-opacity:0;stroke:#000000;" x="0" xlink:href="#m2dd06cd3a7" y="610.56"/>
    </g>
   </g>
   <g id="Poly3DCollection_40">
    <defs>
     <path d="M 354.410541 -322.523567 
L 354.462283 -309.440347 
L 366.236325 -296.927982 
L 366.223606 -310.028896 
z
" id="m9de32c1ef7" style="stroke:#000000;"/>
    </defs>
    <g clip-path="url(#pcf324023e6)">
     <use style="fill:#ff0000;fill-opacity:0;stroke:#000000;" x="0" xlink:href="#m9de32c1ef7" y="610.56"/>
    </g>
   </g>
   <g id="Poly3DCollection_41">
    <defs>
     <path d="M 366.223606 -310.028896 
L 366.236325 -296.927982 
L 385.666903 -304.551955 
L 385.718828 -317.642133 
z
" id="mb74267975e" style="stroke:#000000;"/>
    </defs>
    <g clip-path="url(#pcf324023e6)">
     <use style="fill:#ff0000;fill-opacity:0;stroke:#000000;" x="0" xlink:href="#mb74267975e" y="610.56"/>
    </g>
   </g>
   <g id="Poly3DCollection_42">
    <defs>
     <path d="M 221.791113 -275.697291 
L 215.628671 -261.283237 
L 227.794083 -319.217081 
z
" id="m2c81e2ec90" style="stroke:#000000;"/>
    </defs>
    <g clip-path="url(#pcf324023e6)">
     <use style="fill:#ff0000;fill-opacity:0;stroke:#000000;" x="0" xlink:href="#m2c81e2ec90" y="610.56"/>
    </g>
   </g>
   <g id="Poly3DCollection_43">
    <defs>
     <path d="M 243.682531 -272.199716 
L 221.791113 -275.697291 
L 227.794083 -319.217081 
z
" id="m59961b5c4f" style="stroke:#000000;"/>
    </defs>
    <g clip-path="url(#pcf324023e6)">
     <use style="fill:#ff0000;fill-opacity:0;stroke:#000000;" x="0" xlink:href="#m59961b5c4f" y="610.56"/>
    </g>
   </g>
   <g id="Poly3DCollection_44">
    <defs>
     <path d="M 237.625253 -257.749514 
L 243.682531 -272.199716 
L 227.794083 -319.217081 
z
" id="m316ee48910" style="stroke:#000000;"/>
    </defs>
    <g clip-path="url(#pcf324023e6)">
     <use style="fill:#ff0000;fill-opacity:0.5;stroke:#000000;" x="0" xlink:href="#m316ee48910" y="610.56"/>
    </g>
   </g>
   <g id="Poly3DCollection_45">
    <defs>
     <path d="M 215.628671 -261.283237 
L 237.625253 -257.749514 
L 227.794083 -319.217081 
z
" id="m707004300f" style="stroke:#000000;"/>
    </defs>
    <g clip-path="url(#pcf324023e6)">
     <use style="fill:#ff0000;fill-opacity:0.5;stroke:#000000;" x="0" xlink:href="#m707004300f" y="610.56"/>
    </g>
   </g>
   <g id="Poly3DCollection_46">
    <defs>
     <path d="M 301.961603 -263.123586 
L 302.650025 -223.73907 
L 292.430383 -219.693994 
L 291.636442 -259.093601 
z
" id="mf7505138b2" style="stroke:#000000;"/>
    </defs>
    <g clip-path="url(#pcf324023e6)">
     <use style="fill:#ff0000;fill-opacity:0;stroke:#000000;" x="0" xlink:href="#mf7505138b2" y="610.56"/>
    </g>
   </g>
   <g id="Poly3DCollection_47">
    <defs>
     <path d="M 291.636442 -259.093601 
L 292.430383 -219.693994 
L 291.497067 -220.749048 
L 290.69388 -260.144731 
z
" id="m4acf22dfb1" style="stroke:#000000;"/>
    </defs>
    <g clip-path="url(#pcf324023e6)">
     <use style="fill:#ff0000;fill-opacity:0;stroke:#000000;" x="0" xlink:href="#m4acf22dfb1" y="610.56"/>
    </g>
   </g>
   <g id="Poly3DCollection_48">
    <defs>
     <path d="M 290.69388 -260.144731 
L 291.497067 -220.749048 
L 285.612986 -218.428581 
L 284.748927 -257.832885 
z
" id="m2eddc7cda7" style="stroke:#000000;"/>
    </defs>
    <g clip-path="url(#pcf324023e6)">
     <use style="fill:#ff0000;fill-opacity:0;stroke:#000000;" x="0" xlink:href="#m2eddc7cda7" y="610.56"/>
    </g>
   </g>
   <g id="Poly3DCollection_49">
    <defs>
     <path d="M 306.819428 -257.759755 
L 307.459942 -218.355179 
L 302.650025 -223.73907 
L 301.961603 -263.123586 
z
" id="mc48ea40428" style="stroke:#000000;"/>
    </defs>
    <g clip-path="url(#pcf324023e6)">
     <use style="fill:#ff0000;fill-opacity:0;stroke:#000000;" x="0" xlink:href="#mc48ea40428" y="610.56"/>
    </g>
   </g>
   <g id="Poly3DCollection_50">
    <defs>
     <path d="M 304.975133 -257.032648 
L 305.634497 -217.625368 
L 307.459942 -218.355179 
L 306.819428 -257.759755 
z
" id="mdb6a214f7c" style="stroke:#000000;"/>
    </defs>
    <g clip-path="url(#pcf324023e6)">
     <use style="fill:#ff0000;fill-opacity:0;stroke:#000000;" x="0" xlink:href="#mdb6a214f7c" y="610.56"/>
    </g>
   </g>
   <g id="Poly3DCollection_51">
    <defs>
     <path d="M 284.748927 -257.832885 
L 285.612986 -218.428581 
L 286.706675 -217.17872 
L 285.853431 -256.587652 
z
" id="mb70974e27d" style="stroke:#000000;"/>
    </defs>
    <g clip-path="url(#pcf324023e6)">
     <use style="fill:#ff0000;fill-opacity:0;stroke:#000000;" x="0" xlink:href="#mb70974e27d" y="610.56"/>
    </g>
   </g>
   <g id="Poly3DCollection_52">
    <defs>
     <path d="M 337.357988 -254.558196 
L 337.689529 -215.141745 
L 335.840466 -214.400371 
L 335.48989 -253.819551 
z
" id="m51d821a27e" style="stroke:#000000;"/>
    </defs>
    <g clip-path="url(#pcf324023e6)">
     <use style="fill:#ff0000;fill-opacity:0;stroke:#000000;" x="0" xlink:href="#m51d821a27e" y="610.56"/>
    </g>
   </g>
   <g id="Poly3DCollection_53">
    <defs>
     <path d="M 335.48989 -253.819551 
L 335.840466 -214.400371 
L 329.771416 -221.11284 
L 329.359626 -260.507167 
z
" id="m205d887309" style="stroke:#000000;"/>
    </defs>
    <g clip-path="url(#pcf324023e6)">
     <use style="fill:#ff0000;fill-opacity:0;stroke:#000000;" x="0" xlink:href="#m205d887309" y="610.56"/>
    </g>
   </g>
   <g id="Poly3DCollection_54">
    <defs>
     <path d="M 329.359626 -260.507167 
L 329.771416 -221.11284 
L 309.69624 -213.090244 
L 309.07746 -252.514237 
z
" id="m3dcadfe72d" style="stroke:#000000;"/>
    </defs>
    <g clip-path="url(#pcf324023e6)">
     <use style="fill:#ff0000;fill-opacity:0;stroke:#000000;" x="0" xlink:href="#m3dcadfe72d" y="610.56"/>
    </g>
   </g>
   <g id="Poly3DCollection_55">
    <defs>
     <path d="M 309.07746 -252.514237 
L 309.69624 -213.090244 
L 305.634497 -217.625368 
L 304.975133 -257.032648 
z
" id="m244dc0c07a" style="stroke:#000000;"/>
    </defs>
    <g clip-path="url(#pcf324023e6)">
     <use style="fill:#ff0000;fill-opacity:0;stroke:#000000;" x="0" xlink:href="#m244dc0c07a" y="610.56"/>
    </g>
   </g>
   <g id="Poly3DCollection_56">
    <defs>
     <path d="M 285.853431 -256.587652 
L 286.706675 -217.17872 
L 276.215931 -213.020238 
L 275.253874 -252.444488 
z
" id="med19f0bc44" style="stroke:#000000;"/>
    </defs>
    <g clip-path="url(#pcf324023e6)">
     <use style="fill:#ff0000;fill-opacity:0;stroke:#000000;" x="0" xlink:href="#med19f0bc44" y="610.56"/>
    </g>
   </g>
   <g id="Poly3DCollection_57">
    <defs>
     <path d="M 275.253874 -252.444488 
L 276.215931 -213.020238 
L 276.55339 -212.637822 
L 275.594664 -252.063475 
z
" id="m61b7555e18" style="stroke:#000000;"/>
    </defs>
    <g clip-path="url(#pcf324023e6)">
     <use style="fill:#ff0000;fill-opacity:0;stroke:#000000;" x="0" xlink:href="#m61b7555e18" y="610.56"/>
    </g>
   </g>
   <g id="Poly3DCollection_58">
    <defs>
     <path d="M 340.45462 -251.191448 
L 340.755112 -211.76259 
L 337.689529 -215.141745 
L 337.357988 -254.558196 
z
" id="m68a1916cb1" style="stroke:#000000;"/>
    </defs>
    <g clip-path="url(#pcf324023e6)">
     <use style="fill:#ff0000;fill-opacity:0;stroke:#000000;" x="0" xlink:href="#m68a1916cb1" y="610.56"/>
    </g>
   </g>
   <g id="Poly3DCollection_59">
    <defs>
     <path d="M 338.17899 -250.276836 
L 338.502691 -210.844621 
L 340.755112 -211.76259 
L 340.45462 -251.191448 
z
" id="m5e2cefacea" style="stroke:#000000;"/>
    </defs>
    <g clip-path="url(#pcf324023e6)">
     <use style="fill:#ff0000;fill-opacity:0;stroke:#000000;" x="0" xlink:href="#m5e2cefacea" y="610.56"/>
    </g>
   </g>
   <g id="Poly3DCollection_60">
    <defs>
     <path d="M 275.594664 -252.063475 
L 276.55339 -212.637822 
L 262.852235 -207.262176 
L 261.75093 -246.707432 
z
" id="m3c7d7e9711" style="stroke:#000000;"/>
    </defs>
    <g clip-path="url(#pcf324023e6)">
     <use style="fill:#ff0000;fill-opacity:0;stroke:#000000;" x="0" xlink:href="#m3c7d7e9711" y="610.56"/>
    </g>
   </g>
   <g id="Poly3DCollection_61">
    <defs>
     <path d="M 261.75093 -246.707432 
L 262.852235 -207.262176 
L 263.172547 -206.471121 
L 262.074226 -245.919245 
z
" id="m563b7eff7d" style="stroke:#000000;"/>
    </defs>
    <g clip-path="url(#pcf324023e6)">
     <use style="fill:#ff0000;fill-opacity:0;stroke:#000000;" x="0" xlink:href="#m563b7eff7d" y="610.56"/>
    </g>
   </g>
   <g id="Poly3DCollection_62">
    <defs>
     <path d="M 262.074226 -245.919245 
L 263.172547 -206.471121 
L 261.839299 -205.945623 
L 260.727072 -245.395649 
z
" id="m1d4bd9d751" style="stroke:#000000;"/>
    </defs>
    <g clip-path="url(#pcf324023e6)">
     <use style="fill:#ff0000;fill-opacity:0;stroke:#000000;" x="0" xlink:href="#m1d4bd9d751" y="610.56"/>
    </g>
   </g>
   <g id="Poly3DCollection_63">
    <defs>
     <path d="M 260.727072 -245.395649 
L 261.839299 -205.945623 
L 258.592495 -209.629913 
L 257.448383 -249.06656 
z
" id="m20604483cf" style="stroke:#000000;"/>
    </defs>
    <g clip-path="url(#pcf324023e6)">
     <use style="fill:#ff0000;fill-opacity:0;stroke:#000000;" x="0" xlink:href="#m20604483cf" y="610.56"/>
    </g>
   </g>
   <g id="Poly3DCollection_64">
    <defs>
     <path d="M 344.270077 -243.647671 
L 344.532523 -204.191308 
L 338.502691 -210.844621 
L 338.17899 -250.276836 
z
" id="ma09f91318d" style="stroke:#000000;"/>
    </defs>
    <g clip-path="url(#pcf324023e6)">
     <use style="fill:#ff0000;fill-opacity:0;stroke:#000000;" x="0" xlink:href="#ma09f91318d" y="610.56"/>
    </g>
   </g>
   <g id="Poly3DCollection_65">
    <defs>
     <path d="M 257.448383 -249.06656 
L 258.592495 -209.629913 
L 234.634231 -200.043969 
L 233.239489 -239.515224 
z
" id="me2e881f24c" style="stroke:#000000;"/>
    </defs>
    <g clip-path="url(#pcf324023e6)">
     <use style="fill:#ff0000;fill-opacity:0;stroke:#000000;" x="0" xlink:href="#me2e881f24c" y="610.56"/>
    </g>
   </g>
   <g id="Poly3DCollection_66">
    <defs>
     <path d="M 233.239489 -239.515224 
L 234.634231 -200.043969 
L 228.246404 -197.492725 
L 226.78456 -236.97308 
z
" id="m4a1ee254c6" style="stroke:#000000;"/>
    </defs>
    <g clip-path="url(#pcf324023e6)">
     <use style="fill:#ff0000;fill-opacity:0;stroke:#000000;" x="0" xlink:href="#m4a1ee254c6" y="610.56"/>
    </g>
   </g>
   <g id="Poly3DCollection_67">
    <defs>
     <path d="M 474.700922 -400.146659 
L 158.316003 -278.760607 
L 256.197778 -165.009729 
L 580.461239 -296.244434 
z
" id="m27375805c7" style="stroke:#000000;"/>
    </defs>
    <g clip-path="url(#pcf324023e6)">
     <use style="fill:#0000ff;fill-opacity:0;stroke:#000000;" x="0" xlink:href="#m27375805c7" y="610.56"/>
    </g>
   </g>
   <g id="Poly3DCollection_68">
    <defs>
     <path d="M 301.633995 -239.225148 
L 302.33155 -199.752852 
L 310.630485 -190.439881 
L 310.016411 -229.945151 
z
" id="ma30a084330" style="stroke:#000000;"/>
    </defs>
    <g clip-path="url(#pcf324023e6)">
     <use style="fill:#ff0000;fill-opacity:0;stroke:#000000;" x="0" xlink:href="#ma30a084330" y="610.56"/>
    </g>
   </g>
   <g id="Poly3DCollection_69">
    <defs>
     <path d="M 310.016411 -229.945151 
L 310.630485 -190.439881 
L 344.532523 -204.191308 
L 344.270077 -243.647671 
z
" id="mbe02599cf7" style="stroke:#000000;"/>
    </defs>
    <g clip-path="url(#pcf324023e6)">
     <use style="fill:#ff0000;fill-opacity:0;stroke:#000000;" x="0" xlink:href="#mbe02599cf7" y="610.56"/>
    </g>
   </g>
   <g id="Poly3DCollection_70">
    <defs>
     <path d="M 276.322337 -229.158319 
L 277.281321 -189.650282 
L 302.33155 -199.752852 
L 301.633995 -239.225148 
z
" id="mf9eda3d15a" style="stroke:#000000;"/>
    </defs>
    <g clip-path="url(#pcf324023e6)">
     <use style="fill:#ff0000;fill-opacity:0;stroke:#000000;" x="0" xlink:href="#mf9eda3d15a" y="610.56"/>
    </g>
   </g>
   <g id="Poly3DCollection_71">
    <defs>
     <path d="M 286.8368 -217.351574 
L 287.691702 -177.80255 
L 277.281321 -189.650282 
L 276.322337 -229.158319 
z
" id="m9e957a7670" style="stroke:#000000;"/>
    </defs>
    <g clip-path="url(#pcf324023e6)">
     <use style="fill:#ff0000;fill-opacity:0;stroke:#000000;" x="0" xlink:href="#m9e957a7670" y="610.56"/>
    </g>
   </g>
   <g id="Poly3DCollection_72">
    <defs>
     <path d="M 286.8368 -217.351574 
L 276.322337 -229.158319 
L 301.633995 -239.225148 
L 310.016411 -229.945151 
L 344.270077 -243.647671 
L 338.17899 -250.276836 
L 340.45462 -251.191448 
L 337.357988 -254.558196 
L 335.48989 -253.819551 
L 329.359626 -260.507167 
L 309.07746 -252.514237 
L 304.975133 -257.032648 
L 306.819428 -257.759755 
L 301.961603 -263.123586 
L 291.636442 -259.093601 
L 290.69388 -260.144731 
L 284.748927 -257.832885 
L 285.853431 -256.587652 
L 275.253874 -252.444488 
L 275.594664 -252.063475 
L 261.75093 -246.707432 
L 262.074226 -245.919245 
L 260.727072 -245.395649 
L 257.448383 -249.06656 
L 233.239489 -239.515224 
L 226.78456 -236.97308 
L 255.107418 -204.640492 
z
" id="m3ad6d616d2" style="stroke:#000000;"/>
    </defs>
    <g clip-path="url(#pcf324023e6)">
     <use style="fill:#0000ff;fill-opacity:0.8;stroke:#000000;" x="0" xlink:href="#m3ad6d616d2" y="610.56"/>
    </g>
   </g>
   <g id="Poly3DCollection_73">
    <defs>
     <path d="M 255.107418 -204.640492 
L 256.293493 -165.048466 
L 287.691702 -177.80255 
L 286.8368 -217.351574 
z
" id="med1537ba79" style="stroke:#000000;"/>
    </defs>
    <g clip-path="url(#pcf324023e6)">
     <use style="fill:#ff0000;fill-opacity:0;stroke:#000000;" x="0" xlink:href="#med1537ba79" y="610.56"/>
    </g>
   </g>
   <g id="Poly3DCollection_74">
    <defs>
     <path d="M 226.78456 -236.97308 
L 228.246404 -197.492725 
L 256.293493 -165.048466 
L 255.107418 -204.640492 
z
" id="mb0974f13f8" style="stroke:#000000;"/>
    </defs>
    <g clip-path="url(#pcf324023e6)">
     <use style="fill:#ff0000;fill-opacity:0;stroke:#000000;" x="0" xlink:href="#mb0974f13f8" y="610.56"/>
    </g>
   </g>
  </g>
 </g>
 <defs>
  <clipPath id="pcf324023e6">
   <rect height="610.56" width="610.56" x="56.52" y="0"/>
  </clipPath>
 </defs>
</svg>
