<?xml version="1.0" encoding="utf-8" standalone="no"?>
<!DOCTYPE svg PUBLIC "-//W3C//DTD SVG 1.1//EN"
  "http://www.w3.org/Graphics/SVG/1.1/DTD/svg11.dtd">
<!-- Created with matplotlib (https://matplotlib.org/) -->
<svg height="578.16pt" version="1.1" viewBox="0 0 687.6 578.16" width="687.6pt" xmlns="http://www.w3.org/2000/svg" xmlns:xlink="http://www.w3.org/1999/xlink">
 <metadata>
  <rdf:RDF xmlns:cc="http://creativecommons.org/ns#" xmlns:dc="http://purl.org/dc/elements/1.1/" xmlns:rdf="http://www.w3.org/1999/02/22-rdf-syntax-ns#">
   <cc:Work>
    <dc:type rdf:resource="http://purl.org/dc/dcmitype/StillImage"/>
    <dc:date>2020-11-03T20:14:43.383464</dc:date>
    <dc:format>image/svg+xml</dc:format>
    <dc:creator>
     <cc:Agent>
      <dc:title>Matplotlib v3.3.1, https://matplotlib.org/</dc:title>
     </cc:Agent>
    </dc:creator>
   </cc:Work>
  </rdf:RDF>
 </metadata>
 <defs>
  <style type="text/css">*{stroke-linecap:butt;stroke-linejoin:round;}</style>
 </defs>
 <g id="figure_1">
  <g id="patch_1">
   <path d="M 0 578.16
L 687.6 578.16
L 687.6 0
L 0 0
z
" style="fill:#ffffff;"/>
  </g>
  <g id="patch_2">
   <path d="M 54.72 578.16
L 632.88 578.16
L 632.88 0
L 54.72 0
z
" style="fill:#ffffff;"/>
  </g>
  <g id="pane3d_1">
   <g id="patch_3">
    <path d="M 533.066597 461.165251
L 526.264721 105.281451
L 542.541057 78.735628
L 550.050322 467.814112
" style="fill:#f2f2f2;opacity:0.5;stroke:#f2f2f2;stroke-linejoin:miter;"/>
   </g>
  </g>
  <g id="pane3d_2">
   <g id="patch_4">
    <path d="M 170.865436 111.349789
L 526.264721 105.281451
L 542.541057 78.735628
L 154.019767 85.367568
" style="fill:#e6e6e6;opacity:0.5;stroke:#e6e6e6;stroke-linejoin:miter;"/>
   </g>
  </g>
  <g id="pane3d_3">
   <g id="patch_5">
    <path d="M 176.255137 467.281924
L 533.066597 461.165251
L 526.264721 105.281451
L 170.865436 111.349789
" style="fill:#ececec;opacity:0.5;stroke:#ececec;stroke-linejoin:miter;"/>
   </g>
  </g>
  <g id="axis3d_1">
   <g id="line2d_1">
    <path d="M 533.066597 461.165251
L 176.255137 467.281924
" style="fill:none;stroke:#000000;stroke-linecap:square;stroke-width:0.8;"/>
   </g>
   <g id="Line3DCollection_1">
    <path d="M 189.39247 467.056716
L 183.950771 111.126361
L 168.324698 85.123387
" style="fill:none;stroke:#b0b0b0;stroke-width:0.8;"/>
    <path d="M 230.712064 466.348391
L 225.106822 110.423633
L 213.316583 84.355389
" style="fill:none;stroke:#b0b0b0;stroke-width:0.8;"/>
    <path d="M 272.031006 465.640077
L 266.262227 109.720917
L 258.307697 83.587405
" style="fill:none;stroke:#b0b0b0;stroke-width:0.8;"/>
    <path d="M 313.349297 464.931774
L 307.416986 109.018211
L 303.298038 82.819433
" style="fill:none;stroke:#b0b0b0;stroke-width:0.8;"/>
    <path d="M 354.666937 464.223483
L 348.5711 108.315517
L 348.287608 82.051475
" style="fill:none;stroke:#b0b0b0;stroke-width:0.8;"/>
    <path d="M 395.983925 463.515203
L 389.724567 107.612834
L 393.276406 81.28353
" style="fill:none;stroke:#b0b0b0;stroke-width:0.8;"/>
    <path d="M 437.300263 462.806934
L 430.877389 106.910161
L 438.264431 80.515598
" style="fill:none;stroke:#b0b0b0;stroke-width:0.8;"/>
    <path d="M 478.61595 462.098676
L 472.029564 106.2075
L 483.251685 79.747679
" style="fill:none;stroke:#b0b0b0;stroke-width:0.8;"/>
    <path d="M 519.930986 461.390429
L 513.181094 105.50485
L 528.238168 78.979774
" style="fill:none;stroke:#b0b0b0;stroke-width:0.8;"/>
   </g>
   <g id="xtick_1">
    <g id="line2d_2">
     <path d="M 189.348765 464.198046
L 189.479889 472.774601
" style="fill:none;stroke:#000000;stroke-linecap:square;stroke-width:0.8;"/>
    </g>
    <g id="text_1">
     <!-- −80 -->
     <g transform="translate(179.576743 488.009119)scale(0.1 -0.1)">
      <defs>
       <path d="M 10.59375 35.5
L 73.1875 35.5
L 73.1875 27.203125
L 10.59375 27.203125
z
" id="DejaVuSans-8722"/>
       <path d="M 31.78125 34.625
Q 24.75 34.625 20.71875 30.859375
Q 16.703125 27.09375 16.703125 20.515625
Q 16.703125 13.921875 20.71875 10.15625
Q 24.75 6.390625 31.78125 6.390625
Q 38.8125 6.390625 42.859375 10.171875
Q 46.921875 13.96875 46.921875 20.515625
Q 46.921875 27.09375 42.890625 30.859375
Q 38.875 34.625 31.78125 34.625
z
M 21.921875 38.8125
Q 15.578125 40.375 12.03125 44.71875
Q 8.5 49.078125 8.5 55.328125
Q 8.5 64.0625 14.71875 69.140625
Q 20.953125 74.21875 31.78125 74.21875
Q 42.671875 74.21875 48.875 69.140625
Q 55.078125 64.0625 55.078125 55.328125
Q 55.078125 49.078125 51.53125 44.71875
Q 48 40.375 41.703125 38.8125
Q 48.828125 37.15625 52.796875 32.3125
Q 56.78125 27.484375 56.78125 20.515625
Q 56.78125 9.90625 50.3125 4.234375
Q 43.84375 -1.421875 31.78125 -1.421875
Q 19.734375 -1.421875 13.25 4.234375
Q 6.78125 9.90625 6.78125 20.515625
Q 6.78125 27.484375 10.78125 32.3125
Q 14.796875 37.15625 21.921875 38.8125
z
M 18.3125 54.390625
Q 18.3125 48.734375 21.84375 45.5625
Q 25.390625 42.390625 31.78125 42.390625
Q 38.140625 42.390625 41.71875 45.5625
Q 45.3125 48.734375 45.3125 54.390625
Q 45.3125 60.0625 41.71875 63.234375
Q 38.140625 66.40625 31.78125 66.40625
Q 25.390625 66.40625 21.84375 63.234375
Q 18.3125 60.0625 18.3125 54.390625
z
" id="DejaVuSans-56"/>
       <path d="M 31.78125 66.40625
Q 24.171875 66.40625 20.328125 58.90625
Q 16.5 51.421875 16.5 36.375
Q 16.5 21.390625 20.328125 13.890625
Q 24.171875 6.390625 31.78125 6.390625
Q 39.453125 6.390625 43.28125 13.890625
Q 47.125 21.390625 47.125 36.375
Q 47.125 51.421875 43.28125 58.90625
Q 39.453125 66.40625 31.78125 66.40625
z
M 31.78125 74.21875
Q 44.046875 74.21875 50.515625 64.515625
Q 56.984375 54.828125 56.984375 36.375
Q 56.984375 17.96875 50.515625 8.265625
Q 44.046875 -1.421875 31.78125 -1.421875
Q 19.53125 -1.421875 13.0625 8.265625
Q 6.59375 17.96875 6.59375 36.375
Q 6.59375 54.828125 13.0625 64.515625
Q 19.53125 74.21875 31.78125 74.21875
z
" id="DejaVuSans-48"/>
      </defs>
      <use xlink:href="#DejaVuSans-8722"/>
      <use x="83.789062" xlink:href="#DejaVuSans-56"/>
      <use x="147.412109" xlink:href="#DejaVuSans-48"/>
     </g>
    </g>
   </g>
   <g id="xtick_2">
    <g id="line2d_3">
     <path d="M 230.667045 463.489766
L 230.80211 472.066186
" style="fill:none;stroke:#000000;stroke-linecap:square;stroke-width:0.8;"/>
    </g>
    <g id="text_2">
     <!-- −60 -->
     <g transform="translate(220.767938 487.302891)scale(0.1 -0.1)">
      <defs>
       <path d="M 33.015625 40.375
Q 26.375 40.375 22.484375 35.828125
Q 18.609375 31.296875 18.609375 23.390625
Q 18.609375 15.53125 22.484375 10.953125
Q 26.375 6.390625 33.015625 6.390625
Q 39.65625 6.390625 43.53125 10.953125
Q 47.40625 15.53125 47.40625 23.390625
Q 47.40625 31.296875 43.53125 35.828125
Q 39.65625 40.375 33.015625 40.375
z
M 52.59375 71.296875
L 52.59375 62.3125
Q 48.875 64.0625 45.09375 64.984375
Q 41.3125 65.921875 37.59375 65.921875
Q 27.828125 65.921875 22.671875 59.328125
Q 17.53125 52.734375 16.796875 39.40625
Q 19.671875 43.65625 24.015625 45.921875
Q 28.375 48.1875 33.59375 48.1875
Q 44.578125 48.1875 50.953125 41.515625
Q 57.328125 34.859375 57.328125 23.390625
Q 57.328125 12.15625 50.6875 5.359375
Q 44.046875 -1.421875 33.015625 -1.421875
Q 20.359375 -1.421875 13.671875 8.265625
Q 6.984375 17.96875 6.984375 36.375
Q 6.984375 53.65625 15.1875 63.9375
Q 23.390625 74.21875 37.203125 74.21875
Q 40.921875 74.21875 44.703125 73.484375
Q 48.484375 72.75 52.59375 71.296875
z
" id="DejaVuSans-54"/>
      </defs>
      <use xlink:href="#DejaVuSans-8722"/>
      <use x="83.789062" xlink:href="#DejaVuSans-54"/>
      <use x="147.412109" xlink:href="#DejaVuSans-48"/>
     </g>
    </g>
   </g>
   <g id="xtick_3">
    <g id="line2d_4">
     <path d="M 271.984673 462.781497
L 272.123679 471.357782
" style="fill:none;stroke:#000000;stroke-linecap:square;stroke-width:0.8;"/>
    </g>
    <g id="text_3">
     <!-- −40 -->
     <g transform="translate(261.958486 486.596673)scale(0.1 -0.1)">
      <defs>
       <path d="M 37.796875 64.3125
L 12.890625 25.390625
L 37.796875 25.390625
z
M 35.203125 72.90625
L 47.609375 72.90625
L 47.609375 25.390625
L 58.015625 25.390625
L 58.015625 17.1875
L 47.609375 17.1875
L 47.609375 0
L 37.796875 0
L 37.796875 17.1875
L 4.890625 17.1875
L 4.890625 26.703125
z
" id="DejaVuSans-52"/>
      </defs>
      <use xlink:href="#DejaVuSans-8722"/>
      <use x="83.789062" xlink:href="#DejaVuSans-52"/>
      <use x="147.412109" xlink:href="#DejaVuSans-48"/>
     </g>
    </g>
   </g>
   <g id="xtick_4">
    <g id="line2d_5">
     <path d="M 313.301651 462.07324
L 313.444597 470.649389
" style="fill:none;stroke:#000000;stroke-linecap:square;stroke-width:0.8;"/>
    </g>
    <g id="text_4">
     <!-- −20 -->
     <g transform="translate(303.148387 485.890466)scale(0.1 -0.1)">
      <defs>
       <path d="M 19.1875 8.296875
L 53.609375 8.296875
L 53.609375 0
L 7.328125 0
L 7.328125 8.296875
Q 12.9375 14.109375 22.625 23.890625
Q 32.328125 33.6875 34.8125 36.53125
Q 39.546875 41.84375 41.421875 45.53125
Q 43.3125 49.21875 43.3125 52.78125
Q 43.3125 58.59375 39.234375 62.25
Q 35.15625 65.921875 28.609375 65.921875
Q 23.96875 65.921875 18.8125 64.3125
Q 13.671875 62.703125 7.8125 59.421875
L 7.8125 69.390625
Q 13.765625 71.78125 18.9375 73
Q 24.125 74.21875 28.421875 74.21875
Q 39.75 74.21875 46.484375 68.546875
Q 53.21875 62.890625 53.21875 53.421875
Q 53.21875 48.921875 51.53125 44.890625
Q 49.859375 40.875 45.40625 35.40625
Q 44.1875 33.984375 37.640625 27.21875
Q 31.109375 20.453125 19.1875 8.296875
z
" id="DejaVuSans-50"/>
      </defs>
      <use xlink:href="#DejaVuSans-8722"/>
      <use x="83.789062" xlink:href="#DejaVuSans-50"/>
      <use x="147.412109" xlink:href="#DejaVuSans-48"/>
     </g>
    </g>
   </g>
   <g id="xtick_5">
    <g id="line2d_6">
     <path d="M 354.617978 461.364993
L 354.764864 469.941008
" style="fill:none;stroke:#000000;stroke-linecap:square;stroke-width:0.8;"/>
    </g>
    <g id="text_5">
     <!-- 0 -->
     <g transform="translate(351.708735 485.184271)scale(0.1 -0.1)">
      <use xlink:href="#DejaVuSans-48"/>
     </g>
    </g>
   </g>
   <g id="xtick_6">
    <g id="line2d_7">
     <path d="M 395.933653 460.656758
L 396.08448 469.232638
" style="fill:none;stroke:#000000;stroke-linecap:square;stroke-width:0.8;"/>
    </g>
    <g id="text_6">
     <!-- 20 -->
     <g transform="translate(389.716092 484.478086)scale(0.1 -0.1)">
      <use xlink:href="#DejaVuSans-50"/>
      <use x="63.623047" xlink:href="#DejaVuSans-48"/>
     </g>
    </g>
   </g>
   <g id="xtick_7">
    <g id="line2d_8">
     <path d="M 437.248678 459.948534
L 437.403444 468.524278
" style="fill:none;stroke:#000000;stroke-linecap:square;stroke-width:0.8;"/>
    </g>
    <g id="text_7">
     <!-- 40 -->
     <g transform="translate(430.904052 483.771913)scale(0.1 -0.1)">
      <use xlink:href="#DejaVuSans-52"/>
      <use x="63.623047" xlink:href="#DejaVuSans-48"/>
     </g>
    </g>
   </g>
   <g id="xtick_8">
    <g id="line2d_9">
     <path d="M 478.563051 459.240321
L 478.721758 467.81593
" style="fill:none;stroke:#000000;stroke-linecap:square;stroke-width:0.8;"/>
    </g>
    <g id="text_8">
     <!-- 60 -->
     <g transform="translate(472.091365 483.065751)scale(0.1 -0.1)">
      <use xlink:href="#DejaVuSans-54"/>
      <use x="63.623047" xlink:href="#DejaVuSans-48"/>
     </g>
    </g>
   </g>
   <g id="xtick_9">
    <g id="line2d_10">
     <path d="M 519.876774 458.53212
L 520.03942 467.107594
" style="fill:none;stroke:#000000;stroke-linecap:square;stroke-width:0.8;"/>
    </g>
    <g id="text_9">
     <!-- 80 -->
     <g transform="translate(513.278031 482.3596)scale(0.1 -0.1)">
      <use xlink:href="#DejaVuSans-56"/>
      <use x="63.623047" xlink:href="#DejaVuSans-48"/>
     </g>
    </g>
   </g>
  </g>
  <g id="axis3d_2">
   <g id="line2d_11">
    <path d="M 170.865436 111.349789
L 176.255137 467.281924
" style="fill:none;stroke:#000000;stroke-linecap:square;stroke-width:0.8;"/>
   </g>
   <g id="Line3DCollection_2">
    <path d="M 549.772701 453.429729
L 532.815219 448.012781
L 176.055949 454.127664
" style="fill:none;stroke:#b0b0b0;stroke-width:0.8;"/>
    <path d="M 548.900098 408.217428
L 532.025054 406.670226
L 175.429834 412.779485
" style="fill:none;stroke:#b0b0b0;stroke-width:0.8;"/>
    <path d="M 548.028372 363.050585
L 531.235615 365.365685
L 174.804295 371.469328
" style="fill:none;stroke:#b0b0b0;stroke-width:0.8;"/>
    <path d="M 547.157522 317.929133
L 530.446902 324.099106
L 174.179331 330.19714
" style="fill:none;stroke:#b0b0b0;stroke-width:0.8;"/>
    <path d="M 546.287547 272.853002
L 529.658914 282.870435
L 173.554941 288.962869
" style="fill:none;stroke:#b0b0b0;stroke-width:0.8;"/>
    <path d="M 545.418446 227.822125
L 528.871649 241.679622
L 172.931125 247.766463
" style="fill:none;stroke:#b0b0b0;stroke-width:0.8;"/>
    <path d="M 544.550216 182.836432
L 528.085107 200.526614
L 172.307881 206.607869
" style="fill:none;stroke:#b0b0b0;stroke-width:0.8;"/>
    <path d="M 543.682857 137.895858
L 527.299286 159.411358
L 171.685209 165.487035
" style="fill:none;stroke:#b0b0b0;stroke-width:0.8;"/>
    <path d="M 542.816368 93.000332
L 526.514186 118.333803
L 171.063108 124.40391
" style="fill:none;stroke:#b0b0b0;stroke-width:0.8;"/>
   </g>
   <g id="xtick_10">
    <g id="line2d_12">
     <path d="M 178.910216 454.078742
L 170.347406 454.225509
" style="fill:none;stroke:#000000;stroke-linecap:square;stroke-width:0.8;"/>
    </g>
    <g id="text_10">
     <!-- −80 -->
     <g transform="translate(152.494263 461.750397)scale(0.1 -0.1)">
      <use xlink:href="#DejaVuSans-8722"/>
      <use x="83.789062" xlink:href="#DejaVuSans-56"/>
      <use x="147.412109" xlink:href="#DejaVuSans-48"/>
     </g>
    </g>
   </g>
   <g id="xtick_11">
    <g id="line2d_13">
     <path d="M 178.282789 412.730608
L 169.723917 412.87724
" style="fill:none;stroke:#000000;stroke-linecap:square;stroke-width:0.8;"/>
    </g>
    <g id="text_11">
     <!-- −60 -->
     <g transform="translate(151.87615 420.536738)scale(0.1 -0.1)">
      <use xlink:href="#DejaVuSans-8722"/>
      <use x="83.789062" xlink:href="#DejaVuSans-54"/>
      <use x="147.412109" xlink:href="#DejaVuSans-48"/>
     </g>
    </g>
   </g>
   <g id="xtick_12">
    <g id="line2d_14">
     <path d="M 177.655938 371.420496
L 169.101 371.566993
" style="fill:none;stroke:#000000;stroke-linecap:square;stroke-width:0.8;"/>
    </g>
    <g id="text_12">
     <!-- −40 -->
     <g transform="translate(151.258604 379.360854)scale(0.1 -0.1)">
      <use xlink:href="#DejaVuSans-8722"/>
      <use x="83.789062" xlink:href="#DejaVuSans-52"/>
      <use x="147.412109" xlink:href="#DejaVuSans-48"/>
     </g>
    </g>
   </g>
   <g id="xtick_13">
    <g id="line2d_15">
     <path d="M 177.029664 330.148352
L 168.478657 330.294715
" style="fill:none;stroke:#000000;stroke-linecap:square;stroke-width:0.8;"/>
    </g>
    <g id="text_13">
     <!-- −20 -->
     <g transform="translate(150.641623 338.222692)scale(0.1 -0.1)">
      <use xlink:href="#DejaVuSans-8722"/>
      <use x="83.789062" xlink:href="#DejaVuSans-50"/>
      <use x="147.412109" xlink:href="#DejaVuSans-48"/>
     </g>
    </g>
   </g>
   <g id="xtick_14">
    <g id="line2d_16">
     <path d="M 176.403965 288.914126
L 167.856885 289.060355
" style="fill:none;stroke:#000000;stroke-linecap:square;stroke-width:0.8;"/>
    </g>
    <g id="text_14">
     <!-- 0 -->
     <g transform="translate(157.396301 297.122202)scale(0.1 -0.1)">
      <use xlink:href="#DejaVuSans-48"/>
     </g>
    </g>
   </g>
   <g id="xtick_15">
    <g id="line2d_17">
     <path d="M 175.778841 247.717765
L 167.235684 247.863859
" style="fill:none;stroke:#000000;stroke-linecap:square;stroke-width:0.8;"/>
    </g>
    <g id="text_15">
     <!-- 20 -->
     <g transform="translate(153.5992 256.059331)scale(0.1 -0.1)">
      <use xlink:href="#DejaVuSans-50"/>
      <use x="63.623047" xlink:href="#DejaVuSans-48"/>
     </g>
    </g>
   </g>
   <g id="xtick_16">
    <g id="line2d_18">
     <path d="M 175.15429 206.559215
L 166.615053 206.705175
" style="fill:none;stroke:#000000;stroke-linecap:square;stroke-width:0.8;"/>
    </g>
    <g id="text_16">
     <!-- 40 -->
     <g transform="translate(152.983912 215.034027)scale(0.1 -0.1)">
      <use xlink:href="#DejaVuSans-52"/>
      <use x="63.623047" xlink:href="#DejaVuSans-48"/>
     </g>
    </g>
   </g>
   <g id="xtick_17">
    <g id="line2d_19">
     <path d="M 174.530313 165.438427
L 165.994992 165.584253
" style="fill:none;stroke:#000000;stroke-linecap:square;stroke-width:0.8;"/>
    </g>
    <g id="text_17">
     <!-- 60 -->
     <g transform="translate(152.369186 174.046239)scale(0.1 -0.1)">
      <use xlink:href="#DejaVuSans-54"/>
      <use x="63.623047" xlink:href="#DejaVuSans-48"/>
     </g>
    </g>
   </g>
   <g id="xtick_18">
    <g id="line2d_20">
     <path d="M 173.906908 124.355346
L 165.375499 124.501039
" style="fill:none;stroke:#000000;stroke-linecap:square;stroke-width:0.8;"/>
    </g>
    <g id="text_18">
     <!-- 80 -->
     <g transform="translate(151.755023 133.095916)scale(0.1 -0.1)">
      <use xlink:href="#DejaVuSans-56"/>
      <use x="63.623047" xlink:href="#DejaVuSans-48"/>
     </g>
    </g>
   </g>
  </g>
  <g id="axis3d_3">
   <g id="line2d_21">
    <path d="M 170.865436 111.349789
L 154.019767 85.367568
" style="fill:none;stroke:#000000;stroke-linecap:square;stroke-width:0.8;"/>
   </g>
   <g id="Line3DCollection_3">
    <path d="M 169.846312 109.777924
L 527.249408 103.67548
L 534.093722 461.567354
" style="fill:none;stroke:#b0b0b0;stroke-width:0.8;"/>
    <path d="M 168.023681 106.966757
L 529.010448 100.803319
L 535.930774 462.286531
" style="fill:none;stroke:#b0b0b0;stroke-width:0.8;"/>
    <path d="M 166.164127 104.098641
L 530.80716 97.872979
L 537.80519 463.020335
" style="fill:none;stroke:#b0b0b0;stroke-width:0.8;"/>
    <path d="M 164.266518 101.17183
L 532.64064 94.882673
L 539.718121 463.769218
" style="fill:none;stroke:#b0b0b0;stroke-width:0.8;"/>
    <path d="M 162.329673 98.184501
L 534.512027 91.830542
L 541.670767 464.533648
" style="fill:none;stroke:#b0b0b0;stroke-width:0.8;"/>
    <path d="M 160.352362 95.13476
L 536.422509 88.714649
L 543.664378 465.314116
" style="fill:none;stroke:#b0b0b0;stroke-width:0.8;"/>
    <path d="M 158.333303 92.020629
L 538.373325 85.532974
L 545.700256 466.11113
" style="fill:none;stroke:#b0b0b0;stroke-width:0.8;"/>
    <path d="M 156.271161 88.840047
L 540.365765 82.283412
L 547.77976 466.925223
" style="fill:none;stroke:#b0b0b0;stroke-width:0.8;"/>
   </g>
   <g id="xtick_19">
    <g id="line2d_22">
     <path d="M 172.70573 109.729102
L 164.127466 109.87557
" style="fill:none;stroke:#000000;stroke-linecap:square;stroke-width:0.8;"/>
    </g>
    <g id="text_19">
     <!-- −60 -->
     <g transform="translate(145.439821 103.996055)scale(0.1 -0.1)">
      <use xlink:href="#DejaVuSans-8722"/>
      <use x="83.789062" xlink:href="#DejaVuSans-54"/>
      <use x="147.412109" xlink:href="#DejaVuSans-48"/>
     </g>
    </g>
   </g>
   <g id="xtick_20">
    <g id="line2d_23">
     <path d="M 170.911772 106.917446
L 162.247489 107.065379
" style="fill:none;stroke:#000000;stroke-linecap:square;stroke-width:0.8;"/>
    </g>
    <g id="text_20">
     <!-- −40 -->
     <g transform="translate(143.478567 101.051163)scale(0.1 -0.1)">
      <use xlink:href="#DejaVuSans-8722"/>
      <use x="83.789062" xlink:href="#DejaVuSans-52"/>
      <use x="147.412109" xlink:href="#DejaVuSans-48"/>
     </g>
    </g>
   </g>
   <g id="xtick_21">
    <g id="line2d_24">
     <path d="M 169.081473 104.048832
L 160.329427 104.198259
" style="fill:none;stroke:#000000;stroke-linecap:square;stroke-width:0.8;"/>
    </g>
    <g id="text_21">
     <!-- −20 -->
     <g transform="translate(141.477587 98.046624)scale(0.1 -0.1)">
      <use xlink:href="#DejaVuSans-8722"/>
      <use x="83.789062" xlink:href="#DejaVuSans-50"/>
      <use x="147.412109" xlink:href="#DejaVuSans-48"/>
     </g>
    </g>
   </g>
   <g id="xtick_22">
    <g id="line2d_25">
     <path d="M 167.213717 101.121513
L 158.372112 101.272463
" style="fill:none;stroke:#000000;stroke-linecap:square;stroke-width:0.8;"/>
    </g>
    <g id="text_22">
     <!-- 0 -->
     <g transform="translate(146.806758 94.980606)scale(0.1 -0.1)">
      <use xlink:href="#DejaVuSans-48"/>
     </g>
    </g>
   </g>
   <g id="xtick_23">
    <g id="line2d_26">
     <path d="M 165.307341 98.133666
L 156.374326 98.286172
" style="fill:none;stroke:#000000;stroke-linecap:square;stroke-width:0.8;"/>
    </g>
    <g id="text_23">
     <!-- 20 -->
     <g transform="translate(141.541371 91.851203)scale(0.1 -0.1)">
      <use xlink:href="#DejaVuSans-50"/>
      <use x="63.623047" xlink:href="#DejaVuSans-48"/>
     </g>
    </g>
   </g>
   <g id="xtick_24">
    <g id="line2d_27">
     <path d="M 163.361137 95.083395
L 154.334801 95.237489
" style="fill:none;stroke:#000000;stroke-linecap:square;stroke-width:0.8;"/>
    </g>
    <g id="text_24">
     <!-- 40 -->
     <g transform="translate(139.413699 88.656429)scale(0.1 -0.1)">
      <use xlink:href="#DejaVuSans-52"/>
      <use x="63.623047" xlink:href="#DejaVuSans-48"/>
     </g>
    </g>
   </g>
   <g id="xtick_25">
    <g id="line2d_28">
     <path d="M 161.373842 91.968724
L 152.252215 92.124439
" style="fill:none;stroke:#000000;stroke-linecap:square;stroke-width:0.8;"/>
    </g>
    <g id="text_25">
     <!-- 60 -->
     <g transform="translate(137.241111 85.394213)scale(0.1 -0.1)">
      <use xlink:href="#DejaVuSans-54"/>
      <use x="63.623047" xlink:href="#DejaVuSans-48"/>
     </g>
    </g>
   </g>
   <g id="xtick_26">
    <g id="line2d_29">
     <path d="M 159.344142 88.78759
L 150.12519 88.944961
" style="fill:none;stroke:#000000;stroke-linecap:square;stroke-width:0.8;"/>
    </g>
    <g id="text_26">
     <!-- 80 -->
     <g transform="translate(135.022171 82.062399)scale(0.1 -0.1)">
      <use xlink:href="#DejaVuSans-56"/>
      <use x="63.623047" xlink:href="#DejaVuSans-48"/>
     </g>
    </g>
   </g>
  </g>
  <g id="axes_1">
   <g id="Poly3DCollection_1">
    <defs>
     <path d="M 175.831298 -200.149855
L 530.564004 -206.224854
L 527.019639 -391.757212
L 173.019578 -385.707289
z
" id="m76ffbad42d" style="stroke:#000000;"/>
    </defs>
    <g clip-path="url(#p4602a42355)">
     <use style="fill-opacity:0.1;stroke:#000000;" x="0" xlink:href="#m76ffbad42d" y="578.16"/>
    </g>
   </g>
   <g id="Poly3DCollection_2">
    <defs>
     <path d="M 529.655198 -394.934243
L 526.919866 -391.755507
L 494.015469 -391.138715
L 496.237406 -394.307849
z
" id="m9e8f714a23" style="stroke:#000000;"/>
    </defs>
    <g clip-path="url(#p4602a42355)">
     <use style="fill-opacity:0.1;stroke:#000000;" x="0" xlink:href="#m9e8f714a23" y="578.16"/>
    </g>
   </g>
   <g id="Poly3DCollection_3">
    <defs>
     <path d="M 469.379451 -389.861347
L 467.570058 -386.760375
L 431.441025 -386.087681
L 432.686671 -389.178179
z
" id="m33845b4a06" style="stroke:#000000;"/>
    </defs>
    <g clip-path="url(#p4602a42355)">
     <use style="fill-opacity:0.1;stroke:#000000;" x="0" xlink:href="#m33845b4a06" y="578.16"/>
    </g>
   </g>
   <g id="Poly3DCollection_4">
    <defs>
     <path d="M 432.686671 -389.178179
L 431.441025 -386.087681
L 431.651635 -375.358084
L 432.90072 -378.281512
z
" id="m7bafcc8db6" style="stroke:#000000;"/>
    </defs>
    <g clip-path="url(#p4602a42355)">
     <use style="fill-opacity:0.1;stroke:#000000;" x="0" xlink:href="#m7bafcc8db6" y="578.16"/>
    </g>
   </g>
   <g id="Poly3DCollection_5">
    <defs>
     <path d="M 432.90072 -378.281512
L 431.651635 -375.358084
L 429.230146 -375.304433
L 430.441441 -378.227026
z
" id="m799df690fc" style="stroke:#000000;"/>
    </defs>
    <g clip-path="url(#p4602a42355)">
     <use style="fill-opacity:0.1;stroke:#000000;" x="0" xlink:href="#m799df690fc" y="578.16"/>
    </g>
   </g>
   <g id="Poly3DCollection_6">
    <defs>
     <path d="M 496.237406 -394.307849
L 494.015469 -391.138715
L 494.400066 -372.344371
L 496.628479 -375.220865
z
" id="m4066d19d56" style="stroke:#000000;"/>
    </defs>
    <g clip-path="url(#p4602a42355)">
     <use style="fill-opacity:0.1;stroke:#000000;" x="0" xlink:href="#m4066d19d56" y="578.16"/>
    </g>
   </g>
   <g id="Poly3DCollection_7">
    <defs>
     <path d="M 496.628479 -375.220865
L 494.400066 -372.344371
L 467.875003 -371.866574
L 469.689461 -374.735627
z
" id="m614f8a307b" style="stroke:#000000;"/>
    </defs>
    <g clip-path="url(#p4602a42355)">
     <use style="fill-opacity:0.1;stroke:#000000;" x="0" xlink:href="#m614f8a307b" y="578.16"/>
    </g>
   </g>
   <g id="Poly3DCollection_8">
    <defs>
     <path d="M 469.689461 -374.735627
L 467.875003 -371.866574
L 467.570058 -386.760375
L 469.379451 -389.861347
z
" id="m2e4e9c12fe" style="stroke:#000000;"/>
    </defs>
    <g clip-path="url(#p4602a42355)">
     <use style="fill-opacity:0.1;stroke:#000000;" x="0" xlink:href="#m2e4e9c12fe" y="578.16"/>
    </g>
   </g>
   <g id="Poly3DCollection_9">
    <defs>
     <path d="M 430.441441 -378.227026
L 429.230146 -375.304433
L 429.33699 -369.831606
L 430.550027 -372.668965
z
" id="m4bc39fc174" style="stroke:#000000;"/>
    </defs>
    <g clip-path="url(#p4602a42355)">
     <use style="fill-opacity:0.1;stroke:#000000;" x="0" xlink:href="#m4bc39fc174" y="578.16"/>
    </g>
   </g>
   <g id="Poly3DCollection_10">
    <defs>
     <path d="M 430.550027 -372.668965
L 429.33699 -369.831606
L 431.318989 -369.862505
L 432.562959 -372.700345
z
" id="m29034de860" style="stroke:#000000;"/>
    </defs>
    <g clip-path="url(#p4602a42355)">
     <use style="fill-opacity:0.1;stroke:#000000;" x="0" xlink:href="#m29034de860" y="578.16"/>
    </g>
   </g>
   <g id="Poly3DCollection_11">
    <defs>
     <path d="M 432.562959 -372.700345
L 431.318989 -369.862505
L 431.520497 -358.963107
L 432.767766 -361.63117
z
" id="m5f8421f421" style="stroke:#000000;"/>
    </defs>
    <g clip-path="url(#p4602a42355)">
     <use style="fill-opacity:0.1;stroke:#000000;" x="0" xlink:href="#m5f8421f421" y="578.16"/>
    </g>
   </g>
   <g id="Poly3DCollection_12">
    <defs>
     <path d="M 432.767766 -361.63117
L 431.520497 -358.963107
L 453.007259 -359.297243
L 454.589907 -361.970512
z
" id="m8a0a7f92bc" style="stroke:#000000;"/>
    </defs>
    <g clip-path="url(#p4602a42355)">
     <use style="fill-opacity:0.1;stroke:#000000;" x="0" xlink:href="#m8a0a7f92bc" y="578.16"/>
    </g>
   </g>
   <g id="Poly3DCollection_13">
    <defs>
     <path d="M 454.589907 -361.970512
L 453.007259 -359.297243
L 453.148668 -351.942071
L 454.733656 -354.500747
z
" id="mb591702b13" style="stroke:#000000;"/>
    </defs>
    <g clip-path="url(#p4602a42355)">
     <use style="fill-opacity:0.1;stroke:#000000;" x="0" xlink:href="#mb591702b13" y="578.16"/>
    </g>
   </g>
   <g id="Poly3DCollection_14">
    <defs>
     <path d="M 454.733656 -354.500747
L 453.148668 -351.942071
L 451.196424 -351.909456
L 452.750937 -354.467624
z
" id="m894a0a1010" style="stroke:#000000;"/>
    </defs>
    <g clip-path="url(#p4602a42355)">
     <use style="fill-opacity:0.1;stroke:#000000;" x="0" xlink:href="#m894a0a1010" y="578.16"/>
    </g>
   </g>
   <g id="Poly3DCollection_15">
    <defs>
     <path d="M 496.648372 -348.152898
L 494.418991 -345.691618
L 495.826091 -345.707421
L 498.077438 -348.168947
z
" id="m03ec332806" style="stroke:#000000;"/>
    </defs>
    <g clip-path="url(#p4602a42355)">
     <use style="fill-opacity:0.1;stroke:#000000;" x="0" xlink:href="#m03ec332806" y="578.16"/>
    </g>
   </g>
   <g id="Poly3DCollection_16">
    <defs>
     <path d="M 496.372597 -347.03326
L 494.147428 -344.58916
L 494.418991 -345.691618
L 496.648372 -348.152898
z
" id="m6fbd7bdcbb" style="stroke:#000000;"/>
    </defs>
    <g clip-path="url(#p4602a42355)">
     <use style="fill-opacity:0.1;stroke:#000000;" x="0" xlink:href="#m6fbd7bdcbb" y="578.16"/>
    </g>
   </g>
   <g id="Poly3DCollection_17">
    <defs>
     <path d="M 481.668353 -346.896082
L 479.669207 -344.454087
L 494.147428 -344.58916
L 496.372597 -347.03326
z
" id="m1736634aa1" style="stroke:#000000;"/>
    </defs>
    <g clip-path="url(#p4602a42355)">
     <use style="fill-opacity:0.1;stroke:#000000;" x="0" xlink:href="#m1736634aa1" y="578.16"/>
    </g>
   </g>
   <g id="Poly3DCollection_18">
    <defs>
     <path d="M 481.680195 -346.26742
L 479.680853 -343.835072
L 479.669207 -344.454087
L 481.668353 -346.896082
z
" id="m95b64544ec" style="stroke:#000000;"/>
    </defs>
    <g clip-path="url(#p4602a42355)">
     <use style="fill-opacity:0.1;stroke:#000000;" x="0" xlink:href="#m95b64544ec" y="578.16"/>
    </g>
   </g>
   <g id="Poly3DCollection_19">
    <defs>
     <path d="M 470.35324 -346.108923
L 468.528009 -343.679007
L 479.680853 -343.835072
L 481.680195 -346.26742
z
" id="m9f7910657f" style="stroke:#000000;"/>
    </defs>
    <g clip-path="url(#p4602a42355)">
     <use style="fill-opacity:0.1;stroke:#000000;" x="0" xlink:href="#m9f7910657f" y="578.16"/>
    </g>
   </g>
   <g id="Poly3DCollection_20">
    <defs>
     <path d="M 452.750937 -354.467624
L 451.196424 -351.909456
L 451.351502 -343.14906
L 452.90859 -345.570717
z
" id="m070ff7539a" style="stroke:#000000;"/>
    </defs>
    <g clip-path="url(#p4602a42355)">
     <use style="fill-opacity:0.1;stroke:#000000;" x="0" xlink:href="#m070ff7539a" y="578.16"/>
    </g>
   </g>
   <g id="Poly3DCollection_21">
    <defs>
     <path d="M 452.90859 -345.570717
L 451.351502 -343.14906
L 462.26195 -343.294997
L 463.989366 -345.718929
z
" id="mde3fc26fa8" style="stroke:#000000;"/>
    </defs>
    <g clip-path="url(#p4602a42355)">
     <use style="fill-opacity:0.1;stroke:#000000;" x="0" xlink:href="#mde3fc26fa8" y="578.16"/>
    </g>
   </g>
   <g id="Poly3DCollection_22">
    <defs>
     <path d="M 470.379328 -344.05431
L 468.553654 -341.655923
L 468.528009 -343.679007
L 470.35324 -346.108923
z
" id="m97094f9478" style="stroke:#000000;"/>
    </defs>
    <g clip-path="url(#p4602a42355)">
     <use style="fill-opacity:0.1;stroke:#000000;" x="0" xlink:href="#m97094f9478" y="578.16"/>
    </g>
   </g>
   <g id="Poly3DCollection_23">
    <defs>
     <path d="M 463.989366 -345.718929
L 462.26195 -343.294997
L 462.289228 -341.580997
L 464.017103 -343.978217
z
" id="meb3cc68467" style="stroke:#000000;"/>
    </defs>
    <g clip-path="url(#p4602a42355)">
     <use style="fill-opacity:0.1;stroke:#000000;" x="0" xlink:href="#meb3cc68467" y="578.16"/>
    </g>
   </g>
   <g id="Poly3DCollection_24">
    <defs>
     <path d="M 464.017103 -343.978217
L 462.289228 -341.580997
L 468.553654 -341.655923
L 470.379328 -344.05431
z
" id="m32b3bff766" style="stroke:#000000;"/>
    </defs>
    <g clip-path="url(#p4602a42355)">
     <use style="fill-opacity:0.1;stroke:#000000;" x="0" xlink:href="#m32b3bff766" y="578.16"/>
    </g>
   </g>
   <g id="Poly3DCollection_25">
    <defs>
     <path d="M 530.755529 -342.727878
L 528.001713 -340.349846
L 526.919866 -391.755507
L 529.655198 -394.934243
z
" id="m9210b6fa3f" style="stroke:#000000;"/>
    </defs>
    <g clip-path="url(#p4602a42355)">
     <use style="fill-opacity:0.1;stroke:#000000;" x="0" xlink:href="#m9210b6fa3f" y="578.16"/>
    </g>
   </g>
   <g id="Poly3DCollection_26">
    <defs>
     <path d="M 523.930025 -342.605397
L 521.281128 -340.229244
L 528.001713 -340.349846
L 530.755529 -342.727878
z
" id="m777053d14f" style="stroke:#000000;"/>
    </defs>
    <g clip-path="url(#p4602a42355)">
     <use style="fill-opacity:0.1;stroke:#000000;" x="0" xlink:href="#m777053d14f" y="578.16"/>
    </g>
   </g>
   <g id="Poly3DCollection_27">
    <defs>
     <path d="M 496.237406 -394.307849
L 496.628479 -375.220865
L 469.689461 -374.735627
L 469.379451 -389.861347
L 432.686671 -389.178179
L 432.90072 -378.281512
L 430.441441 -378.227026
L 430.550027 -372.668965
L 432.562959 -372.700345
L 432.767766 -361.63117
L 454.589907 -361.970512
L 454.733656 -354.500747
L 452.750937 -354.467624
L 452.90859 -345.570717
L 463.989366 -345.718929
L 464.017103 -343.978217
L 470.379328 -344.05431
L 470.35324 -346.108923
L 481.680195 -346.26742
L 481.668353 -346.896082
L 496.372597 -347.03326
L 496.648372 -348.152898
L 498.077438 -348.168947
L 498.210091 -342.12293
L 523.930025 -342.605397
L 530.755529 -342.727878
L 529.655198 -394.934243
z
" id="m21e617a18c" style="stroke:#000000;"/>
    </defs>
    <g clip-path="url(#p4602a42355)">
     <use style="fill-opacity:0.1;stroke:#000000;" x="0" xlink:href="#m21e617a18c" y="578.16"/>
    </g>
   </g>
   <g id="Poly3DCollection_28">
    <defs>
     <path d="M 498.077438 -348.168947
L 495.826091 -345.707421
L 495.956555 -339.754181
L 498.210091 -342.12293
z
" id="m97ca41c243" style="stroke:#000000;"/>
    </defs>
    <g clip-path="url(#p4602a42355)">
     <use style="fill-opacity:0.1;stroke:#000000;" x="0" xlink:href="#m97ca41c243" y="578.16"/>
    </g>
   </g>
   <g id="Poly3DCollection_29">
    <defs>
     <path d="M 498.210091 -342.12293
L 495.956555 -339.754181
L 521.281128 -340.229244
L 523.930025 -342.605397
z
" id="m2929004820" style="stroke:#000000;"/>
    </defs>
    <g clip-path="url(#p4602a42355)">
     <use style="fill-opacity:0.1;stroke:#000000;" x="0" xlink:href="#m2929004820" y="578.16"/>
    </g>
   </g>
   <g id="Poly3DCollection_30">
    <defs>
     <path d="M 229.891432 -276.126576
L 231.763929 -274.771363
L 210.084515 -274.351404
L 207.873293 -275.700062
z
" id="m150568b22d" style="stroke:#000000;"/>
    </defs>
    <g clip-path="url(#p4602a42355)">
     <use style="fill-opacity:0.1;stroke:#000000;" x="0" xlink:href="#m150568b22d" y="578.16"/>
    </g>
   </g>
   <g id="Poly3DCollection_31">
    <defs>
     <path d="M 252.478648 -273.327152
L 254.003723 -272.014963
L 243.144521 -271.865592
L 241.449776 -273.17545
z
" id="mc82306f266" style="stroke:#000000;"/>
    </defs>
    <g clip-path="url(#p4602a42355)">
     <use style="fill-opacity:0.1;stroke:#000000;" x="0" xlink:href="#mc82306f266" y="578.16"/>
    </g>
   </g>
   <g id="Poly3DCollection_32">
    <defs>
     <path d="M 241.449776 -273.17545
L 243.144521 -271.865592
L 231.942408 -271.807064
L 230.072637 -273.116008
z
" id="mfda763a003" style="stroke:#000000;"/>
    </defs>
    <g clip-path="url(#p4602a42355)">
     <use style="fill-opacity:0.1;stroke:#000000;" x="0" xlink:href="#mfda763a003" y="578.16"/>
    </g>
   </g>
   <g id="Poly3DCollection_33">
    <defs>
     <path d="M 230.072637 -273.116008
L 231.942408 -271.807064
L 231.763929 -274.771363
L 229.891432 -276.126576
z
" id="m11dcb1a461" style="stroke:#000000;"/>
    </defs>
    <g clip-path="url(#p4602a42355)">
     <use style="fill-opacity:0.1;stroke:#000000;" x="0" xlink:href="#m11dcb1a461" y="578.16"/>
    </g>
   </g>
   <g id="Poly3DCollection_34">
    <defs>
     <path d="M 207.873293 -275.700062
L 210.084515 -274.351404
L 210.011974 -269.137708
L 207.799488 -270.404984
z
" id="mf02a7a1fcf" style="stroke:#000000;"/>
    </defs>
    <g clip-path="url(#p4602a42355)">
     <use style="fill-opacity:0.1;stroke:#000000;" x="0" xlink:href="#mf02a7a1fcf" y="578.16"/>
    </g>
   </g>
   <g id="Poly3DCollection_35">
    <defs>
     <path d="M 207.799488 -270.404984
L 210.011974 -269.137708
L 186.86237 -268.705355
L 184.288163 -269.965882
z
" id="mf242710ac5" style="stroke:#000000;"/>
    </defs>
    <g clip-path="url(#p4602a42355)">
     <use style="fill-opacity:0.1;stroke:#000000;" x="0" xlink:href="#mf242710ac5" y="578.16"/>
    </g>
   </g>
   <g id="Poly3DCollection_36">
    <defs>
     <path d="M 184.288163 -269.965882
L 186.86237 -268.705355
L 177.592025 -268.299504
L 174.872958 -269.553694
z
" id="m0523157458" style="stroke:#000000;"/>
    </defs>
    <g clip-path="url(#p4602a42355)">
     <use style="fill-opacity:0.1;stroke:#000000;" x="0" xlink:href="#m0523157458" y="578.16"/>
    </g>
   </g>
   <g id="Poly3DCollection_37">
    <defs>
     <path d="M 174.872958 -269.553694
L 177.592025 -268.299504
L 177.539766 -266.348528
L 174.819823 -267.572262
z
" id="m41d5bf508b" style="stroke:#000000;"/>
    </defs>
    <g clip-path="url(#p4602a42355)">
     <use style="fill-opacity:0.1;stroke:#000000;" x="0" xlink:href="#m41d5bf508b" y="578.16"/>
    </g>
   </g>
   <g id="Poly3DCollection_38">
    <defs>
     <path d="M 174.819823 -267.572262
L 177.539766 -266.348528
L 176.17109 -265.973059
L 173.429749 -267.190931
z
" id="m82d790b010" style="stroke:#000000;"/>
    </defs>
    <g clip-path="url(#p4602a42355)">
     <use style="fill-opacity:0.1;stroke:#000000;" x="0" xlink:href="#m82d790b010" y="578.16"/>
    </g>
   </g>
   <g id="Poly3DCollection_39">
    <defs>
     <path d="M 173.429749 -267.190931
L 176.17109 -265.973059
L 175.123234 -264.864586
L 172.365485 -266.065153
z
" id="mbdc060a109" style="stroke:#000000;"/>
    </defs>
    <g clip-path="url(#p4602a42355)">
     <use style="fill-opacity:0.1;stroke:#000000;" x="0" xlink:href="#mbdc060a109" y="578.16"/>
    </g>
   </g>
   <g id="Poly3DCollection_40">
    <defs>
     <path d="M 172.365485 -266.065153
L 175.123234 -264.864586
L 175.042382 -252.213792
L 172.282975 -253.216826
z
" id="m7164335581" style="stroke:#000000;"/>
    </defs>
    <g clip-path="url(#p4602a42355)">
     <use style="fill-opacity:0.1;stroke:#000000;" x="0" xlink:href="#m7164335581" y="578.16"/>
    </g>
   </g>
   <g id="Poly3DCollection_41">
    <defs>
     <path d="M 172.282975 -253.216826
L 175.042382 -252.213792
L 176.190267 -250.599571
L 173.448749 -251.577397
z
" id="mdf82625872" style="stroke:#000000;"/>
    </defs>
    <g clip-path="url(#p4602a42355)">
     <use style="fill-opacity:0.1;stroke:#000000;" x="0" xlink:href="#mdf82625872" y="578.16"/>
    </g>
   </g>
   <g id="Poly3DCollection_42">
    <defs>
     <path d="M 173.448749 -251.577397
L 176.190267 -250.599571
L 176.478172 -249.033862
L 173.741105 -249.987236
z
" id="mfa640c1c01" style="stroke:#000000;"/>
    </defs>
    <g clip-path="url(#p4602a42355)">
     <use style="fill-opacity:0.1;stroke:#000000;" x="0" xlink:href="#mfa640c1c01" y="578.16"/>
    </g>
   </g>
   <g id="Poly3DCollection_43">
    <defs>
     <path d="M 173.741105 -249.987236
L 176.478172 -249.033862
L 177.207915 -249.35022
L 174.482263 -250.308534
z
" id="mb02b843fb7" style="stroke:#000000;"/>
    </defs>
    <g clip-path="url(#p4602a42355)">
     <use style="fill-opacity:0.1;stroke:#000000;" x="0" xlink:href="#mb02b843fb7" y="578.16"/>
    </g>
   </g>
   <g id="Poly3DCollection_44">
    <defs>
     <path d="M 174.482263 -250.308534
L 177.207915 -249.35022
L 177.741414 -248.366563
L 175.024069 -249.309515
z
" id="m044758256c" style="stroke:#000000;"/>
    </defs>
    <g clip-path="url(#p4602a42355)">
     <use style="fill-opacity:0.1;stroke:#000000;" x="0" xlink:href="#m044758256c" y="578.16"/>
    </g>
   </g>
   <g id="Poly3DCollection_45">
    <defs>
     <path d="M 253.128622 -245.068303
L 254.644167 -244.190573
L 254.003723 -272.014963
L 252.478648 -273.327152
z
" id="m0501a64c9a" style="stroke:#000000;"/>
    </defs>
    <g clip-path="url(#p4602a42355)">
     <use style="fill-opacity:0.1;stroke:#000000;" x="0" xlink:href="#m0501a64c9a" y="578.16"/>
    </g>
   </g>
   <g id="Poly3DCollection_46">
    <defs>
     <path d="M 175.024069 -249.309515
L 177.741414 -248.366563
L 177.392567 -242.593153
L 174.669592 -243.445931
z
" id="mffbc6492b6" style="stroke:#000000;"/>
    </defs>
    <g clip-path="url(#p4602a42355)">
     <use style="fill-opacity:0.1;stroke:#000000;" x="0" xlink:href="#mffbc6492b6" y="578.16"/>
    </g>
   </g>
   <g id="Poly3DCollection_47">
    <defs>
     <path d="M 174.669592 -243.445931
L 177.392567 -242.593153
L 177.49652 -238.629418
L 174.775048 -239.42028
z
" id="mc7ba35438b" style="stroke:#000000;"/>
    </defs>
    <g clip-path="url(#p4602a42355)">
     <use style="fill-opacity:0.1;stroke:#000000;" x="0" xlink:href="#mc7ba35438b" y="578.16"/>
    </g>
   </g>
   <g id="Poly3DCollection_48">
    <defs>
     <path d="M 174.775048 -239.42028
L 177.49652 -238.629418
L 178.988442 -228.29122
L 176.289973 -228.920568
z
" id="m8387e07cf9" style="stroke:#000000;"/>
    </defs>
    <g clip-path="url(#p4602a42355)">
     <use style="fill-opacity:0.1;stroke:#000000;" x="0" xlink:href="#m8387e07cf9" y="578.16"/>
    </g>
   </g>
   <g id="Poly3DCollection_49">
    <defs>
     <path d="M 176.289973 -228.920568
L 178.988442 -228.29122
L 181.202601 -222.322735
L 178.538564 -222.85882
z
" id="meb46253490" style="stroke:#000000;"/>
    </defs>
    <g clip-path="url(#p4602a42355)">
     <use style="fill-opacity:0.1;stroke:#000000;" x="0" xlink:href="#meb46253490" y="578.16"/>
    </g>
   </g>
   <g id="Poly3DCollection_50">
    <defs>
     <path d="M 178.538564 -222.85882
L 181.202601 -222.322735
L 179.800345 -222.163428
L 177.114381 -222.697023
z
" id="mb463906e39" style="stroke:#000000;"/>
    </defs>
    <g clip-path="url(#p4602a42355)">
     <use style="fill-opacity:0.1;stroke:#000000;" x="0" xlink:href="#mb463906e39" y="578.16"/>
    </g>
   </g>
   <g id="Poly3DCollection_51">
    <defs>
     <path d="M 177.114381 -222.697023
L 179.800345 -222.163428
L 179.860484 -217.437023
L 177.175318 -217.896754
z
" id="m0869aa94bb" style="stroke:#000000;"/>
    </defs>
    <g clip-path="url(#p4602a42355)">
     <use style="fill-opacity:0.1;stroke:#000000;" x="0" xlink:href="#m0869aa94bb" y="578.16"/>
    </g>
   </g>
   <g id="Poly3DCollection_52">
    <defs>
     <path d="M 177.175318 -217.896754
L 179.860484 -217.437023
L 182.081974 -217.35923
L 179.431535 -217.817746
z
" id="ma2857d14f8" style="stroke:#000000;"/>
    </defs>
    <g clip-path="url(#p4602a42355)">
     <use style="fill-opacity:0.1;stroke:#000000;" x="0" xlink:href="#ma2857d14f8" y="578.16"/>
    </g>
   </g>
   <g id="Poly3DCollection_53">
    <defs>
     <path d="M 179.431535 -217.817746
L 182.081974 -217.35923
L 182.102477 -214.042127
L 179.45226 -214.448799
z
" id="m7da5dacb89" style="stroke:#000000;"/>
    </defs>
    <g clip-path="url(#p4602a42355)">
     <use style="fill-opacity:0.1;stroke:#000000;" x="0" xlink:href="#m7da5dacb89" y="578.16"/>
    </g>
   </g>
   <g id="Poly3DCollection_54">
    <defs>
     <path d="M 255.075895 -201.743535
L 256.56218 -201.532417
L 254.644167 -244.190573
L 253.128622 -245.068303
z
" id="mba21e00ddf" style="stroke:#000000;"/>
    </defs>
    <g clip-path="url(#p4602a42355)">
     <use style="fill-opacity:0.1;stroke:#000000;" x="0" xlink:href="#mba21e00ddf" y="578.16"/>
    </g>
   </g>
   <g id="Poly3DCollection_55">
    <defs>
     <path d="M 241.839878 -201.88543
L 243.529942 -201.672128
L 256.56218 -201.532417
L 255.075895 -201.743535
z
" id="m2fc5da74a0" style="stroke:#000000;"/>
    </defs>
    <g clip-path="url(#p4602a42355)">
     <use style="fill-opacity:0.1;stroke:#000000;" x="0" xlink:href="#m2fc5da74a0" y="578.16"/>
    </g>
   </g>
   <g id="Poly3DCollection_56">
    <defs>
     <path d="M 253.128622 -245.068303
L 252.478648 -273.327152
L 241.449776 -273.17545
L 230.072637 -273.116008
L 229.891432 -276.126576
L 207.873293 -275.700062
L 207.799488 -270.404984
L 184.288163 -269.965882
L 174.872958 -269.553694
L 174.819823 -267.572262
L 173.429749 -267.190931
L 172.365485 -266.065153
L 172.282975 -253.216826
L 173.448749 -251.577397
L 173.741105 -249.987236
L 174.482263 -250.308534
L 175.024069 -249.309515
L 174.669592 -243.445931
L 174.775048 -239.42028
L 176.289973 -228.920568
L 178.538564 -222.85882
L 177.114381 -222.697023
L 177.175318 -217.896754
L 179.431535 -217.817746
L 179.45226 -214.448799
L 179.480822 -201.094737
L 241.839878 -201.88543
L 255.075895 -201.743535
z
" id="m241e7cfc8a" style="stroke:#000000;"/>
    </defs>
    <g clip-path="url(#p4602a42355)">
     <use style="fill-opacity:0.1;stroke:#000000;" x="0" xlink:href="#m241e7cfc8a" y="578.16"/>
    </g>
   </g>
   <g id="Poly3DCollection_57">
    <defs>
     <path d="M 179.45226 -214.448799
L 182.102477 -214.042127
L 182.130988 -200.893606
L 179.480822 -201.094737
z
" id="m64715f76d0" style="stroke:#000000;"/>
    </defs>
    <g clip-path="url(#p4602a42355)">
     <use style="fill-opacity:0.1;stroke:#000000;" x="0" xlink:href="#m64715f76d0" y="578.16"/>
    </g>
   </g>
   <g id="Poly3DCollection_58">
    <defs>
     <path d="M 179.480822 -201.094737
L 182.130988 -200.893606
L 243.529942 -201.672128
L 241.839878 -201.88543
z
" id="mcd91de841b" style="stroke:#000000;"/>
    </defs>
    <g clip-path="url(#p4602a42355)">
     <use style="fill-opacity:0.1;stroke:#000000;" x="0" xlink:href="#mcd91de841b" y="578.16"/>
    </g>
   </g>
  </g>
 </g>
 <defs>
  <clipPath id="p4602a42355">
   <rect height="578.16" width="578.16" x="54.72" y="0"/>
  </clipPath>
 </defs>
</svg>
