<?xml version="1.0" encoding="utf-8" standalone="no"?>
<!DOCTYPE svg PUBLIC "-//W3C//DTD SVG 1.1//EN"
  "http://www.w3.org/Graphics/SVG/1.1/DTD/svg11.dtd">
<!-- Created with matplotlib (https://matplotlib.org/) -->
<svg height="578.16pt" version="1.1" viewBox="0 0 687.6 578.16" width="687.6pt" xmlns="http://www.w3.org/2000/svg" xmlns:xlink="http://www.w3.org/1999/xlink">
 <metadata>
  <rdf:RDF xmlns:cc="http://creativecommons.org/ns#" xmlns:dc="http://purl.org/dc/elements/1.1/" xmlns:rdf="http://www.w3.org/1999/02/22-rdf-syntax-ns#">
   <cc:Work>
    <dc:type rdf:resource="http://purl.org/dc/dcmitype/StillImage"/>
    <dc:date>2020-11-03T20:14:08.050833</dc:date>
    <dc:format>image/svg+xml</dc:format>
    <dc:creator>
     <cc:Agent>
      <dc:title>Matplotlib v3.3.1, https://matplotlib.org/</dc:title>
     </cc:Agent>
    </dc:creator>
   </cc:Work>
  </rdf:RDF>
 </metadata>
 <defs>
  <style type="text/css">*{stroke-linecap:butt;stroke-linejoin:round;}</style>
 </defs>
 <g id="figure_1">
  <g id="patch_1">
   <path d="M 0 578.16
L 687.6 578.16
L 687.6 0
L 0 0
z
" style="fill:#ffffff;"/>
  </g>
  <g id="patch_2">
   <path d="M 54.72 578.16
L 632.88 578.16
L 632.88 0
L 54.72 0
z
" style="fill:#ffffff;"/>
  </g>
  <g id="pane3d_1">
   <g id="patch_3">
    <path d="M 594.620528 453.283503
L 444.046691 253.732154
L 448.726058 34.581291
L 608.077599 224.606944
" style="fill:#f2f2f2;opacity:0.5;stroke:#f2f2f2;stroke-linejoin:miter;"/>
   </g>
  </g>
  <g id="pane3d_2">
   <g id="patch_4">
    <path d="M 120.642254 332.294805
L 444.046691 253.732154
L 448.726058 34.581291
L 108.518553 109.189063
" style="fill:#e6e6e6;opacity:0.5;stroke:#e6e6e6;stroke-linejoin:miter;"/>
   </g>
  </g>
  <g id="pane3d_3">
   <g id="patch_5">
    <path d="M 247.104795 546.737706
L 594.620528 453.283503
L 444.046691 253.732154
L 120.642254 332.294805
" style="fill:#ececec;opacity:0.5;stroke:#ececec;stroke-linejoin:miter;"/>
   </g>
  </g>
  <g id="axis3d_1">
   <g id="line2d_1">
    <path d="M 594.620528 453.283503
L 247.104795 546.737706
" style="fill:none;stroke:#000000;stroke-linecap:square;stroke-width:0.8;"/>
   </g>
   <g id="Line3DCollection_1">
    <path d="M 260.369858 543.170455
L 132.949959 329.30497
L 121.487848 106.344886
" style="fill:none;stroke:#b0b0b0;stroke-width:0.8;"/>
    <path d="M 301.849421 532.015738
L 171.454789 319.951229
L 162.051151 97.449322
" style="fill:none;stroke:#b0b0b0;stroke-width:0.8;"/>
    <path d="M 342.965181 520.958856
L 209.650195 310.672653
L 202.271547 88.628958
" style="fill:none;stroke:#b0b0b0;stroke-width:0.8;"/>
    <path d="M 383.721902 509.998527
L 247.539894 301.468342
L 242.153366 79.882844
" style="fill:none;stroke:#b0b0b0;stroke-width:0.8;"/>
    <path d="M 424.124268 499.133491
L 285.12754 292.337406
L 281.700866 71.210046
" style="fill:none;stroke:#b0b0b0;stroke-width:0.8;"/>
    <path d="M 464.176879 488.362511
L 322.416732 283.278972
L 320.918231 62.609648
" style="fill:none;stroke:#b0b0b0;stroke-width:0.8;"/>
    <path d="M 503.884258 477.684372
L 359.411009 274.292179
L 359.80958 54.080744
" style="fill:none;stroke:#b0b0b0;stroke-width:0.8;"/>
    <path d="M 543.250849 467.097877
L 396.113857 265.376182
L 398.378961 45.622449
" style="fill:none;stroke:#b0b0b0;stroke-width:0.8;"/>
    <path d="M 582.28102 456.601853
L 432.528706 256.530147
L 436.630355 37.233889
" style="fill:none;stroke:#b0b0b0;stroke-width:0.8;"/>
   </g>
   <g id="xtick_1">
    <g id="line2d_2">
     <path d="M 259.257296 541.303096
L 262.599915 546.913452
" style="fill:none;stroke:#000000;stroke-linecap:square;stroke-width:0.8;"/>
    </g>
    <g id="text_1">
     <!-- −80 -->
     <g transform="translate(255.330078 568.107561)scale(0.1 -0.1)">
      <defs>
       <path d="M 10.59375 35.5
L 73.1875 35.5
L 73.1875 27.203125
L 10.59375 27.203125
z
" id="DejaVuSans-8722"/>
       <path d="M 31.78125 34.625
Q 24.75 34.625 20.71875 30.859375
Q 16.703125 27.09375 16.703125 20.515625
Q 16.703125 13.921875 20.71875 10.15625
Q 24.75 6.390625 31.78125 6.390625
Q 38.8125 6.390625 42.859375 10.171875
Q 46.921875 13.96875 46.921875 20.515625
Q 46.921875 27.09375 42.890625 30.859375
Q 38.875 34.625 31.78125 34.625
z
M 21.921875 38.8125
Q 15.578125 40.375 12.03125 44.71875
Q 8.5 49.078125 8.5 55.328125
Q 8.5 64.0625 14.71875 69.140625
Q 20.953125 74.21875 31.78125 74.21875
Q 42.671875 74.21875 48.875 69.140625
Q 55.078125 64.0625 55.078125 55.328125
Q 55.078125 49.078125 51.53125 44.71875
Q 48 40.375 41.703125 38.8125
Q 48.828125 37.15625 52.796875 32.3125
Q 56.78125 27.484375 56.78125 20.515625
Q 56.78125 9.90625 50.3125 4.234375
Q 43.84375 -1.421875 31.78125 -1.421875
Q 19.734375 -1.421875 13.25 4.234375
Q 6.78125 9.90625 6.78125 20.515625
Q 6.78125 27.484375 10.78125 32.3125
Q 14.796875 37.15625 21.921875 38.8125
z
M 18.3125 54.390625
Q 18.3125 48.734375 21.84375 45.5625
Q 25.390625 42.390625 31.78125 42.390625
Q 38.140625 42.390625 41.71875 45.5625
Q 45.3125 48.734375 45.3125 54.390625
Q 45.3125 60.0625 41.71875 63.234375
Q 38.140625 66.40625 31.78125 66.40625
Q 25.390625 66.40625 21.84375 63.234375
Q 18.3125 60.0625 18.3125 54.390625
z
" id="DejaVuSans-56"/>
       <path d="M 31.78125 66.40625
Q 24.171875 66.40625 20.328125 58.90625
Q 16.5 51.421875 16.5 36.375
Q 16.5 21.390625 20.328125 13.890625
Q 24.171875 6.390625 31.78125 6.390625
Q 39.453125 6.390625 43.28125 13.890625
Q 47.125 21.390625 47.125 36.375
Q 47.125 51.421875 43.28125 58.90625
Q 39.453125 66.40625 31.78125 66.40625
z
M 31.78125 74.21875
Q 44.046875 74.21875 50.515625 64.515625
Q 56.984375 54.828125 56.984375 36.375
Q 56.984375 17.96875 50.515625 8.265625
Q 44.046875 -1.421875 31.78125 -1.421875
Q 19.53125 -1.421875 13.0625 8.265625
Q 6.59375 17.96875 6.59375 36.375
Q 6.59375 54.828125 13.0625 64.515625
Q 19.53125 74.21875 31.78125 74.21875
z
" id="DejaVuSans-48"/>
      </defs>
      <use xlink:href="#DejaVuSans-8722"/>
      <use x="83.789062" xlink:href="#DejaVuSans-56"/>
      <use x="147.412109" xlink:href="#DejaVuSans-48"/>
     </g>
    </g>
   </g>
   <g id="xtick_2">
    <g id="line2d_3">
     <path d="M 300.711305 530.164788
L 304.130677 535.72581
" style="fill:none;stroke:#000000;stroke-linecap:square;stroke-width:0.8;"/>
    </g>
    <g id="text_2">
     <!-- −60 -->
     <g transform="translate(296.845084 556.860293)scale(0.1 -0.1)">
      <defs>
       <path d="M 33.015625 40.375
Q 26.375 40.375 22.484375 35.828125
Q 18.609375 31.296875 18.609375 23.390625
Q 18.609375 15.53125 22.484375 10.953125
Q 26.375 6.390625 33.015625 6.390625
Q 39.65625 6.390625 43.53125 10.953125
Q 47.40625 15.53125 47.40625 23.390625
Q 47.40625 31.296875 43.53125 35.828125
Q 39.65625 40.375 33.015625 40.375
z
M 52.59375 71.296875
L 52.59375 62.3125
Q 48.875 64.0625 45.09375 64.984375
Q 41.3125 65.921875 37.59375 65.921875
Q 27.828125 65.921875 22.671875 59.328125
Q 17.53125 52.734375 16.796875 39.40625
Q 19.671875 43.65625 24.015625 45.921875
Q 28.375 48.1875 33.59375 48.1875
Q 44.578125 48.1875 50.953125 41.515625
Q 57.328125 34.859375 57.328125 23.390625
Q 57.328125 12.15625 50.6875 5.359375
Q 44.046875 -1.421875 33.015625 -1.421875
Q 20.359375 -1.421875 13.671875 8.265625
Q 6.984375 17.96875 6.984375 36.375
Q 6.984375 53.65625 15.1875 63.9375
Q 23.390625 74.21875 37.203125 74.21875
Q 40.921875 74.21875 44.703125 73.484375
Q 48.484375 72.75 52.59375 71.296875
z
" id="DejaVuSans-54"/>
      </defs>
      <use xlink:href="#DejaVuSans-8722"/>
      <use x="83.789062" xlink:href="#DejaVuSans-54"/>
      <use x="147.412109" xlink:href="#DejaVuSans-48"/>
     </g>
    </g>
   </g>
   <g id="xtick_3">
    <g id="line2d_4">
     <path d="M 341.802 519.124098
L 345.296653 524.636436
" style="fill:none;stroke:#000000;stroke-linecap:square;stroke-width:0.8;"/>
    </g>
    <g id="text_3">
     <!-- −40 -->
     <g transform="translate(337.995452 545.711813)scale(0.1 -0.1)">
      <defs>
       <path d="M 37.796875 64.3125
L 12.890625 25.390625
L 37.796875 25.390625
z
M 35.203125 72.90625
L 47.609375 72.90625
L 47.609375 25.390625
L 58.015625 25.390625
L 58.015625 17.1875
L 47.609375 17.1875
L 47.609375 0
L 37.796875 0
L 37.796875 17.1875
L 4.890625 17.1875
L 4.890625 26.703125
z
" id="DejaVuSans-52"/>
      </defs>
      <use xlink:href="#DejaVuSans-8722"/>
      <use x="83.789062" xlink:href="#DejaVuSans-52"/>
      <use x="147.412109" xlink:href="#DejaVuSans-48"/>
     </g>
    </g>
   </g>
   <g id="xtick_4">
    <g id="line2d_5">
     <path d="M 382.534138 508.17975
L 386.102628 513.644039
" style="fill:none;stroke:#000000;stroke-linecap:square;stroke-width:0.8;"/>
    </g>
    <g id="text_4">
     <!-- −20 -->
     <g transform="translate(378.785968 534.660825)scale(0.1 -0.1)">
      <defs>
       <path d="M 19.1875 8.296875
L 53.609375 8.296875
L 53.609375 0
L 7.328125 0
L 7.328125 8.296875
Q 12.9375 14.109375 22.625 23.890625
Q 32.328125 33.6875 34.8125 36.53125
Q 39.546875 41.84375 41.421875 45.53125
Q 43.3125 49.21875 43.3125 52.78125
Q 43.3125 58.59375 39.234375 62.25
Q 35.15625 65.921875 28.609375 65.921875
Q 23.96875 65.921875 18.8125 64.3125
Q 13.671875 62.703125 7.8125 59.421875
L 7.8125 69.390625
Q 13.765625 71.78125 18.9375 73
Q 24.125 74.21875 28.421875 74.21875
Q 39.75 74.21875 46.484375 68.546875
Q 53.21875 62.890625 53.21875 53.421875
Q 53.21875 48.921875 51.53125 44.890625
Q 49.859375 40.875 45.40625 35.40625
Q 44.1875 33.984375 37.640625 27.21875
Q 31.109375 20.453125 19.1875 8.296875
z
" id="DejaVuSans-50"/>
      </defs>
      <use xlink:href="#DejaVuSans-8722"/>
      <use x="83.789062" xlink:href="#DejaVuSans-50"/>
      <use x="147.412109" xlink:href="#DejaVuSans-48"/>
     </g>
    </g>
   </g>
   <g id="xtick_5">
    <g id="line2d_6">
     <path d="M 422.91239 497.330487
L 426.553304 502.747354
" style="fill:none;stroke:#000000;stroke-linecap:square;stroke-width:0.8;"/>
    </g>
    <g id="text_5">
     <!-- 0 -->
     <g transform="translate(426.592423 523.706055)scale(0.1 -0.1)">
      <use xlink:href="#DejaVuSans-48"/>
     </g>
    </g>
   </g>
   <g id="xtick_6">
    <g id="line2d_7">
     <path d="M 462.941348 486.575076
L 466.6533 491.945135
" style="fill:none;stroke:#000000;stroke-linecap:square;stroke-width:0.8;"/>
    </g>
    <g id="text_6">
     <!-- 20 -->
     <g transform="translate(463.495998 512.846252)scale(0.1 -0.1)">
      <use xlink:href="#DejaVuSans-50"/>
      <use x="63.623047" xlink:href="#DejaVuSans-48"/>
     </g>
    </g>
   </g>
   <g id="xtick_7">
    <g id="line2d_8">
     <path d="M 502.625526 475.912305
L 506.407159 481.23616
" style="fill:none;stroke:#000000;stroke-linecap:square;stroke-width:0.8;"/>
    </g>
    <g id="text_7">
     <!-- 40 -->
     <g transform="translate(503.234827 502.080188)scale(0.1 -0.1)">
      <use xlink:href="#DejaVuSans-52"/>
      <use x="63.623047" xlink:href="#DejaVuSans-48"/>
     </g>
    </g>
   </g>
   <g id="xtick_8">
    <g id="line2d_9">
     <path d="M 541.969358 465.340981
L 545.819341 470.619226
" style="fill:none;stroke:#000000;stroke-linecap:square;stroke-width:0.8;"/>
    </g>
    <g id="text_8">
     <!-- 60 -->
     <g transform="translate(542.632119 491.406652)scale(0.1 -0.1)">
      <use xlink:href="#DejaVuSans-54"/>
      <use x="63.623047" xlink:href="#DejaVuSans-48"/>
     </g>
    </g>
   </g>
   <g id="xtick_9">
    <g id="line2d_10">
     <path d="M 580.977205 454.859934
L 584.894234 460.093152
" style="fill:none;stroke:#000000;stroke-linecap:square;stroke-width:0.8;"/>
    </g>
    <g id="text_9">
     <!-- 80 -->
     <g transform="translate(581.692259 480.824458)scale(0.1 -0.1)">
      <use xlink:href="#DejaVuSans-56"/>
      <use x="63.623047" xlink:href="#DejaVuSans-48"/>
     </g>
    </g>
   </g>
  </g>
  <g id="axis3d_2">
   <g id="line2d_11">
    <path d="M 120.642254 332.294805
L 247.104795 546.737706
" style="fill:none;stroke:#000000;stroke-linecap:square;stroke-width:0.8;"/>
   </g>
   <g id="Line3DCollection_2">
    <path d="M 601.682142 216.980404
L 588.603487 445.309284
L 242.036096 538.142698
" style="fill:none;stroke:#b0b0b0;stroke-width:0.8;"/>
    <path d="M 581.851072 193.331985
L 569.931971 420.56444
L 226.315444 511.485142
" style="fill:none;stroke:#b0b0b0;stroke-width:0.8;"/>
    <path d="M 562.440616 170.185146
L 551.636181 396.317534
L 210.922948 485.384041
" style="fill:none;stroke:#b0b0b0;stroke-width:0.8;"/>
    <path d="M 543.437534 147.524096
L 533.704887 372.553686
L 195.848438 459.822152
" style="fill:none;stroke:#b0b0b0;stroke-width:0.8;"/>
    <path d="M 524.829133 125.333702
L 516.127306 349.258603
L 181.082163 434.782936
" style="fill:none;stroke:#b0b0b0;stroke-width:0.8;"/>
    <path d="M 506.603245 103.599451
L 498.893074 326.41855
L 166.614764 410.250524
" style="fill:none;stroke:#b0b0b0;stroke-width:0.8;"/>
    <path d="M 488.748194 82.307422
L 481.992226 304.020324
L 152.437257 386.209685
" style="fill:none;stroke:#b0b0b0;stroke-width:0.8;"/>
    <path d="M 471.252777 61.444254
L 465.415184 282.051228
L 138.541016 362.645789
" style="fill:none;stroke:#b0b0b0;stroke-width:0.8;"/>
    <path d="M 454.106237 40.997119
L 449.152729 260.499044
L 124.917754 339.544784
" style="fill:none;stroke:#b0b0b0;stroke-width:0.8;"/>
   </g>
   <g id="xtick_10">
    <g id="line2d_12">
     <path d="M 244.913476 537.371947
L 236.276067 539.68561
" style="fill:none;stroke:#000000;stroke-linecap:square;stroke-width:0.8;"/>
    </g>
    <g id="text_10">
     <!-- −80 -->
     <g transform="translate(217.979173 557.800664)scale(0.1 -0.1)">
      <use xlink:href="#DejaVuSans-8722"/>
      <use x="83.789062" xlink:href="#DejaVuSans-56"/>
      <use x="147.412109" xlink:href="#DejaVuSans-48"/>
     </g>
    </g>
   </g>
   <g id="xtick_11">
    <g id="line2d_13">
     <path d="M 229.167228 510.730562
L 220.606708 512.99567
" style="fill:none;stroke:#000000;stroke-linecap:square;stroke-width:0.8;"/>
    </g>
    <g id="text_11">
     <!-- −60 -->
     <g transform="translate(202.410465 531.032264)scale(0.1 -0.1)">
      <use xlink:href="#DejaVuSans-8722"/>
      <use x="83.789062" xlink:href="#DejaVuSans-54"/>
      <use x="147.412109" xlink:href="#DejaVuSans-48"/>
     </g>
    </g>
   </g>
   <g id="xtick_12">
    <g id="line2d_14">
     <path d="M 213.749572 484.645128
L 205.26463 486.863193
" style="fill:none;stroke:#000000;stroke-linecap:square;stroke-width:0.8;"/>
    </g>
    <g id="text_12">
     <!-- −40 -->
     <g transform="translate(187.166545 504.822295)scale(0.1 -0.1)">
      <use xlink:href="#DejaVuSans-8722"/>
      <use x="83.789062" xlink:href="#DejaVuSans-52"/>
      <use x="147.412109" xlink:href="#DejaVuSans-48"/>
     </g>
    </g>
   </g>
   <g id="xtick_13">
    <g id="line2d_15">
     <path d="M 198.650329 459.098422
L 190.239684 461.270895
" style="fill:none;stroke:#000000;stroke-linecap:square;stroke-width:0.8;"/>
    </g>
    <g id="text_13">
     <!-- −20 -->
     <g transform="translate(172.237355 479.153463)scale(0.1 -0.1)">
      <use xlink:href="#DejaVuSans-8722"/>
      <use x="83.789062" xlink:href="#DejaVuSans-50"/>
      <use x="147.412109" xlink:href="#DejaVuSans-48"/>
     </g>
    </g>
   </g>
   <g id="xtick_14">
    <g id="line2d_16">
     <path d="M 183.859735 434.073927
L 175.52214 436.202199
" style="fill:none;stroke:#000000;stroke-linecap:square;stroke-width:0.8;"/>
    </g>
    <g id="text_14">
     <!-- 0 -->
     <g transform="translate(164.98434 454.009181)scale(0.1 -0.1)">
      <use xlink:href="#DejaVuSans-48"/>
     </g>
    </g>
   </g>
   <g id="xtick_15">
    <g id="line2d_17">
     <path d="M 169.368423 409.555791
L 161.102657 411.641198
" style="fill:none;stroke:#000000;stroke-linecap:square;stroke-width:0.8;"/>
    </g>
    <g id="text_15">
     <!-- 20 -->
     <g transform="translate(147.474806 429.373532)scale(0.1 -0.1)">
      <use xlink:href="#DejaVuSans-50"/>
      <use x="63.623047" xlink:href="#DejaVuSans-48"/>
     </g>
    </g>
   </g>
   <g id="xtick_16">
    <g id="line2d_18">
     <path d="M 155.1674 385.528801
L 146.972273 387.572625
" style="fill:none;stroke:#000000;stroke-linecap:square;stroke-width:0.8;"/>
    </g>
    <g id="text_16">
     <!-- 40 -->
     <g transform="translate(133.433462 405.231237)scale(0.1 -0.1)">
      <use xlink:href="#DejaVuSans-52"/>
      <use x="63.623047" xlink:href="#DejaVuSans-48"/>
     </g>
    </g>
   </g>
   <g id="xtick_17">
    <g id="line2d_19">
     <path d="M 141.248029 361.978345
L 133.122379 363.981816
" style="fill:none;stroke:#000000;stroke-linecap:square;stroke-width:0.8;"/>
    </g>
    <g id="text_17">
     <!-- 60 -->
     <g transform="translate(119.670522 381.567623)scale(0.1 -0.1)">
      <use xlink:href="#DejaVuSans-54"/>
      <use x="63.623047" xlink:href="#DejaVuSans-48"/>
     </g>
    </g>
   </g>
   <g id="xtick_18">
    <g id="line2d_20">
     <path d="M 127.602013 338.890384
L 119.544705 340.854687
" style="fill:none;stroke:#000000;stroke-linecap:square;stroke-width:0.8;"/>
    </g>
    <g id="text_18">
     <!-- 80 -->
     <g transform="translate(106.177788 358.368595)scale(0.1 -0.1)">
      <use xlink:href="#DejaVuSans-56"/>
      <use x="63.623047" xlink:href="#DejaVuSans-48"/>
     </g>
    </g>
   </g>
  </g>
  <g id="axis3d_3">
   <g id="line2d_21">
    <path d="M 120.642254 332.294805
L 108.518553 109.189063
" style="fill:none;stroke:#000000;stroke-linecap:square;stroke-width:0.8;"/>
   </g>
   <g id="Line3DCollection_3">
    <path d="M 119.882207 318.30808
L 444.340533 239.970493
L 595.462002 438.984301
" style="fill:none;stroke:#b0b0b0;stroke-width:0.8;"/>
    <path d="M 118.531728 293.455977
L 444.862482 215.52585
L 596.957875 413.564874
" style="fill:none;stroke:#b0b0b0;stroke-width:0.8;"/>
    <path d="M 117.165417 268.31251
L 445.39034 190.80446
L 598.472214 387.831655
" style="fill:none;stroke:#b0b0b0;stroke-width:0.8;"/>
    <path d="M 115.782993 242.872525
L 445.924207 165.801596
L 600.005362 361.778797
" style="fill:none;stroke:#b0b0b0;stroke-width:0.8;"/>
    <path d="M 114.384169 217.130746
L 446.464188 140.512423
L 601.557674 335.400309
" style="fill:none;stroke:#b0b0b0;stroke-width:0.8;"/>
    <path d="M 112.968652 191.081771
L 447.010389 114.931994
L 603.129509 308.690046
" style="fill:none;stroke:#b0b0b0;stroke-width:0.8;"/>
    <path d="M 111.536141 164.720067
L 447.562916 89.05525
L 604.721239 281.641709
" style="fill:none;stroke:#b0b0b0;stroke-width:0.8;"/>
    <path d="M 110.086329 138.039969
L 448.12188 62.877012
L 606.333244 254.24884
" style="fill:none;stroke:#b0b0b0;stroke-width:0.8;"/>
   </g>
   <g id="xtick_19">
    <g id="line2d_22">
     <path d="M 122.56833 317.659539
L 114.505426 319.606256
" style="fill:none;stroke:#000000;stroke-linecap:square;stroke-width:0.8;"/>
    </g>
    <g id="text_19">
     <!-- −60 -->
     <g transform="translate(92.102705 321.535204)scale(0.1 -0.1)">
      <use xlink:href="#DejaVuSans-8722"/>
      <use x="83.789062" xlink:href="#DejaVuSans-54"/>
      <use x="147.412109" xlink:href="#DejaVuSans-48"/>
     </g>
    </g>
   </g>
   <g id="xtick_20">
    <g id="line2d_23">
     <path d="M 121.233884 292.810683
L 113.122831 294.74766
" style="fill:none;stroke:#000000;stroke-linecap:square;stroke-width:0.8;"/>
    </g>
    <g id="text_20">
     <!-- −40 -->
     <g transform="translate(90.654595 296.705025)scale(0.1 -0.1)">
      <use xlink:href="#DejaVuSans-8722"/>
      <use x="83.789062" xlink:href="#DejaVuSans-52"/>
      <use x="147.412109" xlink:href="#DejaVuSans-48"/>
     </g>
    </g>
   </g>
   <g id="xtick_21">
    <g id="line2d_24">
     <path d="M 119.883796 267.670583
L 111.724017 269.597459
" style="fill:none;stroke:#000000;stroke-linecap:square;stroke-width:0.8;"/>
    </g>
    <g id="text_21">
     <!-- −20 -->
     <g transform="translate(89.18954 271.584298)scale(0.1 -0.1)">
      <use xlink:href="#DejaVuSans-8722"/>
      <use x="83.789062" xlink:href="#DejaVuSans-50"/>
      <use x="147.412109" xlink:href="#DejaVuSans-48"/>
     </g>
    </g>
   </g>
   <g id="xtick_22">
    <g id="line2d_25">
     <path d="M 118.517792 242.234091
L 110.308698 244.15049
" style="fill:none;stroke:#000000;stroke-linecap:square;stroke-width:0.8;"/>
    </g>
    <g id="text_22">
     <!-- 0 -->
     <g transform="translate(95.078334 246.167892)scale(0.1 -0.1)">
      <use xlink:href="#DejaVuSans-48"/>
     </g>
    </g>
   </g>
   <g id="xtick_23">
    <g id="line2d_26">
     <path d="M 117.135587 216.495932
L 108.876579 218.401471
" style="fill:none;stroke:#000000;stroke-linecap:square;stroke-width:0.8;"/>
    </g>
    <g id="text_23">
     <!-- 20 -->
     <g transform="translate(90.397235 220.450556)scale(0.1 -0.1)">
      <use xlink:href="#DejaVuSans-50"/>
      <use x="63.623047" xlink:href="#DejaVuSans-48"/>
     </g>
    </g>
   </g>
   <g id="xtick_24">
    <g id="line2d_27">
     <path d="M 115.736893 190.450709
L 107.42736 192.344991
" style="fill:none;stroke:#000000;stroke-linecap:square;stroke-width:0.8;"/>
    </g>
    <g id="text_24">
     <!-- 40 -->
     <g transform="translate(88.879521 194.426914)scale(0.1 -0.1)">
      <use xlink:href="#DejaVuSans-52"/>
      <use x="63.623047" xlink:href="#DejaVuSans-48"/>
     </g>
    </g>
   </g>
   <g id="xtick_25">
    <g id="line2d_28">
     <path d="M 114.321411 164.092894
L 105.960732 165.975509
" style="fill:none;stroke:#000000;stroke-linecap:square;stroke-width:0.8;"/>
    </g>
    <g id="text_25">
     <!-- 60 -->
     <g transform="translate(87.343622 168.09146)scale(0.1 -0.1)">
      <use xlink:href="#DejaVuSans-54"/>
      <use x="63.623047" xlink:href="#DejaVuSans-48"/>
     </g>
    </g>
   </g>
   <g id="xtick_26">
    <g id="line2d_29">
     <path d="M 112.888838 137.416825
L 104.47638 139.287353
" style="fill:none;stroke:#000000;stroke-linecap:square;stroke-width:0.8;"/>
    </g>
    <g id="text_26">
     <!-- 80 -->
     <g transform="translate(85.78921 141.438558)scale(0.1 -0.1)">
      <use xlink:href="#DejaVuSans-56"/>
      <use x="63.623047" xlink:href="#DejaVuSans-48"/>
     </g>
    </g>
   </g>
  </g>
  <g id="axes_1">
   <g id="Poly3DCollection_1">
    <defs>
     <path d="M 476.278641 -403.662236
L 475.190774 -365.194883
L 446.145596 -358.21087
L 446.980437 -396.739614
z
" id="mb693f9bf26" style="stroke:#000000;"/>
    </defs>
    <g clip-path="url(#pa9e60f39fd)">
     <use style="fill-opacity:0.1;stroke:#000000;" x="0" xlink:href="#mb693f9bf26" y="578.16"/>
    </g>
   </g>
   <g id="Poly3DCollection_2">
    <defs>
     <path d="M 446.980437 -396.739614
L 446.145596 -358.21087
L 453.59834 -348.53934
L 454.502977 -387.152458
z
" id="m9d23e46cf5" style="stroke:#000000;"/>
    </defs>
    <g clip-path="url(#pa9e60f39fd)">
     <use style="fill-opacity:0.1;stroke:#000000;" x="0" xlink:href="#m9d23e46cf5" y="578.16"/>
    </g>
   </g>
   <g id="Poly3DCollection_3">
    <defs>
     <path d="M 454.502977 -387.152458
L 453.59834 -348.53934
L 429.963598 -342.838764
L 430.66039 -381.501267
z
" id="meea0ce92d7" style="stroke:#000000;"/>
    </defs>
    <g clip-path="url(#pa9e60f39fd)">
     <use style="fill-opacity:0.1;stroke:#000000;" x="0" xlink:href="#meea0ce92d7" y="578.16"/>
    </g>
   </g>
   <g id="Poly3DCollection_4">
    <defs>
     <path d="M 430.66039 -381.501267
L 429.963598 -342.838764
L 424.115228 -350.548068
L 424.757754 -389.143723
z
" id="m55f1560a96" style="stroke:#000000;"/>
    </defs>
    <g clip-path="url(#pa9e60f39fd)">
     <use style="fill-opacity:0.1;stroke:#000000;" x="0" xlink:href="#m55f1560a96" y="578.16"/>
    </g>
   </g>
   <g id="Poly3DCollection_5">
    <defs>
     <path d="M 424.757754 -389.143723
L 424.115228 -350.548068
L 391.822251 -342.777617
L 392.179852 -381.440648
z
" id="m7e786cdd97" style="stroke:#000000;"/>
    </defs>
    <g clip-path="url(#pa9e60f39fd)">
     <use style="fill-opacity:0.1;stroke:#000000;" x="0" xlink:href="#m7e786cdd97" y="578.16"/>
    </g>
   </g>
   <g id="Poly3DCollection_6">
    <defs>
     <path d="M 497.30403 -377.418113
L 496.017407 -338.72009
L 475.190774 -365.194883
L 476.278641 -403.662236
z
" id="m04952ae0c3" style="stroke:#000000;"/>
    </defs>
    <g clip-path="url(#pa9e60f39fd)">
     <use style="fill-opacity:0.1;stroke:#000000;" x="0" xlink:href="#m04952ae0c3" y="578.16"/>
    </g>
   </g>
   <g id="Poly3DCollection_7">
    <defs>
     <path d="M 491.277898 -375.977019
L 490.043688 -337.266491
L 496.017407 -338.72009
L 497.30403 -377.418113
z
" id="m971abf417f" style="stroke:#000000;"/>
    </defs>
    <g clip-path="url(#pa9e60f39fd)">
     <use style="fill-opacity:0.1;stroke:#000000;" x="0" xlink:href="#m971abf417f" y="578.16"/>
    </g>
   </g>
   <g id="Poly3DCollection_8">
    <defs>
     <path d="M 392.179852 -381.440648
L 391.822251 -342.777617
L 395.960881 -337.189004
L 396.356289 -375.900198
z
" id="m62bf32a6f3" style="stroke:#000000;"/>
    </defs>
    <g clip-path="url(#pa9e60f39fd)">
     <use style="fill-opacity:0.1;stroke:#000000;" x="0" xlink:href="#m62bf32a6f3" y="578.16"/>
    </g>
   </g>
   <g id="Poly3DCollection_9">
    <defs>
     <path d="M 396.356289 -375.900198
L 395.960881 -337.189004
L 393.787349 -336.659185
L 394.163467 -375.374932
z
" id="m294b53fe67" style="stroke:#000000;"/>
    </defs>
    <g clip-path="url(#pa9e60f39fd)">
     <use style="fill-opacity:0.1;stroke:#000000;" x="0" xlink:href="#m294b53fe67" y="578.16"/>
    </g>
   </g>
   <g id="Poly3DCollection_10">
    <defs>
     <path d="M 464.802036 -373.309248
L 463.800585 -334.575618
L 465.060756 -334.87589
L 466.073319 -373.606945
z
" id="mc0b409c656" style="stroke:#000000;"/>
    </defs>
    <g clip-path="url(#pa9e60f39fd)">
     <use style="fill-opacity:0.1;stroke:#000000;" x="0" xlink:href="#mc0b409c656" y="578.16"/>
    </g>
   </g>
   <g id="Poly3DCollection_11">
    <defs>
     <path d="M 464.983392 -372.676974
L 463.98005 -333.937876
L 463.800585 -334.575618
L 464.802036 -373.309248
z
" id="m7c5a10246a" style="stroke:#000000;"/>
    </defs>
    <g clip-path="url(#pa9e60f39fd)">
     <use style="fill-opacity:0.1;stroke:#000000;" x="0" xlink:href="#m7c5a10246a" y="578.16"/>
    </g>
   </g>
   <g id="Poly3DCollection_12">
    <defs>
     <path d="M 394.163467 -375.374932
L 393.787349 -336.659185
L 395.903286 -333.796854
L 396.298786 -372.537161
z
" id="m83fe9e6c47" style="stroke:#000000;"/>
    </defs>
    <g clip-path="url(#pa9e60f39fd)">
     <use style="fill-opacity:0.1;stroke:#000000;" x="0" xlink:href="#m83fe9e6c47" y="578.16"/>
    </g>
   </g>
   <g id="Poly3DCollection_13">
    <defs>
     <path d="M 396.298786 -372.537161
L 395.903286 -333.796854
L 397.688983 -334.224752
L 398.100349 -372.961391
z
" id="mbbb6167ae9" style="stroke:#000000;"/>
    </defs>
    <g clip-path="url(#pa9e60f39fd)">
     <use style="fill-opacity:0.1;stroke:#000000;" x="0" xlink:href="#mbbb6167ae9" y="578.16"/>
    </g>
   </g>
   <g id="Poly3DCollection_14">
    <defs>
     <path d="M 466.073319 -373.606945
L 465.060756 -334.87589
L 467.471383 -331.761094
L 468.506917 -370.518828
z
" id="m6dd3e83da5" style="stroke:#000000;"/>
    </defs>
    <g clip-path="url(#pa9e60f39fd)">
     <use style="fill-opacity:0.1;stroke:#000000;" x="0" xlink:href="#m6dd3e83da5" y="578.16"/>
    </g>
   </g>
   <g id="Poly3DCollection_15">
    <defs>
     <path d="M 468.506917 -370.518828
L 467.471383 -331.761094
L 490.043688 -337.266491
L 491.277898 -375.977019
z
" id="ma948a1c4ed" style="stroke:#000000;"/>
    </defs>
    <g clip-path="url(#pa9e60f39fd)">
     <use style="fill-opacity:0.1;stroke:#000000;" x="0" xlink:href="#ma948a1c4ed" y="578.16"/>
    </g>
   </g>
   <g id="Poly3DCollection_16">
    <defs>
     <path d="M 451.86862 -369.621859
L 450.980121 -330.856391
L 463.98005 -333.937876
L 464.983392 -372.676974
z
" id="ma6dfec33a6" style="stroke:#000000;"/>
    </defs>
    <g clip-path="url(#pa9e60f39fd)">
     <use style="fill-opacity:0.1;stroke:#000000;" x="0" xlink:href="#ma6dfec33a6" y="578.16"/>
    </g>
   </g>
   <g id="Poly3DCollection_17">
    <defs>
     <path d="M 452.118086 -369.299613
L 451.227247 -330.531367
L 450.980121 -330.856391
L 451.86862 -369.621859
z
" id="m46fb619368" style="stroke:#000000;"/>
    </defs>
    <g clip-path="url(#pa9e60f39fd)">
     <use style="fill-opacity:0.1;stroke:#000000;" x="0" xlink:href="#m46fb619368" y="578.16"/>
    </g>
   </g>
   <g id="Poly3DCollection_18">
    <defs>
     <path d="M 421.887375 -371.900025
L 421.26522 -333.154214
L 424.157314 -329.294196
L 424.806432 -368.073005
z
" id="mae1ff76225" style="stroke:#000000;"/>
    </defs>
    <g clip-path="url(#pa9e60f39fd)">
     <use style="fill-opacity:0.1;stroke:#000000;" x="0" xlink:href="#mae1ff76225" y="578.16"/>
    </g>
   </g>
   <g id="Poly3DCollection_19">
    <defs>
     <path d="M 424.806432 -368.073005
L 424.157314 -329.294196
L 422.400715 -328.869792
L 423.034236 -367.652221
z
" id="md8bf1a8e11" style="stroke:#000000;"/>
    </defs>
    <g clip-path="url(#pa9e60f39fd)">
     <use style="fill-opacity:0.1;stroke:#000000;" x="0" xlink:href="#md8bf1a8e11" y="578.16"/>
    </g>
   </g>
   <g id="Poly3DCollection_20">
    <defs>
     <path d="M 398.100349 -372.961391
L 397.688983 -334.224752
L 401.911717 -328.503182
L 402.361945 -367.288738
z
" id="m97d04aaa50" style="stroke:#000000;"/>
    </defs>
    <g clip-path="url(#pa9e60f39fd)">
     <use style="fill-opacity:0.1;stroke:#000000;" x="0" xlink:href="#m97d04aaa50" y="578.16"/>
    </g>
   </g>
   <g id="Poly3DCollection_21">
    <defs>
     <path d="M 402.361945 -367.288738
L 401.911717 -328.503182
L 421.26522 -333.154214
L 421.887375 -371.900025
z
" id="m82349f6443" style="stroke:#000000;"/>
    </defs>
    <g clip-path="url(#pa9e60f39fd)">
     <use style="fill-opacity:0.1;stroke:#000000;" x="0" xlink:href="#m82349f6443" y="578.16"/>
    </g>
   </g>
   <g id="Poly3DCollection_22">
    <defs>
     <path d="M 442.009464 -366.912385
L 441.207362 -328.123592
L 451.227247 -330.531367
L 452.118086 -369.299613
z
" id="m29def8232e" style="stroke:#000000;"/>
    </defs>
    <g clip-path="url(#pa9e60f39fd)">
     <use style="fill-opacity:0.1;stroke:#000000;" x="0" xlink:href="#m29def8232e" y="578.16"/>
    </g>
   </g>
   <g id="Poly3DCollection_23">
    <defs>
     <path d="M 442.810188 -365.853775
L 442.000594 -327.055886
L 441.207362 -328.123592
L 442.009464 -366.912385
z
" id="m3b91ab236b" style="stroke:#000000;"/>
    </defs>
    <g clip-path="url(#pa9e60f39fd)">
     <use style="fill-opacity:0.1;stroke:#000000;" x="0" xlink:href="#m3b91ab236b" y="578.16"/>
    </g>
   </g>
   <g id="Poly3DCollection_24">
    <defs>
     <path d="M 436.433958 -365.412923
L 435.680819 -326.611249
L 436.356169 -325.706699
L 437.115667 -364.51607
z
" id="m8d8f019363" style="stroke:#000000;"/>
    </defs>
    <g clip-path="url(#pa9e60f39fd)">
     <use style="fill-opacity:0.1;stroke:#000000;" x="0" xlink:href="#m8d8f019363" y="578.16"/>
    </g>
   </g>
   <g id="Poly3DCollection_25">
    <defs>
     <path d="M 437.115667 -364.51607
L 436.356169 -325.706699
L 442.000594 -327.055886
L 442.810188 -365.853775
z
" id="m756b34cc8a" style="stroke:#000000;"/>
    </defs>
    <g clip-path="url(#pa9e60f39fd)">
     <use style="fill-opacity:0.1;stroke:#000000;" x="0" xlink:href="#m756b34cc8a" y="578.16"/>
    </g>
   </g>
   <g id="Poly3DCollection_26">
    <defs>
     <path d="M 446.980437 -396.739614
L 454.502977 -387.152458
L 430.66039 -381.501267
L 424.757754 -389.143723
L 392.179852 -381.440648
L 396.356289 -375.900198
L 394.163467 -375.374932
L 396.298786 -372.537161
L 398.100349 -372.961391
L 402.361945 -367.288738
L 421.887375 -371.900025
L 424.806432 -368.073005
L 423.034236 -367.652221
L 426.508594 -363.072937
L 436.433958 -365.412923
L 437.115667 -364.51607
L 442.810188 -365.853775
L 442.009464 -366.912385
L 452.118086 -369.299613
L 451.86862 -369.621859
L 464.983392 -372.676974
L 464.802036 -373.309248
L 466.073319 -373.606945
L 468.506917 -370.518828
L 491.277898 -375.977019
L 497.30403 -377.418113
L 476.278641 -403.662236
z
" id="m5643df9280" style="stroke:#000000;"/>
    </defs>
    <g clip-path="url(#pa9e60f39fd)">
     <use style="fill-opacity:0.1;stroke:#000000;" x="0" xlink:href="#m5643df9280" y="578.16"/>
    </g>
   </g>
   <g id="Poly3DCollection_27">
    <defs>
     <path d="M 423.034236 -367.652221
L 422.400715 -328.869792
L 425.842884 -324.251197
L 426.508594 -363.072937
z
" id="mc4724fada9" style="stroke:#000000;"/>
    </defs>
    <g clip-path="url(#pa9e60f39fd)">
     <use style="fill-opacity:0.1;stroke:#000000;" x="0" xlink:href="#mc4724fada9" y="578.16"/>
    </g>
   </g>
   <g id="Poly3DCollection_28">
    <defs>
     <path d="M 426.508594 -363.072937
L 425.842884 -324.251197
L 435.680819 -326.611249
L 436.433958 -365.412923
z
" id="m217b8bb74b" style="stroke:#000000;"/>
    </defs>
    <g clip-path="url(#pa9e60f39fd)">
     <use style="fill-opacity:0.1;stroke:#000000;" x="0" xlink:href="#m217b8bb74b" y="578.16"/>
    </g>
   </g>
   <g id="Poly3DCollection_29">
    <defs>
     <path d="M 267.355711 -281.744354
L 268.132008 -242.252846
L 257.799023 -239.723406
L 256.925681 -279.234727
z
" id="ma2d17bbb86" style="stroke:#000000;"/>
    </defs>
    <g clip-path="url(#pa9e60f39fd)">
     <use style="fill-opacity:0.1;stroke:#000000;" x="0" xlink:href="#ma2d17bbb86" y="578.16"/>
    </g>
   </g>
   <g id="Poly3DCollection_30">
    <defs>
     <path d="M 256.925681 -279.234727
L 257.799023 -239.723406
L 247.082747 -237.163046
L 246.108563 -276.69437
z
" id="m2c37194e36" style="stroke:#000000;"/>
    </defs>
    <g clip-path="url(#pa9e60f39fd)">
     <use style="fill-opacity:0.1;stroke:#000000;" x="0" xlink:href="#m2c37194e36" y="578.16"/>
    </g>
   </g>
   <g id="Poly3DCollection_31">
    <defs>
     <path d="M 246.108563 -276.69437
L 247.082747 -237.163046
L 245.874679 -238.81897
L 244.889943 -278.337362
z
" id="m33cd490026" style="stroke:#000000;"/>
    </defs>
    <g clip-path="url(#pa9e60f39fd)">
     <use style="fill-opacity:0.1;stroke:#000000;" x="0" xlink:href="#m33cd490026" y="578.16"/>
    </g>
   </g>
   <g id="Poly3DCollection_32">
    <defs>
     <path d="M 244.889943 -278.337362
L 245.874679 -238.81897
L 225.185928 -233.678678
L 224.005895 -273.23714
z
" id="mf05512f75a" style="stroke:#000000;"/>
    </defs>
    <g clip-path="url(#pa9e60f39fd)">
     <use style="fill-opacity:0.1;stroke:#000000;" x="0" xlink:href="#mf05512f75a" y="578.16"/>
    </g>
   </g>
   <g id="Poly3DCollection_33">
    <defs>
     <path d="M 224.005895 -273.23714
L 225.185928 -233.678678
L 226.919182 -230.664368
L 225.75381 -270.246229
z
" id="mb41f7295cf" style="stroke:#000000;"/>
    </defs>
    <g clip-path="url(#pa9e60f39fd)">
     <use style="fill-opacity:0.1;stroke:#000000;" x="0" xlink:href="#mb41f7295cf" y="578.16"/>
    </g>
   </g>
   <g id="Poly3DCollection_34">
    <defs>
     <path d="M 277.984449 -266.045109
L 278.667435 -226.430503
L 268.132008 -242.252846
L 267.355711 -281.744354
z
" id="mc6245ea8e7" style="stroke:#000000;"/>
    </defs>
    <g clip-path="url(#pa9e60f39fd)">
     <use style="fill-opacity:0.1;stroke:#000000;" x="0" xlink:href="#mc6245ea8e7" y="578.16"/>
    </g>
   </g>
   <g id="Poly3DCollection_35">
    <defs>
     <path d="M 225.75381 -270.246229
L 226.919182 -230.664368
L 204.697717 -225.145798
L 203.321393 -264.770312
z
" id="m5cd9a802d9" style="stroke:#000000;"/>
    </defs>
    <g clip-path="url(#pa9e60f39fd)">
     <use style="fill-opacity:0.1;stroke:#000000;" x="0" xlink:href="#m5cd9a802d9" y="578.16"/>
    </g>
   </g>
   <g id="Poly3DCollection_36">
    <defs>
     <path d="M 203.321393 -264.770312
L 204.697717 -225.145798
L 195.848792 -222.793716
L 194.388091 -262.436336
z
" id="mfb4154ae58" style="stroke:#000000;"/>
    </defs>
    <g clip-path="url(#pa9e60f39fd)">
     <use style="fill-opacity:0.1;stroke:#000000;" x="0" xlink:href="#mfb4154ae58" y="578.16"/>
    </g>
   </g>
   <g id="Poly3DCollection_37">
    <defs>
     <path d="M 194.388091 -262.436336
L 195.848792 -222.793716
L 196.461887 -221.650652
L 195.006219 -261.302055
z
" id="mef5e65840c" style="stroke:#000000;"/>
    </defs>
    <g clip-path="url(#pa9e60f39fd)">
     <use style="fill-opacity:0.1;stroke:#000000;" x="0" xlink:href="#mef5e65840c" y="578.16"/>
    </g>
   </g>
   <g id="Poly3DCollection_38">
    <defs>
     <path d="M 195.006219 -261.302055
L 196.461887 -221.650652
L 195.260751 -221.119564
L 193.793479 -260.775044
z
" id="m706437cb35" style="stroke:#000000;"/>
    </defs>
    <g clip-path="url(#pa9e60f39fd)">
     <use style="fill-opacity:0.1;stroke:#000000;" x="0" xlink:href="#m706437cb35" y="578.16"/>
    </g>
   </g>
   <g id="Poly3DCollection_39">
    <defs>
     <path d="M 193.793479 -260.775044
L 195.260751 -221.119564
L 194.620028 -220.236124
L 193.146184 -259.898382
z
" id="mb5ceebf62e" style="stroke:#000000;"/>
    </defs>
    <g clip-path="url(#pa9e60f39fd)">
     <use style="fill-opacity:0.1;stroke:#000000;" x="0" xlink:href="#mb5ceebf62e" y="578.16"/>
    </g>
   </g>
   <g id="Poly3DCollection_40">
    <defs>
     <path d="M 193.146184 -259.898382
L 194.620028 -220.236124
L 198.85753 -212.849002
L 197.418911 -252.567688
z
" id="m898dcd4581" style="stroke:#000000;"/>
    </defs>
    <g clip-path="url(#pa9e60f39fd)">
     <use style="fill-opacity:0.1;stroke:#000000;" x="0" xlink:href="#m898dcd4581" y="578.16"/>
    </g>
   </g>
   <g id="Poly3DCollection_41">
    <defs>
     <path d="M 197.418911 -252.567688
L 198.85753 -212.849002
L 200.528429 -212.170374
L 199.105133 -251.894222
z
" id="mbba7d71ecf" style="stroke:#000000;"/>
    </defs>
    <g clip-path="url(#pa9e60f39fd)">
     <use style="fill-opacity:0.1;stroke:#000000;" x="0" xlink:href="#mbba7d71ecf" y="578.16"/>
    </g>
   </g>
   <g id="Poly3DCollection_42">
    <defs>
     <path d="M 199.105133 -251.894222
L 200.528429 -212.170374
L 201.345703 -211.321286
L 199.929591 -251.051588
z
" id="m8cf92157b9" style="stroke:#000000;"/>
    </defs>
    <g clip-path="url(#pa9e60f39fd)">
     <use style="fill-opacity:0.1;stroke:#000000;" x="0" xlink:href="#m8cf92157b9" y="578.16"/>
    </g>
   </g>
   <g id="Poly3DCollection_43">
    <defs>
     <path d="M 199.929591 -251.051588
L 201.345703 -211.321286
L 201.948158 -211.674704
L 200.537937 -251.40232
z
" id="mec2920532c" style="stroke:#000000;"/>
    </defs>
    <g clip-path="url(#pa9e60f39fd)">
     <use style="fill-opacity:0.1;stroke:#000000;" x="0" xlink:href="#mec2920532c" y="578.16"/>
    </g>
   </g>
   <g id="Poly3DCollection_44">
    <defs>
     <path d="M 200.537937 -251.40232
L 201.948158 -211.674704
L 202.805515 -211.222514
L 201.4031 -250.953566
z
" id="m3736055802" style="stroke:#000000;"/>
    </defs>
    <g clip-path="url(#pa9e60f39fd)">
     <use style="fill-opacity:0.1;stroke:#000000;" x="0" xlink:href="#m3736055802" y="578.16"/>
    </g>
   </g>
   <g id="Poly3DCollection_45">
    <defs>
     <path d="M 201.4031 -250.953566
L 202.805515 -211.222514
L 204.450246 -207.759855
L 203.061274 -247.517164
z
" id="me87ffcb188" style="stroke:#000000;"/>
    </defs>
    <g clip-path="url(#pa9e60f39fd)">
     <use style="fill-opacity:0.1;stroke:#000000;" x="0" xlink:href="#me87ffcb188" y="578.16"/>
    </g>
   </g>
   <g id="Poly3DCollection_46">
    <defs>
     <path d="M 203.061274 -247.517164
L 204.450246 -207.759855
L 205.917421 -205.456584
L 204.540942 -245.231305
z
" id="mb0f2d34a2c" style="stroke:#000000;"/>
    </defs>
    <g clip-path="url(#pa9e60f39fd)">
     <use style="fill-opacity:0.1;stroke:#000000;" x="0" xlink:href="#mb0f2d34a2c" y="578.16"/>
    </g>
   </g>
   <g id="Poly3DCollection_47">
    <defs>
     <path d="M 217.672458 -182.239427
L 552.431199 -266.645946
L 475.27863 -365.215908
L 152.659238 -288.007943
z
" id="m650fc20240" style="stroke:#000000;"/>
    </defs>
    <g clip-path="url(#pa9e60f39fd)">
     <use style="fill-opacity:0.1;stroke:#000000;" x="0" xlink:href="#m650fc20240" y="578.16"/>
    </g>
   </g>
   <g id="Poly3DCollection_48">
    <defs>
     <path d="M 295.468253 -241.788517
L 295.994496 -201.987651
L 278.667435 -226.430503
L 277.984449 -266.045109
z
" id="m44e4b9e61e" style="stroke:#000000;"/>
    </defs>
    <g clip-path="url(#pa9e60f39fd)">
     <use style="fill-opacity:0.1;stroke:#000000;" x="0" xlink:href="#m44e4b9e61e" y="578.16"/>
    </g>
   </g>
   <g id="Poly3DCollection_49">
    <defs>
     <path d="M 204.540942 -245.231305
L 205.917421 -205.456584
L 210.951096 -199.71346
L 209.618911 -239.531415
z
" id="m3479e6b50c" style="stroke:#000000;"/>
    </defs>
    <g clip-path="url(#pa9e60f39fd)">
     <use style="fill-opacity:0.1;stroke:#000000;" x="0" xlink:href="#m3479e6b50c" y="578.16"/>
    </g>
   </g>
   <g id="Poly3DCollection_50">
    <defs>
     <path d="M 282.659596 -238.859232
L 283.306699 -199.036196
L 295.994496 -201.987651
L 295.468253 -241.788517
z
" id="mc1474714d1" style="stroke:#000000;"/>
    </defs>
    <g clip-path="url(#pa9e60f39fd)">
     <use style="fill-opacity:0.1;stroke:#000000;" x="0" xlink:href="#mc1474714d1" y="578.16"/>
    </g>
   </g>
   <g id="Poly3DCollection_51">
    <defs>
     <path d="M 209.618911 -239.531415
L 210.951096 -199.71346
L 215.192084 -196.701757
L 213.898406 -236.542279
z
" id="m2ccfc265a7" style="stroke:#000000;"/>
    </defs>
    <g clip-path="url(#pa9e60f39fd)">
     <use style="fill-opacity:0.1;stroke:#000000;" x="0" xlink:href="#m2ccfc265a7" y="578.16"/>
    </g>
   </g>
   <g id="Poly3DCollection_52">
    <defs>
     <path d="M 213.898406 -236.542279
L 215.192084 -196.701757
L 213.874849 -196.279825
L 212.568445 -236.123503
z
" id="m084e73b435" style="stroke:#000000;"/>
    </defs>
    <g clip-path="url(#pa9e60f39fd)">
     <use style="fill-opacity:0.1;stroke:#000000;" x="0" xlink:href="#m084e73b435" y="578.16"/>
    </g>
   </g>
   <g id="Poly3DCollection_53">
    <defs>
     <path d="M 212.568445 -236.123503
L 213.874849 -196.279825
L 215.580746 -193.492369
L 214.288991 -233.356861
z
" id="m32591956c8" style="stroke:#000000;"/>
    </defs>
    <g clip-path="url(#pa9e60f39fd)">
     <use style="fill-opacity:0.1;stroke:#000000;" x="0" xlink:href="#m32591956c8" y="578.16"/>
    </g>
   </g>
   <g id="Poly3DCollection_54">
    <defs>
     <path d="M 214.288991 -233.356861
L 215.580746 -193.492369
L 217.784521 -193.966432
L 216.513949 -233.827388
z
" id="m4500579abd" style="stroke:#000000;"/>
    </defs>
    <g clip-path="url(#pa9e60f39fd)">
     <use style="fill-opacity:0.1;stroke:#000000;" x="0" xlink:href="#m4500579abd" y="578.16"/>
    </g>
   </g>
   <g id="Poly3DCollection_55">
    <defs>
     <path d="M 216.513949 -233.827388
L 217.784521 -193.966432
L 218.964271 -192.002066
L 217.703848 -231.87766
z
" id="m1d31c2d3bb" style="stroke:#000000;"/>
    </defs>
    <g clip-path="url(#pa9e60f39fd)">
     <use style="fill-opacity:0.1;stroke:#000000;" x="0" xlink:href="#m1d31c2d3bb" y="578.16"/>
    </g>
   </g>
   <g id="Poly3DCollection_56">
    <defs>
     <path d="M 277.984449 -266.045109
L 267.355711 -281.744354
L 256.925681 -279.234727
L 246.108563 -276.69437
L 244.889943 -278.337362
L 224.005895 -273.23714
L 225.75381 -270.246229
L 203.321393 -264.770312
L 194.388091 -262.436336
L 195.006219 -261.302055
L 193.793479 -260.775044
L 193.146184 -259.898382
L 197.418911 -252.567688
L 199.105133 -251.894222
L 199.929591 -251.051588
L 200.537937 -251.40232
L 201.4031 -250.953566
L 203.061274 -247.517164
L 204.540942 -245.231305
L 209.618911 -239.531415
L 213.898406 -236.542279
L 212.568445 -236.123503
L 214.288991 -233.356861
L 216.513949 -233.827388
L 217.703848 -231.87766
L 222.38683 -224.106125
L 282.659596 -238.859232
L 295.468253 -241.788517
z
" id="m5673e91a10" style="stroke:#000000;"/>
    </defs>
    <g clip-path="url(#pa9e60f39fd)">
     <use style="fill-opacity:0.1;stroke:#000000;" x="0" xlink:href="#m5673e91a10" y="578.16"/>
    </g>
   </g>
   <g id="Poly3DCollection_57">
    <defs>
     <path d="M 217.703848 -231.87766
L 218.964271 -192.002066
L 223.607184 -184.172492
L 222.38683 -224.106125
z
" id="mb20699c176" style="stroke:#000000;"/>
    </defs>
    <g clip-path="url(#pa9e60f39fd)">
     <use style="fill-opacity:0.1;stroke:#000000;" x="0" xlink:href="#mb20699c176" y="578.16"/>
    </g>
   </g>
   <g id="Poly3DCollection_58">
    <defs>
     <path d="M 222.38683 -224.106125
L 223.607184 -184.172492
L 283.306699 -199.036196
L 282.659596 -238.859232
z
" id="mae8bc58003" style="stroke:#000000;"/>
    </defs>
    <g clip-path="url(#pa9e60f39fd)">
     <use style="fill-opacity:0.1;stroke:#000000;" x="0" xlink:href="#mae8bc58003" y="578.16"/>
    </g>
   </g>
  </g>
 </g>
 <defs>
  <clipPath id="pa9e60f39fd">
   <rect height="578.16" width="578.16" x="54.72" y="0"/>
  </clipPath>
 </defs>
</svg>
